<svg width="124" height="100" viewBox="0 0 124 100" fill="none" xmlns="http://www.w3.org/2000/svg">
<g id="undraw_my_app_re_gxtj 1" clip-path="url(#clip0_55_6058)">
<g id="Group 6">
<path id="Path 80" d="M119.022 0.000141316H81.8436C80.0495 5.34488e-05 78.3087 0.610396 76.9074 1.73084C75.5062 2.85128 74.5279 4.41514 74.1332 6.16533L55.3478 89.4909C55.1429 90.3997 55.1393 91.3424 55.3372 92.2528C55.5352 93.1632 55.9299 94.0193 56.4936 94.7611C57.0574 95.5028 57.7766 96.1123 58.6008 96.5466C59.425 96.981 60.3343 97.2299 61.2648 97.2757L99.4852 99.1588C101.532 99.2596 103.545 98.6124 105.149 97.3378C106.754 96.0633 107.84 94.2485 108.204 92.2322L118.861 33.3203L119.654 33.5468L121.694 22.3807L120.878 22.1767L123.852 5.73222C123.98 5.02785 123.95 4.30403 123.766 3.61236C123.582 2.9207 123.247 2.27822 122.786 1.73075C122.325 1.18327 121.748 0.744271 121.098 0.445052C120.448 0.145832 119.74 -0.00623951 119.024 -0.000321978L119.022 0.000141316Z" fill="#3F3D56"/>
<path id="Path 81" d="M86.7368 1.79639H82.3974C81.1511 1.7964 79.9423 2.22265 78.9716 3.00437C78.0009 3.78609 77.3267 4.87627 77.061 6.09394L59.029 88.7396C58.9252 89.2155 58.9252 89.7081 59.0292 90.1839C59.1332 90.6597 59.3387 91.1075 59.6317 91.4966C59.9246 91.8857 60.2981 92.207 60.7266 92.4385C61.1551 92.67 61.6285 92.8063 62.1146 92.838L100.211 95.335C101.285 95.4054 102.348 95.0777 103.197 94.4143C104.046 93.7509 104.62 92.7983 104.811 91.7383L120.198 6.31598C120.297 5.7631 120.274 5.1951 120.13 4.65206C119.987 4.10903 119.725 3.6042 119.365 3.17318C119.005 2.74217 118.554 2.39549 118.045 2.1576C117.536 1.9197 116.981 1.7964 116.42 1.79639H112.303C111.904 1.79638 111.517 1.92772 111.201 2.1701C110.884 2.41247 110.657 2.75235 110.553 3.13712C110.462 3.47692 110.261 3.77707 109.981 3.99108C109.702 4.20509 109.36 4.321 109.008 4.32087H89.4636C88.7747 4.32085 88.1112 4.06084 87.6056 3.59282C87.1001 3.1248 86.7899 2.48325 86.7368 1.79639Z" fill="white"/>
<path id="Path 93" d="M107.796 59.5725C107.87 59.5751 107.943 59.5509 108 59.5044C108.058 59.458 108.097 59.3923 108.111 59.3194L116.535 12.8229C116.543 12.7787 116.542 12.7333 116.531 12.6898C116.519 12.6463 116.499 12.6057 116.471 12.5707C116.443 12.5361 116.408 12.508 116.367 12.4886C116.327 12.4691 116.284 12.4587 116.239 12.4581L77.91 12.0054H77.9064C77.8368 12.006 77.7695 12.0302 77.7154 12.074C77.6614 12.1179 77.6239 12.1788 77.609 12.2467L67.6773 57.2341C67.6676 57.278 67.6675 57.3235 67.677 57.3674C67.6865 57.4114 67.7053 57.4527 67.7323 57.4887C67.759 57.5244 67.7932 57.5538 67.8326 57.5747C67.8719 57.5957 67.9154 57.6077 67.9599 57.61L107.796 59.5725Z" fill="#E6E6E6"/>
<path id="Path 94" d="M74.5348 62.5791C74.5 62.5791 74.4661 62.591 74.4389 62.6126C74.4116 62.6343 74.3924 62.6646 74.3845 62.6985L74.0255 64.2369C74.0205 64.2586 74.0201 64.2812 74.0246 64.3031C74.0291 64.325 74.0383 64.3456 74.0515 64.3636C74.0647 64.3816 74.0816 64.3965 74.1012 64.4073C74.1207 64.4181 74.1423 64.4245 74.1646 64.4262L94.4417 65.8674C94.4794 65.8697 94.5166 65.8584 94.5465 65.8355C94.5764 65.8126 94.597 65.7796 94.6045 65.7427L94.9496 63.9628C94.9538 63.9412 94.9533 63.919 94.9482 63.8976C94.9431 63.8762 94.9335 63.8561 94.92 63.8387C94.9065 63.8214 94.8895 63.8071 94.87 63.7968C94.8506 63.7865 94.8291 63.7805 94.8072 63.7792L74.5443 62.5794L74.5348 62.5791Z" fill="#E6E6E6"/>
<path id="Path 95" d="M99.1696 71.5811C99.2061 71.5841 99.2426 71.5739 99.2723 71.5524C99.3021 71.531 99.3232 71.4996 99.332 71.464L99.7714 69.6804C99.7768 69.6586 99.7773 69.6358 99.773 69.6137C99.7687 69.5916 99.7596 69.5707 99.7463 69.5525C99.7331 69.5343 99.716 69.5192 99.6963 69.5083C99.6766 69.4974 99.6548 69.4909 99.6323 69.4893L73.7372 67.6782C73.702 67.6754 73.667 67.6849 73.638 67.7049C73.609 67.725 73.5879 67.7545 73.5782 67.7884L73.1216 69.3297C73.1151 69.3517 73.1135 69.3749 73.1171 69.3976C73.1207 69.4203 73.1293 69.4419 73.1423 69.4609C73.1553 69.4798 73.1724 69.4956 73.1923 69.5071C73.2121 69.5187 73.2343 69.5256 73.2572 69.5275L99.1696 71.5811Z" fill="#E6E6E6"/>
<path id="Path 96" d="M97.7789 77.2984C97.8155 77.3013 97.8519 77.2912 97.8817 77.2697C97.9114 77.2483 97.9326 77.2169 97.9413 77.1813L98.3808 75.3977C98.3862 75.3759 98.3867 75.3531 98.3824 75.331C98.3781 75.3089 98.369 75.288 98.3557 75.2698C98.3425 75.2516 98.3254 75.2365 98.3057 75.2256C98.286 75.2147 98.2642 75.2082 98.2417 75.2066L72.3465 73.3955C72.3114 73.3927 72.2764 73.4021 72.2474 73.4222C72.2184 73.4423 72.1973 73.4718 72.1875 73.5057L71.7309 75.047C71.7244 75.069 71.7229 75.0922 71.7265 75.1149C71.7301 75.1376 71.7387 75.1592 71.7517 75.1781C71.7647 75.1971 71.7818 75.2129 71.8016 75.2244C71.8215 75.2359 71.8437 75.2429 71.8666 75.2448L97.7789 77.2984Z" fill="#E6E6E6"/>
<path id="Path 79" d="M52.8825 97.4256C52.8825 98.7187 41.0457 98.8564 26.4774 99.7669C11.9219 100.677 0.0722656 98.7187 0.0722656 97.4256C0.0722656 96.1324 11.9773 93.5307 26.4774 95.0842C41.0457 96.6451 52.8825 96.1324 52.8825 97.4256Z" fill="#E6E6E6"/>
<path id="Path 97" d="M85.8528 87.0717C85.8897 87.0755 85.9267 87.0658 85.957 87.0444C85.9872 87.023 86.0086 86.9913 86.0172 86.9552L86.9463 83.2389C86.9518 83.2172 86.9525 83.1946 86.9483 83.1725C86.9441 83.1505 86.9352 83.1297 86.9222 83.1115C86.9092 83.0933 86.8923 83.0781 86.8729 83.067C86.8534 83.0559 86.8318 83.0492 86.8094 83.0473L70.9073 81.7098C70.8701 81.7073 70.8333 81.718 70.8033 81.74C70.7733 81.7621 70.7521 81.794 70.7435 81.8302L69.951 85.3969C69.9462 85.4183 69.946 85.4405 69.9505 85.462C69.955 85.4834 69.964 85.5037 69.9769 85.5214C69.9898 85.5392 70.0063 85.5539 70.0254 85.5648C70.0444 85.5756 70.0656 85.5823 70.0874 85.5843L85.8528 87.0717Z" fill="#6AB166"/>
<path id="Path 111" d="M21.6434 71.9283C21.8436 71.7911 22.0114 71.6117 22.1347 71.4026C22.2581 71.1936 22.3341 70.96 22.3574 70.7184C22.3807 70.4768 22.3507 70.233 22.2696 70.0042C22.1885 69.7754 22.0582 69.5672 21.8878 69.3943L22.5317 55.0215L19.2537 55.3894L19.4442 69.448C19.1723 69.7532 19.0219 70.1475 19.0215 70.5562C19.021 70.9649 19.1706 71.3596 19.4418 71.6654C19.713 71.9711 20.087 72.1667 20.4928 72.2151C20.8986 72.2634 21.3081 72.1612 21.6436 71.9277L21.6434 71.9283Z" fill="#A0616A"/>
<path id="Path 112" d="M27.625 96.2579L29.4908 96.586L31.3348 89.5456L28.8902 89.0615L27.625 96.2579Z" fill="#A0616A"/>
<path id="Path 113" d="M32.7852 98.951L26.9215 97.9201L27.3197 95.6548L30.9179 96.2873C31.5188 96.393 32.0531 96.733 32.4032 97.2325C32.7534 97.7321 32.8908 98.3503 32.7852 98.9512L32.7852 98.951Z" fill="#2F2E41"/>
<path id="Path 114" d="M22.5042 97.192H24.3986L25.2997 89.8853H22.5039L22.5042 97.192Z" fill="#A0616A"/>
<path id="Path 115" d="M28.0508 98.9512L22.0971 98.9515L22.097 96.6512L25.7504 96.651C26.3604 96.651 26.9455 96.8933 27.377 97.3247C27.8084 97.756 28.0507 98.3411 28.0508 98.9512Z" fill="#2F2E41"/>
<path id="Path 116" d="M30.4074 94.5732C30.3778 94.5732 30.3483 94.5714 30.319 94.5679L28.0893 94.3845C27.9878 94.3726 27.8898 94.3401 27.8012 94.2891C27.7126 94.2381 27.6353 94.1697 27.574 94.0879C27.5127 94.0061 27.4686 93.9127 27.4445 93.8134C27.4204 93.7141 27.4167 93.6109 27.4337 93.5101L29.6471 82.5887L28.2565 75.2532C28.2452 75.1936 28.2127 75.1401 28.165 75.1026C28.1173 75.0651 28.0576 75.0461 27.997 75.0491C27.9364 75.0521 27.879 75.0769 27.8353 75.119C27.7915 75.1611 27.7645 75.2175 27.7591 75.278L25.7101 93.9168C25.691 94.1131 25.5963 94.2944 25.4461 94.4223C25.2959 94.5502 25.1019 94.6147 24.905 94.6024L22.8044 94.5242C22.6203 94.5111 22.4474 94.4311 22.3183 94.2993C22.1892 94.1674 22.1128 93.9929 22.1035 93.8086L22.2713 71.2851L33.1618 69.9238L33.9226 81.6734L33.9195 81.6859L31.1396 93.997C31.0996 94.1611 31.0057 94.307 30.873 94.4115C30.7402 94.5159 30.5763 94.5729 30.4074 94.5732Z" fill="#2F2E41"/>
<path id="Ellipse 16" d="M25.8615 45.7083C27.9574 45.7083 29.6565 44.0092 29.6565 41.9132C29.6565 39.8173 27.9574 38.1182 25.8615 38.1182C23.7655 38.1182 22.0664 39.8173 22.0664 41.9132C22.0664 44.0092 23.7655 45.7083 25.8615 45.7083Z" fill="#A0616A"/>
<path id="Path 117" d="M29.4377 72.9989C28.8441 73.0024 28.262 72.8359 27.7601 72.519C25.9213 71.37 23.8337 71.8266 22.7527 72.2012C22.6454 72.2387 22.531 72.2516 22.4181 72.2387C22.3051 72.2258 22.1966 72.1876 22.1005 72.1268C22.0055 72.0672 21.9253 71.9868 21.8658 71.8918C21.8062 71.7967 21.769 71.6895 21.7568 71.578L19.7912 54.0211C19.4618 51.0794 21.2338 48.3137 24.0046 47.4449C24.1087 47.4122 24.2146 47.3813 24.3221 47.3522C25.1843 47.1184 26.0873 47.0765 26.9675 47.2292C27.8477 47.382 28.6838 47.7258 29.4168 48.2365C30.1635 48.7527 30.788 49.4264 31.2463 50.21C31.7046 50.9936 31.9855 51.8681 32.0694 52.772L33.7244 70.4466C33.7357 70.561 33.7202 70.6765 33.6793 70.784C33.6384 70.8914 33.573 70.9879 33.4885 71.0658C32.9081 71.6022 31.2242 72.9988 29.4377 72.9989Z" fill="#D6BC6A"/>
<path id="Path 118" d="M23.4519 57.7859L19.0173 57.2983C18.8911 57.2844 18.7694 57.2435 18.6604 57.1783C18.5515 57.1132 18.4579 57.0253 18.3859 56.9207C18.314 56.8161 18.2655 56.6972 18.2436 56.5721C18.2218 56.447 18.2272 56.3187 18.2594 56.1959L19.3883 51.8933C19.4216 51.5708 19.5184 51.2581 19.6732 50.9732C19.828 50.6884 20.0378 50.4371 20.2903 50.2338C20.5429 50.0305 20.8332 49.8792 21.1445 49.7888C21.4559 49.6984 21.782 49.6705 22.1042 49.7069C22.4264 49.7433 22.7381 49.8431 23.0214 50.0007C23.3048 50.1583 23.5541 50.3705 23.7549 50.6249C23.9558 50.8794 24.1042 51.1712 24.1916 51.4834C24.279 51.7956 24.3037 52.122 24.2642 52.4438L24.4319 56.8746C24.4367 57.0015 24.4141 57.1279 24.3656 57.2453C24.3171 57.3626 24.2439 57.4681 24.151 57.5547C24.058 57.6412 23.9475 57.7067 23.827 57.7466C23.7065 57.7866 23.5788 57.8001 23.4525 57.7862L23.4519 57.7859Z" fill="#D6BC6A"/>
<path id="Path 119" d="M33.7058 71.3125C33.8879 71.1522 34.0327 70.9538 34.1299 70.7315C34.2271 70.5091 34.2744 70.2682 34.2684 70.0256C34.2625 69.783 34.2034 69.5446 34.0953 69.3274C33.9872 69.1101 33.8329 68.9191 33.643 68.7679L32.5501 54.4224L29.3379 55.1455L31.223 69.1159C30.9899 69.4516 30.8881 69.8612 30.9369 70.267C30.9857 70.6728 31.1817 71.0465 31.4878 71.3174C31.7939 71.5882 32.1887 71.7374 32.5974 71.7365C33.0061 71.7356 33.4003 71.5847 33.7051 71.3125H33.7058Z" fill="#A0616A"/>
<path id="Path 120" d="M28.1077 56.8843C28.0147 56.7978 27.9415 56.6923 27.893 56.575C27.8446 56.4577 27.822 56.3312 27.8268 56.2044L27.9945 51.7736C27.9583 51.4535 27.9856 51.1293 28.0747 50.8197C28.1638 50.5101 28.313 50.2211 28.5139 49.9691C28.7147 49.7172 28.9632 49.5072 29.2451 49.3513C29.5271 49.1954 29.837 49.0966 30.1571 49.0604C30.4773 49.0243 30.8014 49.0515 31.1111 49.1407C31.4207 49.2298 31.7097 49.379 31.9617 49.5798C32.2136 49.7806 32.4235 50.0291 32.5794 50.3111C32.7354 50.593 32.8342 50.9029 32.8704 51.2231L33.9993 55.5258C34.0315 55.6485 34.0369 55.7768 34.015 55.9019C33.9932 56.027 33.9447 56.1459 33.8727 56.2505C33.8008 56.3551 33.7072 56.443 33.5982 56.5081C33.4893 56.5733 33.3676 56.6142 33.2414 56.6281L28.8068 57.1157C28.6805 57.1296 28.5528 57.1161 28.4322 57.0761C28.3117 57.0361 28.2012 56.9706 28.1083 56.8839L28.1077 56.8843Z" fill="#D6BC6A"/>
<path id="Path 121" d="M25.6356 45.8511C25.5679 45.8511 25.5005 45.8433 25.4347 45.8278L25.4154 45.8231C22.0788 45.3132 21.3413 43.3799 21.1795 42.5729C21.012 41.7373 21.2027 40.9307 21.6338 40.6173C21.3987 39.8757 21.4364 39.2173 21.7461 38.6609C22.2869 37.6905 23.4583 37.3629 23.6157 37.3221C24.5518 36.6316 25.6717 37.0925 25.8755 37.186C27.6863 36.5162 28.3787 37.0737 28.5035 37.1982C29.3129 37.3436 29.8063 37.6562 29.9701 38.1278C30.2777 39.0133 29.3049 40.1149 29.2633 40.1614L29.2417 40.1855L27.7923 40.2545C27.6548 40.2611 27.5202 40.2965 27.3972 40.3584C27.2742 40.4204 27.1657 40.5075 27.0785 40.6141C26.9914 40.7207 26.9276 40.8444 26.8914 40.9772C26.8551 41.1101 26.8472 41.249 26.8681 41.3851C26.9074 41.5607 26.9569 41.7338 27.0165 41.9035C27.2637 42.677 27.4491 43.3379 27.2102 43.5891C27.1561 43.6377 27.0893 43.6701 27.0175 43.6826C26.9458 43.695 26.872 43.687 26.8046 43.6595C26.578 43.5989 26.4242 43.6116 26.3476 43.6973C26.2286 43.83 26.2649 44.1663 26.4499 44.6437C26.5079 44.7947 26.5235 44.9587 26.495 45.118C26.4665 45.2772 26.395 45.4256 26.2882 45.5472C26.2078 45.642 26.1078 45.7183 25.9951 45.7708C25.8824 45.8232 25.7596 45.8506 25.6353 45.8511H25.6356Z" fill="#2F2E41"/>
</g>
</g>
<defs>
<clipPath id="clip0_55_6058">
<rect width="123.856" height="100" fill="white" transform="translate(0.0722656)"/>
</clipPath>
</defs>
</svg>
