<svg width="100" height="80" viewBox="0 0 100 80" fill="none" xmlns="http://www.w3.org/2000/svg">
<g clip-path="url(#clip0_2609_13900)">
<path d="M95.1596 1.53964e-05H65.4165C63.9812 -5.48972e-05 62.5886 0.488219 61.4676 1.38457C60.3466 2.28092 59.5639 3.53201 59.2482 4.93217L44.2199 71.5926C44.0559 72.3197 44.053 73.0738 44.2114 73.8022C44.3697 74.5305 44.6855 75.2154 45.1365 75.8088C45.5875 76.4022 46.1629 76.8897 46.8223 77.2372C47.4816 77.5847 48.209 77.7838 48.9535 77.8205L79.5297 79.3269C81.167 79.4076 82.7777 78.8898 84.0612 77.8701C85.3447 76.8505 86.2134 75.3987 86.5052 73.7856L95.0308 26.6561L95.665 26.8373L97.2967 17.9045L96.6439 17.7413L99.0236 4.58568C99.1256 4.02218 99.102 3.44312 98.9545 2.88979C98.807 2.33646 98.5392 1.82248 98.1703 1.3845C97.8014 0.946517 97.3404 0.595319 96.8202 0.355944C96.2999 0.116568 95.7333 -0.00508927 95.1607 -0.000355238L95.1596 1.53964e-05Z" fill="#3F3D56"/>
<path d="M69.3321 1.43701H65.8605C64.8635 1.43702 63.8964 1.77802 63.1198 2.4034C62.3433 3.02878 61.804 3.90092 61.5914 4.87505L47.1658 70.9916C47.0827 71.3723 47.0828 71.7664 47.166 72.147C47.2492 72.5277 47.4136 72.8859 47.6479 73.1972C47.8823 73.5085 48.1811 73.7655 48.5239 73.9507C48.8667 74.1359 49.2454 74.2449 49.6342 74.2703L80.1111 76.2679C80.9709 76.3242 81.8214 76.0621 82.5002 75.5313C83.179 75.0006 83.6386 74.2386 83.7914 73.3905L96.1008 5.05269C96.1804 4.61038 96.1621 4.15598 96.0469 3.72155C95.9318 3.28713 95.7228 2.88326 95.4345 2.53845C95.1463 2.19364 94.7858 1.91629 94.3787 1.72598C93.9716 1.53566 93.5276 1.43702 93.0782 1.43701H89.7848C89.466 1.437 89.1561 1.54208 88.9031 1.73598C88.6501 1.92988 88.468 2.20179 88.3851 2.5096C88.3119 2.78144 88.1511 3.02156 87.9277 3.19277C87.7042 3.36397 87.4305 3.4567 87.149 3.4566H71.5134C70.9623 3.45658 70.4315 3.24858 70.0271 2.87416C69.6227 2.49975 69.3745 1.9865 69.3321 1.43701Z" fill="white"/>
<path d="M86.1799 47.6582C86.2392 47.6602 86.2972 47.6409 86.3434 47.6037C86.3896 47.5666 86.4209 47.5141 86.4316 47.4557L93.1714 10.2585C93.1778 10.2232 93.1765 10.1868 93.1676 10.152C93.1587 10.1172 93.1424 10.0847 93.1198 10.0568C93.0974 10.0291 93.0692 10.0066 93.0372 9.99105C93.0051 9.97548 92.97 9.96716 92.9344 9.96668L62.2711 9.60449H62.2683C62.2126 9.60496 62.1588 9.62432 62.1155 9.6594C62.0723 9.69448 62.0423 9.7432 62.0303 9.79758L54.085 45.7874C54.0772 45.8226 54.0771 45.859 54.0847 45.8941C54.0923 45.9293 54.1074 45.9624 54.129 45.9912C54.1504 46.0197 54.1777 46.0432 54.2092 46.06C54.2407 46.0768 54.2755 46.0864 54.3111 46.0882L86.1799 47.6582Z" fill="#E6E6E6"/>
<path d="M59.5699 50.063C59.542 50.063 59.5149 50.0725 59.4931 50.0898C59.4712 50.1072 59.4559 50.1314 59.4496 50.1585L59.1624 51.3892C59.1584 51.4066 59.1581 51.4247 59.1617 51.4422C59.1653 51.4597 59.1726 51.4762 59.1832 51.4906C59.1937 51.505 59.2073 51.5169 59.2229 51.5255C59.2386 51.5342 59.2559 51.5393 59.2737 51.5407L75.4954 52.6936C75.5255 52.6955 75.5552 52.6865 75.5792 52.6681C75.6031 52.6498 75.6196 52.6234 75.6256 52.5938L75.9017 51.1699C75.905 51.1527 75.9047 51.1349 75.9006 51.1178C75.8965 51.1006 75.8888 51.0846 75.878 51.0707C75.8672 51.0568 75.8536 51.0454 75.838 51.0371C75.8224 51.0289 75.8053 51.0241 75.7877 51.0231L59.5774 50.0632L59.5699 50.063Z" fill="#E6E6E6"/>
<path d="M79.278 57.2648C79.3073 57.2672 79.3364 57.259 79.3602 57.2418C79.384 57.2247 79.4009 57.1996 79.408 57.1711L79.7595 55.7443C79.7638 55.7268 79.7643 55.7085 79.7608 55.6909C79.7573 55.6732 79.75 55.6565 79.7395 55.6419C79.7289 55.6273 79.7152 55.6153 79.6994 55.6065C79.6837 55.5978 79.6662 55.5926 79.6483 55.5913L58.9321 54.1425C58.904 54.1402 58.876 54.1478 58.8528 54.1639C58.8296 54.1799 58.8127 54.2035 58.8049 54.2306L58.4396 55.4636C58.4344 55.4813 58.4332 55.4998 58.4361 55.518C58.439 55.5361 58.4459 55.5534 58.4562 55.5686C58.4666 55.5837 58.4803 55.5964 58.4962 55.6056C58.5121 55.6148 58.5298 55.6204 58.5482 55.6219L79.278 57.2648Z" fill="#E6E6E6"/>
<path d="M78.1657 61.8385C78.195 61.8409 78.2241 61.8327 78.2479 61.8156C78.2717 61.7984 78.2886 61.7733 78.2956 61.7448L78.6472 60.318C78.6515 60.3005 78.652 60.2823 78.6485 60.2646C78.645 60.2469 78.6377 60.2302 78.6271 60.2156C78.6166 60.2011 78.6029 60.189 78.5871 60.1803C78.5714 60.1715 78.5539 60.1663 78.536 60.1651L57.8198 58.7162C57.7917 58.714 57.7637 58.7215 57.7405 58.7376C57.7173 58.7536 57.7004 58.7772 57.6926 58.8043L57.3273 60.0374C57.3221 60.055 57.3209 60.0736 57.3238 60.0917C57.3267 60.1099 57.3335 60.1272 57.3439 60.1423C57.3543 60.1575 57.368 60.1701 57.3839 60.1793C57.3998 60.1886 57.4175 60.1941 57.4359 60.1956L78.1657 61.8385Z" fill="#E6E6E6"/>
<path d="M42.2481 77.9404C42.2481 78.9749 32.7788 79.085 21.1241 79.8135C9.47975 80.5412 0 78.9749 0 77.9404C0 76.9058 9.524 74.8244 21.1241 76.0672C32.7788 77.316 42.2481 76.9058 42.2481 77.9404Z" fill="white"/>
<path d="M68.6248 69.6575C68.6543 69.6605 68.6839 69.6528 68.7081 69.6356C68.7323 69.6185 68.7495 69.5931 68.7564 69.5643L69.4996 66.5913C69.504 66.5739 69.5045 66.5557 69.5012 66.5381C69.4979 66.5205 69.4907 66.5039 69.4803 66.4893C69.4699 66.4747 69.4564 66.4626 69.4409 66.4537C69.4253 66.4448 69.408 66.4395 69.3901 66.438L56.6684 65.368C56.6387 65.3659 56.6092 65.3745 56.5852 65.3921C56.5612 65.4097 56.5443 65.4353 56.5374 65.4643L55.9033 68.3176C55.8995 68.3347 55.8994 68.3525 55.903 68.3697C55.9066 68.3868 55.9137 68.4031 55.9241 68.4172C55.9344 68.4314 55.9476 68.4432 55.9629 68.4519C55.9781 68.4606 55.995 68.4659 56.0125 68.4676L68.6248 69.6575Z" fill="#077D00"/>
<path d="M17.2577 57.5426C17.4179 57.4328 17.552 57.2892 17.6507 57.122C17.7494 56.9547 17.8102 56.7679 17.8289 56.5746C17.8475 56.3813 17.8236 56.1863 17.7587 56.0033C17.6938 55.8202 17.5895 55.6537 17.4532 55.5153L17.9683 44.0171L15.3459 44.3114L15.4983 55.5583C15.2808 55.8025 15.1605 56.1179 15.1602 56.4449C15.1598 56.7719 15.2795 57.0876 15.4964 57.3322C15.7134 57.5768 16.0126 57.7333 16.3372 57.772C16.6619 57.8106 16.9895 57.7288 17.2578 57.5421L17.2577 57.5426Z" fill="#A0616A"/>
<path d="M22.042 77.0067L23.5346 77.2691L25.0098 71.6368L23.0541 71.2495L22.042 77.0067Z" fill="#A0616A"/>
<path d="M26.1699 79.161L21.479 78.3363L21.7976 76.524L24.6761 77.0301C25.1568 77.1146 25.5842 77.3866 25.8644 77.7862C26.1445 78.1859 26.2544 78.6804 26.1699 79.1611L26.1699 79.161Z" fill="#2F2E41"/>
<path d="M17.9446 77.7536H19.4601L20.181 71.9082H17.9443L17.9446 77.7536Z" fill="#A0616A"/>
<path d="M22.3828 79.1611L17.6199 79.1614L17.6198 77.3212L20.5425 77.321C21.0305 77.321 21.4986 77.5148 21.8438 77.8599C22.1889 78.205 22.3828 78.6731 22.3828 79.1611Z" fill="#2F2E41"/>
<path d="M24.2671 75.6584C24.2435 75.6585 24.2199 75.657 24.1964 75.6542L22.4127 75.5075C22.3315 75.4979 22.253 75.472 22.1822 75.4312C22.1113 75.3904 22.0494 75.3356 22.0004 75.2702C21.9513 75.2048 21.9161 75.1301 21.8968 75.0506C21.8775 74.9712 21.8746 74.8886 21.8882 74.808L23.6589 66.0709L22.5464 60.2025C22.5373 60.1548 22.5113 60.112 22.4732 60.082C22.435 60.052 22.3873 60.0368 22.3388 60.0392C22.2904 60.0416 22.2444 60.0615 22.2094 60.0951C22.1744 60.1288 22.1528 60.1739 22.1485 60.2223L20.5093 75.1333C20.494 75.2904 20.4183 75.4354 20.2981 75.5377C20.178 75.64 20.0228 75.6917 19.8652 75.6818L18.1847 75.6192C18.0375 75.6088 17.8991 75.5448 17.7958 75.4393C17.6925 75.3339 17.6314 75.1942 17.624 75.0468L17.7583 57.028L26.4706 55.939L27.0793 65.3386L27.0768 65.3486L24.8529 75.1975C24.8209 75.3288 24.7458 75.4455 24.6396 75.5291C24.5334 75.6127 24.4022 75.6582 24.2671 75.6584Z" fill="#2F2E41"/>
<path d="M20.6318 36.5667C22.3085 36.5667 23.6678 35.2075 23.6678 33.5307C23.6678 31.8539 22.3085 30.4946 20.6318 30.4946C18.955 30.4946 17.5957 31.8539 17.5957 33.5307C17.5957 35.2075 18.955 36.5667 20.6318 36.5667Z" fill="#A0616A"/>
<path d="M23.4927 58.3992C23.0179 58.402 22.5522 58.2688 22.1506 58.0153C20.6797 57.0961 19.0095 57.4614 18.1447 57.761C18.0589 57.7911 17.9674 57.8013 17.877 57.791C17.7867 57.7807 17.6998 57.7502 17.623 57.7016C17.547 57.6538 17.4828 57.5896 17.4352 57.5135C17.3876 57.4375 17.3578 57.3517 17.348 57.2625L15.7756 43.217C15.512 40.8636 16.9296 38.6511 19.1462 37.956C19.2296 37.9299 19.3142 37.9052 19.4003 37.8818C20.0901 37.6948 20.8124 37.6613 21.5166 37.7835C22.2208 37.9057 22.8896 38.1808 23.476 38.5893C24.0734 39.0023 24.573 39.5412 24.9396 40.1681C25.3062 40.7949 25.531 41.4946 25.5981 42.2177L26.9221 56.3574C26.9311 56.4489 26.9188 56.5413 26.886 56.6273C26.8533 56.7132 26.801 56.7904 26.7333 56.8527C26.2691 57.2819 24.9219 58.3991 23.4927 58.3992Z" fill="#CCAB45"/>
<path d="M18.7035 46.229L15.1558 45.8389C15.0549 45.8278 14.9575 45.7951 14.8703 45.7429C14.7832 45.6908 14.7083 45.6205 14.6507 45.5368C14.5932 45.4531 14.5544 45.358 14.5369 45.258C14.5194 45.1579 14.5237 45.0553 14.5495 44.957L15.4526 41.5149C15.4792 41.2569 15.5567 41.0068 15.6806 40.7789C15.8044 40.551 15.9722 40.3499 16.1743 40.1873C16.3763 40.0247 16.6086 39.9037 16.8576 39.8313C17.1067 39.759 17.3676 39.7367 17.6254 39.7658C17.8831 39.7949 18.1325 39.8748 18.3591 40.0009C18.5858 40.1269 18.7853 40.2967 18.9459 40.5002C19.1066 40.7038 19.2253 40.9373 19.2953 41.187C19.3652 41.4368 19.3849 41.6979 19.3534 41.9554L19.4875 45.5C19.4913 45.6015 19.4732 45.7026 19.4345 45.7965C19.3957 45.8904 19.3371 45.9748 19.2628 46.044C19.1884 46.1132 19.1 46.1656 19.0036 46.1976C18.9072 46.2295 18.805 46.2404 18.704 46.2293L18.7035 46.229Z" fill="#CCAB45"/>
<path d="M26.9074 57.0502C27.0531 56.9219 27.1689 56.7633 27.2467 56.5854C27.3245 56.4075 27.3623 56.2147 27.3575 56.0207C27.3527 55.8266 27.3055 55.6359 27.219 55.4621C27.1326 55.2882 27.0091 55.1355 26.8572 55.0145L25.9829 43.5381L23.4131 44.1166L24.9212 55.2929C24.7347 55.5615 24.6532 55.8892 24.6923 56.2138C24.7313 56.5384 24.8882 56.8374 25.133 57.0541C25.3779 57.2708 25.6937 57.3901 26.0207 57.3894C26.3476 57.3886 26.663 57.268 26.9069 57.0502H26.9074Z" fill="#A0616A"/>
<path d="M22.4284 45.5073C22.354 45.4381 22.2954 45.3538 22.2566 45.2599C22.2178 45.166 22.1998 45.0649 22.2036 44.9634L22.3378 41.4188C22.3088 41.1627 22.3307 40.9034 22.4019 40.6557C22.4732 40.408 22.5926 40.1768 22.7533 39.9752C22.9139 39.7736 23.1127 39.6057 23.3383 39.481C23.5639 39.3562 23.8118 39.2772 24.0679 39.2482C24.324 39.2193 24.5833 39.2411 24.831 39.3124C25.0787 39.3837 25.31 39.5031 25.5115 39.6638C25.7131 39.8244 25.881 40.0232 26.0057 40.2488C26.1305 40.4743 26.2096 40.7223 26.2385 40.9784L27.1416 44.4205C27.1674 44.5187 27.1717 44.6214 27.1542 44.7214C27.1368 44.8215 27.0979 44.9166 27.0404 45.0003C26.9828 45.084 26.9079 45.1543 26.8208 45.2064C26.7336 45.2585 26.6362 45.2913 26.5353 45.3024L22.9876 45.6925C22.8866 45.7036 22.7844 45.6928 22.688 45.6608C22.5915 45.6288 22.5032 45.5764 22.4289 45.5071L22.4284 45.5073Z" fill="#CCAB45"/>
<path d="M20.451 36.6808C20.3969 36.6808 20.343 36.6745 20.2903 36.6621L20.2749 36.6584C17.6056 36.2505 17.0156 34.7038 16.8862 34.0582C16.7522 33.3897 16.9047 32.7445 17.2496 32.4938C17.0616 31.9004 17.0917 31.3737 17.3395 30.9286C17.7721 30.1523 18.7092 29.8902 18.8352 29.8576C19.584 29.3052 20.48 29.6739 20.643 29.7487C22.0916 29.2128 22.6455 29.6588 22.7454 29.7585C23.3929 29.8748 23.7876 30.1249 23.9186 30.5021C24.1647 31.2105 23.3865 32.0918 23.3532 32.129L23.3359 32.1483L22.1764 32.2035C22.0664 32.2088 21.9587 32.2371 21.8603 32.2867C21.762 32.3362 21.6751 32.4059 21.6054 32.4912C21.5357 32.5765 21.4847 32.6754 21.4557 32.7817C21.4267 32.888 21.4204 32.9991 21.4371 33.108C21.4685 33.2485 21.5081 33.3869 21.5558 33.5227C21.7535 34.1415 21.9019 34.6702 21.7108 34.8712C21.6674 34.9101 21.614 34.936 21.5566 34.9459C21.4992 34.9559 21.4402 34.9495 21.3863 34.9275C21.205 34.879 21.082 34.8891 21.0206 34.9577C20.9255 35.0639 20.9545 35.3329 21.1025 35.7149C21.1489 35.8357 21.1614 35.9669 21.1386 36.0943C21.1158 36.2217 21.0586 36.3404 20.9732 36.4376C20.9088 36.5135 20.8288 36.5745 20.7387 36.6165C20.6485 36.6585 20.5503 36.6804 20.4508 36.6808H20.451Z" fill="#2F2E41"/>
</g>
<defs>
<clipPath id="clip0_2609_13900">
<rect width="99.085" height="80" fill="white"/>
</clipPath>
</defs>
</svg>
