<svg width="146" height="150" viewBox="0 0 146 150" fill="none" xmlns="http://www.w3.org/2000/svg">
<g clip-path="url(#clip0_3997_41292)">
<path d="M102.097 150H62.2921C61.8294 150 61.3858 149.815 61.0586 149.488C60.7315 149.161 60.5474 148.718 60.5469 148.255V120.425C60.5474 119.962 60.7314 119.519 61.0586 119.191C61.3858 118.864 61.8294 118.68 62.2921 118.68H102.097C102.56 118.68 103.004 118.864 103.331 119.191C103.658 119.519 103.842 119.962 103.843 120.425V148.255C103.842 148.718 103.658 149.161 103.331 149.488C103.004 149.815 102.56 149.999 102.097 150Z" fill="#F2F2F2"/>
<path d="M37.0494 77.454C37.3162 77.1125 37.505 76.7166 37.6023 76.2942C37.6996 75.8719 37.7031 75.4333 37.6126 75.0094C37.5221 74.5855 37.3397 74.1867 37.0784 73.8409C36.817 73.4951 36.483 73.2108 36.0999 73.0081L35.8491 46.3843L30.873 48.6678L31.9675 74.4169C31.6696 75.0831 31.6264 75.8354 31.846 76.5313C32.0657 77.2272 32.533 77.8183 33.1594 78.1927C33.7858 78.567 34.5278 78.6986 35.2448 78.5625C35.9617 78.4264 36.6038 78.032 37.0494 77.454Z" fill="#9E616A"/>
<path d="M36.9135 39.6437C36.9135 39.6437 32.0729 37.2956 31.4035 41.7257C30.734 46.1558 27.9805 57.6856 27.9805 57.6856L36.3361 57.0947L36.9135 39.6437Z" fill="#9E616A"/>
<path d="M37.0494 77.454C37.3162 77.1125 37.505 76.7166 37.6023 76.2942C37.6996 75.8719 37.7031 75.4333 37.6126 75.0094C37.5221 74.5855 37.3397 74.1867 37.0784 73.8409C36.817 73.4951 36.483 73.2108 36.0999 73.0081L35.8491 46.3843L30.873 48.6678L31.9675 74.4169C31.6696 75.0831 31.6264 75.8354 31.846 76.5313C32.0657 77.2272 32.533 77.8183 33.1594 78.1927C33.7858 78.567 34.5278 78.6986 35.2448 78.5625C35.9617 78.4264 36.6038 78.032 37.0494 77.454Z" fill="#9E616A"/>
<path d="M36.9135 39.6437C36.9135 39.6437 32.0729 37.2956 31.4035 41.7257C30.734 46.1558 27.9805 57.6856 27.9805 57.6856L36.3361 57.0947L36.9135 39.6437Z" fill="#D5AB57"/>
<path d="M22.8984 142.202C22.703 142.211 22.5095 142.16 22.3442 142.055C22.1789 141.951 22.0497 141.798 21.9742 141.617C21.8988 141.437 21.8806 141.237 21.9222 141.046C21.9638 140.855 22.0632 140.681 22.2069 140.548C22.2309 140.453 22.2482 140.384 22.2722 140.288C22.2636 140.268 22.255 140.247 22.2463 140.226C22.0494 139.761 21.7194 139.364 21.2979 139.086C20.8764 138.808 20.382 138.661 19.877 138.663C19.372 138.664 18.8788 138.816 18.4593 139.097C18.0399 139.378 17.7129 139.777 17.5194 140.244C16.7463 142.106 15.762 143.971 15.5197 145.939C15.413 146.81 15.458 147.692 15.6528 148.547C13.837 144.586 12.8941 140.281 12.888 135.923C12.8876 134.83 12.9484 133.737 13.07 132.651C13.1705 131.76 13.3099 130.876 13.4882 129.997C14.4615 125.233 16.551 120.767 19.5853 116.967C21.0539 116.165 22.2416 114.933 22.9883 113.436C23.2588 112.898 23.45 112.324 23.5559 111.731C23.3902 111.752 23.2218 111.766 23.0562 111.777C23.0046 111.779 22.9503 111.782 22.8986 111.785L22.8792 111.786C22.6971 111.794 22.5166 111.749 22.3593 111.657C22.202 111.565 22.0746 111.43 21.9926 111.267C21.9106 111.104 21.8773 110.921 21.8968 110.74C21.9164 110.559 21.9879 110.387 22.1027 110.246C22.1743 110.157 22.2458 110.07 22.3175 109.982C22.4261 109.846 22.5374 109.713 22.6461 109.577C22.6586 109.564 22.6704 109.55 22.6814 109.536C22.8063 109.381 22.9312 109.229 23.0562 109.074C22.8281 108.721 22.5214 108.424 22.1599 108.208C20.9079 107.475 19.1806 107.983 18.2763 109.115C17.3692 110.248 17.1981 111.837 17.5131 113.251C17.8229 114.455 18.3354 115.598 19.0286 116.63C18.9607 116.717 18.89 116.801 18.8221 116.888C17.581 118.484 16.4992 120.198 15.5924 122.005C15.8129 119.98 15.5497 117.933 14.8244 116.03C14.0893 114.256 12.7115 112.763 11.4982 111.23C10.0408 109.389 7.05224 110.192 6.79547 112.526C6.79299 112.549 6.79056 112.572 6.7882 112.594C6.96842 112.696 7.14483 112.804 7.31743 112.918C7.53427 113.063 7.70229 113.27 7.79948 113.512C7.89666 113.754 7.91847 114.02 7.86207 114.274C7.80566 114.529 7.67366 114.76 7.48335 114.939C7.29305 115.117 7.05333 115.234 6.79559 115.273L6.76919 115.277C6.83339 115.927 6.94688 116.571 7.10867 117.203C7.57748 118.968 8.4059 120.618 9.54201 122.048C10.6781 123.478 12.0974 124.658 13.7109 125.514C13.8168 125.568 13.9201 125.622 14.026 125.674C13.1149 128.256 12.5434 130.945 12.3258 133.675C12.2027 135.285 12.21 136.903 12.3476 138.512L12.3394 138.455C11.9918 136.665 11.0373 135.051 9.63714 133.884C7.55758 132.176 4.61956 131.546 2.37609 130.173C2.13766 130.02 1.86043 129.939 1.5771 129.938C1.29376 129.937 1.01613 130.018 0.776957 130.169C0.537786 130.321 0.34705 130.538 0.22724 130.795C0.107429 131.052 0.0635459 131.338 0.100763 131.619C0.103772 131.639 0.106827 131.659 0.109935 131.679C0.444369 131.815 0.769992 131.972 1.08492 132.148C1.26513 132.25 1.44155 132.358 1.61415 132.472C1.83099 132.617 1.99902 132.824 2.0962 133.066C2.19339 133.308 2.2152 133.574 2.15879 133.828C2.10238 134.083 1.97038 134.315 1.78008 134.493C1.58978 134.671 1.35005 134.788 1.09231 134.828L1.0659 134.832C1.04689 134.834 1.0306 134.837 1.01161 134.84C1.58304 136.204 2.38505 137.46 3.38253 138.552C4.61476 139.875 6.10406 140.931 7.75913 141.657C9.4142 142.384 11.2002 142.764 13.0075 142.776H13.0102C13.5009 144.907 14.2117 146.983 15.1313 148.968H22.7086C22.7357 148.883 22.7602 148.797 22.7846 148.712C22.0832 148.756 21.3791 148.714 20.688 148.587C21.2501 147.898 21.8123 147.202 22.3745 146.513C22.387 146.5 22.3988 146.486 22.4098 146.472C22.695 146.119 22.9829 145.768 23.268 145.415L23.2682 145.415C23.2834 144.333 23.1592 143.253 22.8987 142.202L22.8984 142.202Z" fill="#F2F2F2"/>
<path d="M134.609 142.202C134.414 142.211 134.22 142.16 134.055 142.055C133.89 141.951 133.761 141.798 133.685 141.617C133.61 141.437 133.592 141.237 133.633 141.046C133.675 140.855 133.774 140.681 133.918 140.548C133.942 140.453 133.959 140.384 133.983 140.288C133.975 140.268 133.966 140.247 133.957 140.226C133.76 139.761 133.43 139.364 133.009 139.086C132.587 138.808 132.093 138.661 131.588 138.663C131.083 138.664 130.59 138.816 130.17 139.097C129.751 139.378 129.424 139.777 129.23 140.244C128.457 142.106 127.473 143.971 127.231 145.939C127.124 146.81 127.169 147.692 127.364 148.547C125.548 144.586 124.605 140.281 124.599 135.923C124.599 134.83 124.659 133.737 124.781 132.651C124.881 131.76 125.021 130.876 125.199 129.997C126.172 125.233 128.262 120.767 131.296 116.967C132.765 116.165 133.952 114.933 134.699 113.436C134.97 112.898 135.161 112.324 135.267 111.731C135.101 111.752 134.933 111.766 134.767 111.777C134.716 111.779 134.661 111.782 134.61 111.785L134.59 111.786C134.408 111.794 134.228 111.749 134.07 111.657C133.913 111.565 133.786 111.43 133.704 111.267C133.621 111.104 133.588 110.921 133.608 110.74C133.627 110.559 133.699 110.387 133.814 110.246C133.885 110.157 133.957 110.07 134.028 109.982C134.137 109.846 134.248 109.713 134.357 109.577C134.37 109.564 134.381 109.55 134.392 109.536C134.517 109.381 134.642 109.229 134.767 109.074C134.539 108.721 134.232 108.424 133.871 108.208C132.619 107.475 130.892 107.983 129.987 109.115C129.08 110.248 128.909 111.837 129.224 113.251C129.534 114.455 130.046 115.598 130.739 116.63C130.672 116.717 130.601 116.801 130.533 116.888C129.292 118.484 128.21 120.198 127.303 122.005C127.524 119.98 127.261 117.933 126.535 116.03C125.8 114.256 124.422 112.763 123.209 111.23C121.752 109.389 118.763 110.192 118.506 112.526C118.504 112.549 118.501 112.572 118.499 112.594C118.679 112.696 118.856 112.804 119.028 112.918C119.245 113.063 119.413 113.27 119.51 113.512C119.608 113.754 119.629 114.02 119.573 114.274C119.517 114.529 119.385 114.76 119.194 114.939C119.004 115.117 118.764 115.234 118.507 115.273L118.48 115.277C118.544 115.927 118.658 116.571 118.82 117.203C119.288 118.968 120.117 120.618 121.253 122.048C122.389 123.478 123.808 124.658 125.422 125.514C125.528 125.568 125.631 125.622 125.737 125.674C124.826 128.256 124.254 130.945 124.037 133.675C123.914 135.285 123.921 136.903 124.059 138.512L124.05 138.455C123.703 136.665 122.748 135.051 121.348 133.884C119.269 132.176 116.331 131.546 114.087 130.173C113.849 130.02 113.571 129.939 113.288 129.938C113.005 129.937 112.727 130.018 112.488 130.169C112.249 130.321 112.058 130.538 111.938 130.795C111.818 131.052 111.774 131.338 111.812 131.619C111.815 131.639 111.818 131.659 111.821 131.679C112.155 131.815 112.481 131.972 112.796 132.148C112.976 132.25 113.152 132.358 113.325 132.472C113.542 132.617 113.71 132.824 113.807 133.066C113.904 133.308 113.926 133.574 113.87 133.828C113.813 134.083 113.681 134.315 113.491 134.493C113.301 134.671 113.061 134.788 112.803 134.828L112.777 134.832C112.758 134.834 112.742 134.837 112.723 134.84C113.294 136.204 114.096 137.46 115.093 138.552C116.326 139.875 117.815 140.931 119.47 141.657C121.125 142.384 122.911 142.764 124.718 142.776H124.721C125.212 144.907 125.923 146.983 126.842 148.968H134.419C134.447 148.883 134.471 148.797 134.496 148.712C133.794 148.756 133.09 148.714 132.399 148.587C132.961 147.898 133.523 147.202 134.085 146.513C134.098 146.5 134.11 146.486 134.121 146.472C134.406 146.119 134.694 145.768 134.979 145.415L134.979 145.415C134.994 144.333 134.87 143.253 134.61 142.202L134.609 142.202Z" fill="#F2F2F2"/>
<path d="M105.43 148.918C105.409 148.918 105.387 148.918 105.365 148.917C104.811 148.885 104.29 148.641 103.911 148.235C103.532 147.829 103.324 147.292 103.331 146.737C103.331 143.358 100.917 141.387 98.5252 140.932C96.1332 140.478 93.1647 141.427 91.9258 144.571L90.7994 147.398C89.8255 148.37 88.506 148.915 87.1303 148.915C85.7546 148.915 84.4351 148.37 83.4612 147.398L83.3945 147.332L83.4359 147.247L103.331 106.542V105.544C103.303 105.236 103.304 104.927 103.332 104.62L103.331 2.09863C103.331 1.81761 103.387 1.53946 103.497 1.28066C103.606 1.02186 103.767 0.787695 103.969 0.592057C104.17 0.396418 104.409 0.243293 104.671 0.141761C104.933 0.0402284 105.213 -0.00764384 105.494 0.00099086C106.048 0.0326834 106.569 0.27699 106.948 0.68306C107.327 1.08913 107.535 1.62568 107.528 2.18103V104.631C107.556 104.939 107.556 105.248 107.528 105.556L107.528 106.541L127.465 147.332L127.398 147.398C126.424 148.37 125.105 148.915 123.729 148.915C122.353 148.915 121.034 148.37 120.06 147.398L120.03 147.353L118.933 144.571C117.694 141.427 114.726 140.479 112.334 140.932C109.942 141.387 107.528 143.358 107.528 146.737V146.82C107.528 147.376 107.307 147.91 106.914 148.303C106.52 148.697 105.987 148.918 105.43 148.918Z" fill="#006430"/>
<path d="M141.847 74.2057H69.01C68.1633 74.2048 67.3516 73.868 66.7529 73.2693C66.1542 72.6706 65.8174 71.8589 65.8164 71.0122V20.0881C65.8173 19.2414 66.1541 18.4296 66.7528 17.8309C67.3515 17.2322 68.1633 16.8955 69.01 16.8945H141.847C142.694 16.8955 143.506 17.2323 144.104 17.831C144.703 18.4297 145.04 19.2414 145.041 20.0881V71.0122C145.04 71.8589 144.703 72.6706 144.104 73.2693C143.505 73.868 142.694 74.2047 141.847 74.2057Z" fill="white"/>
<path d="M141.849 74.6019H69.0116C68.0599 74.6009 67.1475 74.2224 66.4745 73.5494C65.8016 72.8765 65.423 71.9641 65.4219 71.0125V20.0881C65.423 19.1364 65.8015 18.224 66.4745 17.5511C67.1475 16.8781 68.0599 16.4996 69.0116 16.4985H141.849C142.8 16.4996 143.713 16.8782 144.386 17.5511C145.059 18.2241 145.437 19.1364 145.438 20.0881V71.0125C145.437 71.9641 145.059 72.8765 144.386 73.5494C143.713 74.2223 142.8 74.6008 141.849 74.6019ZM69.0116 17.2908C68.2699 17.2916 67.5589 17.5866 67.0345 18.111C66.51 18.6354 66.215 19.3465 66.2141 20.0881V71.0125C66.215 71.7541 66.5101 72.4651 67.0345 72.9895C67.559 73.5139 68.27 73.8088 69.0116 73.8097H141.849C142.59 73.8088 143.301 73.5139 143.826 72.9895C144.35 72.4651 144.645 71.7541 144.646 71.0125V20.0881C144.645 19.3465 144.35 18.6355 143.826 18.111C143.301 17.5866 142.59 17.2916 141.849 17.2908H69.0116Z" fill="#F2F2F2"/>
<path d="M116.199 20.0786H94.6603C93.2948 20.0771 91.9856 19.534 91.02 18.5684C90.0544 17.6028 89.5113 16.2936 89.5098 14.9281V14.8345H121.349V14.9281C121.348 16.2936 120.805 17.6028 119.839 18.5684C118.873 19.534 117.564 20.0771 116.199 20.0786Z" fill="#006430"/>
<path d="M116.293 77.3897H94.754C93.3885 77.3881 92.0794 76.845 91.1138 75.8794C90.1482 74.9138 89.6051 73.6047 89.6035 72.2392V72.1455H121.443V72.2392C121.442 73.6047 120.898 74.9138 119.933 75.8794C118.967 76.845 117.658 77.3881 116.293 77.3897Z" fill="#006430"/>
<path d="M145.163 149.18C145.163 149.222 145.155 149.263 145.139 149.301C145.124 149.339 145.1 149.374 145.071 149.403C145.042 149.432 145.007 149.455 144.969 149.471C144.931 149.487 144.89 149.495 144.849 149.495H0.314269C0.23092 149.495 0.150991 149.462 0.0920547 149.403C0.0331179 149.344 0 149.264 0 149.18C0 149.097 0.0331179 149.017 0.0920547 148.958C0.150991 148.899 0.23092 148.866 0.314269 148.866H144.849C144.89 148.866 144.931 148.874 144.969 148.89C145.007 148.906 145.042 148.929 145.071 148.958C145.1 148.987 145.124 149.022 145.139 149.06C145.155 149.098 145.163 149.139 145.163 149.18Z" fill="#CCCCCC"/>
<path d="M48.6727 141.865H52.4798L54.2909 127.18L48.6719 127.18L48.6727 141.865Z" fill="#9E616A"/>
<path d="M47.3839 139.987L53.4023 139.627V142.206L59.1241 146.158C59.4067 146.353 59.6196 146.633 59.7316 146.958C59.8436 147.283 59.8489 147.635 59.7467 147.962C59.6444 148.29 59.4401 148.577 59.1634 148.78C58.8868 148.984 58.5523 149.094 58.2089 149.094H51.0438L49.8087 146.543L49.3265 149.094H46.625L47.3839 139.987Z" fill="#2F2E41"/>
<path d="M35.7252 60.1843L35.3523 61.9616L35.0352 68.5177L47.776 66.7926L48.7544 59.2011L47.402 56.979L35.7252 60.1843Z" fill="#9E616A"/>
<path d="M29.4051 141.865H33.2122L35.0234 127.18L29.4043 127.18L29.4051 141.865Z" fill="#9E616A"/>
<path d="M27.3398 115.921L27.3397 115.881L28.7648 109.228L29.6435 105.916L27.2009 86.5243C26.6257 72.4355 34.7994 65.663 34.8637 65.5964L35.0409 65.4121L48.1493 65.0913C55.2022 69.3171 54.4038 92.4299 55.6953 108.148C55.7874 109.269 56.9448 110.924 56.6603 111.99C54.4034 120.448 55.0645 129.595 53.3451 129.865L48.0736 129.792L45.3509 117.435L47.8641 108.011C46.7495 107.805 45.9792 102.356 45.9792 102.356C45.4936 101.779 43.8168 96.8746 43.8168 96.8746L41.5812 83.2977L37.9893 106.65L38.8543 112.128L38.1384 114.012L35.0728 129.563L35.0402 129.814L29.2605 129.237L27.3398 115.921Z" fill="#2F2E41"/>
<path d="M28.1163 139.987L34.1347 139.627V142.206L39.8565 146.158C40.1392 146.353 40.352 146.633 40.464 146.958C40.576 147.283 40.5813 147.635 40.4791 147.962C40.3769 148.29 40.1725 148.577 39.8959 148.78C39.6192 148.984 39.2848 149.094 38.9413 149.094H31.7762L30.5412 146.543L30.059 149.094H27.3574L28.1163 139.987Z" fill="#2F2E41"/>
<path d="M46.2376 34.5448L49.451 38.1152L53.3107 45.3903L51.4148 54.361L52.2437 58.5705L53.4678 63.1979C48.7513 65.807 43.1487 62.2038 38.0017 60.6035L32.9375 62.8409L33.2053 56.6818L33.3426 41.1637C33.3479 40.5677 33.4756 39.9791 33.7179 39.4345C33.9601 38.8899 34.3117 38.4009 34.7508 37.9979C35.1899 37.5948 35.7072 37.2863 36.2705 37.0916C36.8338 36.8968 37.4312 36.8199 38.0254 36.8656L41.4174 34.3662L46.2376 34.5448Z" fill="#D5AB57"/>
<path d="M45.3364 32.6757C49.0786 32.6757 52.1123 29.6421 52.1123 25.8999C52.1123 22.1577 49.0786 19.124 45.3364 19.124C41.5942 19.124 38.5605 22.1577 38.5605 25.8999C38.5605 29.6421 41.5942 32.6757 45.3364 32.6757Z" fill="#9E616A"/>
<path d="M53.3108 23.4545C53.1914 24.1184 50.339 24.4388 50.4248 23.2576C49.8698 24.3697 49.0405 25.9836 50.0969 27.8322C49.6831 28.2829 49.4225 28.8529 49.3522 29.4606C49.2819 30.0684 49.4056 30.6828 49.7056 31.216C50.0062 31.7047 50.258 32.2216 50.4575 32.7595C50.4977 32.8901 50.5264 33.024 50.5434 33.1595C50.5604 33.2958 50.5404 33.4341 50.4855 33.56C50.4307 33.6859 50.343 33.7947 50.2316 33.875C50.1202 33.9553 49.9893 34.0042 49.8525 34.0165C49.7158 34.0288 49.5782 34.0041 49.4543 33.9449C46.5809 32.5375 41.57 32.7761 38.4265 33.6348C38.4474 33.0232 38.439 32.4131 38.4013 31.8043C38.2866 32.5656 37.9795 33.285 37.5092 33.8945C36.9709 34.0536 36.4432 34.2191 35.9321 34.3824C35.8542 34.4077 35.7709 34.4113 35.6911 34.393C35.6112 34.3747 35.5379 34.335 35.4788 34.2783C35.4197 34.2215 35.3771 34.1499 35.3555 34.0708C35.3339 33.9918 35.3342 33.9084 35.3562 33.8295C35.4558 33.4681 35.4744 33.089 35.4107 32.7196C35.2808 31.953 34.8955 31.2598 34.6232 30.5331C34.3509 29.8064 34.1959 28.9707 34.5289 28.2691C35.0462 27.1801 36.5039 26.8471 37.1468 25.8271C37.8694 24.6816 37.3081 23.1883 37.4212 21.8375C37.5804 19.9274 39.1448 18.3756 40.9083 17.6258C43.9618 16.3273 47.7818 17.3789 50.0709 19.779C50.392 19.5622 50.7669 19.4386 51.1539 19.4219C51.541 19.4053 51.9251 19.4963 52.2637 19.6847C52.9401 20.047 53.426 20.2355 53.7297 20.9413C53.9957 21.5612 53.4323 22.7885 53.3108 23.4545Z" fill="#2F2E41"/>
<path d="M50.3988 103.136L34.457 87.1945C34.2719 87.009 34.168 86.7576 34.168 86.4955C34.168 86.2334 34.2719 85.9821 34.457 85.7966L45.6027 74.6509C45.7882 74.4658 46.0396 74.3618 46.3017 74.3618C46.5637 74.3618 46.8151 74.4658 47.0006 74.6509L62.9424 90.5926C63.1274 90.7781 63.2314 91.0295 63.2314 91.2916C63.2314 91.5536 63.1274 91.805 62.9423 91.9905L51.7967 103.136C51.6111 103.321 51.3598 103.425 51.0977 103.425C50.8356 103.425 50.5843 103.321 50.3988 103.136Z" fill="white"/>
<path d="M51.0982 103.689C50.9337 103.69 50.7707 103.657 50.6187 103.595C50.4667 103.532 50.3286 103.439 50.2126 103.323L34.2708 87.3811C34.0361 87.1461 33.9043 86.8276 33.9043 86.4955C33.9043 86.1634 34.0361 85.8449 34.2708 85.6099L45.4165 74.4641C45.6515 74.2295 45.9701 74.0977 46.3022 74.0977C46.6343 74.0977 46.9529 74.2295 47.1879 74.4641L63.1295 90.4058C63.3642 90.6408 63.496 90.9593 63.496 91.2914C63.496 91.6235 63.3642 91.9421 63.1295 92.1771L51.9838 103.323C51.8677 103.439 51.7297 103.532 51.5777 103.595C51.4257 103.657 51.2627 103.69 51.0982 103.689ZM46.3021 74.6258C46.207 74.6255 46.1128 74.644 46.0249 74.6803C45.9369 74.7167 45.8571 74.7701 45.7901 74.8376L34.6442 85.9833C34.5086 86.1193 34.4325 86.3035 34.4325 86.4955C34.4325 86.6875 34.5086 86.8717 34.6442 87.0077L50.586 102.949C50.7242 103.081 50.9075 103.154 51.0982 103.154C51.2888 103.154 51.4722 103.081 51.6104 102.949L62.7561 91.8036C62.8917 91.6676 62.9678 91.4834 62.9678 91.2914C62.9678 91.0994 62.8917 90.9152 62.7561 90.7792L46.8143 74.8376C46.7472 74.7701 46.6674 74.7167 46.5794 74.6803C46.4915 74.644 46.3973 74.6255 46.3021 74.6258Z" fill="#E6E6E6"/>
<path d="M44.3923 76.1337C44.1254 75.7922 43.9367 75.3963 43.8394 74.9739C43.742 74.5515 43.7385 74.113 43.829 73.6891C43.9196 73.2652 44.1019 72.8663 44.3633 72.5206C44.6246 72.1748 44.9586 71.8905 45.3417 71.6878L45.5925 45.064L50.5686 47.3475L49.4741 73.0966C49.772 73.7628 49.8153 74.5151 49.5956 75.211C49.3759 75.9069 48.9086 76.498 48.2822 76.8724C47.6558 77.2467 46.9138 77.3783 46.1969 77.2422C45.48 77.106 44.8379 76.7116 44.3923 76.1337Z" fill="#9E616A"/>
<path d="M44.5273 38.3234C44.5273 38.3234 49.3679 35.9753 50.0374 40.4054C50.7068 44.8355 53.4604 56.3653 53.4604 56.3653L45.1047 55.7744L44.5273 38.3234Z" fill="#9E616A"/>
<path d="M44.3923 76.1337C44.1254 75.7922 43.9367 75.3963 43.8394 74.9739C43.742 74.5515 43.7385 74.113 43.829 73.6891C43.9196 73.2652 44.1019 72.8663 44.3633 72.5206C44.6246 72.1748 44.9586 71.8905 45.3417 71.6878L45.5925 45.064L50.5686 47.3475L49.4741 73.0966C49.772 73.7628 49.8153 74.5151 49.5956 75.211C49.3759 75.9069 48.9086 76.498 48.2822 76.8724C47.6558 77.2467 46.9138 77.3783 46.1969 77.2422C45.48 77.106 44.8379 76.7116 44.3923 76.1337Z" fill="#9E616A"/>
<path d="M44.5273 38.3234C44.5273 38.3234 49.3679 35.9753 50.0374 40.4054C50.7068 44.8355 53.4604 56.3653 53.4604 56.3653L45.1047 55.7744L44.5273 38.3234Z" fill="#D5AB57"/>
</g>
<defs>
<clipPath id="clip0_3997_41292">
<rect width="145.438" height="150" fill="white"/>
</clipPath>
</defs>
</svg>
