<svg width="124" height="80" viewBox="0 0 124 80" fill="none" xmlns="http://www.w3.org/2000/svg">
<g clip-path="url(#clip0_2609_15519)">
<path d="M3.72311 61.3997C4.33454 55.1587 8.03006 48.9289 13.9101 46.7498C11.7373 53.2137 11.9209 60.2379 14.4285 66.5795C15.4044 69.0217 16.7442 71.6364 15.9515 74.144C15.4583 75.7044 14.1839 76.9216 12.7442 77.6994C11.3044 78.4772 9.69434 78.8721 8.10435 79.2593L7.79644 79.5278C5.10861 73.8621 3.11167 67.6407 3.72311 61.3997Z" fill="#E6F2E6"/>
<path d="M13.9716 46.866C10.6517 50.7845 8.56213 55.7891 8.19679 60.9197C8.1178 62.0289 8.13421 63.161 8.4045 64.2452C8.67608 65.3 9.22517 66.2629 9.99472 67.0337C10.6978 67.7669 11.5019 68.4354 12.0145 69.3267C12.5549 70.2662 12.6029 71.3484 12.2764 72.3698C11.8769 73.6195 11.0522 74.6511 10.2106 75.6319C9.27623 76.7209 8.28844 77.8373 7.91624 79.2584C7.87114 79.4306 7.60659 79.3506 7.65162 79.1786C8.29919 76.7061 10.645 75.2501 11.7235 73.0101C12.2267 71.965 12.418 70.7618 11.8926 69.6861C11.4332 68.7454 10.6046 68.0553 9.88631 67.3191C9.13207 66.5461 8.54694 65.6916 8.22983 64.6504C7.90545 63.5854 7.84474 62.4515 7.89503 61.3452C8.02776 58.8372 8.554 56.3657 9.45447 54.0212C10.4673 51.3397 11.9314 48.8513 13.7834 46.6635C13.8981 46.5281 14.0856 46.7315 13.9716 46.866Z" fill="white"/>
<path d="M8.22781 59.2456C7.36866 59.0606 6.60326 58.5762 6.06828 57.879C5.53331 57.1817 5.2636 56.317 5.30733 55.4393C5.30943 55.4035 5.32535 55.3699 5.35172 55.3456C5.37809 55.3214 5.41286 55.3083 5.44869 55.3091C5.48452 55.31 5.51863 55.3247 5.54381 55.3502C5.569 55.3757 5.5833 55.41 5.5837 55.4458C5.54147 56.2631 5.79278 57.0686 6.29228 57.7168C6.79177 58.3651 7.50655 58.8135 8.30759 58.981C8.48163 59.0176 8.40084 59.282 8.22781 59.2456Z" fill="white"/>
<path d="M9.589 66.7088C11.107 65.7479 12.207 64.2501 12.6697 62.5142C12.7154 62.3422 12.98 62.4222 12.9343 62.594C12.4494 64.3996 11.3015 65.9558 9.7197 66.9523C9.56886 67.0472 9.43899 66.8031 9.589 66.7088Z" fill="white"/>
<path d="M10.7307 51.5946C11.0483 51.7354 11.3958 51.7952 11.7421 51.7686C12.0884 51.7419 12.4227 51.6297 12.7149 51.4419C12.8645 51.3452 12.9942 51.5894 12.8456 51.6855C12.5218 51.8914 12.1525 52.0149 11.7699 52.0452C11.3873 52.0755 11.0032 52.0116 10.651 51.8592C10.6166 51.8476 10.5879 51.8234 10.5707 51.7914C10.5535 51.7594 10.5492 51.7221 10.5585 51.687C10.5693 51.652 10.5934 51.6227 10.6256 51.6054C10.6579 51.5881 10.6957 51.5842 10.7307 51.5946Z" fill="white"/>
<path d="M32.2832 57.3895C32.1915 57.4526 32.0998 57.5156 32.0081 57.581C30.7801 58.4352 29.6235 59.3878 28.5497 60.4293C28.4654 60.5085 28.3812 60.59 28.2993 60.6715C25.7391 63.2082 23.6721 66.1983 22.2034 69.4896C21.6202 70.7999 21.1375 72.1526 20.7595 73.536C20.2376 75.4467 19.8238 77.5599 18.7332 79.14C18.6213 79.3061 18.4992 79.4652 18.3676 79.6162L8.14728 79.8827C8.12375 79.8716 8.10017 79.8629 8.07653 79.8519L7.66895 79.8811C7.68346 79.8084 7.70007 79.7333 7.71458 79.6606C7.72282 79.6184 7.73334 79.5761 7.74158 79.5339C7.7478 79.5058 7.75413 79.4776 7.75813 79.4518C7.76016 79.4424 7.76231 79.433 7.7644 79.426C7.7684 79.4002 7.77485 79.3767 7.77891 79.3533C7.87062 78.9332 7.96543 78.5131 8.06336 78.0928C8.0633 78.0905 8.0633 78.0905 8.06551 78.0881C8.81985 74.888 9.84796 71.7228 11.3238 68.8142C11.3682 68.7267 11.4125 68.6369 11.4616 68.5493C12.1341 67.242 12.9124 65.9918 13.7886 64.8112C14.2704 64.1663 14.7846 63.5462 15.3292 62.9533C16.7392 61.4241 18.381 60.1261 20.1943 59.1071C23.8095 57.0761 28.034 56.2239 31.9823 57.304C32.0833 57.3317 32.1821 57.3595 32.2832 57.3895Z" fill="#E6F2E6"/>
<path d="M32.2638 57.5197C27.2538 58.6496 22.5723 61.3875 19.1916 65.264C18.4607 66.102 17.7922 67.0158 17.3553 68.0443C16.937 69.05 16.7957 70.1494 16.9461 71.2282C17.0661 72.2369 17.3056 73.2548 17.1783 74.2751C17.0441 75.3505 16.4309 76.2435 15.5552 76.8624C14.4838 77.6197 13.2042 77.9469 11.9418 78.2233C10.5401 78.5303 9.07924 78.8269 7.92643 79.7375C7.78675 79.8478 7.62372 79.6247 7.76319 79.5145C9.76888 77.9302 12.5185 78.18 14.7282 77.0408C15.7592 76.5093 16.6364 75.6638 16.8646 74.4886C17.0641 73.4609 16.818 72.411 16.6877 71.3907C16.5509 70.3194 16.5981 69.2849 16.9718 68.2627C17.3541 67.2169 17.9883 66.2751 18.6945 65.422C20.3105 63.4994 22.2187 61.8429 24.3492 60.5131C26.7723 58.9819 29.4395 57.8765 32.2354 57.2447C32.4085 57.2057 32.4358 57.4809 32.2638 57.5197Z" fill="white"/>
<path d="M20.2238 63.9459C19.6493 63.2809 19.3297 62.4334 19.3224 61.5546C19.315 60.6758 19.6203 59.8229 20.1837 59.1484C20.2982 59.0123 20.515 59.1838 20.4004 59.3201C19.8746 59.9472 19.5903 60.7417 19.5989 61.56C19.6074 62.3783 19.9081 63.1666 20.4469 63.7827C20.5638 63.9167 20.3401 64.0792 20.2238 63.9459Z" fill="white"/>
<path d="M16.818 70.7248C18.6085 70.8715 20.3885 70.338 21.8031 69.2305C21.9432 69.1207 22.1063 69.3439 21.9664 69.4536C20.4922 70.6032 18.6386 71.1547 16.7757 70.998C16.5981 70.9829 16.6414 70.7099 16.818 70.7248Z" fill="white"/>
<path d="M26.829 59.3439C26.9977 59.6475 27.2392 59.9045 27.5318 60.0917C27.8243 60.279 28.1588 60.3906 28.5052 60.4166C28.6828 60.4294 28.6394 60.7025 28.4629 60.6897C28.0804 60.6592 27.7111 60.5355 27.3874 60.3293C27.0637 60.1232 26.7954 59.8409 26.606 59.5071C26.5855 59.4772 26.5772 59.4405 26.5827 59.4047C26.5883 59.3688 26.6073 59.3364 26.6359 59.314C26.6655 59.2925 26.7024 59.2836 26.7386 59.2892C26.7748 59.2948 26.8072 59.3145 26.829 59.3439Z" fill="white"/>
<path d="M92.268 5.47584C92.1154 5.02526 90.2018 3.49362 91.3744 3.23618L92.336 4.51838L96.7571 0.0974121L97.2017 0.542059L92.268 5.47584Z" fill="#CCAB45"/>
<path d="M92.268 20.5088C92.1154 20.0582 90.2018 18.5266 91.3744 18.2691L92.336 19.5513L96.7571 15.1304L97.2017 15.575L92.268 20.5088Z" fill="#CCAB45"/>
<path d="M92.268 35.7568C92.1154 35.3063 90.2018 33.7746 91.3744 33.5172L92.336 34.7994L96.7571 30.3784L97.2017 30.8231L92.268 35.7568Z" fill="#CCAB45"/>
<path d="M88.1963 23.4292C88.9497 23.4292 89.5605 22.8184 89.5605 22.0649C89.5605 21.3115 88.9497 20.7007 88.1963 20.7007C87.4428 20.7007 86.832 21.3115 86.832 22.0649C86.832 22.8184 87.4428 23.4292 88.1963 23.4292Z" fill="#3F3D56"/>
<path d="M88.1963 8.55905C88.9497 8.55905 89.5605 7.94826 89.5605 7.19481C89.5605 6.44136 88.9497 5.83057 88.1963 5.83057C87.4428 5.83057 86.832 6.44136 86.832 7.19481C86.832 7.94826 87.4428 8.55905 88.1963 8.55905Z" fill="#3F3D56"/>
<path d="M123.19 4.05713H101.226V4.32998H123.19V4.05713Z" fill="#3F3D56"/>
<path d="M88.8789 39.281C89.6323 39.281 90.2431 38.6702 90.2431 37.9167C90.2431 37.1633 89.6323 36.5525 88.8789 36.5525C88.1254 36.5525 87.5146 37.1633 87.5146 37.9167C87.5146 38.6702 88.1254 39.281 88.8789 39.281Z" fill="#3F3D56"/>
<path d="M123.19 19.0901H101.226V19.3629H123.19V19.0901Z" fill="#3F3D56"/>
<path d="M123.19 34.3381H101.226V34.611H123.19V34.3381Z" fill="#3F3D56"/>
<path d="M95.7138 37.7894H88.8926V30.8318H93.531V31.1046H89.1654V37.5166H95.4409V34.3788H95.7138V37.7894Z" fill="#3F3D56"/>
<path d="M95.7138 22.5101H88.8926V15.5525H93.531V15.8253H89.1654V22.2373H95.4409V19.0995H95.7138V22.5101Z" fill="#3F3D56"/>
<path d="M95.7138 6.95764H88.8926V0H93.531V0.272849H89.1654V6.68479H95.4409V3.54703H95.7138V6.95764Z" fill="#3F3D56"/>
<path d="M51.1769 24.7981C51.1769 24.7981 49.3539 32.4953 51.5821 32.4953C53.8102 32.4953 59.0767 23.7853 59.0767 23.7853L57.2537 21.5571L53.9816 26.1L53.8102 23.7853L51.1769 24.7981Z" fill="#A0616A"/>
<path d="M58.5909 24.1198C59.5704 24.1198 60.3644 23.3258 60.3644 22.3463C60.3644 21.3668 59.5704 20.5728 58.5909 20.5728C57.6114 20.5728 56.8174 21.3668 56.8174 22.3463C56.8174 23.3258 57.6114 24.1198 58.5909 24.1198Z" fill="#A0616A"/>
<path d="M49.6314 77.2226L51.992 77.2225L53.1151 68.1167L49.6309 68.1168L49.6314 77.2226Z" fill="#A0616A"/>
<path d="M49.548 79.6854L56.8075 79.6851V79.5933C56.8074 78.8439 56.5097 78.1252 55.9798 77.5954C55.4499 77.0655 54.7313 76.7678 53.9819 76.7677H53.9817L52.6557 75.7617L50.1816 76.7679L49.5479 76.7679L49.548 79.6854Z" fill="#2F2E41"/>
<path d="M24.2373 74.2776L26.3496 75.3316L31.4207 67.6857L28.3032 66.1299L24.2373 74.2776Z" fill="#A0616A"/>
<path d="M23.0635 76.4437L29.5591 79.6853L29.6001 79.6032C29.9347 78.9327 29.9892 78.1567 29.7517 77.4459C29.5142 76.7352 29.0041 76.1479 28.3337 75.8132L28.3335 75.8131L27.5963 74.3208L24.9332 74.1162L24.3662 73.8333L23.0635 76.4437Z" fill="#2F2E41"/>
<path d="M77.5539 79.6943H-0.1875V80H77.5539V79.6943Z" fill="#CCCCCC"/>
<path d="M34.3686 38.762C34.3686 38.762 33.4252 50.1055 33.2226 52.5362C33.0837 54.0599 32.7431 55.5584 32.2098 56.9925C32.2098 56.9925 31.8047 57.8027 31.8047 58.613L27.2134 66.9572C27.2134 66.9572 25.8103 67.9885 26.0129 68.7987C26.2154 69.609 25.167 70.095 25.167 70.095L30.0021 71.0269C30.0021 71.0269 29.7995 70.4192 30.4072 70.2166C31.0149 70.0141 31.4986 68.2572 31.4986 68.2572L38.2866 57.1951L43.148 47.0671C43.148 47.0671 45.9838 56.1823 46.5915 57.1951C46.5915 57.1951 48.8196 68.5383 49.2247 69.5512C49.6298 70.564 49.8324 70.5639 49.6298 70.9691C49.4273 71.3742 49.4273 71.7793 49.6298 71.9819C49.8324 72.1844 53.681 71.9819 53.681 71.9819L52.6682 57.6002L50.8452 40.3827L41.5275 37.5469L34.3686 38.762Z" fill="#2F2E41"/>
<path d="M43.491 11.6823C45.8403 11.6823 47.7448 9.77781 47.7448 7.42854C47.7448 5.07926 45.8403 3.1748 43.491 3.1748C41.1418 3.1748 39.2373 5.07926 39.2373 7.42854C39.2373 9.77781 41.1418 11.6823 43.491 11.6823Z" fill="#A0616A"/>
<path d="M51.2506 17.8987L46.1868 14.8307C46.1868 14.8307 46.0465 12.9255 44.6037 12.8359C43.8793 12.7909 42.7923 12.7221 41.1611 12.6169C40.8163 12.5947 40.5837 14.4808 40.1886 14.4552L34.8434 15.8731L35.6536 29.6471C35.6536 29.6471 34.4383 35.1161 34.8434 36.1289C35.2485 37.1417 33.8306 37.5468 34.2357 37.7494C34.6408 37.952 34.2357 39.3699 34.2357 39.3699C34.2357 39.3699 42.1355 43.421 50.8455 40.3827L50.0353 37.7494C50.1456 37.4052 50.1662 37.0385 50.0953 36.6841C50.0245 36.3296 49.8643 35.9991 49.6302 35.7238C49.6302 35.7238 50.4404 34.5085 49.4276 33.4957C49.4276 33.4957 49.8327 31.6726 48.8199 30.8624L48.6174 28.0266L49.225 26.6087L51.2506 17.8987Z" fill="#CCAB45"/>
<path d="M39.8004 9.85861L39.6815 9.58243C39.6662 9.54673 38.1618 5.9905 39.4952 3.79692C40.1125 2.7814 41.2348 2.20806 42.831 2.09295C45.3286 1.91236 47.0379 2.50481 47.913 3.85261C48.0597 4.08103 48.1422 4.34477 48.1517 4.61609C48.1612 4.88741 48.0975 5.15628 47.9672 5.39445C47.8369 5.63262 47.6448 5.83127 47.4112 5.96953C47.1775 6.10779 46.9109 6.18055 46.6395 6.18015H46.6059L46.147 5.58429L46.1203 5.64224C45.9541 6.00169 45.5726 6.19846 45.1257 6.15537C45.0497 6.14991 44.9823 6.21552 44.9282 6.35594C44.91 6.41737 44.8756 6.47276 44.8286 6.5163C44.7817 6.55985 44.7238 6.58994 44.6612 6.60341C44.331 6.6677 43.8603 6.25176 43.6496 6.04446C43.6415 6.09217 43.6232 6.13758 43.596 6.17762C43.5688 6.21766 43.5333 6.25139 43.492 6.27654C43.27 6.40464 42.9244 6.23731 42.8252 6.18402C42.0351 6.35188 41.5237 6.30698 41.3046 6.05072C41.156 7.10168 40.8372 8.99337 40.4549 9.09822C40.415 9.10741 40.3731 9.10351 40.3356 9.08708C40.298 9.07066 40.2667 9.0426 40.2463 9.00703C40.1542 8.88752 40.072 8.82797 40.0206 8.84469C39.8963 8.88425 39.8228 9.2938 39.8123 9.55812L39.8004 9.85861Z" fill="#2F2E41"/>
<path d="M49.0223 18.1012L51.0429 17.7729C52.4984 19.1715 53.49 20.9829 53.8837 22.9626C54.4913 26.2036 54.6939 26.8113 54.6939 26.8113L49.8325 28.0266L47.1992 22.9626L49.0223 18.1012Z" fill="#CCAB45"/>
<path d="M40.0563 22.3166L38.8076 38.1465L70.6743 40.6602L71.923 24.8304L40.0563 22.3166Z" fill="white"/>
<path d="M43.4607 23.5431C42.6808 22.9862 41.6907 22.9459 41.3125 22.9539C41.4279 23.3141 41.7865 24.2379 42.5663 24.7951C43.3481 25.3534 44.337 25.3924 44.7146 25.3846C44.5993 25.0246 44.2406 24.1004 43.4607 23.5431Z" fill="#077D00"/>
<path d="M46.5374 33.616L41.4205 33.2123C41.2693 33.2004 41.1172 33.2184 40.973 33.2652C40.8288 33.312 40.6951 33.3868 40.5798 33.4853C40.4645 33.5838 40.3697 33.704 40.3008 33.8391C40.2319 33.9742 40.1903 34.1216 40.1784 34.2728C40.1665 34.424 40.1844 34.576 40.2313 34.7203C40.2781 34.8645 40.3529 34.9981 40.4514 35.1135C40.5498 35.2288 40.6701 35.3236 40.8052 35.3925C40.9403 35.4614 41.0877 35.503 41.2389 35.5149L46.3557 35.9185C46.6611 35.9426 46.9635 35.8444 47.1964 35.6456C47.4294 35.4467 47.5738 35.1634 47.5978 34.8581C47.6219 34.5527 47.5237 34.2503 47.3249 34.0174C47.126 33.7844 46.8427 33.64 46.5374 33.616Z" fill="#077D00"/>
<path d="M70.6659 23.2917L41.9772 21.0284C41.6435 21.0021 41.3079 21.0418 40.9896 21.1452C40.6712 21.2486 40.3764 21.4138 40.1218 21.6311C39.8673 21.8485 39.6581 22.1139 39.5061 22.4121C39.3542 22.7104 39.2625 23.0356 39.2362 23.3693L38.1329 37.3461C38.0798 38.0202 38.2967 38.6877 38.7357 39.202C39.1748 39.7162 39.8001 40.0351 40.4741 40.0884L69.1628 42.3517C69.4965 42.378 69.8321 42.3383 70.1504 42.2348C70.4688 42.1314 70.7636 41.9663 71.0181 41.7489C71.2727 41.5315 71.4819 41.2662 71.6338 40.9679C71.7858 40.6697 71.8775 40.3444 71.9038 40.0108L72.9523 26.7264L72.9734 26.455L73.0068 26.0327C73.0331 25.699 72.9934 25.3634 72.8899 25.045C72.7865 24.7267 72.6214 24.4318 72.404 24.1773C72.1866 23.9228 71.9213 23.7136 71.623 23.5616C71.3248 23.4097 70.9995 23.3179 70.6659 23.2917ZM69.8187 35.4522L69.6369 37.7549C69.6037 38.1616 69.4108 38.5386 69.1004 38.8034C68.79 39.0683 68.3874 39.1995 67.9805 39.1683L64.1424 38.8659C63.7357 38.8327 63.3587 38.6398 63.0939 38.3294C62.829 38.019 62.6978 37.6164 62.729 37.2095L62.9108 34.9069C62.9441 34.5002 63.1371 34.1233 63.4474 33.8585C63.7578 33.5936 64.1603 33.4624 64.5672 33.4934L68.4039 33.7962C68.8106 33.8295 69.1876 34.0224 69.4526 34.3326C69.7177 34.6429 69.8493 35.0453 69.8187 35.4522ZM39.9236 34.2515C39.9533 33.8789 40.1297 33.5334 40.4139 33.2906C40.6982 33.0479 41.0671 32.9278 41.4398 32.9567L46.5565 33.3606C46.7413 33.3749 46.9215 33.4255 47.0868 33.5094C47.2521 33.5934 47.3992 33.7091 47.5198 33.8499C47.6403 33.9907 47.7319 34.154 47.7894 34.3302C47.8468 34.5065 47.869 34.6923 47.8546 34.8771C47.8401 35.062 47.7894 35.2421 47.7054 35.4074C47.6213 35.5726 47.5055 35.7196 47.3645 35.84C47.2236 35.9605 47.0603 36.052 46.884 36.1093C46.7077 36.1666 46.5218 36.1886 46.337 36.174L46.3344 36.1747L41.2177 35.7708C41.0329 35.7562 40.8528 35.7053 40.6877 35.621C40.5226 35.5367 40.3758 35.4207 40.2555 35.2796C40.1353 35.1384 40.0441 34.975 39.9872 34.7986C39.9302 34.6222 39.9086 34.4363 39.9236 34.2515ZM41.0189 22.8626L40.984 22.7195L41.1312 22.706C41.1887 22.6998 42.5498 22.5776 43.6093 23.3344C44.6688 24.0912 44.9937 25.4191 45.0078 25.4746L45.0415 25.6181L44.8946 25.6329C44.6862 25.6484 44.4768 25.647 44.2686 25.6288C43.6062 25.59 42.9664 25.3739 42.4161 25.0032C41.3566 24.2463 41.0317 22.9185 41.0189 22.8626Z" fill="#077D00"/>
<path d="M65.5148 36.9794L63.8518 36.8483C63.7332 36.8391 63.6158 36.8774 63.5254 36.9547C63.4349 37.0321 63.3789 37.1421 63.3696 37.2607C63.3602 37.3793 63.3983 37.4968 63.4755 37.5873C63.5526 37.6779 63.6626 37.7341 63.7812 37.7437L65.4441 37.8749C65.5628 37.884 65.6802 37.8457 65.7706 37.7684C65.861 37.6911 65.917 37.581 65.9264 37.4624C65.9358 37.3438 65.8977 37.2263 65.8205 37.1358C65.7433 37.0452 65.6334 36.989 65.5148 36.9794Z" fill="#077D00"/>
<path d="M68.5848 37.2216L66.9218 37.0904C66.8032 37.0814 66.6859 37.1197 66.5956 37.197C66.5052 37.2744 66.4492 37.3844 66.4399 37.5029C66.4305 37.6215 66.4686 37.7389 66.5457 37.8294C66.6228 37.92 66.7326 37.9762 66.8512 37.9859L68.5142 38.1171C68.6327 38.1261 68.7501 38.0878 68.8404 38.0104C68.9307 37.9331 68.9867 37.8231 68.9961 37.7046C69.0054 37.586 68.9674 37.4686 68.8903 37.378C68.8132 37.2875 68.7033 37.2312 68.5848 37.2216Z" fill="#077D00"/>
<path d="M65.6053 35.828L63.9423 35.6969C63.8237 35.6878 63.7064 35.7261 63.6161 35.8035C63.5257 35.8808 63.4697 35.9908 63.4604 36.1094C63.451 36.2279 63.4891 36.3453 63.5662 36.4359C63.6433 36.5264 63.7532 36.5827 63.8717 36.5923L65.5347 36.7235C65.6533 36.7326 65.7707 36.6944 65.8611 36.617C65.9515 36.5397 66.0076 36.4296 66.0169 36.311C66.0263 36.1924 65.9882 36.0749 65.911 35.9844C65.8338 35.8938 65.7239 35.8376 65.6053 35.828Z" fill="#077D00"/>
<path d="M68.6759 36.0703L67.0129 35.9391C66.8943 35.9299 66.7769 35.9682 66.6865 36.0456C66.5961 36.1229 66.54 36.2329 66.5307 36.3515C66.5213 36.4701 66.5594 36.5876 66.6366 36.6782C66.7138 36.7687 66.8237 36.825 66.9423 36.8345L68.6053 36.9657C68.7239 36.9749 68.8413 36.9366 68.9317 36.8592C69.0221 36.7819 69.0782 36.6718 69.0875 36.5532C69.0969 36.4346 69.0588 36.3172 68.9816 36.2266C68.9045 36.136 68.7945 36.0798 68.6759 36.0703Z" fill="#077D00"/>
<path d="M65.6964 34.6767L64.0335 34.5455C63.9148 34.5364 63.7974 34.5747 63.707 34.652C63.6166 34.7293 63.5606 34.8394 63.5512 34.958C63.5418 35.0766 63.5799 35.1941 63.6571 35.2846C63.7343 35.3752 63.8442 35.4314 63.9628 35.441L65.6258 35.5722C65.7444 35.5812 65.8617 35.5429 65.9521 35.4655C66.0424 35.3882 66.0984 35.2782 66.1077 35.1597C66.1171 35.0411 66.0791 34.9237 66.0019 34.8331C65.9248 34.7426 65.815 34.6863 65.6964 34.6767Z" fill="#077D00"/>
<path d="M68.7664 34.9189L67.1035 34.7877C66.9849 34.7786 66.8675 34.817 66.7772 34.8943C66.6869 34.9716 66.6309 35.0816 66.6215 35.2002C66.6122 35.3187 66.6502 35.4362 66.7273 35.5267C66.8044 35.6172 66.9143 35.6735 67.0328 35.6831L68.6958 35.8143C68.8144 35.8234 68.9317 35.785 69.0221 35.7077C69.1124 35.6304 69.1684 35.5204 69.1778 35.4018C69.1871 35.2833 69.149 35.1658 69.0719 35.0753C68.9948 34.9848 68.885 34.9285 68.7664 34.9189Z" fill="#077D00"/>
<path d="M38.8104 27.7794L38.7891 28.0515L72.4658 30.697L72.4872 30.4249L38.8104 27.7794Z" fill="white"/>
<path d="M72.9735 26.455L72.9523 26.7264L71.7803 26.6345L59.293 25.6536L59.3155 25.3818L71.8014 26.363L72.9735 26.455Z" fill="#3F3D56"/>
<path d="M31.8049 23.5703C31.8049 23.5703 29.9818 31.2675 32.21 31.2675C34.4381 31.2675 39.7047 22.5575 39.7047 22.5575L37.8816 20.3293L34.6095 24.8723L34.4381 22.5575L31.8049 23.5703Z" fill="#A0616A"/>
<path d="M39.2188 22.892C40.1983 22.892 40.9923 22.098 40.9923 21.1185C40.9923 20.139 40.1983 19.345 39.2188 19.345C38.2393 19.345 37.4453 20.139 37.4453 21.1185C37.4453 22.098 38.2393 22.892 39.2188 22.892Z" fill="#A0616A"/>
<path d="M36.3189 17.0884L35.1035 15.873C35.1035 15.873 32.6728 17.291 32.4702 18.7089C32.2677 20.1268 31.2549 24.5831 31.2549 24.5831L35.0022 24.8869L36.2176 23.0639L36.3189 17.0884Z" fill="#CCAB45"/>
</g>
<defs>
<clipPath id="clip0_2609_15519">
<rect width="123.377" height="80" fill="white" transform="translate(-0.1875)"/>
</clipPath>
</defs>
</svg>
