<svg width="101" height="98" viewBox="0 0 101 98" fill="none" xmlns="http://www.w3.org/2000/svg">
<g clip-path="url(#clip0_5923_120686)">
<path d="M63.9839 22.0398H37.0383C36.4242 22.0406 35.8356 22.2858 35.4014 22.7217C34.9672 23.1576 34.7229 23.7487 34.7222 24.3651V84.4899L34.4133 84.5845L27.8031 86.6168C27.4899 86.7127 27.1515 86.6799 26.8623 86.5255C26.5731 86.3712 26.3567 86.108 26.2607 85.7936L6.59833 21.3128C6.50265 20.9983 6.53526 20.6585 6.68901 20.3681C6.84275 20.0777 7.10505 19.8604 7.41825 19.7641L17.6046 16.6327L47.135 7.55779L57.3213 4.42637C57.4763 4.37848 57.6392 4.36174 57.8006 4.37712C57.9621 4.3925 58.119 4.4397 58.2622 4.51601C58.4055 4.59233 58.5324 4.69626 58.6356 4.82186C58.7389 4.94746 58.8164 5.09226 58.8638 5.24798L63.8898 21.7298L63.9839 22.0398Z" fill="#E6F0EA"/>
<path d="M69.8641 21.73L63.8066 1.8657C63.7059 1.53472 63.5411 1.22692 63.3218 0.959895C63.1025 0.692868 62.8329 0.471845 62.5285 0.309454C62.2241 0.147064 61.8907 0.046487 61.5476 0.0134755C61.2044 -0.0195359 60.8582 0.0156647 60.5286 0.117062L46.2072 4.5181L16.6784 13.5946L2.35705 17.9971C1.69176 18.2022 1.1347 18.664 0.808153 19.281C0.481602 19.898 0.412238 20.6199 0.615289 21.2882L21.3183 89.1764C21.4832 89.7159 21.8161 90.1881 22.2679 90.5237C22.7198 90.8594 23.2669 91.0408 23.829 91.0413C24.0891 91.0415 24.3478 91.0023 24.5964 90.9251L34.4136 87.9084L34.7224 87.8123V87.4883L34.4136 87.5828L24.5053 90.629C23.918 90.8087 23.2838 90.7472 22.7416 90.4581C22.1994 90.1689 21.7936 89.6757 21.6132 89.0865L0.911815 21.1968C0.822427 20.9049 0.791273 20.5981 0.820136 20.2941C0.848998 19.9901 0.937309 19.6947 1.08002 19.425C1.22272 19.1553 1.41702 18.9165 1.65178 18.7223C1.88654 18.5281 2.15716 18.3823 2.44813 18.2932L16.7694 13.8907L46.2984 4.81574L60.6197 0.413155C60.8404 0.345535 61.0699 0.311056 61.3006 0.310841C61.7958 0.311957 62.2776 0.472241 62.6755 0.768217C63.0734 1.06419 63.3665 1.48031 63.5118 1.95561L69.5414 21.73L69.6371 22.0401H69.9583L69.8641 21.73Z" fill="#3F3D56"/>
<path d="M19.4429 19.8151C19.1453 19.8149 18.8556 19.7189 18.6163 19.5413C18.377 19.3636 18.2007 19.1137 18.1132 18.8281L16.1244 12.3061C16.0709 12.1309 16.0524 11.9469 16.0698 11.7645C16.0872 11.5821 16.1403 11.4049 16.2259 11.2431C16.3115 11.0813 16.428 10.938 16.5688 10.8214C16.7096 10.7049 16.8719 10.6172 17.0464 10.5636L44.2127 2.21364C44.5651 2.10567 44.9458 2.1425 45.2712 2.31602C45.5966 2.48955 45.8402 2.78561 45.9484 3.13922L47.9372 9.66129C48.0447 10.0151 48.008 10.3973 47.8351 10.724C47.6623 11.0506 47.3675 11.2951 47.0153 11.4038L19.8489 19.7538C19.7173 19.7944 19.5805 19.815 19.4429 19.8151Z" fill="#006430"/>
<path d="M29.8611 6.96889C31.5666 6.96889 32.9493 5.58079 32.9493 3.86848C32.9493 2.15617 31.5666 0.768066 29.8611 0.768066C28.1556 0.768066 26.7729 2.15617 26.7729 3.86848C26.7729 5.58079 28.1556 6.96889 29.8611 6.96889Z" fill="#006430"/>
<path d="M29.8613 5.83183C30.9413 5.83183 31.8168 4.95284 31.8168 3.86855C31.8168 2.78426 30.9413 1.90527 29.8613 1.90527C28.7813 1.90527 27.9058 2.78426 27.9058 3.86855C27.9058 4.95284 28.7813 5.83183 29.8613 5.83183Z" fill="white"/>
<path d="M93.5516 90.2488H41.3618C41.0138 90.2484 40.6802 90.1094 40.4342 89.8624C40.1881 89.6154 40.0497 89.2805 40.0493 88.9311V26.1478C40.0497 25.7984 40.1881 25.4635 40.4342 25.2164C40.6802 24.9694 41.0138 24.8305 41.3618 24.8301H93.5516C93.8995 24.8305 94.2331 24.9694 94.4792 25.2165C94.7252 25.4635 94.8636 25.7984 94.864 26.1478V88.9311C94.8636 89.2805 94.7252 89.6154 94.4792 89.8624C94.2331 90.1094 93.8995 90.2484 93.5516 90.2488Z" fill="#CCE0D6"/>
<path d="M69.5413 21.73H37.0385C36.3426 21.731 35.6755 22.0089 35.1835 22.503C34.6914 22.997 34.4146 23.6667 34.4136 24.3653V87.5828L34.7224 87.4882V24.3653C34.7231 23.7489 34.9674 23.1578 35.4016 22.7219C35.8358 22.286 36.4245 22.0408 37.0385 22.04H69.6371L69.5413 21.73ZM97.8751 21.73H37.0385C36.3426 21.731 35.6755 22.0089 35.1835 22.503C34.6914 22.997 34.4146 23.6667 34.4136 24.3653V95.3648C34.4146 96.0634 34.6914 96.7332 35.1835 97.2272C35.6755 97.7212 36.3426 97.9992 37.0385 98.0001H97.8751C98.571 97.9992 99.2381 97.7212 99.7302 97.2272C100.222 96.7332 100.499 96.0634 100.5 95.3648V24.3653C100.499 23.6667 100.222 22.997 99.7302 22.503C99.2381 22.0089 98.571 21.731 97.8751 21.73ZM100.191 95.3648C100.19 95.9813 99.9462 96.5723 99.512 97.0082C99.0779 97.4441 98.4892 97.6894 97.8751 97.6901H37.0385C36.4245 97.6894 35.8358 97.4441 35.4016 97.0082C34.9674 96.5723 34.7231 95.9813 34.7224 95.3648V24.3653C34.7231 23.7489 34.9674 23.1578 35.4016 22.7219C35.8358 22.286 36.4245 22.0408 37.0385 22.04H97.8751C98.4892 22.0408 99.0779 22.286 99.512 22.7219C99.9462 23.1578 100.19 23.7489 100.191 24.3653V95.3648Z" fill="#3F3D56"/>
<path d="M81.6625 28.5507H53.2515C52.883 28.5503 52.5298 28.4032 52.2693 28.1416C52.0088 27.8801 51.8622 27.5254 51.8618 27.1555V20.3346C51.8622 19.9647 52.0088 19.6101 52.2693 19.3486C52.5298 19.087 52.883 18.9399 53.2515 18.9395H81.6625C82.0309 18.9399 82.3842 19.087 82.6447 19.3486C82.9052 19.6101 83.0518 19.9647 83.0522 20.3346V27.1555C83.0518 27.5254 82.9052 27.8801 82.6447 28.1416C82.3842 28.4032 82.0309 28.5503 81.6625 28.5507Z" fill="#006430"/>
<path d="M67.4568 19.4044C69.1623 19.4044 70.545 18.0163 70.545 16.304C70.545 14.5917 69.1623 13.2036 67.4568 13.2036C65.7513 13.2036 64.3687 14.5917 64.3687 16.304C64.3687 18.0163 65.7513 19.4044 67.4568 19.4044Z" fill="#006430"/>
<path d="M67.4567 18.1924C68.4955 18.1924 69.3376 17.3469 69.3376 16.304C69.3376 15.261 68.4955 14.4155 67.4567 14.4155C66.4178 14.4155 65.5757 15.261 65.5757 16.304C65.5757 17.3469 66.4178 18.1924 67.4567 18.1924Z" fill="white"/>
</g>
<defs>
<clipPath id="clip0_5923_120686">
<rect width="100" height="98" fill="white" transform="translate(0.5)"/>
</clipPath>
</defs>
</svg>
