<svg width="106" height="80" viewBox="0 0 106 80" fill="none" xmlns="http://www.w3.org/2000/svg">
<g clip-path="url(#clip0_2609_12035)">
<path d="M97.4143 72.7156C93.9646 75.3426 89.7619 78.0038 85.6299 79.2585C84.4388 79.631 83.2096 79.8688 81.9655 79.9674C80.8023 80.0609 79.6317 79.9701 78.4969 79.6983C75.5148 78.9565 72.7487 77.6576 70.0724 76.14C69.198 75.6434 68.3337 75.124 67.4745 74.5933C66.0719 73.7265 64.6832 72.8293 63.2907 71.9536C63.0822 71.821 62.875 71.6908 62.6665 71.5619H62.6652C62.3291 71.3509 61.9921 71.1428 61.6543 70.9377C61.5949 70.9011 61.5355 70.8657 61.4749 70.829C60.8368 70.4424 60.1877 70.0646 59.5277 69.6956C59.4468 69.6514 59.3659 69.6059 59.2851 69.5616C58.0081 68.8533 56.6956 68.211 55.3527 67.6372C54.4707 67.2657 53.5774 66.9308 52.6751 66.6452H52.6739C52.3289 66.5366 51.9827 66.4342 51.6352 66.3407C50.5932 66.0548 49.5314 65.847 48.4585 65.719C46.9801 65.54 45.4848 65.5519 44.0094 65.7544C43.9095 65.7683 43.811 65.7822 43.7112 65.7986C39.7182 66.438 36.0739 68.5937 32.0633 69.1017C31.9331 69.1181 31.8042 69.1333 31.6741 69.1447C31.6185 69.1497 31.5629 69.156 31.5073 69.1598C30.3418 69.2596 29.1688 69.2307 28.0096 69.0739C24.771 68.6468 21.6171 67.3213 18.7777 65.6508C12.14 61.745 6.75708 55.7416 3.48435 48.7893C2.92235 47.5978 2.42338 46.3775 1.98951 45.1337C0.776443 41.6843 0.108402 38.067 0.00944078 34.412C-0.297615 21.7305 6.90871 9.00724 18.223 3.27175C29.5386 -2.46375 44.4238 -0.56708 53.5496 8.24403C59.0854 13.5891 62.2886 20.832 66.4547 27.303C70.6208 33.7726 76.5421 39.9529 84.1793 40.8955C88.0699 41.3757 92.1413 40.447 95.8702 41.655C97.9349 42.3247 99.6964 43.606 101.115 45.2385C102.069 46.3464 102.868 47.5793 103.488 48.903C103.943 49.86 104.312 50.8554 104.592 51.8775C104.643 52.0658 104.691 52.2541 104.738 52.4423C106.596 60.029 103.627 67.9821 97.4143 72.7156Z" fill="#CDE5CC"/>
<path d="M35.2749 58.9814H23.397C21.6174 58.9814 20.1748 60.4241 20.1748 62.2036V62.2036C20.1748 63.9832 21.6174 65.4258 23.397 65.4258H35.2749C37.0544 65.4258 38.4971 63.9832 38.4971 62.2036C38.4971 60.4241 37.0544 58.9814 35.2749 58.9814Z" fill="#3F3D56"/>
<path d="M31.6742 63.7832V69.1447C30.4541 69.2627 29.2244 69.239 28.0098 69.0739V63.7832H31.6742Z" fill="#3F3D56"/>
<path d="M44.0096 65.7544C43.9097 65.7683 43.8112 65.7822 43.7114 65.7986C39.7184 66.438 36.0741 68.5937 32.0635 69.1016C31.9333 69.1181 31.8044 69.1332 31.6743 69.1446C31.6187 69.1497 31.5631 69.156 31.5075 69.1598C30.5282 68.2007 29.5489 67.1797 28.629 66.1221C28.1299 65.5497 27.6472 64.9659 27.1935 64.3745C26.0159 62.8481 25.0176 61.2787 24.358 59.7371C24.425 58.9979 23.965 57.2882 23.7452 55.9791L23.7439 55.9779C23.6504 55.4282 23.5998 54.9506 23.6466 54.6435C23.9145 52.8719 25.3613 53.0754 25.8061 51.3392C26.2073 51.0062 26.6345 50.7057 27.0836 50.4408C27.1582 50.3965 27.234 50.3523 27.3123 50.3081L32.1393 46.9722L33.9841 48.7816L36.7919 51.5363L39.8346 54.5197L37.2518 57.129C37.2518 57.129 39.41 59.6171 41.9335 62.934C42.6108 63.8248 43.3146 64.7763 44.0096 65.7544Z" fill="#2F2E41"/>
<path d="M85.6303 63.7832V79.2586C84.4391 79.631 83.21 79.8688 81.9658 79.9674V63.7832H85.6303Z" fill="#3F3D56"/>
<path d="M90.3686 62.5195H78.4907C76.7112 62.5195 75.2686 63.9621 75.2686 65.7417V65.7417C75.2686 67.5213 76.7112 68.9639 78.4907 68.9639H90.3686C92.1482 68.9639 93.5908 67.5213 93.5908 65.7417C93.5908 63.9621 92.1482 62.5195 90.3686 62.5195Z" fill="#3F3D56"/>
<path d="M61.475 70.8291C60.8369 70.4424 60.1878 70.0646 59.5278 69.6956C59.4469 69.6514 59.366 69.6059 59.2852 69.5617L59.7198 69.3759L60.8925 68.8718L60.9038 68.8667L60.9165 68.9097L61.475 70.8291Z" fill="#FFB6B6"/>
<path d="M63.2906 71.9535C63.0821 71.8209 62.8749 71.6907 62.6664 71.5618H62.6651C62.329 71.3508 61.992 71.1427 61.6542 70.9376C61.5948 70.901 61.5354 70.8656 61.4748 70.8289C60.8367 70.4423 60.1876 70.0645 59.5276 69.6955C59.4467 69.6513 59.3658 69.6058 59.285 69.5615C58.008 68.8532 56.6955 68.2109 55.3526 67.6371C54.4706 67.2656 53.5773 66.9307 52.6751 66.6451H52.6738L51.9649 65.4586L48.7743 60.1148L48.073 58.941C48.073 58.941 45.681 59.6486 42.2958 60.3271C41.0638 60.5748 39.7016 60.8174 38.2725 61.0221C36.7448 61.2394 35.1426 61.4126 33.5504 61.496C32.791 61.5364 32.0341 61.5566 31.2886 61.5503C29.3616 61.5377 27.5104 61.357 25.8892 60.9273C25.3484 60.4194 23.7183 59.7282 22.5508 59.0951H22.5495C22.0592 58.8298 21.6523 58.5758 21.4388 58.3496C20.208 57.0481 21.2593 56.0334 20.1651 54.6131C20.1503 54.0921 20.177 53.5707 20.2447 53.0538C20.256 52.9679 20.2674 52.8807 20.2813 52.7923L20.6263 46.9342L23.1889 46.5955L27.0884 46.08L31.3126 45.5215L31.7776 49.1632C31.7776 49.1632 35.0667 48.9964 39.2341 49.052C45.9274 49.143 54.8838 49.8102 56.0969 52.6735C56.2106 52.9426 56.3243 53.2143 56.4381 53.486C56.7085 54.1355 56.9764 54.7883 57.2417 55.4446C58.2033 57.8201 59.1207 60.2185 59.9585 62.4854C60.4791 63.8955 60.9694 65.2552 61.4205 66.5276C61.7831 67.5511 62.1192 68.5191 62.4263 69.4099C62.7068 70.2237 62.9608 70.973 63.187 71.6452C63.2223 71.7501 63.2565 71.8537 63.2906 71.9535Z" fill="#2F2E41"/>
<path d="M39.7171 36.4605L31.623 29.5863L36.8891 24.2568L40.563 30.2745L54.1814 32.9744C54.5909 32.6663 55.0812 32.4839 55.5925 32.4496C56.1039 32.4152 56.6142 32.5304 57.0612 32.7811C57.5082 33.0317 57.8726 33.4071 58.11 33.8612C58.3474 34.3154 58.4475 34.8289 58.3981 35.339C58.3488 35.8491 58.152 36.3339 57.8319 36.7341C57.5118 37.1343 57.0822 37.4328 56.5954 37.5931C56.1086 37.7533 55.5857 37.7685 55.0904 37.6367C54.5952 37.505 54.1489 37.2319 53.8062 36.8509L39.7171 36.4605Z" fill="#A0616A"/>
<path d="M24.4702 20.5521C23.5348 23.5951 32.4435 30.8529 32.4435 30.8529C32.5425 30.1224 37.5934 36.4221 37.937 35.8516C38.9137 34.2301 39.9883 30.222 41.1158 29.7097C41.7606 29.4167 38.0616 25.3448 38.0616 25.3448C38.0616 25.3448 36.1747 22.8484 33.6834 19.6845C32.9957 18.777 32.0895 18.0582 31.0493 17.5951C30.009 17.132 28.8685 16.9396 27.7339 17.0359C27.7339 17.0359 25.4056 17.509 24.4702 20.5521Z" fill="#CCAB45"/>
<path d="M28.409 13.8156C31.4325 13.8156 33.8834 11.3646 33.8834 8.34114C33.8834 5.31769 31.4325 2.8667 28.409 2.8667C25.3856 2.8667 22.9346 5.31769 22.9346 8.34114C22.9346 11.3646 25.3856 13.8156 28.409 13.8156Z" fill="#A0616A"/>
<path d="M31.1463 17.4337C32.3257 18.1348 33.0312 19.4231 33.4362 20.7341C34.186 23.1611 34.6373 25.6704 34.7802 28.2066L35.208 35.7995L40.5058 51.967C35.9143 55.8521 18.6557 52.85 18.6557 52.85C18.6557 52.85 18.1259 52.6734 18.6557 52.1436C19.1855 51.6138 19.7012 52.0832 19.1715 51.5534C18.6417 51.0236 19.0069 51.6138 19.1835 51.084C19.3601 50.5542 19.1835 50.9074 19.0069 50.7308C18.8303 50.5542 20.374 48.9649 20.374 48.9649L18.9613 39.6846L17.1953 20.9656C19.3145 18.3166 23.5763 16.7551 23.5763 16.7551L24.6775 14.7729L30.1836 15.2134L31.1463 17.4337Z" fill="#CCAB45"/>
<path d="M32.9222 5.43239C33.3476 5.74974 33.6629 6.19254 33.8235 6.69846C33.8852 5.87168 33.8891 5.04161 33.8352 4.21429C33.7707 3.63292 33.3614 3.50216 32.8874 3.35063C32.4594 3.21373 31.9754 3.05909 31.8452 2.49472C30.1243 0.820644 27.1287 0.90506 25.0785 1.489C23.9504 1.81034 23.3013 2.22319 23.2432 2.46504L23.2312 2.51482L23.1854 2.53773C22.3158 2.97251 22.1465 4.34548 22.1577 5.42066C22.1789 7.4464 22.8784 9.74712 23.2724 9.93402C23.2932 9.94391 23.2985 9.94004 23.3075 9.93251C23.9008 9.45837 24.6247 9.96854 24.9428 10.2459C25.1304 8.98686 25.7345 7.82702 26.6587 6.95161C27.5828 6.0762 28.7736 5.53572 30.0409 5.41648C30.4548 5.37648 30.8654 5.30763 31.2697 5.21044C31.4748 5.15739 31.6856 5.12972 31.8974 5.12807C32.2621 5.12253 32.6197 5.22873 32.9222 5.43239Z" fill="#2F2E41"/>
<path d="M26.0235 44.7085L24.3489 43.8508C24.2591 43.7869 24.1954 43.6928 24.1693 43.5858C24.1432 43.4787 24.1565 43.3659 24.2067 43.2678C24.2569 43.1698 24.3408 43.093 24.4429 43.0517C24.545 43.0103 24.6586 43.007 24.7629 43.0425L26.4375 43.9001C26.5272 43.9641 26.591 44.0581 26.6171 44.1652C26.6432 44.2722 26.6299 44.3851 26.5797 44.4831C26.5294 44.5812 26.4456 44.6579 26.3435 44.6993C26.2414 44.7407 26.1278 44.7439 26.0235 44.7085Z" fill="#077D00"/>
<path d="M20.3876 42.4109L17.6328 32.1553L24.9944 30.7617L24.5985 37.8011L34.271 47.7607C34.7831 47.7397 35.2902 47.8682 35.7305 48.1305C36.1708 48.3928 36.5252 48.7775 36.7507 49.2378C36.9761 49.698 37.0627 50.2139 37 50.7226C36.9373 51.2312 36.7279 51.7106 36.3975 52.1024C36.067 52.4941 35.6297 52.7812 35.1389 52.9286C34.648 53.0761 34.1249 53.0776 33.6333 52.9329C33.1416 52.7882 32.7027 52.5036 32.37 52.1138C32.0373 51.7239 31.8253 51.2457 31.7597 50.7374L20.3876 42.4109Z" fill="#A0616A"/>
<path d="M16.8794 20.6563C14.3806 22.629 17.5878 33.6632 17.5878 33.6632C18.0843 33.1183 18.6613 41.1722 19.2683 40.898C20.9933 40.1186 24.155 37.4309 25.3739 37.65C26.0709 37.7752 25.3406 32.3227 25.3406 32.3227C25.3406 32.3227 25.2063 29.1963 24.9538 25.1773C24.9035 24.0397 24.5662 22.9333 23.9733 21.9612C23.3805 20.989 22.5512 20.1827 21.5629 19.6172C21.5629 19.6172 19.3781 18.6837 16.8794 20.6563Z" fill="#CCAB45"/>
<path d="M103.488 48.9031L3.48409 48.7894C2.9221 47.5979 2.42313 46.3777 1.98926 45.1338L101.115 45.2387C102.069 46.3465 102.868 47.5794 103.488 48.9031Z" fill="#3F3D56"/>
<path d="M71.6369 75.416C71.1201 75.6662 70.5987 75.9076 70.0726 76.1401C69.1982 75.6435 68.3339 75.1241 67.4746 74.5934L70.6614 73.1934L71.6369 75.416Z" fill="#FFB6B6"/>
<path d="M94.8715 58.0033C94.3534 58.6983 93.8189 59.3794 93.268 60.0465C92.76 60.6619 92.2385 61.2655 91.7036 61.8573C91.4825 62.1024 91.2588 62.3463 91.0301 62.5877C90.6093 63.0388 90.1793 63.4823 89.74 63.9182C88.949 64.1672 87.3467 64.6056 85.6295 65.015C84.3798 65.312 83.0694 65.5938 81.965 65.7732C81.3468 65.8842 80.7214 65.9509 80.0936 65.9729C79.3481 65.9792 78.5912 65.959 77.8318 65.9185C76.9751 65.873 76.1171 65.8023 75.2692 65.7113C73.0642 65.48 70.9287 65.1199 69.0864 64.7497C68.4116 64.6157 67.7773 64.4793 67.1935 64.3466C66.0879 64.0977 65.1629 63.8652 64.4932 63.6883C63.7388 63.4911 63.3092 63.3635 63.3092 63.3635L61.4201 66.5276L60.4396 68.169L59.7193 69.3757L59.5272 69.6954C59.4464 69.6512 59.3655 69.6057 59.2846 69.5615C58.0076 68.8531 56.6951 68.2108 55.3523 67.637C54.4703 67.2655 53.5769 66.9307 52.6747 66.6451H52.6735C52.3285 66.5364 51.9823 66.4341 51.6348 66.3406C51.7434 66.0487 51.8534 65.7547 51.9646 65.4586C52.1718 64.9064 52.3832 64.3491 52.5989 63.7868C53.0652 62.5687 53.5479 61.3329 54.0445 60.1034C54.4513 59.0938 54.8658 58.088 55.2853 57.096C55.4787 56.6386 55.8716 56.2368 56.4213 55.8842C56.684 55.7186 56.958 55.5716 57.2414 55.4445C58.8146 54.728 61.132 54.2618 63.6858 53.9623C63.8968 53.9383 64.1091 53.9143 64.3226 53.8915C66.4366 53.6691 68.6795 53.5542 70.7771 53.5011C71.8272 53.4745 72.8406 53.4644 73.7832 53.4632C74.0877 53.4632 74.3839 53.464 74.6715 53.4657H74.6728C75.4499 53.4695 76.1651 53.4809 76.7944 53.4935C76.917 53.496 77.0357 53.4998 77.152 53.5023H77.1532C77.2316 53.5036 77.3087 53.5061 77.3845 53.5074C78.7605 53.5428 79.6046 53.5857 79.6046 53.5857L79.9319 51.0181L79.9989 50.5L80.0621 50.0072V50.006L80.0696 49.944L80.1215 49.9428L81.0312 49.9251L88.6786 49.776L92.856 49.6938L92.1939 52.5319L91.1009 57.2148C91.2121 57.9553 94.9094 57.3753 94.8715 58.0033Z" fill="#2F2E41"/>
<path d="M72.5795 74.9483C72.2673 75.1075 71.9527 75.2642 71.6368 75.4158C71.12 75.666 70.5985 75.9073 70.0725 76.1398C69.1981 75.6432 68.3338 75.1239 67.4745 74.5932C66.0719 73.7264 64.6832 72.8292 63.2907 71.9535C63.0822 71.8208 62.875 71.6907 62.6665 71.5618H62.6652C62.0916 70.7101 61.5065 69.8231 60.9164 68.9095C60.9076 68.8969 60.9 68.8842 60.8924 68.8716C60.7408 68.6391 60.59 68.4049 60.44 68.169C59.4961 66.6906 58.5471 65.149 57.626 63.5746L59.9586 62.4853L64.2953 60.4611L65.0433 60.1123L67.194 64.3466L69.1121 68.1235L69.5392 68.9638L72.5795 74.9483Z" fill="#2F2E41"/>
<path d="M73.2329 54.6194L84.2895 43.9567L87.354 35.2795L82.8337 33.314C80.5119 35.5381 78.0021 42.4655 78.0021 42.4655L70.3936 52.1453C70.3343 52.1656 70.2752 52.1871 70.2168 52.2129C69.8741 52.3641 69.5762 52.601 69.3518 52.9009C69.1275 53.2008 68.9843 53.5535 68.9361 53.9249C68.8879 54.2963 68.9363 54.6739 69.0766 55.0211C69.217 55.3684 69.4446 55.6735 69.7373 55.9071C70.0301 56.1407 70.3782 56.2948 70.7479 56.3546C71.1176 56.4144 71.4965 56.3777 71.848 56.2483C72.1994 56.1188 72.5115 55.9009 72.7541 55.6155C72.9967 55.3302 73.1616 54.9871 73.2329 54.6194Z" fill="#9E616A"/>
<path d="M81.5615 34.2826L87.2952 36.1028L87.3168 36.0992C89.4508 35.7417 91.2217 32.2563 92.3313 29.3953C92.6964 28.4516 92.6896 27.4045 92.3123 26.4657C91.9349 25.5268 91.2152 24.7663 90.2985 24.3378C89.6202 24.0263 88.8683 23.9107 88.1277 24.0041C87.3871 24.0976 86.6875 24.3963 86.1078 24.8665L83.1635 27.2723L81.5615 34.2826Z" fill="#077D00"/>
<path d="M94.8486 58.1314L94.8821 58.0869C96.671 55.7143 94.2243 49.8389 93.8544 48.9868L95.5177 48.4941L95.2278 45.3271L95.0882 43.9148L96.3815 42.6867L96.3858 42.6553L97.2753 36.3256L98.439 32.1363C98.8776 30.5525 98.8869 28.8806 98.4659 27.2921C98.0448 25.7036 97.2086 24.2557 96.0431 23.0971L93.6641 20.7351L90.8139 16.2738L86.035 16.1504L84.3165 19.2031C82.7184 19.5293 81.2854 20.4057 80.2671 21.6798C79.2487 22.9539 78.7096 24.5448 78.7437 26.1755L78.9055 34.3025L77.1907 44.3717L77.1426 46.2008L75.4596 47.9768L75.7707 49.7723L74.5118 50.2738L73.8958 52.8252C73.6605 53.1196 72.107 55.0833 72.0928 55.6307C72.0907 55.7129 72.1493 55.7939 72.2772 55.8854C73.2828 56.6048 78.9032 58.1638 81.4328 57.2266C84.1272 56.2291 94.6873 58.1025 94.7937 58.1215L94.8486 58.1314Z" fill="#077D00"/>
<path d="M88.0079 14.7828C91.5044 14.7828 94.339 11.9483 94.339 8.45171C94.339 4.95514 91.5044 2.12061 88.0079 2.12061C84.5113 2.12061 81.6768 4.95514 81.6768 8.45171C81.6768 11.9483 84.5113 14.7828 88.0079 14.7828Z" fill="#9E616A"/>
<path d="M87.2347 14.8676C88.2151 14.8829 89.195 14.8144 90.1638 14.6629C91.124 14.4676 93.2722 12.8934 93.871 11.9462C94.3159 11.2423 94.6004 10.1433 94.7608 9.34528C94.9767 8.28927 94.9685 7.19967 94.7366 6.14704C94.5047 5.09441 94.0543 4.10223 93.4146 3.23473C93.1687 2.87188 92.8293 2.58223 92.4323 2.39641C92.3972 2.38265 92.361 2.37046 92.3244 2.36004C91.7459 2.20784 91.2262 1.88623 90.8318 1.43649C90.7554 1.34552 90.6724 1.26018 90.5837 1.18113C90.138 0.805003 89.6096 0.539692 89.0418 0.406883C88.1252 0.161566 86.7986 0.405076 85.0991 1.13135C84.2452 1.49624 83.3114 1.36419 82.5931 1.20836C82.5528 1.20058 82.5112 1.20348 82.4723 1.21678C82.4335 1.23008 82.3988 1.25332 82.3718 1.28418C82.0661 1.5711 81.6632 1.73171 81.244 1.73372C80.9873 1.745 80.7179 2.10052 80.3923 2.56413C80.3184 2.66937 80.2322 2.79219 80.17 2.8669L80.1616 2.72337L80.0164 2.88349C79.7881 3.13513 79.6272 3.44046 79.5487 3.77104C79.4701 4.10162 79.4765 4.44669 79.5673 4.77413C79.658 5.10157 79.8301 5.40072 80.0676 5.64373C80.3051 5.88673 80.6002 6.06569 80.9255 6.16394C81.1838 6.23266 81.4484 6.27483 81.7152 6.28979C81.8769 6.30434 82.0441 6.31938 82.2043 6.34718C82.7185 6.45248 83.1967 6.68933 83.5921 7.03461C83.9875 7.37988 84.2866 7.82178 84.4602 8.31715C84.5012 8.43166 84.568 8.5352 84.6555 8.61978C84.7429 8.70436 84.8486 8.76772 84.9644 8.80497C85.0802 8.84222 85.203 8.85236 85.3233 8.83461C85.4437 8.81686 85.5583 8.77169 85.6584 8.70259C85.8254 8.57262 86.0212 8.48495 86.2293 8.44705C86.4375 8.40915 86.6517 8.42215 86.8537 8.48495C87.0283 8.58202 87.1641 8.73616 87.2386 8.92152C87.329 9.12803 87.4789 9.30293 87.6692 9.42389C88.3199 9.75938 88.3647 11.2456 88.131 12.4846C87.9058 13.6789 87.4604 14.5428 87.0481 14.5855C86.7307 14.6184 86.6944 14.6409 86.6714 14.697L86.6509 14.7473L86.6866 14.7943C86.8619 14.8579 87.0488 14.8829 87.2347 14.8676Z" fill="#2F2E41"/>
<path d="M83.1346 32.3683L80.6935 27.5015C77.1502 27.7435 70.1178 31.8403 70.1178 31.8403L56.8122 34.6614C56.418 34.5099 55.9909 34.4649 55.5738 34.5309C55.1567 34.5969 54.7644 34.7717 54.4363 35.0375C54.1082 35.3034 53.856 35.651 53.7049 36.0454C53.5539 36.4397 53.5094 36.8669 53.5759 37.2839C53.6425 37.7009 53.8177 38.093 54.0839 38.4208C54.3502 38.7485 54.6981 39.0004 55.0926 39.151C55.4871 39.3015 55.9143 39.3455 56.3313 39.2785C56.7482 39.2115 57.1401 39.0358 57.4676 38.7691L74.3931 37.5559L83.1346 32.3683Z" fill="#9E616A"/>
<path d="M82.1492 33.1676L88.5245 28.4298L89.6475 24.3828C89.8651 23.5875 89.8559 22.7472 89.621 21.9569C89.386 21.1666 88.9347 20.4577 88.3181 19.9104C87.4771 19.1741 86.388 18.7846 85.2709 18.8207C84.1538 18.8567 83.092 19.3156 82.3003 20.1045C79.9011 22.4992 77.1648 25.84 77.7526 28.1566L77.7585 28.1801L82.1492 33.1676Z" fill="#077D00"/>
<path d="M74.2579 45.8398H57.1992V48.1143H74.2579V45.8398Z" fill="white"/>
<path d="M30.6631 45.8398H13.6045V48.1143H30.6631V45.8398Z" fill="white"/>
<path d="M32.6553 34.9022V45.7318C32.6554 45.8698 32.7103 46.0022 32.8078 46.0997C32.9054 46.1973 33.0378 46.2522 33.1758 46.2523H49.2241C49.3621 46.2522 49.4944 46.1973 49.592 46.0997C49.6896 46.0022 49.7445 45.8698 49.7446 45.7318V34.9022C49.7442 34.7643 49.6893 34.6322 49.5917 34.5348C49.4942 34.4373 49.362 34.3825 49.2241 34.3823H33.1758C33.0379 34.3825 32.9057 34.4373 32.8081 34.5348C32.7106 34.6322 32.6556 34.7643 32.6553 34.9022Z" fill="#3F3D56"/>
<path d="M33.0312 35.0366V45.5978C33.0314 45.6715 33.0607 45.7422 33.1129 45.7944C33.165 45.8465 33.2357 45.8759 33.3094 45.876H49.09C49.1637 45.8759 49.2344 45.8465 49.2865 45.7944C49.3387 45.7422 49.368 45.6715 49.3682 45.5978V35.0366C49.3682 34.9627 49.3389 34.8919 49.2867 34.8397C49.2346 34.7874 49.1638 34.758 49.09 34.7578H33.3094C33.2356 34.758 33.1648 34.7874 33.1127 34.8397C33.0605 34.8919 33.0313 34.9627 33.0312 35.0366Z" fill="#9CCB99"/>
<path d="M32.3191 47.8435C32.3485 47.8804 32.3859 47.9101 32.4284 47.9304C32.471 47.9508 32.5176 47.9612 32.5647 47.961H49.7487C49.7957 47.9609 49.8421 47.9504 49.8845 47.9302C49.9269 47.9099 49.9643 47.8805 49.9939 47.844C50.0235 47.8075 50.0446 47.7648 50.0556 47.7192C50.0667 47.6735 50.0674 47.6259 50.0578 47.5799L49.791 46.3129C49.78 46.2612 49.7562 46.2131 49.7218 46.173C49.6874 46.1329 49.6435 46.102 49.5942 46.0832C49.5584 46.0692 49.5204 46.062 49.482 46.062H32.8304C32.792 46.062 32.7539 46.0692 32.7182 46.0832C32.6688 46.102 32.625 46.1329 32.5906 46.173C32.5562 46.2131 32.5324 46.2612 32.5213 46.3129L32.2546 47.5799C32.2451 47.6259 32.246 47.6734 32.2571 47.719C32.2683 47.7646 32.2895 47.8071 32.3191 47.8435Z" fill="#2F2E41"/>
<path d="M48.8928 46.6079H49.2987C49.3327 46.6079 49.3604 46.5803 49.3604 46.5462V46.352C49.3604 46.318 49.3327 46.2904 49.2987 46.2904H48.8928C48.8587 46.2904 48.8311 46.318 48.8311 46.352V46.5462C48.8311 46.5803 48.8587 46.6079 48.8928 46.6079Z" fill="#3F3D56"/>
<path d="M47.8342 46.6079H48.2401C48.2741 46.6079 48.3018 46.5803 48.3018 46.5462V46.352C48.3018 46.318 48.2741 46.2904 48.2401 46.2904H47.8342C47.8001 46.2904 47.7725 46.318 47.7725 46.352V46.5462C47.7725 46.5803 47.8001 46.6079 47.8342 46.6079Z" fill="#3F3D56"/>
<path d="M46.7756 46.6079H47.1815C47.2155 46.6079 47.2432 46.5803 47.2432 46.5462V46.352C47.2432 46.318 47.2155 46.2904 47.1815 46.2904H46.7756C46.7415 46.2904 46.7139 46.318 46.7139 46.352V46.5462C46.7139 46.5803 46.7415 46.6079 46.7756 46.6079Z" fill="#3F3D56"/>
<path d="M45.717 46.6079H46.1229C46.1569 46.6079 46.1846 46.5803 46.1846 46.5462V46.352C46.1846 46.318 46.1569 46.2904 46.1229 46.2904H45.717C45.6829 46.2904 45.6553 46.318 45.6553 46.352V46.5462C45.6553 46.5803 45.6829 46.6079 45.717 46.6079Z" fill="#3F3D56"/>
<path d="M44.6584 46.6079H45.0643C45.0984 46.6079 45.126 46.5803 45.126 46.5462V46.352C45.126 46.318 45.0984 46.2904 45.0643 46.2904H44.6584C44.6243 46.2904 44.5967 46.318 44.5967 46.352V46.5462C44.5967 46.5803 44.6243 46.6079 44.6584 46.6079Z" fill="#3F3D56"/>
<path d="M43.5998 46.6079H44.0057C44.0398 46.6079 44.0674 46.5803 44.0674 46.5462V46.352C44.0674 46.318 44.0398 46.2904 44.0057 46.2904H43.5998C43.5657 46.2904 43.5381 46.318 43.5381 46.352V46.5462C43.5381 46.5803 43.5657 46.6079 43.5998 46.6079Z" fill="#3F3D56"/>
<path d="M42.5412 46.6079H42.9471C42.9812 46.6079 43.0088 46.5803 43.0088 46.5462V46.352C43.0088 46.318 42.9812 46.2904 42.9471 46.2904H42.5412C42.5072 46.2904 42.4795 46.318 42.4795 46.352V46.5462C42.4795 46.5803 42.5072 46.6079 42.5412 46.6079Z" fill="#3F3D56"/>
<path d="M41.4826 46.6079H41.8885C41.9226 46.6079 41.9502 46.5803 41.9502 46.5462V46.352C41.9502 46.318 41.9226 46.2904 41.8885 46.2904H41.4826C41.4486 46.2904 41.4209 46.318 41.4209 46.352V46.5462C41.4209 46.5803 41.4486 46.6079 41.4826 46.6079Z" fill="#3F3D56"/>
<path d="M40.425 46.6079H40.8309C40.865 46.6079 40.8926 46.5803 40.8926 46.5462V46.352C40.8926 46.318 40.865 46.2904 40.8309 46.2904H40.425C40.3909 46.2904 40.3633 46.318 40.3633 46.352V46.5462C40.3633 46.5803 40.3909 46.6079 40.425 46.6079Z" fill="#3F3D56"/>
<path d="M39.3664 46.6079H39.7723C39.8064 46.6079 39.834 46.5803 39.834 46.5462V46.352C39.834 46.318 39.8064 46.2904 39.7723 46.2904H39.3664C39.3323 46.2904 39.3047 46.318 39.3047 46.352V46.5462C39.3047 46.5803 39.3323 46.6079 39.3664 46.6079Z" fill="#3F3D56"/>
<path d="M38.3078 46.6079H38.7137C38.7478 46.6079 38.7754 46.5803 38.7754 46.5462V46.352C38.7754 46.318 38.7478 46.2904 38.7137 46.2904H38.3078C38.2738 46.2904 38.2461 46.318 38.2461 46.352V46.5462C38.2461 46.5803 38.2738 46.6079 38.3078 46.6079Z" fill="#3F3D56"/>
<path d="M37.2492 46.6079H37.6551C37.6892 46.6079 37.7168 46.5803 37.7168 46.5462V46.352C37.7168 46.318 37.6892 46.2904 37.6551 46.2904H37.2492C37.2152 46.2904 37.1875 46.318 37.1875 46.352V46.5462C37.1875 46.5803 37.2152 46.6079 37.2492 46.6079Z" fill="#3F3D56"/>
<path d="M36.1906 46.6079H36.5965C36.6306 46.6079 36.6582 46.5803 36.6582 46.5462V46.352C36.6582 46.318 36.6306 46.2904 36.5965 46.2904H36.1906C36.1566 46.2904 36.1289 46.318 36.1289 46.352V46.5462C36.1289 46.5803 36.1566 46.6079 36.1906 46.6079Z" fill="#3F3D56"/>
<path d="M35.132 46.6079H35.5379C35.572 46.6079 35.5996 46.5803 35.5996 46.5462V46.352C35.5996 46.318 35.572 46.2904 35.5379 46.2904H35.132C35.098 46.2904 35.0704 46.318 35.0704 46.352V46.5462C35.0704 46.5803 35.098 46.6079 35.132 46.6079Z" fill="#3F3D56"/>
<path d="M34.0734 46.6079H34.4793C34.5134 46.6079 34.541 46.5803 34.541 46.5462V46.352C34.541 46.318 34.5134 46.2904 34.4793 46.2904H34.0734C34.0394 46.2904 34.0118 46.318 34.0118 46.352V46.5462C34.0118 46.5803 34.0394 46.6079 34.0734 46.6079Z" fill="#3F3D56"/>
<path d="M33.0149 46.6079H33.4207C33.4548 46.6079 33.4824 46.5803 33.4824 46.5462V46.352C33.4824 46.318 33.4548 46.2904 33.4207 46.2904H33.0149C32.9808 46.2904 32.9532 46.318 32.9532 46.352V46.5462C32.9532 46.5803 32.9808 46.6079 33.0149 46.6079Z" fill="#3F3D56"/>
<path d="M48.9055 47.1372H49.3114C49.3454 47.1372 49.373 47.1096 49.373 47.0755V46.8813C49.373 46.8473 49.3454 46.8197 49.3114 46.8197H48.9055C48.8714 46.8197 48.8438 46.8473 48.8438 46.8813V47.0755C48.8438 47.1096 48.8714 47.1372 48.9055 47.1372Z" fill="#3F3D56"/>
<path d="M47.8469 47.1372H48.2528C48.2868 47.1372 48.3145 47.1096 48.3145 47.0755V46.8813C48.3145 46.8473 48.2868 46.8197 48.2528 46.8197H47.8469C47.8128 46.8197 47.7852 46.8473 47.7852 46.8813V47.0755C47.7852 47.1096 47.8128 47.1372 47.8469 47.1372Z" fill="#3F3D56"/>
<path d="M46.7883 47.1372H47.1942C47.2282 47.1372 47.2559 47.1096 47.2559 47.0755V46.8813C47.2559 46.8473 47.2282 46.8197 47.1942 46.8197H46.7883C46.7542 46.8197 46.7266 46.8473 46.7266 46.8813V47.0755C46.7266 47.1096 46.7542 47.1372 46.7883 47.1372Z" fill="#3F3D56"/>
<path d="M45.7297 47.1372H46.1356C46.1697 47.1372 46.1973 47.1096 46.1973 47.0755V46.8813C46.1973 46.8473 46.1697 46.8197 46.1356 46.8197H45.7297C45.6956 46.8197 45.668 46.8473 45.668 46.8813V47.0755C45.668 47.1096 45.6956 47.1372 45.7297 47.1372Z" fill="#3F3D56"/>
<path d="M44.6711 47.1372H45.077C45.111 47.1372 45.1387 47.1096 45.1387 47.0755V46.8813C45.1387 46.8473 45.111 46.8197 45.077 46.8197H44.6711C44.637 46.8197 44.6094 46.8473 44.6094 46.8813V47.0755C44.6094 47.1096 44.637 47.1372 44.6711 47.1372Z" fill="#3F3D56"/>
<path d="M43.6125 47.1372H44.0184C44.0525 47.1372 44.0801 47.1096 44.0801 47.0755V46.8813C44.0801 46.8473 44.0525 46.8197 44.0184 46.8197H43.6125C43.5784 46.8197 43.5508 46.8473 43.5508 46.8813V47.0755C43.5508 47.1096 43.5784 47.1372 43.6125 47.1372Z" fill="#3F3D56"/>
<path d="M42.5539 47.1372H42.9598C42.9939 47.1372 43.0215 47.1096 43.0215 47.0755V46.8813C43.0215 46.8473 42.9939 46.8197 42.9598 46.8197H42.5539C42.5198 46.8197 42.4922 46.8473 42.4922 46.8813V47.0755C42.4922 47.1096 42.5198 47.1372 42.5539 47.1372Z" fill="#3F3D56"/>
<path d="M41.4953 47.1372H41.9012C41.9353 47.1372 41.9629 47.1096 41.9629 47.0755V46.8813C41.9629 46.8473 41.9353 46.8197 41.9012 46.8197H41.4953C41.4612 46.8197 41.4336 46.8473 41.4336 46.8813V47.0755C41.4336 47.1096 41.4612 47.1372 41.4953 47.1372Z" fill="#3F3D56"/>
<path d="M40.4367 47.1372H40.8426C40.8767 47.1372 40.9043 47.1096 40.9043 47.0755V46.8813C40.9043 46.8473 40.8767 46.8197 40.8426 46.8197H40.4367C40.4027 46.8197 40.375 46.8473 40.375 46.8813V47.0755C40.375 47.1096 40.4027 47.1372 40.4367 47.1372Z" fill="#3F3D56"/>
<path d="M39.3781 47.1372H39.784C39.8181 47.1372 39.8457 47.1096 39.8457 47.0755V46.8813C39.8457 46.8473 39.8181 46.8197 39.784 46.8197H39.3781C39.3441 46.8197 39.3164 46.8473 39.3164 46.8813V47.0755C39.3164 47.1096 39.3441 47.1372 39.3781 47.1372Z" fill="#3F3D56"/>
<path d="M38.3195 47.1372H38.7254C38.7595 47.1372 38.7871 47.1096 38.7871 47.0755V46.8813C38.7871 46.8473 38.7595 46.8197 38.7254 46.8197H38.3195C38.2855 46.8197 38.2578 46.8473 38.2578 46.8813V47.0755C38.2578 47.1096 38.2855 47.1372 38.3195 47.1372Z" fill="#3F3D56"/>
<path d="M37.2619 47.1372H37.6678C37.7019 47.1372 37.7295 47.1096 37.7295 47.0755V46.8813C37.7295 46.8473 37.7019 46.8197 37.6678 46.8197H37.2619C37.2278 46.8197 37.2002 46.8473 37.2002 46.8813V47.0755C37.2002 47.1096 37.2278 47.1372 37.2619 47.1372Z" fill="#3F3D56"/>
<path d="M36.2033 47.1372H36.6092C36.6433 47.1372 36.6709 47.1096 36.6709 47.0755V46.8813C36.6709 46.8473 36.6433 46.8197 36.6092 46.8197H36.2033C36.1693 46.8197 36.1416 46.8473 36.1416 46.8813V47.0755C36.1416 47.1096 36.1693 47.1372 36.2033 47.1372Z" fill="#3F3D56"/>
<path d="M35.1447 47.1372H35.5506C35.5847 47.1372 35.6123 47.1096 35.6123 47.0755V46.8813C35.6123 46.8473 35.5847 46.8197 35.5506 46.8197H35.1447C35.1107 46.8197 35.083 46.8473 35.083 46.8813V47.0755C35.083 47.1096 35.1107 47.1372 35.1447 47.1372Z" fill="#3F3D56"/>
<path d="M34.0861 47.1372H34.492C34.5261 47.1372 34.5537 47.1096 34.5537 47.0755V46.8813C34.5537 46.8473 34.5261 46.8197 34.492 46.8197H34.0861C34.0521 46.8197 34.0245 46.8473 34.0245 46.8813V47.0755C34.0245 47.1096 34.0521 47.1372 34.0861 47.1372Z" fill="#3F3D56"/>
<path d="M33.0275 47.1372H33.4334C33.4675 47.1372 33.4951 47.1096 33.4951 47.0755V46.8813C33.4951 46.8473 33.4675 46.8197 33.4334 46.8197H33.0275C32.9935 46.8197 32.9659 46.8473 32.9659 46.8813V47.0755C32.9659 47.1096 32.9935 47.1372 33.0275 47.1372Z" fill="#3F3D56"/>
<path d="M40.1196 47.7725H44.2303C44.2644 47.7725 44.292 47.7448 44.292 47.7108V47.5166C44.292 47.4825 44.2644 47.4549 44.2303 47.4549H40.1196C40.0855 47.4549 40.0579 47.4825 40.0579 47.5166V47.7108C40.0579 47.7448 40.0855 47.7725 40.1196 47.7725Z" fill="#3F3D56"/>
</g>
<defs>
<clipPath id="clip0_2609_12035">
<rect width="105.286" height="80" fill="white"/>
</clipPath>
</defs>
</svg>
