<svg width="116" height="80" viewBox="0 0 116 80" fill="none" xmlns="http://www.w3.org/2000/svg">
<g clip-path="url(#clip0_2609_8097)">
<path d="M12.978 8.40737C13.3131 8.40737 13.5849 8.13566 13.5849 7.80048C13.5849 7.46531 13.3131 7.1936 12.978 7.1936C12.6428 7.1936 12.3711 7.46531 12.3711 7.80048C12.3711 8.13566 12.6428 8.40737 12.978 8.40737Z" fill="white"/>
<path d="M15.2807 8.40737C15.6159 8.40737 15.8876 8.13566 15.8876 7.80048C15.8876 7.46531 15.6159 7.1936 15.2807 7.1936C14.9455 7.1936 14.6738 7.46531 14.6738 7.80048C14.6738 8.13566 14.9455 8.40737 15.2807 8.40737Z" fill="white"/>
<path d="M17.5854 8.40737C17.9206 8.40737 18.1923 8.13566 18.1923 7.80048C18.1923 7.46531 17.9206 7.1936 17.5854 7.1936C17.2502 7.1936 16.9785 7.46531 16.9785 7.80048C16.9785 8.13566 17.2502 8.40737 17.5854 8.40737Z" fill="white"/>
<path d="M88.5696 9.22632H11.5039V9.65465H88.5696V9.22632Z" fill="white"/>
<path d="M88.6343 0.050293H0.0371094V56.7918H88.6343V0.050293Z" fill="#E6E6E6"/>
<path d="M88.5972 0H0V3.76394H88.5972V0Z" fill="#077D00"/>
<path d="M86.175 6.7998H2.64453V28.4302H86.175V6.7998Z" fill="white"/>
<path d="M86.2277 31.9849H2.69727V53.6153H86.2277V31.9849Z" fill="white"/>
<path d="M76.0583 11.585H30.8516V13.5998H76.0583V11.585Z" fill="#E6E6E6"/>
<path d="M46.9699 16.6218H30.8516V18.6366H46.9699V16.6218Z" fill="#E6E6E6"/>
<path d="M62.9623 21.6589H30.8516V23.6737H62.9623V21.6589Z" fill="#E6E6E6"/>
<path d="M27.4511 42.6891C27.4535 44.156 27.0265 45.5916 26.2227 46.8187C26.0543 47.0774 25.8697 47.3253 25.67 47.5609C25.2019 48.1155 24.6566 48.6 24.0508 48.9996C23.8861 49.1088 23.7167 49.211 23.5427 49.3063C22.6373 49.807 21.638 50.1148 20.6077 50.2102C20.3736 50.233 20.1355 50.2439 19.8953 50.2439C19.2371 50.2446 18.5816 50.1589 17.9456 49.989C17.5851 49.8943 17.2325 49.7718 16.8909 49.6228C16.7163 49.5474 16.5456 49.4654 16.3789 49.3768C15.9779 49.1662 15.597 48.9194 15.2409 48.6396C15.0752 48.5106 14.9154 48.3747 14.7617 48.2318C13.8415 47.3791 13.1481 46.3107 12.7442 45.123C12.3402 43.9354 12.2384 42.6658 12.4479 41.4289C12.6573 40.1921 13.1715 39.0268 13.944 38.0384C14.7165 37.05 15.723 36.2694 16.8726 35.7673C18.0222 35.2652 19.2788 35.0572 20.5288 35.1623C21.7789 35.2673 22.9832 35.6819 24.0329 36.3688C25.0826 37.0557 25.9448 37.9932 26.5416 39.0966C27.1383 40.2001 27.4509 41.4348 27.4511 42.6893V42.6891Z" fill="#077D00"/>
<path d="M20.3598 39.1624H19.4336V46.2141H20.3598V39.1624Z" fill="white"/>
<path d="M23.4228 42.2251H16.3711V43.1513H23.4228V42.2251Z" fill="white"/>
<path d="M74.9255 36.7698H29.7188V38.7846H74.9255V36.7698Z" fill="#E6E6E6"/>
<path d="M45.8371 41.8066H29.7188V43.8214H45.8371V41.8066Z" fill="#E6E6E6"/>
<path d="M61.8295 46.8438H29.7188V48.8586H61.8295V46.8438Z" fill="#E6E6E6"/>
<path d="M5.85896 2.49502C6.20283 2.49502 6.48159 2.21626 6.48159 1.87239C6.48159 1.52852 6.20283 1.24976 5.85896 1.24976C5.51509 1.24976 5.23633 1.52852 5.23633 1.87239C5.23633 2.21626 5.51509 2.49502 5.85896 2.49502Z" fill="white"/>
<path d="M8.22224 2.49502C8.56611 2.49502 8.84487 2.21626 8.84487 1.87239C8.84487 1.52852 8.56611 1.24976 8.22224 1.24976C7.87837 1.24976 7.59961 1.52852 7.59961 1.87239C7.59961 2.21626 7.87837 2.49502 8.22224 2.49502Z" fill="white"/>
<path d="M3.48982 2.49502C3.83369 2.49502 4.11245 2.21626 4.11245 1.87239C4.11245 1.52852 3.83369 1.24976 3.48982 1.24976C3.14595 1.24976 2.86719 1.52852 2.86719 1.87239C2.86719 2.21626 3.14595 2.49502 3.48982 2.49502Z" fill="white"/>
<path d="M24.4256 23.6913C23.7652 23.3433 23.0759 23.0532 22.3654 22.8243L22.2748 21.8221L18.6007 21.4263L18.1337 22.7072L16.8151 23.202C16.7679 23.2199 16.723 23.2433 16.6813 23.2717H16.6799C16.6063 23.3215 16.5436 23.3857 16.4957 23.4604C16.4478 23.5352 16.4156 23.619 16.4011 23.7066C16.3871 23.7937 16.3904 23.8828 16.4109 23.9686L16.4806 24.2544C16.5809 24.3143 16.6841 24.3715 16.7872 24.4258L16.8528 24.4593C17.0033 24.5373 17.1567 24.6112 17.3141 24.6795C17.3462 24.6934 17.381 24.7074 17.4131 24.7213C17.4159 24.7227 17.4173 24.7227 17.42 24.7241C17.494 24.7548 17.5678 24.784 17.6431 24.8119C17.8903 24.9064 18.1425 24.9873 18.3985 25.0545C19.0519 25.2286 19.7253 25.3167 20.4015 25.3165C20.6482 25.3165 20.8921 25.3053 21.1333 25.2817C21.6842 25.2308 22.2282 25.121 22.7557 24.9541C22.7571 24.9541 22.7585 24.9527 22.7599 24.9527C23.0931 24.8465 23.4187 24.7175 23.7342 24.5666C23.7356 24.5652 23.7384 24.5652 23.7398 24.5638C23.8108 24.5304 23.8792 24.4941 23.9489 24.4593L23.9823 24.4426C24.038 24.4133 24.0938 24.384 24.1496 24.3533C24.289 24.2767 24.4256 24.1958 24.5607 24.1094C24.5983 24.0871 24.6346 24.0634 24.6723 24.0383C24.7252 24.0035 24.7782 23.9673 24.8297 23.9296C24.7001 23.846 24.5649 23.7665 24.4256 23.6913Z" fill="#3F3D56"/>
<path d="M17.5305 24.3089L17.3005 23.2705H16.6997C16.6937 23.2706 16.6876 23.2711 16.6816 23.2719H16.6802C16.4643 23.2902 16.2564 23.362 16.0753 23.481C15.9525 23.5594 15.8433 23.6573 15.752 23.7709C15.9303 23.9061 16.1157 24.0315 16.3067 24.1514L16.3151 24.1556C16.3694 24.1891 16.4252 24.2225 16.4809 24.2546C16.5813 24.3145 16.6844 24.3716 16.7875 24.426L16.8531 24.4595C17.0036 24.5375 17.157 24.6114 17.3144 24.6797C17.3465 24.6936 17.3814 24.7076 17.4134 24.7215C17.4162 24.7229 17.4176 24.7229 17.4204 24.7243C17.4943 24.755 17.5681 24.7842 17.6434 24.8121L17.5305 24.3089Z" fill="#3F3D56"/>
<path d="M20.2926 20.7928C21.7541 20.7928 22.9388 19.6081 22.9388 18.1467C22.9388 16.6852 21.7541 15.5005 20.2926 15.5005C18.8312 15.5005 17.6465 16.6852 17.6465 18.1467C17.6465 19.6081 18.8312 20.7928 20.2926 20.7928Z" fill="#FFB8B8"/>
<path d="M18.5164 16.8577C18.7903 17.1818 19.2539 17.2733 19.6815 17.3108C20.6813 17.366 21.6839 17.2842 22.6615 17.0675C22.7221 17.6546 22.557 18.2876 22.9028 18.7706C23.0649 18.1859 23.1591 17.5845 23.1837 16.9782C23.2095 16.7181 23.1755 16.4556 23.0844 16.2106C23.0357 16.0878 22.9535 15.9812 22.8471 15.9028C22.7408 15.8244 22.6146 15.7774 22.4829 15.7672C22.6801 15.6176 22.911 15.5189 23.1553 15.4797L22.3151 15.0575L22.5309 14.8359L21.0097 14.7429L21.4503 14.463C20.7872 14.3718 20.1163 14.3507 19.4488 14.3998C19.1388 14.4226 18.8147 14.4662 18.5636 14.6458C18.3124 14.8254 18.1673 15.1824 18.3232 15.4461C18.128 15.4782 17.9442 15.5595 17.7892 15.6825C17.6343 15.8054 17.5133 15.9659 17.4377 16.1487C17.3421 16.4393 17.319 16.7488 17.3705 17.0504C17.4278 17.5342 17.5402 18.0098 17.7056 18.4681L18.5164 16.8577Z" fill="#2F2E41"/>
<path d="M27.7352 15.278C27.3639 14.2114 26.7644 13.2386 25.9786 12.4275C25.1927 11.6164 24.2394 10.9865 23.1851 10.5817C22.1308 10.1768 21.0008 10.0069 19.8741 10.0836C18.7473 10.1604 17.6509 10.482 16.6612 11.026C15.6715 11.57 14.8124 12.3234 14.1438 13.2336C13.4751 14.1438 13.0131 15.1888 12.7899 16.2959C12.5667 17.403 12.5876 18.5455 12.8513 19.6436C13.115 20.7418 13.6151 21.7692 14.3166 22.6542C14.3863 22.742 14.4588 22.8299 14.5327 22.9149C14.5383 22.9205 14.5424 22.926 14.548 22.9316C14.7297 23.141 14.9228 23.3401 15.1264 23.5282C15.1795 23.577 15.2352 23.6271 15.2909 23.6745C15.3968 23.7693 15.5056 23.8599 15.6185 23.9463C15.6631 23.9812 15.7063 24.016 15.7523 24.0495C15.9307 24.1847 16.1161 24.3101 16.3071 24.43L16.3154 24.4342C16.3697 24.4676 16.4255 24.5011 16.4813 24.5331C16.5816 24.5931 16.6848 24.6502 16.7879 24.7046L16.8534 24.738C17.004 24.8161 17.1573 24.89 17.3148 24.9583C17.3469 24.9722 17.3817 24.9861 17.4138 25.0001C17.4166 25.0015 17.4179 25.0015 17.4207 25.0029C17.4946 25.0335 17.5685 25.0628 17.6437 25.0907C17.891 25.1851 18.1432 25.2661 18.3992 25.3332C19.0526 25.5074 19.726 25.5954 20.4022 25.5952C20.6489 25.5952 20.8928 25.5841 21.1339 25.5604C21.6849 25.5095 22.2288 25.3997 22.7564 25.2328C22.7578 25.2328 22.7592 25.2315 22.7605 25.2315C23.0938 25.1253 23.4194 24.9963 23.7349 24.8454C23.7362 24.844 23.739 24.844 23.7405 24.8426C23.8115 24.8091 23.8798 24.7729 23.9495 24.738L23.9829 24.7213C24.0387 24.692 24.0945 24.6628 24.1502 24.6321C24.2896 24.5554 24.4262 24.4746 24.5614 24.3882C24.599 24.3659 24.6353 24.3422 24.6729 24.3171C24.7259 24.2822 24.7788 24.246 24.8304 24.2084C24.8987 24.161 24.967 24.1122 25.0339 24.062C25.0548 24.0467 25.0771 24.0314 25.098 24.0146C26.4039 23.0234 27.3624 21.6443 27.8361 20.0748C28.3099 18.5053 28.2745 16.8261 27.7352 15.278ZM24.8416 23.6759C24.7956 23.7122 24.7482 23.747 24.7008 23.7791C24.6547 23.8139 24.6088 23.8474 24.5614 23.878C24.5209 23.9073 24.4805 23.9352 24.4387 23.9617L24.4262 23.97C24.3955 23.9909 24.3649 24.0104 24.3342 24.03C24.2185 24.1024 24.1014 24.1721 23.9829 24.239C23.9704 24.246 23.9578 24.253 23.9453 24.2599C23.8924 24.2892 23.8394 24.3171 23.7865 24.345C23.7794 24.3492 23.7711 24.3519 23.7641 24.3561L23.7558 24.3603C23.6889 24.3951 23.6205 24.4286 23.5523 24.4607C23.2887 24.5876 23.0173 24.6975 22.7396 24.7896C22.7034 24.8022 22.6672 24.8147 22.6309 24.8259C22.1316 24.9847 21.6166 25.0893 21.0949 25.1381C20.8663 25.159 20.6349 25.1701 20.4022 25.1701C19.7626 25.1715 19.1256 25.088 18.5079 24.922C18.1909 24.8393 17.8803 24.734 17.5783 24.607C17.5629 24.6001 17.5461 24.5945 17.5308 24.5875C17.5141 24.5805 17.4988 24.575 17.4834 24.568C17.4667 24.561 17.4514 24.5541 17.4347 24.5457C17.3036 24.4885 17.174 24.4258 17.0472 24.3603L16.9859 24.3283C16.8311 24.2474 16.6792 24.161 16.5314 24.069C16.4882 24.0425 16.4436 24.0146 16.4018 23.9854C16.3907 23.9784 16.3809 23.9714 16.3697 23.9644C16.2708 23.8989 16.1718 23.8306 16.0756 23.7596C16.0102 23.7108 15.9446 23.662 15.8805 23.6118C15.7732 23.531 15.67 23.4445 15.5697 23.3553C15.5167 23.3107 15.4652 23.2619 15.415 23.216C15.2174 23.0335 15.0303 22.8399 14.8547 22.6361C14.7961 22.5692 14.739 22.5023 14.6846 22.4326C14.6722 22.4188 14.6606 22.4044 14.6497 22.3894C13.7441 21.2466 13.1994 19.86 13.085 18.4063C12.9707 16.9527 13.2919 15.4979 14.0077 14.2276C14.7235 12.9572 15.8014 11.9289 17.104 11.2736C18.4066 10.6184 19.8749 10.366 21.3215 10.5486C22.7682 10.7312 24.1276 11.3406 25.2266 12.299C26.3255 13.2573 27.1141 14.5213 27.4917 15.9297C27.8694 17.3381 27.819 18.827 27.347 20.2066C26.875 21.5863 26.0028 22.794 24.8416 23.6759Z" fill="#3F3D56"/>
<path d="M93.8152 52.5441C93.444 51.4775 92.8445 50.5047 92.0587 49.6936C91.2728 48.8825 90.3195 48.2526 89.2652 47.8478C88.2108 47.443 87.0809 47.273 85.9542 47.3497C84.8274 47.4265 83.7309 47.7481 82.7413 48.2921C81.7516 48.8362 80.8925 49.5895 80.2238 50.4997C79.5552 51.4099 79.0932 52.455 78.87 53.562C78.6468 54.6691 78.6677 55.8116 78.9314 56.9097C79.1951 58.0079 79.6951 59.0353 80.3967 59.9203C80.4664 60.0081 80.5388 60.096 80.6127 60.181C80.6183 60.1866 80.6224 60.1921 80.628 60.1977C80.8097 60.407 81.0029 60.6062 81.2065 60.7943C81.2595 60.8431 81.3152 60.8932 81.3709 60.9406C81.4769 61.0354 81.5856 61.126 81.6985 61.2124C81.919 61.3862 82.1488 61.5477 82.3871 61.6961L82.3954 61.7003C82.5501 61.7965 82.7076 61.8857 82.868 61.9707L82.9334 62.0041C83.084 62.0822 83.2373 62.1561 83.3948 62.2244C83.4269 62.2383 83.4617 62.2522 83.4938 62.2662C83.4966 62.2676 83.498 62.2676 83.5008 62.269C83.819 62.4013 84.1459 62.5117 84.4793 62.5993C85.1326 62.7735 85.806 62.8615 86.4822 62.8613C86.7289 62.8613 86.9728 62.8502 87.2139 62.8265C87.7649 62.7756 88.3088 62.6658 88.8364 62.499C88.8378 62.499 88.8392 62.4976 88.8405 62.4976C89.1738 62.3914 89.4994 62.2624 89.8149 62.1115C89.8162 62.1101 89.8191 62.1101 89.8205 62.1087C89.8915 62.0752 89.9598 62.039 90.0295 62.0041L90.063 61.9874C90.1188 61.9581 90.1745 61.9289 90.2302 61.8982C90.3696 61.8215 90.5062 61.7407 90.6414 61.6543C90.6791 61.632 90.7153 61.6083 90.7529 61.5832C90.8756 61.5023 90.9968 61.4159 91.1139 61.3281C91.1349 61.3128 91.1571 61.2975 91.1781 61.2807C92.4839 60.2895 93.4424 58.9103 93.9161 57.3409C94.3898 55.7714 94.3545 54.0923 93.8152 52.5441Z" fill="white"/>
<path d="M89.0446 58.2969C89.6873 58.2969 90.2083 57.7759 90.2083 57.1332C90.2083 56.4905 89.6873 55.9695 89.0446 55.9695C88.4019 55.9695 87.8809 56.4905 87.8809 57.1332C87.8809 57.7759 88.4019 58.2969 89.0446 58.2969Z" fill="#2F2E41"/>
<path d="M89.3694 56.0017C89.5709 56.0017 89.7688 56.054 89.944 56.1534C90.1192 56.2529 90.2655 56.3961 90.3688 56.569C90.472 56.742 90.5286 56.9387 90.533 57.1401C90.5374 57.3415 90.4895 57.5405 90.3939 57.7178C90.4948 57.5916 90.5683 57.4457 90.6096 57.2895C90.651 57.1333 90.6594 56.9702 90.6343 56.8106C90.6092 56.651 90.5511 56.4984 90.4637 56.3625C90.3763 56.2265 90.2616 56.1103 90.1268 56.0212C89.992 55.932 89.8402 55.8719 89.6809 55.8447C89.5216 55.8175 89.3584 55.8238 89.2017 55.8631C89.045 55.9025 88.8982 55.974 88.7706 56.0733C88.6431 56.1725 88.5376 56.2972 88.4609 56.4394C88.5697 56.3028 88.7079 56.1925 88.8653 56.1167C89.0226 56.041 89.195 56.0016 89.3696 56.0017H89.3694Z" fill="#2F2E41"/>
<path d="M86.8697 57.1308C88.7577 57.1308 90.2883 55.6003 90.2883 53.7123C90.2883 51.8242 88.7577 50.2937 86.8697 50.2937C84.9817 50.2937 83.4512 51.8242 83.4512 53.7123C83.4512 55.6003 84.9817 57.1308 86.8697 57.1308Z" fill="#2F2E41"/>
<path d="M84.1871 51.5912C84.7762 50.9288 85.5996 50.5211 86.4835 50.4542C87.3674 50.3873 88.2428 50.6665 88.9248 51.2327C88.897 51.2061 88.8691 51.1794 88.8402 51.1536C88.1649 50.5486 87.2769 50.2367 86.3717 50.2864C85.4664 50.3361 84.6179 50.7435 84.0129 51.4188C83.408 52.0941 83.096 52.982 83.1458 53.8873C83.1955 54.7926 83.6028 55.6411 84.2781 56.246C84.2846 56.2519 84.2911 56.2576 84.2977 56.2634C84.3267 56.2892 84.3565 56.3136 84.3862 56.3383C83.7439 55.7273 83.3642 54.8906 83.3271 54.0049C83.2899 53.1193 83.5982 52.2538 84.1871 51.5912Z" fill="#2F2E41"/>
<path d="M86.8404 57.1017C88.0564 57.1017 89.0421 56.1159 89.0421 54.9C89.0421 53.684 88.0564 52.6982 86.8404 52.6982C85.6244 52.6982 84.6387 53.684 84.6387 54.9C84.6387 56.1159 85.6244 57.1017 86.8404 57.1017Z" fill="#A0616A"/>
<path d="M90.781 60.6368V61.3755C90.6458 61.4619 90.5092 61.5428 90.3698 61.6194C90.3141 61.6501 90.2583 61.6794 90.2026 61.7087L90.1691 61.7254C90.0994 61.7602 90.0311 61.7965 89.96 61.8299C89.9587 61.8313 89.9558 61.8313 89.9545 61.8327C89.6389 61.9836 89.3134 62.1126 88.9801 62.2188C88.9788 62.2188 88.9774 62.2202 88.976 62.2202C88.4484 62.3871 87.9045 62.4969 87.3535 62.5477C87.1124 62.5715 86.8685 62.5826 86.6217 62.5826C85.9455 62.5828 85.2722 62.4947 84.6188 62.3206C84.2855 62.2329 83.9586 62.1225 83.6404 61.9902C83.6376 61.9888 83.6361 61.9888 83.6333 61.9874C83.6013 61.9735 83.5664 61.9596 83.5344 61.9456C83.3769 61.8773 83.2235 61.8034 83.073 61.7254L83.0075 61.6919C82.8472 61.6069 82.6897 61.5177 82.535 61.4215L82.5266 61.4173C82.2884 61.2689 82.0585 61.1074 81.8381 60.9337C81.7252 60.8473 81.6165 60.7567 81.5105 60.6619C81.4548 60.6145 81.399 60.5643 81.3461 60.5155C81.1424 60.3274 80.9493 60.1283 80.7676 59.919C80.7917 59.7738 80.8271 59.6307 80.8735 59.491L80.8749 59.4896C80.8833 59.4658 80.893 59.4426 80.9042 59.42C80.9119 59.3999 80.9207 59.3804 80.9307 59.3614C81.1802 58.8945 81.6318 58.7788 82.1921 58.7537C82.5085 58.7398 82.8584 58.7551 83.2278 58.7509C83.4229 58.7495 83.625 58.7425 83.8271 58.7244C85.1025 58.6087 84.8711 57.8561 84.9282 57.4505C84.9854 57.0574 85.3394 57.3975 85.3631 57.4198L85.3645 57.4212C86.0862 57.7589 86.8847 57.8989 87.6783 57.8268C87.8149 57.8101 87.9515 57.8003 88.0881 57.7961C88.4477 57.7919 88.3696 57.8951 88.2456 57.9801C88.1854 58.0197 88.1225 58.0551 88.0574 58.0861C88.0574 58.0861 88.0003 58.4345 87.9417 58.9558C87.886 59.4548 88.8422 59.689 88.9216 59.7071C88.9232 59.7082 88.9252 59.7087 88.9272 59.7085C89.2763 59.6179 89.644 59.6276 89.9879 59.7364H89.9893C90.1858 59.8086 90.3612 59.9288 90.4994 60.0861C90.6377 60.2433 90.7345 60.4326 90.781 60.6368Z" fill="#077D00"/>
<path d="M83.6551 61.5328C83.6551 61.636 83.6524 61.7349 83.6482 61.8283C83.6468 61.8841 83.644 61.9384 83.6413 61.99C83.6385 61.9886 83.637 61.9886 83.6342 61.9872C83.6022 61.9733 83.5673 61.9593 83.5353 61.9454C83.3778 61.8771 83.2244 61.8032 83.0739 61.7252L83.0084 61.6917C82.8481 61.6067 82.6906 61.5175 82.5359 61.4213C82.54 61.3725 82.5471 61.3238 82.554 61.275C82.5693 61.1676 82.5819 61.0589 82.5903 60.9516C82.6451 60.1976 82.5084 59.442 82.193 58.7549V58.7535C82.1651 58.6977 82.1484 58.6671 82.1484 58.6671C82.1484 58.6671 82.554 58.3186 83.1324 58.6671C83.1694 58.6888 83.202 58.7171 83.2287 58.7507C83.5771 59.1619 83.6719 60.5446 83.6551 61.5328Z" fill="#2F2E41"/>
<path d="M89.9834 61.3435C89.9779 61.4996 89.9695 61.6627 89.9597 61.8285V61.8299C89.9584 61.8313 89.9555 61.8313 89.9542 61.8327C89.6386 61.9836 89.3131 62.1126 88.9798 62.2188C88.9785 62.2188 88.9771 62.2202 88.9757 62.2202L88.9604 61.8285L88.9589 61.777L88.8851 59.8702C88.8831 59.827 88.8899 59.7839 88.9051 59.7434C88.9202 59.703 88.9434 59.666 88.9732 59.6347C89.003 59.6035 89.0389 59.5786 89.0786 59.5615C89.1183 59.5445 89.1611 59.5357 89.2043 59.5356H89.9109C89.9458 59.5356 89.9709 59.6067 89.9876 59.735V59.7364C90.0219 60.2716 90.0205 60.8085 89.9834 61.3435Z" fill="#2F2E41"/>
<path d="M84.957 52.1479V54.3502H85.4669L86.1157 53.655L86.0289 54.3502H88.2827L88.1434 53.655L88.4221 54.3502H88.7815V52.1479H84.957Z" fill="#2F2E41"/>
<path d="M84.6113 54.7552C84.7073 54.7552 84.7851 54.6125 84.7851 54.4366C84.7851 54.2606 84.7073 54.1179 84.6113 54.1179C84.5153 54.1179 84.4375 54.2606 84.4375 54.4366C84.4375 54.6125 84.5153 54.7552 84.6113 54.7552Z" fill="#A0616A"/>
<path d="M89.0723 54.7552C89.1682 54.7552 89.2461 54.6125 89.2461 54.4366C89.2461 54.2606 89.1682 54.1179 89.0723 54.1179C88.9763 54.1179 88.8984 54.2606 88.8984 54.4366C88.8984 54.6125 88.9763 54.7552 89.0723 54.7552Z" fill="#A0616A"/>
<path d="M91.254 61.0493C91.137 61.1372 91.0157 61.2236 90.893 61.3044C90.8554 61.3295 90.8192 61.3532 90.7816 61.3755C90.6463 61.4619 90.5097 61.5428 90.3703 61.6194C90.3146 61.6501 90.2589 61.6794 90.2031 61.7086V60.1726C90.2031 60.1726 90.4261 60.351 90.7816 60.6479C90.8261 60.6855 90.8721 60.7246 90.9209 60.7664C91.0241 60.8528 91.1356 60.9476 91.254 61.0493Z" fill="#077D00"/>
<path d="M93.8152 52.5441C93.444 51.4775 92.8445 50.5047 92.0587 49.6936C91.2728 48.8825 90.3195 48.2526 89.2652 47.8478C88.2108 47.443 87.0809 47.273 85.9542 47.3497C84.8274 47.4265 83.7309 47.7481 82.7413 48.2921C81.7516 48.8362 80.8925 49.5895 80.2238 50.4997C79.5552 51.4099 79.0932 52.455 78.87 53.562C78.6468 54.6691 78.6677 55.8116 78.9314 56.9097C79.1951 58.0079 79.6951 59.0353 80.3967 59.9203C80.4664 60.0081 80.5388 60.096 80.6127 60.181C80.6183 60.1866 80.6224 60.1921 80.628 60.1977C80.8097 60.407 81.0029 60.6062 81.2065 60.7943C81.2595 60.8431 81.3152 60.8932 81.3709 60.9406C81.4769 61.0354 81.5856 61.126 81.6985 61.2124C81.919 61.3862 82.1488 61.5477 82.3871 61.6961L82.3954 61.7003C82.5501 61.7965 82.7076 61.8857 82.868 61.9707L82.9334 62.0041C83.084 62.0822 83.2373 62.1561 83.3948 62.2244C83.4269 62.2383 83.4617 62.2522 83.4938 62.2662C83.4966 62.2676 83.498 62.2676 83.5008 62.269C83.819 62.4013 84.1459 62.5117 84.4793 62.5993C85.1326 62.7735 85.806 62.8615 86.4822 62.8613C86.7289 62.8613 86.9728 62.8502 87.2139 62.8265C87.7649 62.7756 88.3088 62.6658 88.8364 62.499C88.8378 62.499 88.8392 62.4976 88.8405 62.4976C89.1738 62.3914 89.4994 62.2624 89.8149 62.1115C89.8162 62.1101 89.8191 62.1101 89.8205 62.1087C89.8915 62.0752 89.9598 62.039 90.0295 62.0041L90.063 61.9874C90.1188 61.9581 90.1745 61.9289 90.2302 61.8982C90.3696 61.8215 90.5062 61.7407 90.6414 61.6543C90.6791 61.632 90.7153 61.6083 90.7529 61.5832C90.8756 61.5023 90.9968 61.4159 91.1139 61.3281C91.1349 61.3128 91.1571 61.2975 91.1781 61.2807C92.4839 60.2895 93.4424 58.9103 93.9161 57.3409C94.3898 55.7714 94.3545 54.0923 93.8152 52.5441ZM90.9216 60.942C90.8756 60.9783 90.8282 61.0131 90.7808 61.0452C90.7348 61.08 90.6888 61.1135 90.6414 61.1441C90.601 61.1734 90.5606 61.2013 90.5187 61.2278C90.4839 61.2515 90.449 61.2738 90.4142 61.2961C90.2986 61.3685 90.1815 61.4382 90.063 61.5051C90.0504 61.5121 90.0379 61.5191 90.0253 61.526C89.9724 61.5553 89.9194 61.5832 89.8665 61.6111C89.8594 61.6153 89.8511 61.618 89.8441 61.6222L89.8358 61.6264C89.7689 61.6612 89.7006 61.6947 89.6323 61.7268C89.3687 61.8537 89.0973 61.9636 88.8196 62.0557C88.7834 62.0683 88.7472 62.0808 88.7109 62.0919C88.2116 62.2508 87.6966 62.3554 87.1749 62.4042C86.9463 62.4251 86.7149 62.4362 86.4822 62.4362C85.8426 62.4375 85.2056 62.3541 84.5879 62.1881C84.2709 62.1054 83.9603 62.0001 83.6583 61.8731C83.6262 61.8606 83.5941 61.8466 83.5635 61.8341C83.5468 61.8271 83.5314 61.8201 83.5147 61.8118C83.3836 61.7546 83.2541 61.6919 83.1272 61.6264L83.0659 61.5943C82.9112 61.5135 82.7592 61.4271 82.6114 61.3351C82.5571 61.3016 82.5028 61.2668 82.4498 61.2306C82.2825 61.1204 82.1194 61.002 81.9605 60.8779C81.8532 60.7971 81.7501 60.7106 81.6497 60.6214C81.5967 60.5768 81.5452 60.5281 81.495 60.4821C81.2974 60.2996 81.1103 60.106 80.9347 59.9022C80.8761 59.8353 80.819 59.7684 80.7646 59.6987C80.7522 59.6849 80.7406 59.6705 80.7298 59.6555C79.8241 58.5127 79.2794 57.1261 79.1651 55.6724C79.0507 54.2188 79.3719 52.7641 80.0877 51.4937C80.8035 50.2234 81.8814 49.195 83.184 48.5398C84.4866 47.8845 85.9549 47.6321 87.4015 47.8147C88.8482 47.9973 90.2077 48.6067 91.3066 49.5651C92.4055 50.5235 93.1941 51.7874 93.5717 53.1958C93.9494 54.6042 93.899 56.0931 93.427 57.4727C92.955 58.8524 92.0828 60.0601 90.9216 60.942Z" fill="#3F3D56"/>
<path d="M93.3786 51.9352C93.5712 51.8654 93.7462 51.7541 93.8912 51.6093C94.0362 51.4646 94.1477 51.2897 94.2178 51.0972C94.2879 50.9047 94.315 50.6991 94.2971 50.495C94.2792 50.2909 94.2167 50.0931 94.1141 49.9158L97.37 46.1463L94.8033 45.8123L92.105 49.443C91.8184 49.6351 91.6123 49.9256 91.5256 50.2596C91.439 50.5935 91.4778 50.9476 91.6348 51.2548C91.7918 51.562 92.056 51.8009 92.3774 51.9263C92.6988 52.0517 93.055 52.0549 93.3786 51.9352Z" fill="#FFB8B8"/>
<path d="M111.731 52.7316C111.866 52.5775 111.965 52.3957 112.023 52.199C112.08 52.0022 112.093 51.7953 112.062 51.5928C112.03 51.3903 111.955 51.1972 111.841 51.027C111.727 50.8568 111.577 50.7137 111.401 50.6078L112.436 45.7356L110.027 46.6804L109.413 51.1623C109.255 51.4688 109.214 51.8227 109.299 52.157C109.384 52.4913 109.589 52.7828 109.875 52.9763C110.161 53.1697 110.507 53.2517 110.849 53.2066C111.191 53.1615 111.505 52.9925 111.731 52.7316Z" fill="#FFB8B8"/>
<path d="M100.069 78.1238L98.3598 78.1237L97.5469 71.5325L100.069 71.5326L100.069 78.1238Z" fill="#FFB8B8"/>
<path d="M100.504 79.7802L94.9941 79.78V79.7103C94.9941 79.4286 95.0496 79.1498 95.1574 78.8896C95.2652 78.6294 95.4231 78.3929 95.6223 78.1938C95.8214 77.9946 96.0579 77.8367 96.3181 77.7289C96.5783 77.6211 96.8571 77.5657 97.1388 77.5657L100.504 77.5658L100.504 79.7802Z" fill="#2F2E41"/>
<path d="M108.432 78.1238L106.723 78.1237L105.91 71.5325L108.432 71.5326L108.432 78.1238Z" fill="#FFB8B8"/>
<path d="M108.867 79.7802L103.357 79.78V79.7103C103.357 79.4286 103.413 79.1498 103.521 78.8896C103.628 78.6294 103.786 78.3929 103.986 78.1938C104.185 77.9946 104.421 77.8367 104.681 77.7289C104.942 77.6211 105.22 77.5657 105.502 77.5657L108.867 77.5658L108.867 79.7802Z" fill="#2F2E41"/>
<path d="M100.246 74.6821L97.8267 74.5853C97.6617 74.5782 97.5061 74.5065 97.3935 74.3856C97.2809 74.2648 97.2203 74.1045 97.2248 73.9394L97.9064 51.5851L97.9509 51.569C102.19 50.0354 105.698 50.1513 108.673 51.923L108.706 51.9429L109.115 73.7151C109.116 73.7984 109.101 73.8813 109.07 73.9587C109.04 74.0362 108.994 74.1068 108.935 74.1663C108.877 74.2258 108.807 74.273 108.73 74.3053C108.653 74.3376 108.571 74.3542 108.488 74.3542H106.448C106.303 74.3539 106.162 74.3033 106.05 74.2111C105.937 74.1188 105.861 73.9905 105.832 73.8479L103.054 59.7131C103.044 59.6642 103.017 59.6204 102.978 59.5895C102.939 59.5586 102.891 59.5426 102.841 59.5444C102.791 59.5463 102.744 59.5658 102.707 59.5995C102.67 59.6332 102.647 59.6789 102.641 59.7283L100.893 74.1309C100.874 74.2828 100.8 74.4225 100.686 74.524C100.571 74.6254 100.424 74.6818 100.27 74.6825C100.262 74.6825 100.254 74.6824 100.246 74.6821Z" fill="#2F2E41"/>
<path d="M102.599 31.9809C104.49 31.9809 106.023 30.4482 106.023 28.5575C106.023 26.6668 104.49 25.134 102.599 25.134C100.709 25.134 99.1758 26.6668 99.1758 28.5575C99.1758 30.4482 100.709 31.9809 102.599 31.9809Z" fill="#FFB8B8"/>
<path d="M94.5347 49.2141C94.4159 49.1672 94.3143 49.0852 94.2433 48.9791L93.5818 47.9893C93.5104 47.8819 93.4738 47.7553 93.4767 47.6264C93.4797 47.4975 93.5222 47.3727 93.5984 47.2687L96.2651 43.6492L97.9357 35.6331C98.0319 35.3856 98.1758 35.1595 98.3594 34.9677C98.5429 34.7758 98.7625 34.622 99.0055 34.5151C99.2485 34.4082 99.5102 34.3502 99.7756 34.3445C100.041 34.3387 100.305 34.3854 100.552 34.4817C100.8 34.578 101.026 34.7222 101.218 34.9059C101.409 35.0896 101.563 35.3093 101.669 35.5524C101.776 35.7955 101.834 36.0573 101.839 36.3227C101.845 36.5882 101.798 36.8521 101.702 37.0994L100.912 42.2011C100.673 43.7495 99.8788 45.1583 98.6784 46.1653L95.168 49.1111C95.1005 49.1677 95.0218 49.2095 94.9371 49.2337C94.8524 49.2579 94.7635 49.264 94.6763 49.2516C94.6278 49.2447 94.5802 49.2321 94.5347 49.2141Z" fill="#CCAB45"/>
<path d="M111.583 49.5774C111.463 49.6207 111.332 49.6263 111.209 49.5935L110.058 49.2876C109.934 49.2542 109.823 49.1833 109.74 49.0846C109.657 48.9859 109.606 48.8642 109.595 48.7358L109.205 44.2569L105.163 37.1359C105.071 36.8866 105.03 36.6217 105.041 36.3564C105.052 36.0911 105.115 35.8306 105.227 35.5897C105.338 35.3488 105.497 35.1323 105.692 34.9526C105.888 34.7729 106.117 34.6334 106.366 34.5423C106.615 34.4511 106.88 34.41 107.146 34.4213C107.411 34.4325 107.671 34.496 107.912 34.608C108.153 34.7201 108.369 34.8784 108.549 35.0741C108.728 35.2698 108.867 35.4989 108.958 35.7484L111.736 40.0996C112.58 41.4201 112.915 43.002 112.679 44.551L111.99 49.0816C111.977 49.1687 111.946 49.2521 111.898 49.3262C111.85 49.4004 111.788 49.4636 111.714 49.512C111.673 49.5389 111.629 49.5608 111.583 49.5774Z" fill="#CCAB45"/>
<path d="M98.8558 34.6369C99.4438 33.9921 100.169 33.4875 100.978 33.1604C101.787 32.8333 102.659 32.692 103.53 32.7469C103.588 32.7505 103.645 32.7545 103.701 32.7589C104.527 32.8242 105.329 33.0649 106.054 33.4651C106.779 33.8652 107.41 34.4155 107.905 35.0792C108.409 35.7521 108.763 36.5248 108.944 37.3455C109.124 38.1663 109.128 39.0162 108.954 39.8384C108.29 42.9807 108.458 46.2418 109.441 49.2993L110.36 52.1509C110.389 52.2423 110.397 52.3392 110.383 52.4342C110.37 52.5292 110.334 52.6197 110.28 52.6988C110.225 52.7779 110.153 52.8434 110.07 52.8903C109.986 52.9372 109.892 52.9643 109.796 52.9694L105.101 53.2218L103.9 51.1464V53.2864L98.1932 53.5932C98.1819 53.5939 98.1706 53.5942 98.1593 53.5942C98.0728 53.5942 97.9871 53.5762 97.9078 53.5414C97.8285 53.5067 97.7572 53.4559 97.6985 53.3922C97.6398 53.3286 97.5949 53.2534 97.5667 53.1716C97.5384 53.0897 97.5274 53.0029 97.5344 52.9166L98.1794 44.9184L97.3703 39.4863C97.2394 38.6183 97.3049 37.732 97.562 36.8928C97.819 36.0535 98.2612 35.2826 98.8558 34.6369Z" fill="#CCAB45"/>
<path d="M104.979 31.8255C104.662 32.0079 103.409 32.1288 103.32 31.7742L103.318 31.7664C103.256 31.5066 103.307 31.2353 103.325 30.9687C103.343 30.7022 103.317 30.4093 103.135 30.2133C102.797 29.848 102.195 30.0417 101.706 29.9493C101.419 29.8853 101.165 29.7191 100.992 29.4817C100.82 29.2443 100.739 28.952 100.766 28.6596C100.773 28.6042 100.784 28.5487 100.796 28.4933C100.827 28.3528 100.824 28.2072 100.789 28.0678C100.754 27.9284 100.687 27.7991 100.594 27.6899C100.5 27.5808 100.382 27.4948 100.25 27.4388C100.118 27.3827 99.9742 27.3581 99.8307 27.3669C99.3362 27.3951 98.8023 27.545 98.3932 27.1787C98.0767 26.8954 97.9995 26.158 98.1386 25.7568C98.3722 25.0824 99.8688 24.7293 100.522 24.5352C101.33 24.3017 102.181 24.2512 103.011 24.3875C103.841 24.5237 104.63 24.8432 105.321 25.3227C105.734 25.6136 106.12 25.9792 106.295 26.4525C106.471 26.9259 106.387 27.523 105.99 27.8355C106.297 28.1611 106.514 28.5617 106.618 28.9973C106.722 29.4329 106.709 29.8882 106.582 30.3174C106.386 30.9488 105.451 31.5541 104.979 31.8255Z" fill="#2F2E41"/>
<path d="M115.088 80H85.3992C85.3622 80 85.3267 79.9853 85.3006 79.9591C85.2745 79.933 85.2598 79.8975 85.2598 79.8606C85.2598 79.8236 85.2745 79.7882 85.3006 79.762C85.3267 79.7359 85.3622 79.7212 85.3992 79.7212H115.088C115.125 79.7212 115.161 79.7359 115.187 79.762C115.213 79.7882 115.227 79.8236 115.227 79.8606C115.227 79.8975 115.213 79.933 115.187 79.9591C115.161 79.9853 115.125 80 115.088 80Z" fill="#CCCCCC"/>
</g>
<defs>
<clipPath id="clip0_2609_8097">
<rect width="115.227" height="80" fill="white"/>
</clipPath>
</defs>
</svg>
