<svg width="113" height="80" viewBox="0 0 113 80" fill="none" xmlns="http://www.w3.org/2000/svg">
<g clip-path="url(#clip0_2609_9256)">
<path d="M112.172 79.9999H65.7752C65.7344 79.9999 65.6951 79.9837 65.6662 79.9548C65.6373 79.9259 65.6211 79.8867 65.6211 79.8458C65.6211 79.8049 65.6373 79.7657 65.6662 79.7368C65.6951 79.7079 65.7344 79.6917 65.7752 79.6917H112.172C112.213 79.6917 112.252 79.7079 112.281 79.7368C112.31 79.7657 112.326 79.8049 112.326 79.8458C112.326 79.8867 112.31 79.9259 112.281 79.9548C112.252 79.9837 112.213 79.9999 112.172 79.9999Z" fill="#3F3D56"/>
<path d="M83.2048 78.2346H81.3151L80.416 70.9456L83.2052 70.9457L83.2048 78.2346Z" fill="#FFB8B8"/>
<path d="M79.9646 77.6948H83.6091V79.9895H77.6699C77.6699 79.6882 77.7293 79.3898 77.8446 79.1114C77.9599 78.833 78.1289 78.58 78.342 78.3669C78.5551 78.1538 78.8081 77.9848 79.0865 77.8695C79.3649 77.7542 79.6633 77.6948 79.9646 77.6948Z" fill="#2F2E41"/>
<path d="M96.9169 76.0942L95.1979 76.8793L91.3516 70.6228L93.8884 69.4641L96.9169 76.0942Z" fill="#FFB8B8"/>
<path d="M93.7455 76.949L97.0606 75.4348L98.014 77.5221L92.6116 79.9896C92.4864 79.7155 92.4164 79.4194 92.4056 79.1183C92.3948 78.8171 92.4435 78.5168 92.5488 78.2345C92.6541 77.9521 92.814 77.6933 93.0193 77.4727C93.2246 77.2521 93.4714 77.0742 93.7455 76.949Z" fill="#2F2E41"/>
<path d="M91.4137 53.6579C91.5948 53.5217 91.7438 53.3474 91.8502 53.1473C91.9566 52.9472 92.0178 52.7263 92.0296 52.5C92.0414 52.2737 92.0034 52.0475 91.9183 51.8375C91.8332 51.6275 91.7032 51.4387 91.5372 51.2843L93.7586 46.2439L90.9365 46.7222L89.2597 51.4353C89.0189 51.7313 88.8951 52.1053 88.9116 52.4864C88.9282 52.8676 89.084 53.2294 89.3495 53.5034C89.615 53.7774 89.9718 53.9444 90.3523 53.9729C90.7327 54.0014 91.1104 53.8893 91.4137 53.6579Z" fill="#FFB8B8"/>
<path d="M83.0841 76.3129H81.2788C81.1037 76.3123 80.9353 76.2457 80.8071 76.1265C80.6789 76.0072 80.6003 75.8441 80.587 75.6695L78.6776 49.3791C78.6703 49.2784 78.6851 49.1773 78.7209 49.0828C78.7567 48.9884 78.8127 48.9029 78.8851 48.8324C78.9574 48.7618 79.0442 48.7079 79.1395 48.6745C79.2348 48.641 79.3363 48.6287 79.4368 48.6385L90.8025 49.7473C90.9717 49.7639 91.129 49.842 91.2444 49.9669C91.3598 50.0917 91.4254 50.2546 91.4287 50.4246L91.6474 62.0215C91.6486 62.0845 91.6608 62.1468 91.6835 62.2055L95.9664 73.3119C95.9995 73.3977 96.0152 73.4892 96.0126 73.5811C96.0099 73.6731 95.9891 73.7636 95.9512 73.8473C95.9132 73.9311 95.859 74.0065 95.7917 74.0692C95.7244 74.1318 95.6453 74.1804 95.559 74.2122L93.7295 74.8863C93.5706 74.9448 93.3958 74.9432 93.2381 74.8817C93.0803 74.8203 92.9504 74.7033 92.8729 74.5527L87.6116 64.3224C87.583 64.2668 87.562 64.2075 87.5493 64.1463L86.6505 59.8158C86.6245 59.6903 86.5545 59.5781 86.4533 59.4994C86.352 59.4207 86.226 59.3807 86.0979 59.3865C85.9698 59.3923 85.8479 59.4436 85.7542 59.5311C85.6604 59.6186 85.6009 59.7366 85.5863 59.864L83.7733 75.6981C83.7539 75.8673 83.673 76.0235 83.5459 76.1369C83.4188 76.2503 83.2544 76.3129 83.0841 76.3129Z" fill="#2F2E41"/>
<path d="M83.9832 28.8225C86.0741 28.8225 87.7691 27.1275 87.7691 25.0366C87.7691 22.9457 86.0741 21.2507 83.9832 21.2507C81.8923 21.2507 80.1973 22.9457 80.1973 25.0366C80.1973 27.1275 81.8923 28.8225 83.9832 28.8225Z" fill="#FFB8B8"/>
<path d="M79.3984 49.5311C79.8831 49.8654 85.3432 53.4636 91.5668 50.6017C91.4862 49.9067 90.7096 42.9286 91.3879 37.7844C91.7097 35.3437 90.7378 33.0826 88.7214 31.5807C87.6263 30.769 86.3346 30.2639 84.9794 30.1176C83.6241 29.9712 82.2543 30.1889 81.0112 30.7481C80.909 30.7939 80.8061 30.8415 80.7025 30.891L79.3984 49.5311Z" fill="#CCAB45"/>
<path d="M91.6255 50.5441C91.5294 50.5441 91.4344 50.5241 91.3465 50.4853C91.2586 50.4466 91.1797 50.39 91.115 50.319L90.2868 49.4156C90.2063 49.3272 90.1498 49.2196 90.1229 49.1031C90.0959 48.9866 90.0994 48.8651 90.1329 48.7504L92.0296 42.3307L89.1438 36.2704C89.0172 36.004 88.9862 35.7021 89.056 35.4155C89.1175 35.164 89.2538 34.937 89.4469 34.7645C89.6401 34.592 89.8809 34.4821 90.1378 34.4493C90.3947 34.4165 90.6555 34.4623 90.8858 34.5807C91.116 34.6991 91.3051 34.8845 91.4278 35.1125L95.3291 41.4428C95.4808 41.6887 95.5699 41.9681 95.5884 42.2565C95.607 42.5449 95.5544 42.8334 95.4354 43.0968L92.2585 50.1357C92.2114 50.2404 92.139 50.3318 92.0478 50.4015C91.9566 50.4713 91.8494 50.5172 91.736 50.5352C91.6995 50.5411 91.6625 50.544 91.6255 50.5441Z" fill="#CCAB45"/>
<path opacity="0.2" d="M82.2 49.7233H80.6875L83.3277 37.2988L83.4801 37.3187L82.8928 49.0644C82.884 49.2422 82.8071 49.4097 82.6782 49.5324C82.5492 49.655 82.378 49.7234 82.2 49.7233Z" fill="black"/>
<path d="M80.8008 52.8121C80.9496 52.6412 81.0592 52.4398 81.1217 52.222C81.1843 52.0042 81.1983 51.7753 81.1628 51.5515C81.1274 51.3277 81.0432 51.1144 80.9164 50.9266C80.7896 50.7388 80.6231 50.5811 80.4288 50.4646L81.5553 45.0728L78.8939 46.1266L78.2322 51.0852C78.0581 51.4247 78.0147 51.8162 78.11 52.1856C78.2053 52.555 78.4329 52.8766 78.7495 53.0895C79.0661 53.3024 79.4498 53.3917 79.8278 53.3406C80.2059 53.2894 80.5521 53.1014 80.8008 52.8121Z" fill="#FFB8B8"/>
<path d="M80.6481 49.7386C80.6219 49.7386 80.5958 49.7371 80.5698 49.7343L78.9568 49.555C78.7825 49.5351 78.6221 49.45 78.5078 49.3169C78.3934 49.1837 78.3337 49.0123 78.3404 48.837L79.0078 32.6856C79.0287 32.179 79.2335 31.6974 79.5839 31.3309C79.9342 30.9643 80.4061 30.7381 80.9112 30.6943C81.4164 30.6506 81.9201 30.7924 82.3283 31.0932C82.7364 31.394 83.021 31.8332 83.1287 32.3286L83.5586 34.3063L83.5565 34.3203L81.3324 49.1477C81.3083 49.3119 81.2259 49.462 81.1003 49.5705C80.9746 49.679 80.8141 49.7387 80.6481 49.7386Z" fill="#CCAB45"/>
<path d="M87.1023 28.3745C86.7097 28.4418 86.3867 27.8953 86.3378 27.5109C86.289 27.1266 86.4291 26.7586 86.4444 26.3767C86.4596 25.9949 86.2796 25.5308 85.8829 25.4176C85.4672 25.2989 85.0817 25.6324 84.6561 25.5923C84.0629 25.5364 83.7652 24.8423 83.6933 24.2807C83.6215 23.7192 83.565 23.0543 83.0513 22.7341C82.5392 22.4148 81.9058 22.6471 81.3174 22.657C80.3229 22.6738 79.3105 21.9155 79.0781 20.9796C79.1988 21.0144 79.3276 21.0079 79.4441 20.9613C79.5607 20.9146 79.6583 20.8304 79.7216 20.7219C79.7714 20.6062 79.7816 20.4773 79.7505 20.3553C79.7194 20.2332 79.6489 20.1248 79.5498 20.047L80.6771 20.599C80.523 20.2855 80.7557 19.9283 81.0759 19.8096C81.3962 19.6909 81.7688 19.7442 82.1222 19.7991C83.8872 20.0733 85.9316 19.9382 87.1023 21.2839C87.9133 22.216 88.5808 23.9898 88.4896 25.1375C88.3984 26.2852 87.1023 28.3745 87.1023 28.3745Z" fill="#2F2E41"/>
<path d="M44.142 71.0597H3.60248C3.31641 71.0594 3.04215 70.9456 2.83987 70.7433C2.63759 70.5411 2.5238 70.2668 2.52348 69.9807L0.67383 1.08314C0.673551 0.941173 0.701238 0.800544 0.755309 0.669279C0.809381 0.538014 0.888777 0.418684 0.988967 0.318105C1.08916 0.217525 1.20818 0.137666 1.33923 0.0830854C1.47028 0.0285048 1.6108 0.000271993 1.75277 0H42.2923C42.5783 0.000320676 42.8526 0.114104 43.0549 0.316386C43.2572 0.518667 43.3709 0.792928 43.3713 1.079L43.7064 13.5604L43.3983 13.5687L43.063 1.08314C43.0633 0.981642 43.0436 0.881083 43.0051 0.787203C42.9665 0.693323 42.9098 0.607965 42.8382 0.536006C42.7666 0.464048 42.6816 0.406898 42.5879 0.367824C42.4942 0.328751 42.3938 0.30852 42.2923 0.308285H1.75277C1.54844 0.308522 1.35254 0.389799 1.20806 0.534285C1.06357 0.67877 0.982294 0.874665 0.982057 1.079L2.83171 69.9766C2.83141 70.0781 2.85112 70.1786 2.8897 70.2725C2.92827 70.3664 2.98497 70.4518 3.05655 70.5237C3.12813 70.5957 3.21319 70.6528 3.30686 70.6919C3.40053 70.731 3.50099 70.7512 3.60248 70.7514H44.142C44.3463 70.7512 44.5422 70.6699 44.6867 70.5255C44.8312 70.381 44.9125 70.1851 44.9127 69.9807L44.5527 56.5745L44.8609 56.5662L45.2209 69.9766C45.2212 70.1186 45.1935 70.2592 45.1395 70.3905C45.0854 70.5217 45.006 70.641 44.9058 70.7416C44.8056 70.8422 44.6866 70.9221 44.5555 70.9766C44.4245 71.0312 44.2839 71.0595 44.142 71.0597Z" fill="#CCCCCC"/>
<path d="M44.2027 32.0576L43.8945 32.0659L44.0534 37.9828L44.3616 37.9745L44.2027 32.0576Z" fill="#CCCCCC"/>
<path d="M40.5045 64.988H6.92314C6.67915 64.9877 6.44524 64.8906 6.27272 64.7181C6.1002 64.5456 6.00315 64.3117 6.00287 64.0677L4.47071 6.99618C4.4704 6.87506 4.49397 6.75506 4.54005 6.64305C4.58614 6.53103 4.65384 6.42919 4.73929 6.34335C4.82475 6.2575 4.92627 6.18933 5.03808 6.14274C5.14988 6.09614 5.26977 6.07203 5.3909 6.07178H38.9723C39.2163 6.07205 39.4502 6.1691 39.6227 6.34162C39.7952 6.51415 39.8923 6.74806 39.8926 6.99204L40.1701 13.5581L39.8621 13.571L39.5844 6.99852C39.585 6.91768 39.5696 6.83753 39.5391 6.76266C39.5086 6.6878 39.4636 6.61969 39.4067 6.56223C39.3499 6.50478 39.2822 6.45911 39.2077 6.42785C39.1331 6.39659 39.0531 6.38035 38.9723 6.38007H5.3909C5.22865 6.38026 5.0731 6.4448 4.95838 6.55952C4.84366 6.67425 4.77912 6.8298 4.77893 6.99204L6.3111 64.0636C6.31078 64.1442 6.32636 64.2241 6.35695 64.2988C6.38755 64.3734 6.43255 64.4413 6.4894 64.4985C6.54624 64.5557 6.61381 64.6012 6.68823 64.6323C6.76266 64.6634 6.84248 64.6795 6.92314 64.6797H40.5045C40.6668 64.6795 40.8223 64.615 40.9371 64.5002C41.0518 64.3855 41.1163 64.2299 41.1165 64.0677L40.9181 56.5744L41.2263 56.5663L41.4247 64.0636C41.425 64.1847 41.4015 64.3047 41.3554 64.4168C41.3093 64.5288 41.2416 64.6306 41.1561 64.7164C41.0707 64.8023 40.9692 64.8704 40.8573 64.917C40.7455 64.9636 40.6257 64.9877 40.5045 64.988Z" fill="#CCCCCC"/>
<path d="M40.5816 32.2118L40.2734 32.22L40.4285 38.0774L40.7367 38.0692L40.5816 32.2118Z" fill="#CCCCCC"/>
<path d="M49.4394 32.2158H10.1331C9.84853 32.2155 9.57562 32.1029 9.37359 31.9026C9.17157 31.7022 9.05676 31.4302 9.05411 31.1457L8.4375 14.4894C8.43782 14.2033 8.5516 13.9291 8.75389 13.7268C8.95617 13.5245 9.23043 13.4107 9.5165 13.4104H48.8228C49.1074 13.4107 49.3803 13.5233 49.5823 13.7236C49.7844 13.924 49.8992 14.196 49.9018 14.4805L50.5184 31.1368C50.5181 31.4229 50.4043 31.6971 50.202 31.8994C49.9998 32.1017 49.7255 32.2155 49.4394 32.2158ZM8.74582 14.4813L9.36236 31.1368C9.36259 31.3411 9.44387 31.537 9.58835 31.6815C9.73284 31.826 9.92874 31.9073 10.1331 31.9075H49.4394C49.6423 31.9073 49.837 31.8271 49.9813 31.6844C50.1255 31.5416 50.2077 31.3478 50.2101 31.1449L49.5936 14.4894C49.5933 14.2851 49.5121 14.0892 49.3676 13.9447C49.2231 13.8002 49.0272 13.7189 48.8228 13.7187H9.5165C9.31357 13.7189 9.1189 13.7991 8.97466 13.9418C8.83041 14.0845 8.7482 14.2784 8.74582 14.4813Z" fill="#3F3D56"/>
<path d="M56.8379 56.7246H17.5315C17.247 56.7243 16.9741 56.6117 16.772 56.4113C16.57 56.211 16.4552 55.939 16.4525 55.6545L15.8359 38.9982C15.8363 38.7121 15.95 38.4379 16.1523 38.2356C16.3546 38.0333 16.6289 37.9195 16.9149 37.9192H56.2213C56.5058 37.9195 56.7788 38.0321 56.9808 38.2324C57.1828 38.4328 57.2976 38.7048 57.3002 38.9893L57.9169 55.6456C57.9165 55.9317 57.8028 56.2059 57.6005 56.4082C57.3982 56.6105 57.1239 56.7243 56.8379 56.7246ZM16.1443 38.9901L16.7608 55.6456C16.761 55.8499 16.8423 56.0458 16.9868 56.1903C17.1313 56.3348 17.3272 56.4161 17.5315 56.4163H56.8379C57.0408 56.4161 57.2355 56.3359 57.3797 56.1932C57.5239 56.0504 57.6062 55.8566 57.6085 55.6537L56.992 38.9982C56.9918 38.7939 56.9105 38.598 56.766 38.4535C56.6215 38.309 56.4256 38.2277 56.2213 38.2275H16.9149C16.712 38.2277 16.5173 38.3079 16.3731 38.4506C16.2288 38.5933 16.1466 38.7871 16.1443 38.9901Z" fill="#3F3D56"/>
<path d="M26.8574 41.5415C26.5917 41.5415 26.3368 41.6471 26.1489 41.835C25.961 42.0229 25.8555 42.2777 25.8555 42.5434C25.8555 42.8092 25.961 43.064 26.1489 43.2519C26.3368 43.4398 26.5917 43.5454 26.8574 43.5454H46.8959C47.1617 43.5454 47.4165 43.4398 47.6044 43.2519C47.7923 43.064 47.8979 42.8092 47.8979 42.5434C47.8979 42.2777 47.7923 42.0229 47.6044 41.835C47.4165 41.6471 47.1617 41.5415 46.8959 41.5415H26.8574Z" fill="#077D00"/>
<path d="M26.8574 46.3198C26.5917 46.3198 26.3368 46.4254 26.1489 46.6133C25.961 46.8012 25.8555 47.056 25.8555 47.3218C25.8555 47.5875 25.961 47.8423 26.1489 48.0302C26.3368 48.2181 26.5917 48.3237 26.8574 48.3237H46.8959C47.1617 48.3237 47.4165 48.2181 47.6044 48.0302C47.7923 47.8423 47.8979 47.5875 47.8979 47.3218C47.8979 47.056 47.7923 46.8012 47.6044 46.6133C47.4165 46.4254 47.1617 46.3198 46.8959 46.3198H26.8574Z" fill="#077D00"/>
<path d="M26.8574 51.0981C26.5917 51.0981 26.3368 51.2037 26.1489 51.3916C25.961 51.5795 25.8555 51.8343 25.8555 52.1001C25.8555 52.3658 25.961 52.6206 26.1489 52.8085C26.3368 52.9964 26.5917 53.102 26.8574 53.102H46.8959C47.1617 53.102 47.4165 52.9964 47.6044 52.8085C47.7923 52.6206 47.8979 52.3658 47.8979 52.1001C47.8979 51.8343 47.7923 51.5795 47.6044 51.3916C47.4165 51.2037 47.1617 51.0981 46.8959 51.0981H26.8574Z" fill="#077D00"/>
<path d="M19.459 17.0327C19.1932 17.0327 18.9384 17.1383 18.7505 17.3262C18.5626 17.5141 18.457 17.7689 18.457 18.0346C18.457 18.3004 18.5626 18.5552 18.7505 18.7431C18.9384 18.931 19.1932 19.0366 19.459 19.0366H39.4975C39.7632 19.0366 40.0181 18.931 40.206 18.7431C40.3939 18.5552 40.4994 18.3004 40.4994 18.0346C40.4994 17.7689 40.3939 17.5141 40.206 17.3262C40.0181 17.1383 39.7632 17.0327 39.4975 17.0327H19.459Z" fill="#077D00"/>
<path d="M19.459 21.8113C19.1932 21.8113 18.9384 21.9168 18.7505 22.1047C18.5626 22.2926 18.457 22.5475 18.457 22.8132C18.457 23.0789 18.5626 23.3338 18.7505 23.5217C18.9384 23.7096 19.1932 23.8151 19.459 23.8151H39.4975C39.7632 23.8151 40.0181 23.7096 40.206 23.5217C40.3939 23.3338 40.4994 23.0789 40.4994 22.8132C40.4994 22.5475 40.3939 22.2926 40.206 22.1047C40.0181 21.9168 39.7632 21.8113 39.4975 21.8113H19.459Z" fill="#077D00"/>
<path d="M19.459 26.5896C19.1932 26.5896 18.9384 26.6952 18.7505 26.8831C18.5626 27.071 18.457 27.3258 18.457 27.5915C18.457 27.8573 18.5626 28.1121 18.7505 28.3C18.9384 28.4879 19.1932 28.5935 19.459 28.5935H39.4975C39.7632 28.5935 40.0181 28.4879 40.206 28.3C40.3939 28.1121 40.4994 27.8573 40.4994 27.5915C40.4994 27.3258 40.3939 27.071 40.206 26.8831C40.0181 26.6952 39.7632 26.5896 39.4975 26.5896H19.459Z" fill="#077D00"/>
<path d="M22.311 4.62436C23.1623 4.62436 23.8524 3.93424 23.8524 3.08293C23.8524 2.23162 23.1623 1.5415 22.311 1.5415C21.4597 1.5415 20.7695 2.23162 20.7695 3.08293C20.7695 3.93424 21.4597 4.62436 22.311 4.62436Z" fill="#E6E6E6"/>
</g>
<defs>
<clipPath id="clip0_2609_9256">
<rect width="111.653" height="80" fill="white" transform="translate(0.673828)"/>
</clipPath>
</defs>
</svg>
