<svg width="106" height="80" viewBox="0 0 106 80" fill="none" xmlns="http://www.w3.org/2000/svg">
<g id="undraw_followers_re_6k3g 1" clip-path="url(#clip0_12_91618)">
<path id="Vector" d="M86.4009 57.0166H2.31729C1.74331 57.016 1.19302 56.7877 0.787157 56.3818C0.381292 55.976 0.152992 55.4257 0.152344 54.8517V3.00407C0.152812 2.58356 0.32006 2.18041 0.617396 1.88307C0.914733 1.58572 1.31788 1.41845 1.73838 1.41797H86.9523C87.3801 1.41845 87.7902 1.58861 88.0927 1.8911C88.3952 2.19359 88.5654 2.60371 88.5658 3.03149V54.8517C88.5652 55.4257 88.3369 55.976 87.931 56.3818C87.5252 56.7877 86.9749 57.016 86.4009 57.0166Z" fill="#F2F2F2"/>
<path id="Vector_2" d="M83.6824 54.2831H5.31863C4.16989 54.2831 3.23535 53.4079 3.23535 52.3322V7.18266C3.23535 6.3849 3.92787 5.73584 4.7791 5.73584H84.1963C85.0616 5.73584 85.7656 6.3956 85.7656 7.20649V52.3322C85.7656 53.4079 84.8311 54.2831 83.6824 54.2831Z" fill="white"/>
<path id="Vector_3" d="M88.5358 3.27369H0.12207V2.17148C0.122903 1.59559 0.352135 1.04355 0.759477 0.636455C1.16682 0.229365 1.719 0.000475781 2.29489 0H86.363C86.9389 0.000473356 87.4911 0.229363 87.8984 0.636453C88.3057 1.04354 88.535 1.59559 88.5358 2.17148V3.27369Z" fill="#3F3D56"/>
<path id="Vector_4" d="M4.07081 2.20217C4.38121 2.20217 4.63283 1.95054 4.63283 1.64015C4.63283 1.32975 4.38121 1.07812 4.07081 1.07812C3.76041 1.07812 3.50879 1.32975 3.50879 1.64015C3.50879 1.95054 3.76041 2.20217 4.07081 2.20217Z" fill="white"/>
<path id="Vector_5" d="M6.2046 2.20217C6.515 2.20217 6.76662 1.95054 6.76662 1.64015C6.76662 1.32975 6.515 1.07812 6.2046 1.07812C5.8942 1.07812 5.64258 1.32975 5.64258 1.64015C5.64258 1.95054 5.8942 2.20217 6.2046 2.20217Z" fill="white"/>
<path id="Vector_6" d="M8.33741 2.20217C8.64781 2.20217 8.89944 1.95054 8.89944 1.64015C8.89944 1.32975 8.64781 1.07812 8.33741 1.07812C8.02702 1.07812 7.77539 1.32975 7.77539 1.64015C7.77539 1.95054 8.02702 2.20217 8.33741 2.20217Z" fill="white"/>
<path id="Vector_7" d="M25.3596 12.8276H11.5105C11.2348 12.8276 10.9617 12.8818 10.707 12.9873C10.4523 13.0928 10.2208 13.2474 10.0258 13.4424C9.83089 13.6373 9.67626 13.8688 9.57078 14.1235C9.46531 14.3782 9.41106 14.6513 9.41113 14.927V24.3517C9.41106 24.6274 9.46531 24.9004 9.57078 25.1552C9.67626 25.4099 9.83089 25.6414 10.0258 25.8363C10.2208 26.0313 10.4523 26.1859 10.707 26.2914C10.9617 26.3969 11.2348 26.4511 11.5105 26.451H25.3596C25.9164 26.451 26.4503 26.2298 26.844 25.8361C27.2377 25.4424 27.4589 24.9085 27.4589 24.3517V14.927C27.4589 14.3702 27.2377 13.8363 26.844 13.4426C26.4503 13.0489 25.9164 12.8277 25.3596 12.8276Z" fill="#6AB166"/>
<path id="Vector_8" d="M35.1279 14.9265V24.3523C35.1279 24.9091 35.3491 25.4431 35.7428 25.8368C36.1365 26.2305 36.6705 26.4517 37.2273 26.4517H51.0761C51.6328 26.4517 52.1668 26.2305 52.5605 25.8368C52.9542 25.4431 53.1754 24.9091 53.1754 24.3523V14.9265C53.1754 14.3697 52.9542 13.8357 52.5605 13.442C52.1668 13.0483 51.6328 12.8271 51.0761 12.8271H37.2273C36.6705 12.8271 36.1365 13.0483 35.7428 13.442C35.3491 13.8357 35.1279 14.3697 35.1279 14.9265Z" fill="#6AB166"/>
<path id="Vector_9" d="M60.8452 14.9265V24.3523C60.8452 24.9091 61.0664 25.4431 61.4601 25.8368C61.8538 26.2305 62.3878 26.4517 62.9446 26.4517H76.7934C77.3501 26.4517 77.8841 26.2305 78.2778 25.8368C78.6715 25.4431 78.8927 24.9091 78.8927 24.3523V14.9265C78.8927 14.3697 78.6715 13.8357 78.2778 13.442C77.8841 13.0483 77.3501 12.8271 76.7934 12.8271H62.9446C62.3878 12.8271 61.8538 13.0483 61.4601 13.442C61.0664 13.8357 60.8452 14.3697 60.8452 14.9265Z" fill="#E6E6E6"/>
<path id="Vector_10" d="M9.41113 35.7888V45.2146C9.41113 45.7714 9.63232 46.3054 10.026 46.6991C10.4197 47.0928 10.9537 47.314 11.5105 47.314H25.3593C25.9161 47.314 26.45 47.0928 26.8437 46.6991C27.2374 46.3054 27.4586 45.7714 27.4586 45.2146V35.7888C27.4586 35.232 27.2374 34.698 26.8437 34.3043C26.45 33.9106 25.9161 33.6895 25.3593 33.6895H11.5105C10.9537 33.6895 10.4197 33.9106 10.026 34.3043C9.63232 34.698 9.41113 35.232 9.41113 35.7888Z" fill="#E6E6E6"/>
<path id="Vector_11" d="M35.1279 35.7888V45.2146C35.1279 45.7714 35.3491 46.3054 35.7428 46.6991C36.1365 47.0928 36.6705 47.314 37.2273 47.314H51.0761C51.6328 47.314 52.1668 47.0928 52.5605 46.6991C52.9542 46.3054 53.1754 45.7714 53.1754 45.2146V35.7888C53.1754 35.232 52.9542 34.698 52.5605 34.3043C52.1668 33.9106 51.6328 33.6895 51.0761 33.6895H37.2273C36.6705 33.6895 36.1365 33.9106 35.7428 34.3043C35.3491 34.698 35.1279 35.232 35.1279 35.7888Z" fill="#E6E6E6"/>
<path id="Vector_12" d="M60.8452 35.7888V45.2146C60.8452 45.7714 61.0664 46.3054 61.4601 46.6991C61.8538 47.0928 62.3878 47.314 62.9446 47.314H76.7934C77.3501 47.314 77.8841 47.0928 78.2778 46.6991C78.6715 46.3054 78.8927 45.7714 78.8927 45.2146V35.7888C78.8927 35.232 78.6715 34.698 78.2778 34.3043C77.8841 33.9106 77.3501 33.6895 76.7934 33.6895H62.9446C62.3878 33.6895 61.8538 33.9106 61.4601 34.3043C61.0664 34.698 60.8452 35.232 60.8452 35.7888Z" fill="#6AB166"/>
<path id="Vector_13" d="M18.4354 22.5261C20.0296 22.5261 21.322 21.2337 21.322 19.6395C21.322 18.0453 20.0296 16.7529 18.4354 16.7529C16.8412 16.7529 15.5488 18.0453 15.5488 19.6395C15.5488 21.2337 16.8412 22.5261 18.4354 22.5261Z" fill="white"/>
<path id="Vector_14" d="M22.8459 26.7137H14.0234C14.2296 26.316 14.4955 25.9522 14.812 25.6352C15.2136 25.2327 15.6907 24.9135 16.2161 24.696C16.7414 24.4785 17.3045 24.3669 17.8731 24.3677H18.9962C19.7915 24.3673 20.5715 24.5861 21.2506 24.9999C21.9297 25.4138 22.4817 26.0067 22.8459 26.7137Z" fill="white"/>
<path id="Vector_15" d="M44.1522 22.5261C45.7464 22.5261 47.0388 21.2337 47.0388 19.6395C47.0388 18.0453 45.7464 16.7529 44.1522 16.7529C42.558 16.7529 41.2656 18.0453 41.2656 19.6395C41.2656 21.2337 42.558 22.5261 44.1522 22.5261Z" fill="white"/>
<path id="Vector_16" d="M48.5627 26.7137H39.7402C39.9464 26.316 40.2123 25.9522 40.5288 25.6352C40.9304 25.2327 41.4075 24.9135 41.9329 24.696C42.4582 24.4785 43.0213 24.3669 43.5899 24.3677H44.713C45.5083 24.3673 46.2883 24.5861 46.9674 24.9999C47.6465 25.4138 48.1985 26.0067 48.5627 26.7137Z" fill="white"/>
<path id="Vector_17" d="M69.8685 22.5261C71.4628 22.5261 72.7551 21.2337 72.7551 19.6395C72.7551 18.0453 71.4628 16.7529 69.8685 16.7529C68.2743 16.7529 66.9819 18.0453 66.9819 19.6395C66.9819 21.2337 68.2743 22.5261 69.8685 22.5261Z" fill="white"/>
<path id="Vector_18" d="M74.2795 26.7137H65.457C65.6632 26.316 65.9291 25.9522 66.2456 25.6352C66.6472 25.2327 67.1243 24.9135 67.6497 24.696C68.175 24.4785 68.7381 24.3669 69.3067 24.3677H70.4298C71.2251 24.3673 72.0051 24.5861 72.6842 24.9999C73.3633 25.4138 73.9153 26.0067 74.2795 26.7137Z" fill="white"/>
<path id="Vector_19" d="M18.4354 43.3884C20.0296 43.3884 21.322 42.096 21.322 40.5018C21.322 38.9076 20.0296 37.6152 18.4354 37.6152C16.8412 37.6152 15.5488 38.9076 15.5488 40.5018C15.5488 42.096 16.8412 43.3884 18.4354 43.3884Z" fill="white"/>
<path id="Vector_20" d="M22.8459 47.5755H14.0234C14.2296 47.1778 14.4955 46.814 14.812 46.497C15.2136 46.0945 15.6907 45.7753 16.2161 45.5578C16.7414 45.3403 17.3045 45.2287 17.8731 45.2295H18.9962C19.7915 45.2291 20.5715 45.4479 21.2506 45.8617C21.9297 46.2756 22.4817 46.8685 22.8459 47.5755Z" fill="white"/>
<path id="Vector_21" d="M44.1522 43.3884C45.7464 43.3884 47.0388 42.096 47.0388 40.5018C47.0388 38.9076 45.7464 37.6152 44.1522 37.6152C42.558 37.6152 41.2656 38.9076 41.2656 40.5018C41.2656 42.096 42.558 43.3884 44.1522 43.3884Z" fill="white"/>
<path id="Vector_22" d="M48.5627 47.5755H39.7402C39.9464 47.1778 40.2123 46.814 40.5288 46.497C40.9304 46.0945 41.4075 45.7753 41.9329 45.5578C42.4582 45.3403 43.0213 45.2287 43.5899 45.2295H44.713C45.5083 45.2291 46.2883 45.4479 46.9674 45.8617C47.6465 46.2756 48.1985 46.8685 48.5627 47.5755Z" fill="white"/>
<path id="Vector_23" d="M69.8685 43.3884C71.4628 43.3884 72.7551 42.096 72.7551 40.5018C72.7551 38.9076 71.4628 37.6152 69.8685 37.6152C68.2743 37.6152 66.9819 38.9076 66.9819 40.5018C66.9819 42.096 68.2743 43.3884 69.8685 43.3884Z" fill="white"/>
<path id="Vector_24" d="M74.2795 47.5755H65.457C65.6632 47.1778 65.9291 46.814 66.2456 46.497C66.6472 46.0945 67.1243 45.7753 67.6497 45.5578C68.175 45.3403 68.7381 45.2287 69.3067 45.2295H70.4298C71.2251 45.2291 72.0051 45.4479 72.6842 45.8617C73.3633 46.2756 73.9153 46.8685 74.2795 47.5755Z" fill="white"/>
<path id="Vector_25" d="M105.746 80.0002H71.5008C71.466 80.0002 71.4327 79.9864 71.4081 79.9618C71.3835 79.9372 71.3696 79.9038 71.3696 79.869C71.3696 79.8342 71.3835 79.8008 71.4081 79.7762C71.4327 79.7516 71.466 79.7378 71.5008 79.7378H105.746C105.781 79.7378 105.814 79.7516 105.839 79.7762C105.864 79.8008 105.878 79.8342 105.878 79.869C105.878 79.9038 105.864 79.9372 105.839 79.9618C105.814 79.9864 105.781 80.0002 105.746 80.0002Z" fill="#3F3D56"/>
<path id="Vector_26" d="M88.1258 78.4L86.5173 78.3999L85.752 72.1953L88.126 72.1954L88.1258 78.4Z" fill="#A0616A"/>
<path id="Vector_27" d="M85.3683 77.9404H88.4706V79.8937H83.415C83.415 79.6372 83.4656 79.3832 83.5637 79.1462C83.6619 78.9092 83.8058 78.6939 83.9871 78.5125C84.1685 78.3312 84.3838 78.1873 84.6208 78.0891C84.8578 77.991 85.1118 77.9404 85.3683 77.9404Z" fill="#2F2E41"/>
<path id="Vector_28" d="M94.1614 78.4L92.5529 78.3999L91.7876 72.1953L94.1617 72.1954L94.1614 78.4Z" fill="#A0616A"/>
<path id="Vector_29" d="M91.404 77.9404H94.5062V79.8937H89.4507C89.4507 79.6372 89.5012 79.3832 89.5994 79.1462C89.6975 78.9092 89.8414 78.6939 90.0228 78.5125C90.2042 78.3312 90.4195 78.1873 90.6565 78.0891C90.8935 77.991 91.1475 77.9404 91.404 77.9404Z" fill="#2F2E41"/>
<path id="Vector_30" d="M93.965 59.9209C93.7917 59.8095 93.645 59.6613 93.5351 59.487C93.4252 59.3127 93.3549 59.1164 93.3291 58.9119C93.3033 58.7075 93.3227 58.4999 93.3858 58.3037C93.4489 58.1076 93.5543 57.9276 93.6944 57.7766L92.6353 42.7456L95.6862 43.0415L95.77 57.7614C96.0082 58.0137 96.1455 58.3446 96.1559 58.6914C96.1664 59.0381 96.0493 59.3767 95.8268 59.6429C95.6043 59.9091 95.2919 60.0844 94.9487 60.1357C94.6056 60.1869 94.2556 60.1105 93.965 59.9209Z" fill="#A0616A"/>
<path id="Vector_31" d="M88.0497 75.2743L86.2789 75.1899C86.128 75.1828 85.9857 75.1181 85.8811 75.0091C85.7765 74.9002 85.7176 74.7553 85.7165 74.6043C85.2497 67.3985 84.6031 59.6718 85.593 56.6869C85.5924 56.6019 85.6102 56.5177 85.6451 56.4401C85.6801 56.3626 85.7314 56.2935 85.7955 56.2376C85.8596 56.1818 85.9351 56.1404 86.0166 56.1164C86.0982 56.0923 86.1841 56.0862 86.2682 56.0984L93.3527 57.1268C93.4926 57.1464 93.6208 57.2158 93.7137 57.3224C93.8066 57.4289 93.8579 57.5654 93.8583 57.7067C94.7628 61.241 94.8036 67.65 94.7694 74.3091C94.77 74.387 94.7552 74.4643 94.7258 74.5364C94.6964 74.6086 94.653 74.6742 94.5981 74.7295C94.5432 74.7848 94.4779 74.8287 94.406 74.8586C94.3341 74.8886 94.2569 74.904 94.179 74.904H92.2699C92.1291 74.9046 91.9927 74.8546 91.8856 74.763C91.7786 74.6715 91.708 74.5446 91.6866 74.4053L90.5088 66.9176C90.4916 66.808 90.4353 66.7084 90.3503 66.6371C90.2654 66.5658 90.1575 66.5277 90.0466 66.5297C89.9358 66.5318 89.8294 66.5739 89.7471 66.6483C89.6648 66.7226 89.6123 66.8243 89.5991 66.9344L88.6641 74.7548C88.6465 74.898 88.5772 75.0299 88.4692 75.1257C88.3613 75.2215 88.2221 75.2746 88.0778 75.2751C88.0685 75.2751 88.0591 75.2749 88.0497 75.2743Z" fill="#2F2E41"/>
<path id="Vector_32" d="M89.2967 57.7075C87.7354 56.84 86.5155 56.6121 85.9273 56.5534C85.8491 56.5459 85.7733 56.5225 85.7044 56.4848C85.6356 56.4471 85.5751 56.3957 85.5266 56.3339C85.4771 56.2717 85.4408 56.2 85.4198 56.1233C85.3988 56.0466 85.3936 55.9664 85.4045 55.8876L87.102 43.2849C87.1997 42.5476 87.4845 41.8476 87.9292 41.2515C88.3739 40.6553 88.9638 40.1829 89.6426 39.8791C90.2998 39.5771 91.0233 39.4481 91.7443 39.5047C92.4654 39.5612 93.16 39.8013 93.762 40.202C93.8202 40.2407 93.8773 40.2802 93.9333 40.3206C94.6266 40.8286 95.154 41.5304 95.4491 42.3377C95.7441 43.145 95.7936 44.0215 95.5913 44.8569C94.5503 49.1153 94.1928 56.0965 94.1317 57.4528C94.1269 57.5684 94.0879 57.68 94.0198 57.7735C93.9517 57.867 93.8574 57.9383 93.7488 57.9783C93.1083 58.211 92.4325 58.3313 91.751 58.334C90.8927 58.3392 90.0475 58.1234 89.2967 57.7075Z" fill="white"/>
<path id="Vector_33" d="M93.3259 47.7963C93.2544 47.7449 93.1954 47.6781 93.1532 47.6009C93.111 47.5237 93.0867 47.4379 93.082 47.3501L92.8584 43.2988C92.8363 42.8975 92.9636 42.5021 93.2157 42.189C93.4678 41.876 93.8269 41.6673 94.2237 41.6033C94.6206 41.5393 95.0271 41.6245 95.3648 41.8424C95.7026 42.0604 95.9477 42.3956 96.0529 42.7836L97.0349 46.4056C97.0757 46.5567 97.0549 46.7179 96.977 46.8537C96.8992 46.9895 96.7706 47.0888 96.6196 47.13L93.826 47.8874C93.7412 47.9106 93.6522 47.9144 93.5656 47.8987C93.479 47.8829 93.3971 47.8479 93.3259 47.7963Z" fill="white"/>
<path id="Vector_34" d="M90.7163 38.1679C92.4961 38.1679 93.9389 36.7251 93.9389 34.9453C93.9389 33.1655 92.4961 31.7227 90.7163 31.7227C88.9365 31.7227 87.4937 33.1655 87.4937 34.9453C87.4937 36.7251 88.9365 38.1679 90.7163 38.1679Z" fill="#A0616A"/>
<path id="Vector_35" d="M79.0382 41.2769C79.0543 41.3477 79.0648 41.4196 79.0696 41.4921L84.706 44.7437L86.076 43.955L87.5365 45.867L84.6056 47.9559L78.1754 42.883C77.9131 42.9801 77.6275 42.995 77.3566 42.9258C77.0856 42.8566 76.8422 42.7065 76.6586 42.4955C76.475 42.2846 76.36 42.0228 76.3289 41.7449C76.2977 41.467 76.3519 41.1862 76.4843 40.9398C76.6166 40.6935 76.8208 40.4932 77.0697 40.3658C77.3186 40.2383 77.6004 40.1896 77.8776 40.2262C78.1549 40.2628 78.4144 40.3829 78.6217 40.5706C78.829 40.7583 78.9743 41.0046 79.0382 41.2769Z" fill="#A0616A"/>
<path id="Vector_36" d="M84.9077 44.4668C84.8983 44.3793 84.9086 44.2908 84.938 44.2079C84.9674 44.1249 85.015 44.0496 85.0773 43.9875L87.946 41.1181C88.2302 40.8339 88.6096 40.6649 89.0111 40.6438C89.4125 40.6228 89.8075 40.751 90.1199 41.004C90.4324 41.2569 90.6401 41.6165 90.7031 42.0135C90.7661 42.4105 90.6798 42.8168 90.461 43.154L88.4181 46.302C88.3327 46.4332 88.1988 46.5252 88.0457 46.5578C87.8926 46.5904 87.7328 46.5609 87.6014 46.4759L85.1735 44.9002C85.0996 44.8525 85.0373 44.7887 84.9913 44.7137C84.9453 44.6387 84.9167 44.5544 84.9077 44.4668Z" fill="white"/>
<path id="Vector_37" d="M92.9969 37.4947C92.3957 38.1351 91.2792 37.7914 91.2008 36.9165C91.1947 36.8486 91.1951 36.7802 91.2022 36.7124C91.2426 36.3248 91.4665 35.973 91.4129 35.5638C91.4007 35.462 91.3628 35.3649 91.3026 35.2819C90.8236 34.6403 89.699 35.5688 89.2468 34.988C88.9696 34.6319 89.2955 34.0713 89.0827 33.6733C88.802 33.148 87.9702 33.4071 87.4487 33.1194C86.8684 32.7993 86.9031 31.909 87.2851 31.3674C87.7509 30.707 88.5677 30.3545 89.3744 30.3038C90.181 30.253 90.9821 30.471 91.7351 30.7645C92.5907 31.0979 93.4392 31.5588 93.9658 32.3111C94.6061 33.2261 94.6677 34.4561 94.3475 35.526C94.1527 36.1768 93.4878 36.9718 92.9969 37.4947Z" fill="#2F2E41"/>
</g>
<defs>
<clipPath id="clip0_12_91618">
<rect width="105.755" height="80" fill="white" transform="translate(0.12207)"/>
</clipPath>
</defs>
</svg>
