<svg width="72" height="80" viewBox="0 0 72 80" fill="none" xmlns="http://www.w3.org/2000/svg">
<g clip-path="url(#clip0_12_90928)">
<path d="M5.4827 10.315C8.33111 10.315 10.6402 8.00592 10.6402 5.15751C10.6402 2.30909 8.33111 0 5.4827 0C2.63429 0 0.325195 2.30909 0.325195 5.15751C0.325195 8.00592 2.63429 10.315 5.4827 10.315Z" fill="#F2F2F2"/>
<path d="M4.06604 3.22242C4.46819 3.22242 4.7942 2.89641 4.7942 2.49427C4.7942 2.09212 4.46819 1.76611 4.06604 1.76611C3.6639 1.76611 3.33789 2.09212 3.33789 2.49427C3.33789 2.89641 3.6639 3.22242 4.06604 3.22242Z" fill="#2F2E41"/>
<path d="M5.23137 5.98911C6.25015 5.98911 7.07603 5.16323 7.07603 4.14446C7.07603 3.12568 6.25015 2.2998 5.23137 2.2998C4.2126 2.2998 3.38672 3.12568 3.38672 4.14446C3.38672 5.16323 4.2126 5.98911 5.23137 5.98911Z" fill="#2F2E41"/>
<path d="M5.38376 5.9887C6.21163 5.9887 6.88275 5.31758 6.88275 4.48971C6.88275 3.66184 6.21163 2.99072 5.38376 2.99072C4.55589 2.99072 3.88477 3.66184 3.88477 4.48971C3.88477 5.31758 4.55589 5.9887 5.38376 5.9887Z" fill="#9E616A"/>
<path d="M6.40184 2.9619C6.13917 2.80177 5.8383 2.71514 5.5307 2.71109C5.22309 2.70703 4.92004 2.78569 4.65324 2.93884C4.38644 3.092 4.16569 3.31402 4.01406 3.58169C3.86244 3.84936 3.78551 4.15285 3.79132 4.46043C4.55513 4.6522 5.35757 4.79895 6.17212 4.5063L6.36448 4.03551L6.47789 4.50665C6.72595 4.60804 6.97465 4.69383 7.22335 4.50567C7.2335 4.19896 7.16298 3.89495 7.01881 3.62405C6.87465 3.35314 6.6619 3.12481 6.40184 2.9619Z" fill="#2F2E41"/>
<path d="M3.38889 0.51751C3.13324 0.408393 2.85216 0.372994 2.57743 0.415315C2.30271 0.457636 2.04531 0.575989 1.83435 0.756987C1.62804 0.943146 1.47098 1.17745 1.37717 1.43903C1.28337 1.7006 1.25573 1.98132 1.29672 2.25616C1.37928 2.81518 1.71914 3.29657 2.03239 3.76687C2.34565 4.23718 2.6517 4.75252 2.65135 5.3176C2.6511 5.7246 2.48945 6.11489 2.20185 6.40289C1.91426 6.69088 1.52419 6.85306 1.11719 6.85387C1.59487 7.05951 2.09344 7.26919 2.61294 7.24481C3.13244 7.22043 3.67694 6.88646 3.76168 6.37335C3.82274 6.00363 3.64135 5.6431 3.49006 5.30027C3.24364 4.74164 3.06553 4.15531 2.95958 3.55401C2.8908 3.26945 2.89429 2.97221 2.96972 2.68934C3.04422 2.48483 3.18248 2.30968 3.36408 2.18971C3.54569 2.06975 3.76105 2.01131 3.97838 2.02303L4.15003 1.8686C4.17943 1.59221 4.12192 1.31353 3.98549 1.07136C3.84906 0.829191 3.64052 0.635588 3.38889 0.51751Z" fill="#2F2E41"/>
<path d="M9.36315 8.60835C8.46963 9.62504 7.21213 10.2496 5.86212 10.3471C4.51211 10.4447 3.17789 10.0075 2.14746 9.12983L2.58983 7.89547C2.6898 7.67623 2.84756 7.48833 3.04619 7.35194C3.24482 7.21554 3.47684 7.13577 3.71735 7.12121L3.99878 7.10393L4.66984 6.52516C4.66984 6.52516 6.47797 6.4606 6.45114 6.42969L7.54638 7.08847L7.54547 7.08392L7.97602 7.11029C8.21655 7.1248 8.4486 7.20454 8.64724 7.34094C8.84588 7.47735 9.00363 7.66528 9.10355 7.88456L9.36315 8.60835Z" fill="#6AB166"/>
<path d="M10.6402 25.7072C10.6384 26.7272 10.3341 27.7238 9.76593 28.571C9.19771 29.4181 8.39105 30.0778 7.44795 30.4664C6.50485 30.8551 5.46766 30.9554 4.46756 30.7547C3.46745 30.5539 2.54935 30.061 1.82934 29.3385C1.10933 28.6159 0.619751 27.6961 0.422522 26.6952C0.225292 25.6944 0.329267 24.6576 0.721297 23.7159C1.11333 22.7742 1.77581 21.9699 2.62496 21.4047C3.47411 20.8394 4.47179 20.5387 5.49185 20.5405C6.16964 20.54 6.84086 20.6734 7.46693 20.933C8.093 21.1927 8.66159 21.5736 9.14001 22.0537C9.61842 22.5338 9.99725 23.1037 10.2547 23.7307C10.5122 24.3577 10.6432 25.0294 10.6402 25.7072Z" fill="#F2F2F2"/>
<path d="M3.09272 24.0203C3.30598 23.3407 3.79094 22.7173 4.46164 22.4876C5.13237 22.2578 6.11449 22.6078 6.61873 23.1103C7.54108 24.0296 7.76617 27.1875 7.13247 28.1854C7.00643 28.1787 6.5715 28.1738 6.44393 28.169L6.26347 27.5675V28.1631C6.06023 28.1568 5.8554 28.1525 5.64898 28.1501C4.9569 28.1415 4.2951 27.8649 3.80271 27.3785C3.31032 26.8921 3.02569 26.2337 3.00867 25.5418C2.99215 24.8799 3.00868 24.2882 3.09272 24.0203Z" fill="#2F2E41"/>
<path d="M5.40638 26.2727C6.21815 26.2727 6.87623 25.6146 6.87623 24.8029C6.87623 23.9911 6.21815 23.333 5.40638 23.333C4.5946 23.333 3.93652 23.9911 3.93652 24.8029C3.93652 25.6146 4.5946 26.2727 5.40638 26.2727Z" fill="#9E616A"/>
<path d="M4.1377 23.512L5.83009 22.6646C6.17609 22.8205 6.47408 23.0661 6.69315 23.376C6.91222 23.6859 7.0444 24.0487 7.07597 24.4269L7.11816 24.9322L6.40946 24.7518L6.33183 24.1057L6.21148 24.7014L5.88442 24.6182L5.88753 23.6151L5.56027 24.6175L4.39216 24.3491L4.1377 23.512Z" fill="#2F2E41"/>
<path d="M9.30944 29.1108C8.41592 30.1275 7.15842 30.752 5.80841 30.8496C4.45841 30.9472 3.12418 30.5099 2.09375 29.6323L2.53612 28.3979C2.63609 28.1787 2.79385 27.9908 2.99248 27.8544C3.19111 27.718 3.42313 27.6382 3.66364 27.6236L3.94507 27.6064L4.61612 27.0276C4.61612 27.0276 6.42425 26.963 6.39743 26.9321L7.49267 27.5909L7.49176 27.5864L7.92231 27.6127C8.16284 27.6272 8.39489 27.707 8.59353 27.8434C8.79217 27.9798 8.94992 28.1677 9.04984 28.387L9.30944 29.1108Z" fill="#6AB166"/>
<path d="M5.4827 51.358C8.33111 51.358 10.6402 49.0489 10.6402 46.2005C10.6402 43.3521 8.33111 41.043 5.4827 41.043C2.63429 41.043 0.325195 43.3521 0.325195 46.2005C0.325195 49.0489 2.63429 51.358 5.4827 51.358Z" fill="#F2F2F2"/>
<path d="M5.34067 46.8395C6.24991 46.8395 6.987 46.1025 6.987 45.1932C6.987 44.284 6.24991 43.5469 5.34067 43.5469C4.43142 43.5469 3.69434 44.284 3.69434 45.1932C3.69434 46.1025 4.43142 46.8395 5.34067 46.8395Z" fill="#9E616A"/>
<path d="M9.35242 49.6513C8.45889 50.668 7.2014 51.2926 5.85139 51.3901C4.50138 51.4877 3.16714 51.0504 2.13672 50.1728L2.57909 48.9384C2.67906 48.7192 2.83682 48.5313 3.03545 48.3949C3.23408 48.2585 3.46609 48.1787 3.70661 48.1642L3.98804 48.1469L4.6591 47.5681C4.6591 47.5681 6.46722 47.5036 6.4404 47.4727L7.53564 48.1314L7.53473 48.1269L7.96528 48.1533C8.20582 48.1678 8.43785 48.2475 8.6365 48.3839C8.83514 48.5203 8.99289 48.7082 9.09281 48.9275L9.35242 49.6513Z" fill="#6AB166"/>
<path d="M7.07623 44.172C6.93711 43.6741 6.62103 43.244 6.18732 42.9626C5.84168 42.7415 5.41038 42.6287 5.0188 42.7456C4.62723 42.8625 4.30303 43.2468 4.32866 43.662C4.25612 43.6429 4.1797 43.6445 4.10803 43.6667C4.03637 43.6888 3.97233 43.7305 3.92317 43.7872C3.82492 43.9032 3.75661 44.0415 3.72423 44.19C3.59857 44.6555 3.6069 45.147 3.74824 45.608L3.74047 45.6742C3.83499 45.649 3.92251 45.6026 3.99635 45.5384C4.07019 45.4743 4.1284 45.3941 4.16652 45.304C4.25663 45.1294 4.30848 44.9356 4.40614 44.7653C4.44829 44.6771 4.51186 44.6009 4.59105 44.5437C4.67024 44.4865 4.76252 44.45 4.85944 44.4376L4.84239 44.7334C5.00884 44.6476 5.17529 44.5618 5.34174 44.4761L5.22296 44.7602L5.65905 44.5779C5.6428 44.669 5.62655 44.7601 5.6103 44.8511C5.64842 44.7721 5.70218 44.7016 5.76832 44.6439C5.83447 44.5862 5.91163 44.5426 5.99514 44.5156C6.07864 44.4886 6.16675 44.4788 6.25415 44.4868C6.34154 44.4949 6.4264 44.5206 6.50358 44.5623C6.67741 44.6793 6.80271 44.8556 6.85606 45.0582C6.90884 45.2603 6.93718 45.4681 6.94046 45.677C7.16508 45.208 7.21328 44.6737 7.07623 44.172Z" fill="#2F2E41"/>
<path d="M12.1084 13.9707H0.76681C0.708722 13.9708 0.651185 13.9595 0.597492 13.9373C0.543798 13.9151 0.495004 13.8826 0.453896 13.8416C0.412788 13.8005 0.380174 13.7518 0.357923 13.6981C0.335672 13.6445 0.324219 13.5869 0.324219 13.5288C0.324219 13.4708 0.335672 13.4132 0.357923 13.3596C0.380174 13.3059 0.412788 13.2572 0.453896 13.2161C0.495004 13.1751 0.543798 13.1426 0.597492 13.1204C0.651185 13.0982 0.708722 13.0869 0.76681 13.087H12.1084C12.6782 13.079 12.6839 13.9787 12.1084 13.9707Z" fill="#E6F2E6"/>
<path d="M27.3869 16.2822H0.767074C0.649881 16.2822 0.537486 16.2357 0.454617 16.1528C0.371749 16.07 0.325195 15.9576 0.325195 15.8404C0.325195 15.7232 0.371749 15.6108 0.454617 15.5279C0.537486 15.445 0.649881 15.3985 0.767074 15.3985H27.3869C27.9568 15.3905 27.9625 16.2903 27.3869 16.2822Z" fill="#E6F2E6"/>
<path d="M36.6608 17.5247C38.2296 17.5247 39.5013 16.253 39.5013 14.6842C39.5013 13.1155 38.2296 11.8438 36.6608 11.8438C35.092 11.8438 33.8203 13.1155 33.8203 14.6842C33.8203 16.253 35.092 17.5247 36.6608 17.5247Z" fill="#6AB166"/>
<path d="M36.2735 16.163C36.2244 16.163 36.1761 16.1515 36.1322 16.1296C36.0883 16.1077 36.0502 16.0758 36.0207 16.0366L35.2458 15.0033C35.1955 14.9363 35.1739 14.852 35.1858 14.769C35.1976 14.6861 35.242 14.6112 35.309 14.561C35.3761 14.5107 35.4603 14.4891 35.5433 14.5009C35.6262 14.5128 35.7011 14.5571 35.7514 14.6242L36.2583 15.3001L37.5605 13.3469C37.5835 13.3124 37.613 13.2827 37.6475 13.2596C37.682 13.2365 37.7207 13.2204 37.7614 13.2122C37.8021 13.2041 37.844 13.204 37.8847 13.2121C37.9255 13.2201 37.9642 13.2361 37.9987 13.2591C38.0333 13.2821 38.063 13.3118 38.086 13.3462C38.1091 13.3807 38.1252 13.4195 38.1333 13.4602C38.1415 13.5009 38.1415 13.5428 38.1334 13.5835C38.1253 13.6242 38.1093 13.6629 38.0863 13.6975L36.5364 16.0223C36.5084 16.0643 36.4707 16.099 36.4264 16.1235C36.3822 16.1479 36.3328 16.1614 36.2823 16.1629C36.2793 16.1629 36.2764 16.163 36.2735 16.163Z" fill="white"/>
<path d="M12.1086 34.4922H0.767074C0.649881 34.4922 0.537486 34.4457 0.454617 34.3628C0.371749 34.2799 0.325195 34.1675 0.325195 34.0503C0.325195 33.9331 0.371749 33.8207 0.454617 33.7379C0.537486 33.655 0.649881 33.6085 0.767074 33.6085H12.1086C12.6785 33.6005 12.6842 34.5002 12.1086 34.4922Z" fill="#E6F2E6"/>
<path d="M27.3867 36.8037H0.76681C0.708722 36.8038 0.651185 36.7925 0.597492 36.7703C0.543798 36.7481 0.495004 36.7156 0.453896 36.6746C0.412788 36.6335 0.380174 36.5848 0.357923 36.5311C0.335672 36.4775 0.324219 36.4199 0.324219 36.3619C0.324219 36.3038 0.335672 36.2462 0.357923 36.1926C0.380174 36.1389 0.412788 36.0902 0.453896 36.0491C0.495004 36.0081 0.543798 35.9756 0.597492 35.9534C0.651185 35.9312 0.708722 35.9199 0.76681 35.92H27.3867C27.9565 35.912 27.9622 36.8118 27.3867 36.8037Z" fill="#E6F2E6"/>
<path d="M36.6608 38.0467C38.2296 38.0467 39.5013 36.775 39.5013 35.2062C39.5013 33.6375 38.2296 32.3657 36.6608 32.3657C35.092 32.3657 33.8203 33.6375 33.8203 35.2062C33.8203 36.775 35.092 38.0467 36.6608 38.0467Z" fill="#6AB166"/>
<path d="M36.2735 36.6846C36.2244 36.6846 36.1761 36.6732 36.1322 36.6512C36.0883 36.6293 36.0502 36.5974 36.0207 36.5582L35.2458 35.5249C35.2209 35.4917 35.2028 35.4539 35.1925 35.4138C35.1822 35.3736 35.1799 35.3317 35.1858 35.2907C35.1917 35.2496 35.2056 35.2101 35.2267 35.1744C35.2478 35.1387 35.2758 35.1075 35.309 35.0826C35.3422 35.0577 35.38 35.0396 35.4202 35.0293C35.4604 35.019 35.5022 35.0167 35.5433 35.0226C35.5843 35.0284 35.6239 35.0423 35.6596 35.0635C35.6953 35.0846 35.7265 35.1126 35.7514 35.1458L36.2583 35.8217L37.5605 33.8686C37.607 33.7989 37.6792 33.7505 37.7614 33.7341C37.8435 33.7177 37.9288 33.7346 37.9985 33.7811C38.0682 33.8276 38.1166 33.8998 38.1331 33.9819C38.1495 34.0641 38.1327 34.1494 38.0863 34.2191L36.5364 36.5439C36.5084 36.5859 36.4707 36.6206 36.4264 36.6451C36.3822 36.6696 36.3328 36.6831 36.2823 36.6845C36.2793 36.6845 36.2764 36.6846 36.2735 36.6846Z" fill="white"/>
<path d="M12.1086 55.0137H0.767074C0.649881 55.0137 0.537486 54.9671 0.454617 54.8843C0.371749 54.8014 0.325195 54.689 0.325195 54.5718C0.325195 54.4546 0.371749 54.3422 0.454617 54.2594C0.537486 54.1765 0.649881 54.1299 0.767074 54.1299H12.1086C12.6785 54.122 12.6842 55.0217 12.1086 55.0137Z" fill="#E6F2E6"/>
<path d="M27.3869 57.3252H0.767074C0.649881 57.3252 0.537486 57.2787 0.454617 57.1958C0.371749 57.1129 0.325195 57.0005 0.325195 56.8833C0.325195 56.7661 0.371749 56.6537 0.454617 56.5709C0.537486 56.488 0.649881 56.4415 0.767074 56.4415H27.3869C27.9568 56.4335 27.9625 57.3332 27.3869 57.3252Z" fill="#E6F2E6"/>
<path d="M36.6608 58.5682C38.2296 58.5682 39.5013 57.2965 39.5013 55.7277C39.5013 54.1589 38.2296 52.8872 36.6608 52.8872C35.092 52.8872 33.8203 54.1589 33.8203 55.7277C33.8203 57.2965 35.092 58.5682 36.6608 58.5682Z" fill="#FF0000"/>
<path d="M36.6244 55.4412L37.7581 54.3076L38.0819 54.6314L36.9483 55.7651L38.0819 56.8987L37.7581 57.2225L36.6244 56.0889L35.4908 57.2225L35.167 56.8987L36.3006 55.7651L35.167 54.6314L35.4908 54.3076L36.6244 55.4412Z" fill="white"/>
<path d="M48.2441 45.9722H55.6871L53.855 40.5903L48.8167 40.7048L48.2441 45.9722Z" fill="#9E616A"/>
<path d="M54.2509 76.987H52.7818L52.083 71.3208L54.2511 71.3209L54.2509 76.987Z" fill="#9E616A"/>
<path d="M55.0413 79.776H53.9989L53.8128 78.7919L53.3363 79.776H50.5717C50.4392 79.7761 50.3101 79.7337 50.2034 79.6552C50.0966 79.5766 50.0178 79.466 49.9784 79.3395C49.9389 79.213 49.941 79.0772 49.9842 78.9519C50.0274 78.8267 50.1095 78.7185 50.2186 78.6432L52.4263 77.1184V76.1235L54.7485 76.2621L55.0413 79.776Z" fill="#2F2E41"/>
<path d="M51.7313 76.987H50.2623L49.5635 71.3208L51.7316 71.3209L51.7313 76.987Z" fill="#9E616A"/>
<path d="M52.5217 79.776H51.4794L51.2933 78.7919L50.8168 79.776H48.0522C47.9196 79.7761 47.7906 79.7337 47.6838 79.6552C47.5771 79.5766 47.4983 79.466 47.4588 79.3395C47.4194 79.213 47.4214 79.0772 47.4646 78.9519C47.5078 78.8267 47.59 78.7185 47.699 78.6432L49.9068 77.1184V76.1235L52.2289 76.2621L52.5217 79.776Z" fill="#2F2E41"/>
<path d="M48.2665 44.9417L55.6875 44.8271C55.6875 44.8271 58.1811 50.0827 57.1756 53.3295L54.263 62.8638L51.8688 75.102L49.6666 74.4337L49.0497 73.5058L49.5041 71.8509L49.3163 70.9245L48.588 62.4613V62.3468L48.2445 58.7971C46.6982 53.5132 47.1096 50.3242 48.2665 44.9417Z" fill="#2F2E41"/>
<path d="M53.4825 62.2954L54.8465 72.1784L54.5422 72.6526L54.8465 73.4322L54.4718 75.2796L52.2999 75.7013L50.2412 66.8668L53.4825 62.2954Z" fill="#2F2E41"/>
<path d="M48.4661 43.407C48.4643 43.407 48.4626 43.4071 48.4608 43.4071C48.3994 43.4074 48.3396 43.3879 48.2901 43.3517C48.2406 43.3154 48.204 43.2642 48.1858 43.2056C47.8263 42.0698 47.4384 40.6753 47.6313 40.4823C47.7153 40.4102 47.8134 40.3566 47.9194 40.3249C48.1504 40.2373 48.3329 40.1681 48.19 39.7393C48.0878 39.4326 48.4076 39.0925 48.2465 38.8845C48.0411 38.6192 48.0894 38.3651 48.2465 38.1975C48.3941 38.04 47.9691 37.3096 48.2062 36.5608C48.2138 36.537 48.2161 36.5118 48.2129 36.487C48.2098 36.4622 48.2013 36.4384 48.1881 36.4172C47.8905 35.9401 47.0229 34.8659 48.0804 33.8167C49.0519 32.8528 49.4675 30.9689 49.7444 30.831C49.784 30.8112 49.8145 30.7769 49.8295 30.7352L50.1962 29.7303C50.2166 29.6747 50.2535 29.6268 50.302 29.5928C50.3505 29.5589 50.4082 29.5406 50.4674 29.5405H53.3102C53.3536 29.5404 53.3964 29.5501 53.4354 29.5689C53.4745 29.5876 53.5088 29.615 53.5358 29.6489L54.8743 31.3221C54.891 31.3428 54.9047 31.3658 54.9149 31.3903C55.0921 31.8136 56.6237 35.5674 55.8523 37.0001L55.7106 37.2626C55.0301 38.5231 54.7483 39.0448 55.0408 39.3372C55.3102 39.6066 55.1953 39.8062 55.1267 39.9255C55.1054 39.9625 55.0813 40.0043 55.0855 40.023C55.1645 40.3789 54.9643 40.4304 54.8681 40.4552C54.8616 40.4569 54.854 40.4588 54.847 40.4608C54.8709 40.4927 54.8974 40.5226 54.9262 40.55C54.9606 40.5783 54.9886 40.6134 55.0083 40.6533C55.0281 40.6931 55.0392 40.7366 55.0409 40.7811C55.032 40.8306 55.0126 40.8777 54.9842 40.9192C54.9558 40.9607 54.9189 40.9958 54.876 41.0221C54.8318 41.0591 54.7817 41.1009 54.7807 41.1289C54.7801 41.1454 54.7994 41.1665 54.8109 41.1775C54.8605 41.2252 54.9284 41.2801 55.0003 41.3383C55.2083 41.5067 55.4442 41.6975 55.4538 41.8806C55.4554 41.9125 55.45 41.9443 55.438 41.9739C55.426 42.0035 55.4076 42.0301 55.3843 42.0518L54.8492 42.5867C54.8106 42.6543 54.9874 43.0734 55.067 43.1676L55.1039 43.2112L55.0771 43.234C55.1005 43.2722 55.1143 43.3155 55.1174 43.3602C55.1205 43.405 55.1127 43.4497 55.0948 43.4908C55.0729 43.5374 55.038 43.5765 54.9943 43.6035C54.9506 43.6305 54.8999 43.6441 54.8485 43.6427L48.4661 43.407Z" fill="white"/>
<path d="M39.1441 35.6139C39.3629 35.839 39.6614 35.9691 39.9752 35.9762C40.289 35.9833 40.5931 35.8667 40.8218 35.6517C40.8722 35.604 40.9183 35.552 40.9596 35.4962L44.992 36.7184L44.3733 34.6402L40.6388 33.7981C40.3717 33.6304 40.0492 33.5745 39.7412 33.6426C39.4331 33.7107 39.1642 33.8972 38.9927 34.162C38.8494 34.3853 38.7864 34.6506 38.8139 34.9145C38.8414 35.1783 38.9579 35.425 39.1441 35.6139Z" fill="#9E616A"/>
<path d="M41.6758 36.0475L42.2705 34.0456L44.3209 34.0343L44.7433 34.5949L45.4246 34.3508L47.5895 34.9019L49.8767 31.2064C49.9916 31.0207 50.1461 30.8626 50.3291 30.7435C50.5121 30.6243 50.7191 30.547 50.9354 30.517C51.1517 30.487 51.372 30.5051 51.5805 30.57C51.789 30.6348 51.9807 30.7449 52.1418 30.8923C52.3919 31.1191 52.5567 31.4247 52.6088 31.7582C52.661 32.0917 52.5972 32.433 52.4283 32.7253L49.2176 38.337L41.6758 36.0475Z" fill="white"/>
<path d="M44.5933 45.1772C44.907 45.1879 45.2124 45.0748 45.4435 44.8624C45.6746 44.6499 45.813 44.3552 45.8288 44.0417C45.8322 43.9724 45.8293 43.9029 45.8204 43.8341L49.5743 41.9204L47.6879 40.8511L44.4123 42.8323C44.1035 42.8966 43.8323 43.0798 43.6574 43.3424C43.4825 43.6049 43.418 43.9258 43.4778 44.2356C43.5293 44.4958 43.6678 44.7307 43.8705 44.9019C44.0732 45.073 44.3281 45.1701 44.5933 45.1772Z" fill="#9E616A"/>
<path d="M46.7195 43.7352L45.7607 41.88L47.2309 40.4507L47.924 40.5621L48.2459 39.9139L50.1885 38.8107L49.276 34.5616C49.2301 34.3481 49.2319 34.1271 49.2813 33.9144C49.3306 33.7016 49.4262 33.5024 49.5614 33.3309C49.6965 33.1593 49.8678 33.0197 50.0631 32.9219C50.2584 32.8242 50.4728 32.7707 50.6911 32.7653C51.0285 32.7554 51.3592 32.8615 51.6279 33.0658C51.8966 33.2701 52.0873 33.5603 52.1681 33.8881L53.743 40.1586L46.7195 43.7352Z" fill="white"/>
<path d="M52.0304 29.008C53.5379 29.008 54.76 27.786 54.76 26.2784C54.76 24.7709 53.5379 23.5488 52.0304 23.5488C50.5229 23.5488 49.3008 24.7709 49.3008 26.2784C49.3008 27.786 50.5229 29.008 52.0304 29.008Z" fill="#9E616A"/>
<path d="M52.4427 22.9566L52.7738 23.0448L52.8863 23.0747L54.1466 23.4102C55.2637 23.7075 55.8981 24.9673 55.5635 26.224C56.1812 27.2947 55.646 28.2877 54.6733 29.2512C53.4264 29.0801 52.1618 29.0816 50.9152 29.2557L50.9369 28.5342L50.3851 29.3452C50.0701 29.4061 49.7542 29.4803 49.4372 29.5677C50.1576 28.1489 50.6888 26.6834 50.7793 25.4593L50.2022 25.3057L50.3703 24.6741L50.0062 25.2535L48.96 24.975C49.0561 24.6138 49.2225 24.2751 49.4495 23.9782C49.6766 23.6813 49.9599 23.432 50.2833 23.2445C50.6067 23.0571 50.9638 22.9352 51.3343 22.8858C51.7048 22.8364 52.0814 22.8605 52.4427 22.9566Z" fill="#2F2E41"/>
<path d="M54.7688 24.6436C55.4788 24.6436 56.0543 24.0681 56.0543 23.3582C56.0543 22.6483 55.4788 22.0728 54.7688 22.0728C54.0589 22.0728 53.4834 22.6483 53.4834 23.3582C53.4834 24.0681 54.0589 24.6436 54.7688 24.6436Z" fill="#2F2E41"/>
<path d="M68.0388 79.5201C68.9515 77.3823 69.595 75.0555 69.2904 72.7527C69.186 71.9719 68.9588 71.2125 68.6171 70.5027C68.3419 69.924 67.9865 69.387 67.5613 68.9076C67.4144 68.7385 67.2127 68.6263 66.9915 68.5907C66.7703 68.5552 66.5436 68.5984 66.351 68.7129C66.3212 68.7301 66.2915 68.7484 66.264 68.7679C66.1149 68.8729 65.9973 69.0166 65.9239 69.1835C65.9097 69.2155 65.8978 69.2484 65.8884 69.282C65.8463 69.4226 65.835 69.5706 65.8552 69.716C66.0157 70.9011 65.9809 72.1045 65.7521 73.2783C65.6937 73.5772 65.6223 73.8734 65.538 74.1669C65.3486 73.9304 65.1471 73.7038 64.9345 73.4879C64.3833 72.9293 63.7477 72.461 63.0509 72.1H63.0497C63.0463 72.0978 63.044 72.0966 63.0406 72.0943C62.1955 71.6638 61.0688 71.8424 60.4103 72.1355C60.3668 72.1539 60.3256 72.1745 60.2855 72.1939C59.942 72.3703 59.7714 72.573 59.918 72.7058C59.9512 72.7344 59.9844 72.7642 60.0153 72.794C61.0135 73.7167 61.8312 74.8172 62.4268 76.0391V76.0403C62.6636 76.5267 62.863 77.0305 63.0234 77.5472C63.2444 78.2606 63.4276 79.0518 63.8593 79.6335C63.9035 79.6947 63.9513 79.7532 64.0025 79.8087L67.8591 79.7778C67.8682 79.7732 67.8762 79.7698 67.8854 79.7652L68.0388 79.7709C68.0331 79.7434 68.0262 79.716 68.0194 79.6885V79.6862C68.0159 79.6713 68.0114 79.6553 68.0079 79.6415C68.0045 79.6301 68.0022 79.6198 67.9999 79.6106C68.0068 79.5934 68.0136 79.5774 68.0217 79.5602C68.0274 79.5465 68.0331 79.5339 68.0388 79.5201Z" fill="#E6F2E6"/>
<path d="M68.02 79.6864C68.0188 79.6949 68.0154 79.7031 68.0102 79.71C68.005 79.7169 67.998 79.7223 67.9901 79.7257C67.9822 79.7292 67.9735 79.7305 67.9649 79.7297C67.9563 79.7288 67.948 79.7257 67.941 79.7207C67.7825 79.6058 67.6086 79.5137 67.4245 79.447C67.4234 79.4459 67.4234 79.447 67.4234 79.447C67.191 79.3635 66.952 79.2999 66.7089 79.257C66.7066 79.257 66.7054 79.2558 66.7031 79.2558C66.6047 79.2364 66.5062 79.2192 66.4077 79.2009C65.9291 79.1127 65.4424 79.0062 65.0279 78.7337C64.8592 78.6292 64.7145 78.4902 64.6034 78.3258C64.4923 78.1614 64.4173 77.9753 64.3832 77.7798C64.3225 77.3962 64.3992 77.0103 64.4313 76.6279C64.4336 76.6004 64.4359 76.5718 64.437 76.5443C64.4393 76.5088 64.4405 76.4744 64.4405 76.4401C64.4522 76.0929 64.3824 75.7477 64.2366 75.4324C64.0494 75.0549 63.8036 74.7094 63.5084 74.4087C63.3561 74.245 63.1973 74.0873 63.032 73.9358H63.0309C63.024 73.9289 63.0183 73.9232 63.0114 73.9175C63.0114 73.9163 63.0103 73.9152 63.0091 73.914C62.3025 73.2721 61.5011 72.7429 60.6331 72.3453C60.6022 72.3315 60.5701 72.3167 60.5381 72.3029C60.4545 72.2651 60.3709 72.2296 60.2861 72.1941C60.3262 72.1747 60.3674 72.1541 60.4109 72.1357C61.379 72.5452 62.2725 73.1125 63.0549 73.8144C63.0813 73.8373 63.1076 73.8614 63.1328 73.8854C63.3309 74.0686 63.5194 74.2606 63.6985 74.4614C63.9847 74.7697 64.2166 75.1244 64.3844 75.5103C64.5073 75.8226 64.5616 76.1576 64.5435 76.4928C64.5412 76.5569 64.5367 76.621 64.5309 76.6863C64.4954 77.0722 64.4164 77.4707 64.5046 77.8565C64.6054 78.2963 64.9466 78.6031 65.3428 78.7909C65.605 78.9079 65.8803 78.9932 66.1627 79.0451C66.7467 79.1677 67.3501 79.2272 67.8608 79.541H67.862C67.87 79.5467 67.878 79.5513 67.8848 79.5558C67.886 79.5558 67.886 79.5558 67.886 79.557C67.9229 79.5789 67.9584 79.603 67.9925 79.6291C67.9948 79.6303 67.9971 79.6326 67.9994 79.6337C68.0027 79.6361 68.0057 79.6388 68.0085 79.6417C68.0138 79.6477 68.0176 79.6549 68.0196 79.6627C68.0216 79.6704 68.0217 79.6786 68.02 79.6864Z" fill="white"/>
<path d="M63.103 73.9248C63.3111 73.6667 63.4207 73.3431 63.4122 73.0117C63.4037 72.6803 63.2777 72.3627 63.0567 72.1156C63.0118 72.0658 62.9322 72.1332 62.9772 72.1831C63.1834 72.4128 63.3008 72.7087 63.3081 73.0173C63.3153 73.3259 63.2121 73.6269 63.0169 73.8661C62.9745 73.9181 63.0609 73.9765 63.103 73.9248Z" fill="white"/>
<path d="M64.4738 76.4364C63.8007 76.5146 63.1228 76.3363 62.5753 75.9369C62.5211 75.8973 62.4625 75.9835 62.5166 76.0231C63.0871 76.4376 63.793 76.6218 64.4933 76.5388C64.56 76.5308 64.5402 76.4285 64.4738 76.4364Z" fill="white"/>
<path d="M60.6394 72.3327C60.6371 72.3373 60.6348 72.3407 60.6325 72.3453C60.5694 72.4612 60.4813 72.5617 60.3745 72.6393C60.2678 72.717 60.145 72.7699 60.0153 72.7942C59.9844 72.7644 59.9512 72.7346 59.918 72.706C59.9232 72.7027 59.929 72.7008 59.9351 72.7003C60.0599 72.6865 60.1795 72.6434 60.2842 72.5743C60.389 72.5052 60.4758 72.4122 60.5375 72.3029C60.5432 72.2938 60.5489 72.2835 60.5535 72.2743C60.5573 72.2686 60.5622 72.2638 60.5679 72.26C60.5736 72.2562 60.58 72.2537 60.5867 72.2524C60.5934 72.2511 60.6003 72.2512 60.607 72.2526C60.6137 72.254 60.62 72.2567 60.6256 72.2606C60.6366 72.2686 60.6442 72.2805 60.6467 72.2939C60.6493 72.3073 60.6466 72.3212 60.6394 72.3327Z" fill="white"/>
<path d="M68.0389 79.5201C68.0393 79.5277 68.038 79.5352 68.035 79.5422C68.032 79.5491 68.0275 79.5553 68.0217 79.5602C68.0126 79.567 68.002 79.5713 67.9908 79.5728C67.9794 79.5752 67.9675 79.573 67.9577 79.5668C67.9479 79.5606 67.9409 79.5509 67.9381 79.5396C67.7801 79.0083 67.393 78.6006 67.0266 78.201C66.6968 77.8426 66.3728 77.4647 66.2067 76.9987C66.1348 76.8135 66.1029 76.6152 66.1132 76.4169C66.1235 76.2185 66.1756 76.0246 66.2663 75.8479C66.3233 75.7422 66.3896 75.6418 66.4644 75.5479C66.6281 75.3395 66.8228 75.154 66.998 74.957C67.0163 74.9364 67.0346 74.9146 67.0518 74.894C67.0759 74.8677 67.0976 74.8402 67.1182 74.8127C67.3366 74.5426 67.4884 74.2248 67.5614 73.8852C67.6396 73.471 67.6516 73.047 67.5969 72.6291C67.574 72.4069 67.5423 72.1863 67.5018 71.9672C67.4995 71.9569 67.4984 71.9477 67.4961 71.9386C67.3194 70.9989 66.998 70.0923 66.5434 69.2511C66.5262 69.2202 66.5102 69.1892 66.493 69.1595C66.4197 69.0266 66.3441 68.8961 66.264 68.7679C66.2915 68.7484 66.3212 68.7301 66.351 68.7129C66.6136 69.1381 66.8422 69.5834 67.0346 70.0446C67.2834 70.6364 67.4703 71.2522 67.5923 71.8825C67.6003 71.9168 67.606 71.9523 67.6118 71.9867C67.6598 72.2512 67.6953 72.5191 67.7171 72.7859C67.7601 73.2045 67.7315 73.6274 67.6324 74.0363C67.5425 74.3608 67.3835 74.662 67.1663 74.9192C67.1274 74.9684 67.0862 75.0165 67.0427 75.0635C66.8686 75.2536 66.6762 75.4379 66.5194 75.6452C66.4392 75.7493 66.3712 75.8623 66.3167 75.9818C66.1323 76.3941 66.2193 76.8452 66.4232 77.2323C66.7919 77.9365 67.495 78.4163 67.8694 79.1067C67.9386 79.2339 67.9946 79.3678 68.0366 79.5064C68.0379 79.5109 68.0387 79.5155 68.0389 79.5201Z" fill="white"/>
<path d="M67.5647 71.9991C67.8862 71.9184 68.1685 71.7259 68.3613 71.4562C68.554 71.1865 68.6446 70.8571 68.6169 70.5267C68.611 70.4599 68.5069 70.4658 68.5128 70.5328C68.5392 70.8403 68.4547 71.1472 68.2748 71.398C68.0948 71.6488 67.831 71.827 67.5312 71.9004C67.4661 71.9164 67.4999 72.0151 67.5647 71.9991Z" fill="white"/>
<path d="M67.1475 74.8298C66.5629 74.487 66.129 73.9365 65.9323 73.288C65.9129 73.2237 65.8142 73.2573 65.8336 73.3215C66.0395 73.9959 66.4922 74.5679 67.1013 74.9233C67.1594 74.9571 67.2052 74.8634 67.1475 74.8298Z" fill="white"/>
<path d="M66.5563 69.2454C66.5517 69.2477 66.5482 69.2488 66.5437 69.2511C66.3374 69.3452 66.1029 69.3563 65.8887 69.282C65.8981 69.2484 65.91 69.2155 65.9242 69.1835C66.1102 69.2473 66.3133 69.2387 66.4933 69.1595C66.5036 69.1561 66.5127 69.1515 66.523 69.1469C66.5361 69.1424 66.5504 69.1432 66.5629 69.1493C66.5753 69.1553 66.5848 69.1659 66.5895 69.1789C66.5932 69.1922 66.5919 69.2063 66.5857 69.2186C66.5796 69.2309 66.5691 69.2404 66.5563 69.2454Z" fill="white"/>
<path d="M71.5387 80.0002H31.6914C31.6735 80.0003 31.6557 79.9968 31.6391 79.99C31.6225 79.9831 31.6075 79.9731 31.5948 79.9604C31.5821 79.9478 31.572 79.9327 31.5651 79.9162C31.5582 79.8996 31.5547 79.8818 31.5547 79.8639C31.5547 79.8459 31.5582 79.8282 31.5651 79.8116C31.572 79.795 31.5821 79.78 31.5948 79.7673C31.6075 79.7547 31.6225 79.7446 31.6391 79.7378C31.6557 79.731 31.6735 79.7275 31.6914 79.7275H71.5387C71.5566 79.7275 71.5744 79.731 71.591 79.7378C71.6076 79.7446 71.6227 79.7547 71.6354 79.7673C71.6481 79.78 71.6581 79.795 71.665 79.8116C71.6719 79.8282 71.6754 79.8459 71.6754 79.8639C71.6754 79.8818 71.6719 79.8996 71.665 79.9162C71.6581 79.9327 71.6481 79.9478 71.6354 79.9604C71.6227 79.9731 71.6076 79.9831 71.591 79.99C71.5744 79.9968 71.5566 80.0003 71.5387 80.0002Z" fill="#CCCCCC"/>
</g>
<defs>
<clipPath id="clip0_12_90928">
<rect width="71.3495" height="80" fill="white" transform="translate(0.325195)"/>
</clipPath>
</defs>
</svg>
