<svg width="124" height="80" viewBox="0 0 124 80" fill="none" xmlns="http://www.w3.org/2000/svg">
<g id="undraw_online_payments_re_y8f2 2" clip-path="url(#clip0_12_92286)">
<path id="Vector" d="M4.22164 61.3995C4.83307 55.1585 8.52859 48.9286 14.4086 46.7495C12.2358 53.2135 12.4195 60.2377 14.927 66.5793C15.903 69.0215 17.2427 71.6361 16.45 74.1438C15.9568 75.7041 14.6824 76.9213 13.2427 77.6992C11.8029 78.477 10.1929 78.8718 8.60288 79.259L8.29497 79.5275C5.60714 73.8619 3.61021 67.6405 4.22164 61.3995Z" fill="#E6F2E6"/>
<path id="Vector_2" d="M14.4707 46.8657C11.1507 50.7843 9.06115 55.7889 8.69581 60.9194C8.61682 62.0286 8.63323 63.1607 8.90352 64.245C9.1751 65.2998 9.72419 66.2626 10.4937 67.0335C11.1968 67.7667 12.0009 68.4352 12.5136 69.3265C13.0539 70.2659 13.1019 71.3481 12.7754 72.3695C12.3759 73.6192 11.5512 74.6509 10.7096 75.6317C9.77525 76.7207 8.78746 77.837 8.41526 79.2582C8.37016 79.4304 8.10562 79.3503 8.15065 79.1784C8.79821 76.7058 11.1441 75.2498 12.2225 73.0099C12.7257 71.9647 12.917 70.7616 12.3916 69.6858C11.9322 68.7451 11.1036 68.055 10.3853 67.3188C9.63109 66.5458 9.04596 65.6914 8.72885 64.6502C8.40447 63.5851 8.34377 62.4513 8.39405 61.3449C8.52678 58.8369 9.05302 56.3654 9.95349 54.0209C10.9664 51.3395 12.4305 48.851 14.2824 46.6633C14.3971 46.5279 14.5846 46.7312 14.4707 46.8657Z" fill="white"/>
<path id="Vector_3" d="M8.72634 59.2456C7.8672 59.0606 7.10179 58.5762 6.56682 57.879C6.03184 57.1817 5.76214 56.317 5.80586 55.4393C5.80797 55.4035 5.82389 55.3699 5.85026 55.3456C5.87663 55.3214 5.91139 55.3083 5.94723 55.3091C5.98306 55.31 6.01716 55.3247 6.04235 55.3502C6.06753 55.3757 6.08183 55.41 6.08223 55.4458C6.04 56.2631 6.29132 57.0686 6.79081 57.7168C7.29031 58.3651 8.00508 58.8135 8.80613 58.981C8.98016 59.0176 8.89938 59.282 8.72634 59.2456Z" fill="white"/>
<path id="Vector_4" d="M10.088 66.7088C11.606 65.7479 12.706 64.2501 13.1687 62.5142C13.2144 62.3422 13.479 62.4222 13.4333 62.594C12.9484 64.3996 11.8005 65.9558 10.2187 66.9523C10.0679 67.0472 9.93801 66.8031 10.088 66.7088Z" fill="white"/>
<path id="Vector_5" d="M11.2293 51.5948C11.5468 51.7357 11.8943 51.7955 12.2406 51.7688C12.587 51.7422 12.9212 51.6299 13.2135 51.4422C13.363 51.3454 13.4927 51.5896 13.3442 51.6857C13.0203 51.8917 12.651 52.0152 12.2684 52.0455C11.8859 52.0757 11.5017 52.0119 11.1495 51.8595C11.1151 51.8479 11.0864 51.8236 11.0692 51.7916C11.0521 51.7596 11.0477 51.7223 11.0571 51.6872C11.0678 51.6523 11.0919 51.6229 11.1242 51.6056C11.1564 51.5883 11.1942 51.5845 11.2293 51.5948Z" fill="white"/>
<path id="Vector_6" d="M32.7822 57.3893C32.6905 57.4523 32.5989 57.5154 32.5071 57.5808C31.2791 58.435 30.1225 59.3875 29.0487 60.429C28.9644 60.5082 28.8802 60.5898 28.7983 60.6712C26.2381 63.208 24.1711 66.198 22.7025 69.4894C22.1192 70.7996 21.6365 72.1523 21.2586 73.5358C20.7366 75.4464 20.3228 77.5596 19.2323 79.1398C19.1203 79.3059 18.9982 79.4649 18.8666 79.616L8.64631 79.8824C8.62278 79.8714 8.59919 79.8627 8.57555 79.8516L8.16797 79.8809C8.18248 79.8082 8.19909 79.7331 8.21361 79.6604C8.22185 79.6182 8.23237 79.5759 8.24061 79.5337C8.24682 79.5055 8.25316 79.4773 8.25715 79.4516C8.25919 79.4422 8.26133 79.4328 8.26343 79.4257C8.26743 79.4 8.27388 79.3765 8.27794 79.353C8.36964 78.933 8.46446 78.5128 8.56238 78.0926C8.56232 78.0902 8.56232 78.0902 8.56454 78.0878C9.31887 74.8878 10.347 71.7225 11.8228 68.814C11.8673 68.7265 11.9115 68.6367 11.9606 68.5491C12.6331 67.2417 13.4114 65.9915 14.2876 64.811C14.7695 64.1661 15.2836 63.546 15.8282 62.9531C17.2382 61.4238 18.88 60.1259 20.6933 59.1068C24.3085 57.0759 28.533 56.2237 32.4813 57.3038C32.5823 57.3315 32.6811 57.3592 32.7822 57.3893Z" fill="#E6F2E6"/>
<path id="Vector_7" d="M32.7629 57.52C27.7528 58.6499 23.0713 61.3877 19.6906 65.2642C18.9598 66.1023 18.2913 67.0161 17.8543 68.0445C17.4361 69.0503 17.2948 70.1496 17.4451 71.2284C17.5651 72.2371 17.8046 73.255 17.6773 74.2753C17.5431 75.3507 16.9299 76.2437 16.0542 76.8627C14.9829 77.62 13.7033 77.9471 12.4408 78.2236C11.0391 78.5305 9.57826 78.8271 8.42545 79.7378C8.28577 79.8481 8.12274 79.6249 8.26221 79.5147C10.2679 77.9304 13.0176 78.1802 15.2272 77.0411C16.2583 76.5095 17.1354 75.664 17.3636 74.4888C17.5632 73.4611 17.317 72.4113 17.1867 71.391C17.0499 70.3197 17.0972 69.2852 17.4709 68.2629C17.8531 67.2172 18.4873 66.2753 19.1935 65.4222C20.8095 63.4997 22.7177 61.8432 24.8482 60.5133C27.2714 58.9822 29.9386 57.8768 32.7345 57.245C32.9075 57.206 32.9348 57.4812 32.7629 57.52Z" fill="white"/>
<path id="Vector_8" d="M20.7229 63.9459C20.1483 63.2809 19.8288 62.4334 19.8214 61.5546C19.8141 60.6758 20.1193 59.8229 20.6827 59.1484C20.7972 59.0123 21.014 59.1838 20.8994 59.3201C20.3736 59.9472 20.0894 60.7417 20.0979 61.56C20.1064 62.3783 20.4072 63.1666 20.9459 63.7827C21.0628 63.9167 20.8391 64.0792 20.7229 63.9459Z" fill="white"/>
<path id="Vector_9" d="M17.317 70.7246C19.1075 70.8713 20.8875 70.3377 22.3021 69.2303C22.4422 69.1205 22.6053 69.3436 22.4654 69.4533C20.9912 70.603 19.1376 71.1545 17.2747 70.9977C17.0972 70.9827 17.1404 70.7096 17.317 70.7246Z" fill="white"/>
<path id="Vector_10" d="M27.328 59.3439C27.4967 59.6475 27.7382 59.9045 28.0308 60.0917C28.3233 60.279 28.6578 60.3906 29.0042 60.4166C29.1819 60.4294 29.1384 60.7025 28.9619 60.6897C28.5794 60.6592 28.2101 60.5355 27.8864 60.3293C27.5627 60.1232 27.2944 59.8409 27.105 59.5071C27.0845 59.4772 27.0762 59.4405 27.0818 59.4047C27.0873 59.3688 27.1063 59.3364 27.1349 59.314C27.1645 59.2925 27.2015 59.2836 27.2376 59.2892C27.2738 59.2948 27.3063 59.3145 27.328 59.3439Z" fill="white"/>
<path id="Vector_11" d="M92.7665 5.4756C92.614 5.02502 90.7004 3.49338 91.873 3.23594L92.8345 4.51813L97.2556 0.097168L97.7003 0.541815L92.7665 5.4756Z" fill="white"/>
<path id="Vector_12" d="M92.7665 20.5088C92.614 20.0582 90.7004 18.5266 91.873 18.2691L92.8345 19.5513L97.2556 15.1304L97.7003 15.575L92.7665 20.5088Z" fill="white"/>
<path id="Vector_13" d="M92.7665 35.7568C92.614 35.3063 90.7004 33.7746 91.873 33.5172L92.8345 34.7994L97.2556 30.3784L97.7003 30.8231L92.7665 35.7568Z" fill="white"/>
<path id="Vector_14" d="M88.6958 23.4292C89.4492 23.4292 90.06 22.8184 90.06 22.0649C90.06 21.3115 89.4492 20.7007 88.6958 20.7007C87.9423 20.7007 87.3315 21.3115 87.3315 22.0649C87.3315 22.8184 87.9423 23.4292 88.6958 23.4292Z" fill="#3F3D56"/>
<path id="Vector_15" d="M88.6958 8.55905C89.4492 8.55905 90.06 7.94826 90.06 7.19481C90.06 6.44136 89.4492 5.83057 88.6958 5.83057C87.9423 5.83057 87.3315 6.44136 87.3315 7.19481C87.3315 7.94826 87.9423 8.55905 88.6958 8.55905Z" fill="#3F3D56"/>
<path id="Vector_16" d="M123.688 4.05713H101.724V4.32998H123.688V4.05713Z" fill="#3F3D56"/>
<path id="Vector_17" d="M89.3779 39.2807C90.1314 39.2807 90.7422 38.6699 90.7422 37.9165C90.7422 37.163 90.1314 36.5522 89.3779 36.5522C88.6245 36.5522 88.0137 37.163 88.0137 37.9165C88.0137 38.6699 88.6245 39.2807 89.3779 39.2807Z" fill="#3F3D56"/>
<path id="Vector_18" d="M123.688 19.0903H101.724V19.3632H123.688V19.0903Z" fill="#3F3D56"/>
<path id="Vector_19" d="M123.688 34.3379H101.724V34.6107H123.688V34.3379Z" fill="#3F3D56"/>
<path id="Vector_20" d="M96.2123 37.7897H89.3911V30.832H94.0295V31.1049H89.664V37.5168H95.9395V34.3791H96.2123V37.7897Z" fill="#3F3D56"/>
<path id="Vector_21" d="M96.2123 22.5099H89.3911V15.5522H94.0295V15.8251H89.664V22.237H95.9395V19.0993H96.2123V22.5099Z" fill="#3F3D56"/>
<path id="Vector_22" d="M96.2123 6.95764H89.3911V0H94.0295V0.272849H89.664V6.68479H95.9395V3.54703H96.2123V6.95764Z" fill="#3F3D56"/>
<path id="Vector_23" d="M51.676 24.7981C51.676 24.7981 49.8529 32.4953 52.0811 32.4953C54.3092 32.4953 59.5758 23.7853 59.5758 23.7853L57.7527 21.5571L54.4806 26.1L54.3092 23.7853L51.676 24.7981Z" fill="#A0616A"/>
<path id="Vector_24" d="M59.0899 24.1198C60.0694 24.1198 60.8634 23.3258 60.8634 22.3463C60.8634 21.3668 60.0694 20.5728 59.0899 20.5728C58.1104 20.5728 57.3164 21.3668 57.3164 22.3463C57.3164 23.3258 58.1104 24.1198 59.0899 24.1198Z" fill="#A0616A"/>
<path id="Vector_25" d="M50.1304 77.2226L52.491 77.2225L53.6142 68.1167L50.1299 68.1168L50.1304 77.2226Z" fill="#A0616A"/>
<path id="Vector_26" d="M50.047 79.6854L57.3065 79.6851V79.5933C57.3065 78.8439 57.0087 78.1252 56.4789 77.5954C55.949 77.0655 55.2303 76.7678 54.4809 76.7677H54.4807L53.1547 75.7617L50.6806 76.7679L50.0469 76.7679L50.047 79.6854Z" fill="#2F2E41"/>
<path id="Vector_27" d="M24.7368 74.2776L26.8491 75.3316L31.9202 67.6857L28.8027 66.1299L24.7368 74.2776Z" fill="#A0616A"/>
<path id="Vector_28" d="M23.5625 76.444L30.0581 79.6856L30.0991 79.6034C30.4337 78.9329 30.4883 78.1569 30.2508 77.4462C30.0133 76.7354 29.5032 76.1481 28.8327 75.8134L28.8325 75.8134L28.0953 74.3211L25.4323 74.1165L24.8652 73.8335L23.5625 76.444Z" fill="#2F2E41"/>
<path id="Vector_29" d="M78.0529 79.6943H0.311523V80H78.0529V79.6943Z" fill="#CCCCCC"/>
<path id="Vector_30" d="M34.8676 38.762C34.8676 38.762 33.9242 50.1055 33.7216 52.5362C33.5827 54.0599 33.2422 55.5584 32.7088 56.9925C32.7088 56.9925 32.3037 57.8027 32.3037 58.613L27.7124 66.9572C27.7124 66.9572 26.3094 67.9885 26.5119 68.7987C26.7145 69.609 25.666 70.095 25.666 70.095L30.5011 71.0269C30.5011 71.0269 30.2986 70.4192 30.9062 70.2166C31.5139 70.0141 31.9976 68.2572 31.9976 68.2572L38.7856 57.1951L43.647 47.0671C43.647 47.0671 46.4828 56.1823 47.0905 57.1951C47.0905 57.1951 49.3186 68.5383 49.7237 69.5512C50.1289 70.564 50.3314 70.5639 50.1289 70.9691C49.9263 71.3742 49.9263 71.7793 50.1289 71.9819C50.3314 72.1844 54.18 71.9819 54.18 71.9819L53.1672 57.6002L51.3442 40.3827L42.0265 37.5469L34.8676 38.762Z" fill="#2F2E41"/>
<path id="Vector_31" d="M43.9901 11.6823C46.3393 11.6823 48.2438 9.77781 48.2438 7.42854C48.2438 5.07926 46.3393 3.1748 43.9901 3.1748C41.6408 3.1748 39.7363 5.07926 39.7363 7.42854C39.7363 9.77781 41.6408 11.6823 43.9901 11.6823Z" fill="#A0616A"/>
<path id="Vector_32" d="M51.7492 17.8987L46.6854 14.8307C46.6854 14.8307 46.545 12.9255 45.1022 12.8359C44.3779 12.7909 43.2909 12.7221 41.6596 12.6169C41.3149 12.5947 41.0822 14.4808 40.6871 14.4552L35.3419 15.8731L36.1522 29.6471C36.1522 29.6471 34.9368 35.1161 35.3419 36.1289C35.747 37.1417 34.3291 37.5468 34.7343 37.7494C35.1394 37.952 34.7343 39.3699 34.7343 39.3699C34.7343 39.3699 42.634 43.421 51.344 40.3827L50.5338 37.7494C50.6441 37.4052 50.6648 37.0385 50.5939 36.6841C50.523 36.3296 50.3629 35.9991 50.1287 35.7238C50.1287 35.7238 50.9389 34.5085 49.9261 33.4957C49.9261 33.4957 50.3313 31.6726 49.3185 30.8624L49.1159 28.0266L49.7236 26.6087L51.7492 17.8987Z" fill="white"/>
<path id="Vector_33" d="M40.2989 9.85837L40.18 9.58219C40.1647 9.54648 38.6604 5.99026 39.9938 3.79668C40.611 2.78115 41.7334 2.20781 43.3296 2.0927C45.8271 1.91211 47.5365 2.50457 48.4115 3.85236C48.5582 4.08079 48.6407 4.34453 48.6502 4.61584C48.6598 4.88716 48.596 5.15604 48.4657 5.39421C48.3354 5.63237 48.1433 5.83103 47.9097 5.96929C47.6761 6.10755 47.4095 6.1803 47.138 6.1799H47.1044L46.6455 5.58405L46.6188 5.642C46.4527 6.00144 46.0711 6.19822 45.6242 6.15512C45.5482 6.14966 45.4808 6.21527 45.4268 6.3557C45.4086 6.41712 45.3742 6.47252 45.3272 6.51606C45.2802 6.55961 45.2223 6.58969 45.1597 6.60317C44.8295 6.66745 44.3588 6.25152 44.1481 6.04422C44.14 6.09193 44.1217 6.13734 44.0945 6.17738C44.0673 6.21741 44.0319 6.25115 43.9905 6.2763C43.7685 6.4044 43.423 6.23706 43.3238 6.18377C42.5337 6.35164 42.0222 6.30674 41.8031 6.05048C41.6546 7.10144 41.3358 8.99313 40.9535 9.09798C40.9135 9.10717 40.8717 9.10326 40.8341 9.08684C40.7965 9.07042 40.7652 9.04235 40.7448 9.00678C40.6528 8.88728 40.5705 8.82773 40.5192 8.84445C40.3948 8.88401 40.3214 9.29356 40.3109 9.55788L40.2989 9.85837Z" fill="#2F2E41"/>
<path id="Vector_34" d="M49.5213 18.1012L51.5419 17.7729C52.9975 19.1715 53.989 20.9829 54.3827 22.9626C54.9904 26.2036 55.1929 26.8113 55.1929 26.8113L50.3315 28.0266L47.6982 22.9626L49.5213 18.1012Z" fill="white"/>
<path id="Vector_35" d="M40.5549 22.3166L39.3062 38.1465L71.1728 40.6602L72.4215 24.8304L40.5549 22.3166Z" fill="white"/>
<path id="Vector_36" d="M43.9597 23.5431C43.1799 22.9862 42.1898 22.9459 41.8115 22.9539C41.9269 23.3141 42.2855 24.2379 43.0653 24.7951C43.8471 25.3534 44.836 25.3924 45.2136 25.3846C45.0983 25.0246 44.7397 24.1004 43.9597 23.5431Z" fill="#6AB166"/>
<path id="Vector_37" d="M47.0359 33.6157L41.919 33.2121C41.7678 33.2001 41.6158 33.2181 41.4715 33.265C41.3273 33.3118 41.1937 33.3866 41.0783 33.4851C40.963 33.5835 40.8682 33.7038 40.7993 33.8389C40.7304 33.974 40.6888 34.1214 40.6769 34.2726C40.665 34.4237 40.683 34.5758 40.7298 34.72C40.7766 34.8643 40.8514 34.9979 40.9499 35.1132C41.0484 35.2286 41.1686 35.3234 41.3037 35.3923C41.4388 35.4611 41.5862 35.5027 41.7374 35.5147L46.8543 35.9183C47.1596 35.9424 47.462 35.8442 47.695 35.6453C47.9279 35.4464 48.0723 35.1632 48.0964 34.8578C48.1205 34.5525 48.0223 34.2501 47.8234 34.0171C47.6245 33.7842 47.3412 33.6398 47.0359 33.6157Z" fill="#6AB166"/>
<path id="Vector_38" d="M71.1654 23.2917L42.4767 21.0284C42.143 21.0021 41.8074 21.0418 41.4891 21.1452C41.1707 21.2486 40.8759 21.4138 40.6214 21.6311C40.3668 21.8485 40.1576 22.1139 40.0057 22.4121C39.8537 22.7104 39.762 23.0356 39.7357 23.3693L38.6324 37.3461C38.5793 38.0202 38.7962 38.6877 39.2352 39.202C39.6743 39.7162 40.2996 40.0351 40.9736 40.0884L69.6623 42.3517C69.996 42.378 70.3316 42.3383 70.6499 42.2348C70.9683 42.1314 71.2631 41.9663 71.5176 41.7489C71.7722 41.5315 71.9814 41.2662 72.1334 40.9679C72.2853 40.6697 72.3771 40.3444 72.4033 40.0108L73.4518 26.7264L73.4729 26.455L73.5063 26.0327C73.5326 25.699 73.4929 25.3634 73.3894 25.045C73.286 24.7267 73.1209 24.4318 72.9035 24.1773C72.6862 23.9228 72.4208 23.7136 72.1225 23.5616C71.8243 23.4097 71.4991 23.3179 71.1654 23.2917ZM70.3182 35.4522L70.1364 37.7549C70.1032 38.1616 69.9103 38.5386 69.5999 38.8034C69.2895 39.0683 68.8869 39.1995 68.48 39.1683L64.6419 38.8659C64.2353 38.8327 63.8583 38.6398 63.5934 38.3294C63.3285 38.019 63.1973 37.6164 63.2285 37.2095L63.4103 34.9069C63.4436 34.5002 63.6366 34.1233 63.9469 33.8585C64.2573 33.5936 64.6599 33.4624 65.0667 33.4934L68.9034 33.7962C69.3101 33.8295 69.6871 34.0224 69.9521 34.3326C70.2172 34.6429 70.3488 35.0453 70.3182 35.4522ZM40.4231 34.2515C40.4528 33.8789 40.6292 33.5334 40.9135 33.2906C41.1977 33.0479 41.5666 32.9278 41.9393 32.9567L47.056 33.3606C47.2408 33.3749 47.421 33.4255 47.5863 33.5094C47.7516 33.5934 47.8987 33.7091 48.0193 33.8499C48.1398 33.9907 48.2315 34.154 48.2889 34.3302C48.3463 34.5065 48.3685 34.6923 48.3541 34.8771C48.3397 35.062 48.289 35.2421 48.2049 35.4074C48.1208 35.5726 48.005 35.7196 47.864 35.84C47.7231 35.9605 47.5598 36.052 47.3835 36.1093C47.2072 36.1666 47.0213 36.1886 46.8365 36.174L46.8339 36.1747L41.7172 35.7708C41.5324 35.7562 41.3523 35.7053 41.1872 35.621C41.0221 35.5367 40.8753 35.4207 40.7551 35.2796C40.6349 35.1384 40.5437 34.975 40.4867 34.7986C40.4297 34.6222 40.4081 34.4363 40.4231 34.2515ZM41.5185 22.8626L41.4835 22.7195L41.6307 22.706C41.6882 22.6998 43.0493 22.5776 44.1088 23.3344C45.1683 24.0912 45.4932 25.4191 45.5073 25.4746L45.541 25.6181L45.3941 25.6329C45.1857 25.6484 44.9763 25.647 44.7681 25.6288C44.1057 25.59 43.4659 25.3739 42.9156 25.0032C41.8561 24.2463 41.5312 22.9185 41.5185 22.8626Z" fill="#6AB166"/>
<path id="Vector_39" d="M66.0138 36.9792L64.3508 36.848C64.2322 36.8389 64.1148 36.8772 64.0244 36.9545C63.934 37.0318 63.8779 37.1419 63.8686 37.2605C63.8592 37.3791 63.8973 37.4966 63.9745 37.5871C64.0516 37.6777 64.1616 37.7339 64.2802 37.7435L65.9432 37.8746C66.0618 37.8838 66.1792 37.8455 66.2696 37.7682C66.36 37.6908 66.4161 37.5808 66.4254 37.4622C66.4348 37.3436 66.3967 37.2261 66.3195 37.1355C66.2423 37.045 66.1324 36.9888 66.0138 36.9792Z" fill="#6AB166"/>
<path id="Vector_40" d="M69.0838 37.2214L67.4208 37.0902C67.3023 37.0811 67.1849 37.1195 67.0946 37.1968C67.0042 37.2741 66.9482 37.3841 66.9389 37.5027C66.9295 37.6212 66.9676 37.7386 67.0447 37.8292C67.1218 37.9197 67.2317 37.976 67.3502 37.9856L69.0132 38.1168C69.1318 38.1259 69.2491 38.0875 69.3394 38.0102C69.4298 37.9329 69.4858 37.8229 69.4951 37.7043C69.5045 37.5858 69.4664 37.4683 69.3893 37.3778C69.3122 37.2873 69.2023 37.231 69.0838 37.2214Z" fill="#6AB166"/>
<path id="Vector_41" d="M66.1048 35.8283L64.4418 35.6971C64.3233 35.688 64.2059 35.7264 64.1156 35.8037C64.0252 35.881 63.9692 35.991 63.9599 36.1096C63.9505 36.2282 63.9886 36.3456 64.0657 36.4361C64.1428 36.5267 64.2527 36.5829 64.3712 36.5926L66.0342 36.7237C66.1528 36.7329 66.2702 36.6946 66.3606 36.6173C66.451 36.5399 66.5071 36.4299 66.5164 36.3113C66.5258 36.1927 66.4877 36.0752 66.4105 35.9846C66.3334 35.8941 66.2234 35.8379 66.1048 35.8283Z" fill="#6AB166"/>
<path id="Vector_42" d="M69.1749 36.0705L67.512 35.9393C67.3933 35.9302 67.2759 35.9685 67.1855 36.0458C67.0951 36.1231 67.0391 36.2332 67.0297 36.3518C67.0204 36.4704 67.0584 36.5879 67.1356 36.6784C67.2128 36.769 67.3227 36.8252 67.4413 36.8348L69.1043 36.966C69.2229 36.9751 69.3403 36.9368 69.4308 36.8595C69.5212 36.7821 69.5772 36.6721 69.5866 36.5535C69.5959 36.4349 69.5578 36.3174 69.4807 36.2268C69.4035 36.1363 69.2935 36.0801 69.1749 36.0705Z" fill="#6AB166"/>
<path id="Vector_43" d="M66.1955 34.6769L64.5325 34.5458C64.4139 34.5366 64.2964 34.5749 64.206 34.6522C64.1156 34.7296 64.0596 34.8396 64.0502 34.9582C64.0409 35.0768 64.079 35.1943 64.1561 35.2849C64.2333 35.3754 64.3433 35.4317 64.4618 35.4412L66.1248 35.5724C66.2434 35.5815 66.3607 35.5431 66.4511 35.4658C66.5414 35.3885 66.5974 35.2785 66.6068 35.1599C66.6161 35.0413 66.5781 34.9239 66.501 34.8334C66.4239 34.7429 66.314 34.6866 66.1955 34.6769Z" fill="#6AB166"/>
<path id="Vector_44" d="M69.2655 34.9191L67.6025 34.7879C67.4839 34.7789 67.3666 34.8172 67.2762 34.8945C67.1859 34.9719 67.1299 35.0819 67.1205 35.2004C67.1112 35.319 67.1492 35.4364 67.2263 35.5269C67.3034 35.6175 67.4133 35.6737 67.5318 35.6834L69.1948 35.8146C69.3134 35.8236 69.4307 35.7853 69.5211 35.708C69.6114 35.6306 69.6674 35.5206 69.6768 35.4021C69.6861 35.2835 69.6481 35.1661 69.571 35.0756C69.4939 34.985 69.384 34.9288 69.2655 34.9191Z" fill="#6AB166"/>
<path id="Vector_45" d="M39.3095 27.7796L39.2881 28.0518L72.9648 30.6972L72.9862 30.4251L39.3095 27.7796Z" fill="white"/>
<path id="Vector_46" d="M73.473 26.455L73.4518 26.7264L72.2798 26.6345L59.7925 25.6536L59.815 25.3818L72.301 26.363L73.473 26.455Z" fill="#3F3D56"/>
<path id="Vector_47" d="M32.3039 23.57C32.3039 23.57 30.4809 31.2673 32.709 31.2673C34.9372 31.2673 40.2037 22.5572 40.2037 22.5572L38.3806 20.3291L35.1085 24.872L34.9371 22.5572L32.3039 23.57Z" fill="#A0616A"/>
<path id="Vector_48" d="M39.7179 22.8922C40.6973 22.8922 41.4914 22.0982 41.4914 21.1187C41.4914 20.1392 40.6973 19.3452 39.7179 19.3452C38.7384 19.3452 37.9443 20.1392 37.9443 21.1187C37.9443 22.0982 38.7384 22.8922 39.7179 22.8922Z" fill="#A0616A"/>
<path id="Vector_49" d="M36.8179 17.0884L35.6025 15.873C35.6025 15.873 33.1718 17.291 32.9693 18.7089C32.7667 20.1268 31.7539 24.5831 31.7539 24.5831L35.5012 24.8869L36.7166 23.0639L36.8179 17.0884Z" fill="white"/>
</g>
<defs>
<clipPath id="clip0_12_92286">
<rect width="123.377" height="80" fill="white" transform="translate(0.311523)"/>
</clipPath>
</defs>
</svg>
