<svg width="69" height="80" viewBox="0 0 69 80" fill="none" xmlns="http://www.w3.org/2000/svg">
<g id="undraw_authentication_re_svpt 1" clip-path="url(#clip0_12_83243)">
<path id="Vector" d="M66.5764 29.4859H2.36316C1.791 29.4852 1.24247 29.2576 0.837893 28.8531C0.433318 28.4485 0.205739 27.9 0.205078 27.3278V2.15808C0.205739 1.58592 0.433318 1.03739 0.837893 0.632815C1.24247 0.22824 1.791 0.000660655 2.36316 0H66.5764C67.1486 0.000660655 67.6971 0.22824 68.1017 0.632815C68.5063 1.03739 68.7338 1.58592 68.7345 2.15808V27.3278C68.7338 27.9 68.5063 28.4485 68.1017 28.8531C67.6971 29.2576 67.1486 29.4852 66.5764 29.4859Z" fill="#E6F2E6"/>
<path id="Vector_2" d="M51.6007 28.1094H12.5563C9.64672 28.1061 6.85729 26.9489 4.79993 24.8915C2.74258 22.8342 1.58531 20.0447 1.58203 17.1352V12.3517C1.58531 9.44219 2.74257 6.65276 4.79992 4.59539C6.85728 2.53802 9.64671 1.38074 12.5563 1.37744H56.3842C59.2937 1.38074 62.0831 2.53802 64.1405 4.59539C66.1978 6.65276 67.3551 9.44219 67.3584 12.3517C67.3536 16.5295 65.6919 20.5348 62.7378 23.4889C59.7837 26.443 55.7784 28.1047 51.6007 28.1094Z" fill="white"/>
<path id="Vector_3" d="M41.5295 8.58286H15.7206C15.573 8.58286 15.4315 8.52423 15.3271 8.41985C15.2227 8.31547 15.1641 8.17391 15.1641 8.0263C15.1641 7.87868 15.2227 7.73712 15.3271 7.63274C15.4315 7.52837 15.573 7.46973 15.7206 7.46973H41.5295C41.6771 7.46973 41.8187 7.52837 41.923 7.63274C42.0274 7.73712 42.086 7.87868 42.086 8.0263C42.086 8.17391 42.0274 8.31547 41.923 8.41985C41.8187 8.52423 41.6771 8.58286 41.5295 8.58286Z" fill="#E6F2E6"/>
<path id="Vector_4" d="M54.5944 14.5209H15.7206C15.573 14.5209 15.4315 14.4622 15.3271 14.3578C15.2227 14.2535 15.1641 14.1119 15.1641 13.9643C15.1641 13.8167 15.2227 13.6751 15.3271 13.5707C15.4315 13.4664 15.573 13.4077 15.7206 13.4077H54.5944C54.742 13.4077 54.8835 13.4664 54.9879 13.5707C55.0923 13.6751 55.1509 13.8167 55.1509 13.9643C55.1509 14.1119 55.0923 14.2535 54.9879 14.3578C54.8835 14.4622 54.742 14.5209 54.5944 14.5209Z" fill="#E6F2E6"/>
<path id="Vector_5" d="M54.5944 20.4593H15.7206C15.573 20.4593 15.4315 20.4007 15.3271 20.2963C15.2227 20.1919 15.1641 20.0504 15.1641 19.9028C15.1641 19.7551 15.2227 19.6136 15.3271 19.5092C15.4315 19.4048 15.573 19.3462 15.7206 19.3462H54.5944C54.742 19.3462 54.8835 19.4048 54.9879 19.5092C55.0923 19.6136 55.1509 19.7551 55.1509 19.9028C55.1509 20.0504 55.0923 20.1919 54.9879 20.2963C54.8835 20.4007 54.742 20.4593 54.5944 20.4593Z" fill="#E6E6E6"/>
<path id="Vector_6" d="M54.5944 20.4593H15.7206C15.573 20.4593 15.4315 20.4007 15.3271 20.2963C15.2227 20.1919 15.1641 20.0504 15.1641 19.9028C15.1641 19.7551 15.2227 19.6136 15.3271 19.5092C15.4315 19.4048 15.573 19.3462 15.7206 19.3462H54.5944C54.742 19.3462 54.8835 19.4048 54.9879 19.5092C55.0923 19.6136 55.1509 19.7551 55.1509 19.9028C55.1509 20.0504 55.0923 20.1919 54.9879 20.2963C54.8835 20.4007 54.742 20.4593 54.5944 20.4593Z" fill="#E6F2E6"/>
<path id="Vector_7" d="M38.8058 15.2023C38.8119 15.3699 38.8548 15.5342 38.9313 15.6835C39.0079 15.8328 39.1162 15.9635 39.2487 16.0664C39.3812 16.1692 39.5347 16.2418 39.6983 16.279C39.8619 16.3162 40.0316 16.317 40.1956 16.2815L42.3181 19.7635L43.2215 17.8466L41.0674 14.8339C40.9894 14.5624 40.8146 14.3289 40.576 14.1777C40.3374 14.0266 40.0517 13.9681 39.7729 14.0135C39.4942 14.059 39.2417 14.2051 39.0635 14.4242C38.8852 14.6432 38.7935 14.9201 38.8058 15.2023Z" fill="#9E616A"/>
<path id="Vector_8" d="M54.734 25.182L47.4193 21.2143L45.1121 19.0497C45.1121 19.0497 44.1091 18.7812 44.4783 18.455C44.8474 18.1289 43.7954 17.8144 43.7954 17.8144L42.5568 16.6523L40.7969 17.8976L41.3062 18.6872C41.3062 18.6872 41.2712 19.9943 41.9872 19.7428C42.7033 19.4914 42.5243 20.5754 42.5243 20.5754L46.7983 27.2006L54.734 25.182Z" fill="#D6BC6A"/>
<path id="Vector_9" d="M33.1408 21.4437C37.0867 21.4437 40.2855 18.2449 40.2855 14.299C40.2855 10.3531 37.0867 7.1543 33.1408 7.1543C29.1949 7.1543 25.9961 10.3531 25.9961 14.299C25.9961 18.2449 29.1949 21.4437 33.1408 21.4437Z" fill="#6AB166"/>
<path id="Vector_10" d="M54.756 77.2222H53.2704L52.5635 71.4922H54.756V77.2222Z" fill="#9E616A"/>
<path id="Vector_11" d="M55.5403 79.7961H54.4749L54.2847 78.7902L53.7977 79.7961H50.9721C50.8367 79.7961 50.7048 79.7528 50.5957 79.6725C50.4866 79.5923 50.406 79.4792 50.3657 79.3499C50.3254 79.2206 50.3275 79.0818 50.3716 78.9538C50.4158 78.8257 50.4997 78.7152 50.6112 78.6382L52.8676 77.0798V76.063L55.241 76.2046L55.5403 79.7961Z" fill="#2F2E41"/>
<path id="Vector_12" d="M42.8742 77.2222H41.3886L40.6816 71.4922H42.8742V77.2222Z" fill="#9E616A"/>
<path id="Vector_13" d="M43.6584 79.7961H42.5931L42.4029 78.7902L41.9159 79.7961H39.0903C38.9548 79.7961 38.8229 79.7528 38.7138 79.6725C38.6047 79.5923 38.5242 79.4792 38.4839 79.3499C38.4435 79.2206 38.4456 79.0818 38.4898 78.9538C38.534 78.8257 38.6179 78.7152 38.7294 78.6382L40.9858 77.0798V76.063L43.3592 76.2046L43.6584 79.7961Z" fill="#2F2E41"/>
<path id="Vector_14" d="M53.1797 33.8862H45.6816V42.4225H53.1797V33.8862Z" fill="#9E616A"/>
<path id="Vector_15" d="M45.8544 38.0967L44.5855 39.5963L42.3937 44.2105L36.8711 57.3505L35.7031 60.1295L36.6463 65.042C36.6463 65.042 36.799 68.503 36.799 69.0695C36.799 70.223 37.7638 70.8622 37.7638 70.8622L38.4716 74.5489L45.3353 74.2605C45.3353 74.2605 45.0958 70.1968 43.6582 69.1717C42.2207 68.1467 41.5599 62.8044 41.5599 62.8044L40.7787 60.4342L48.3922 51.4093L48.4413 54.564L48.4651 56.0909C48.4651 56.0909 47.3502 66.0222 48.6498 67.9496C49.9495 69.877 48.6763 69.6502 48.6763 69.6502L48.7382 73.626L56.8708 73.6837L55.0766 62.2373C55.0766 62.2373 54.1656 61.5179 54.653 60.7949C55.1404 60.0718 54.1806 59.1862 54.1806 59.1862L54.6111 50.2503C54.6111 50.2503 54.1344 48.7068 54.6951 48.5062C55.2558 48.3056 54.7687 46.9783 54.7687 46.9783L54.852 45.2487L53.1794 39.8847L45.8544 38.0967Z" fill="#2F2E41"/>
<path id="Vector_16" d="M53.2955 33.8867L54.103 31.4642L54.6797 30.6567L54.9104 28.3496C54.9104 22.1205 53.521 23.1578 53.521 23.1578L52.7187 20.9669L49.0273 20.8516L46.6626 23.101L44.7015 23.7931L43.9336 27.7833L45.336 32.041L45.682 34.3481C45.0219 35.5668 45.0777 34.9904 45.6244 35.9054L52.1419 37.6934C54.449 38.5009 54.449 36.4245 53.9864 35.9054C53.5238 35.3863 53.2955 33.8867 53.2955 33.8867Z" fill="#D6BC6A"/>
<path id="Vector_17" d="M50.3966 20.0769C52.2866 20.0769 53.8187 18.5449 53.8187 16.6549C53.8187 14.765 52.2866 13.2329 50.3966 13.2329C48.5067 13.2329 46.9746 14.765 46.9746 16.6549C46.9746 18.5449 48.5067 20.0769 50.3966 20.0769Z" fill="#9E616A"/>
<path id="Vector_18" d="M54.9648 21.223C54.9971 21.2774 55.0166 21.3383 55.022 21.4013C55.0274 21.4643 55.0186 21.5278 54.996 21.5869C54.9735 21.6459 54.938 21.6992 54.892 21.7427C54.8461 21.7861 54.7909 21.8186 54.7307 21.8378C54.2716 21.9901 53.9889 22.4342 53.659 22.7895C53.3303 23.1436 52.8008 23.4378 52.3809 23.1967C51.9622 22.9567 51.9333 22.3442 51.5827 22.012C51.2412 21.689 50.6736 21.7282 50.2722 21.9739L50.2602 21.9813C50.1909 22.0265 50.1099 22.0504 50.0272 22.05C49.9445 22.0496 49.8637 22.025 49.7948 21.9792C49.7259 21.9334 49.672 21.8684 49.6396 21.7923C49.6073 21.7161 49.598 21.6322 49.6128 21.5508C49.7535 20.8028 49.8941 20.0548 50.0346 19.3069C49.6654 20.1963 49.1293 21.0069 48.4554 21.6948C48.2697 21.909 48.0345 22.0745 47.7702 22.1769C47.5302 22.2531 47.2972 22.0051 47.0642 22.05C47.6433 21.5436 49.5905 18.2975 49.2421 16.1277C48.8326 16.1739 48.4231 16.22 48.0136 16.2661C47.9692 16.0723 47.8745 15.8937 47.739 15.7482C47.7556 15.9368 47.7316 16.1268 47.6686 16.3054C47.4979 16.325 47.326 16.3434 47.1553 16.363C46.9177 16.3896 46.6593 16.4126 46.4551 16.2881C46.1148 16.0804 46.1044 15.589 46.2013 15.2014C46.4851 14.0744 47.3456 13.132 48.3988 12.6382C49.452 12.1457 49.7635 13.2427 50.8732 12.892C53.0649 12.1999 54.7445 13.3834 55.3363 15.5798C55.8335 17.422 55.4724 19.3773 54.9648 21.223Z" fill="#2F2E41"/>
<path id="Vector_19" d="M64.4382 79.8706H60.248L60.23 79.8379C60.1764 79.7408 60.1247 79.6378 60.0764 79.532C59.6447 78.608 59.4623 77.5511 59.3013 76.6187L59.1801 75.9159C59.1655 75.8308 59.1765 75.7432 59.2119 75.6644C59.2473 75.5856 59.3054 75.5192 59.3787 75.4736C59.4521 75.428 59.5374 75.4053 59.6237 75.4085C59.71 75.4117 59.7934 75.4405 59.8632 75.4914C60.5 75.9547 61.1371 76.4177 61.7744 76.8801C62.0157 77.0557 62.2913 77.2589 62.5552 77.4785C62.5807 77.3548 62.6073 77.2308 62.6339 77.1085C62.6523 77.024 62.6954 76.947 62.7579 76.8872C62.8203 76.8274 62.8991 76.7876 62.9843 76.7729C63.0694 76.7581 63.157 76.7692 63.2359 76.8045C63.3148 76.8399 63.3813 76.898 63.4269 76.9714L63.9172 77.759C64.2748 78.3342 64.5904 78.9011 64.5261 79.5124C64.5264 79.5198 64.5258 79.5273 64.5244 79.5346C64.5115 79.635 64.4877 79.7337 64.4533 79.8289L64.4382 79.8706Z" fill="#E6F2E6"/>
<path id="Vector_20" d="M68.6432 79.9613L28.8254 80.0001C28.7856 79.9999 28.7476 79.984 28.7195 79.9558C28.6915 79.9277 28.6758 79.8895 28.6758 79.8498C28.6758 79.81 28.6915 79.7719 28.7195 79.7437C28.7476 79.7156 28.7856 79.6996 28.8254 79.6994L68.6432 79.6606C68.6829 79.6608 68.721 79.6768 68.749 79.7049C68.777 79.7331 68.7928 79.7712 68.7928 79.811C68.7928 79.8507 68.777 79.8889 68.749 79.917C68.721 79.9452 68.6829 79.9611 68.6432 79.9613Z" fill="#CACACA"/>
<path id="Vector_21" d="M32.4915 23.9154L28.1117 20.2167C27.962 20.09 27.8687 19.9091 27.8522 19.7136C27.8358 19.5182 27.8975 19.3242 28.0239 19.1742L28.83 18.2197C28.9567 18.0699 29.1376 17.9766 29.333 17.9601C29.5285 17.9437 29.7225 18.0054 29.8725 18.1318L34.2522 21.8305C34.402 21.9572 34.4953 22.1381 34.5118 22.3335C34.5282 22.529 34.4665 22.723 34.3401 22.873L33.534 23.8275C33.4073 23.9772 33.2264 24.0706 33.031 24.087C32.8355 24.1035 32.6415 24.0418 32.4915 23.9154Z" fill="#3F3D56"/>
<path id="Vector_22" d="M28.3419 19.2511C28.2738 19.3319 28.2406 19.4364 28.2495 19.5418C28.2583 19.6471 28.3086 19.7446 28.3893 19.8129L32.7691 23.5116C32.8499 23.5797 32.9545 23.6129 33.0598 23.604C33.1651 23.5952 33.2626 23.5449 33.3309 23.4642L34.137 22.5097C34.2051 22.4288 34.2383 22.3243 34.2295 22.219C34.2206 22.1136 34.1703 22.0162 34.0896 21.9479L29.7098 18.2492C29.629 18.1811 29.5245 18.1478 29.4192 18.1567C29.3138 18.1656 29.2163 18.2159 29.148 18.2965L28.3419 19.2511Z" fill="white"/>
<path id="Vector_23" d="M30.9135 20.6887C30.8983 20.7099 30.8783 20.7274 30.8552 20.7396C30.8321 20.7518 30.8065 20.7585 30.7803 20.7591L30.0922 20.7749C30.0701 20.7754 30.0481 20.7715 30.0275 20.7635C30.0068 20.7556 29.988 20.7436 29.972 20.7283C29.956 20.713 29.9432 20.6948 29.9343 20.6745C29.9253 20.6543 29.9205 20.6325 29.92 20.6104C29.9195 20.5883 29.9233 20.5663 29.9313 20.5457C29.9393 20.5251 29.9513 20.5062 29.9665 20.4902C29.9818 20.4742 30.0001 20.4614 30.0203 20.4525C30.0406 20.4436 30.0623 20.4387 30.0845 20.4382L30.5346 20.4278L30.0913 19.258C30.0756 19.2162 30.0771 19.17 30.0954 19.1293C30.1138 19.0887 30.1475 19.057 30.1892 19.0412C30.2309 19.0254 30.2772 19.0268 30.3179 19.045C30.3585 19.0633 30.3903 19.097 30.4062 19.1386L30.9339 20.5311C30.9435 20.5562 30.9469 20.5834 30.9438 20.6101C30.9407 20.6369 30.9312 20.6625 30.9162 20.6848L30.9135 20.6887Z" fill="#6AB166"/>
<path id="Vector_24" d="M31.0007 20.9831C31.1667 21.0075 31.3253 21.0679 31.4654 21.1602C31.6054 21.2526 31.7236 21.3745 31.8115 21.5174C31.8993 21.6603 31.9548 21.8207 31.9739 21.9874C31.9931 22.154 31.9755 22.3229 31.9223 22.482L35.1529 24.9706L33.1492 25.6601L30.3885 23.1912C30.1271 23.0842 29.9141 22.885 29.7897 22.6314C29.6654 22.3778 29.6384 22.0874 29.7138 21.8153C29.7893 21.5431 29.9619 21.308 30.1991 21.1547C30.4363 21.0013 30.7215 20.9402 31.0007 20.9831Z" fill="#9E616A"/>
<path id="Vector_25" d="M47.82 22.2134L39.5487 27.299C39.5487 27.299 36.2138 26.065 36.8655 25.4938C37.5173 24.9226 35.4424 24.5364 35.4424 24.5364L33.1504 22.9943L31.8203 24.5401C31.8203 24.5401 32.0627 27.0508 32.475 26.6161C32.8874 26.1814 33.5037 27.369 33.5037 27.369C33.5037 27.369 33.6859 28.695 34.8597 28.3613C36.0335 28.0276 39.1832 31.5255 39.1832 31.5255L49.3627 27.7289L47.82 22.2134Z" fill="#D6BC6A"/>
<path id="Vector_26" d="M32.8903 17.1653C32.7944 17.1653 32.6998 17.143 32.6141 17.1001C32.5283 17.0572 32.4537 16.9949 32.3962 16.9182L30.8813 14.8983C30.8327 14.8334 30.7973 14.7596 30.7771 14.681C30.757 14.6024 30.7525 14.5206 30.764 14.4403C30.7755 14.36 30.8027 14.2828 30.844 14.213C30.8853 14.1432 30.94 14.0822 31.0049 14.0336C31.1359 13.9353 31.3007 13.8931 31.4628 13.9163C31.5431 13.9277 31.6204 13.9549 31.6902 13.9962C31.76 14.0376 31.8209 14.0922 31.8696 14.1571L32.8607 15.4785L35.4062 11.6603C35.4971 11.524 35.6384 11.4294 35.799 11.3973C35.9596 11.3651 36.1265 11.3981 36.2628 11.489C36.3991 11.5799 36.4937 11.7212 36.5258 11.8818C36.5579 12.0424 36.5249 12.2093 36.4341 12.3456L33.4043 16.8902C33.3495 16.9724 33.2758 17.0403 33.1893 17.0881C33.1029 17.1359 33.0062 17.1623 32.9075 17.1651C32.9018 17.1652 32.896 17.1653 32.8903 17.1653Z" fill="white"/>
</g>
<defs>
<clipPath id="clip0_12_83243">
<rect width="68.5882" height="80" fill="white" transform="translate(0.205078)"/>
</clipPath>
</defs>
</svg>
