<svg width="106" height="80" viewBox="0 0 106 80" fill="none" xmlns="http://www.w3.org/2000/svg">
<g id="undraw_interview_re_e5jn 2" clip-path="url(#clip0_12_83165)">
<path id="Vector" d="M97.7717 72.7156C94.3221 75.3426 90.1193 78.0038 85.9873 79.2585C84.7962 79.631 83.567 79.8688 82.3229 79.9674C81.1597 80.0609 79.9891 79.9701 78.8543 79.6983C75.8722 78.9565 73.1062 77.6576 70.4299 76.14C69.5555 75.6434 68.6911 75.124 67.8319 74.5933C66.4293 73.7265 65.0406 72.8293 63.6481 71.9536C63.4396 71.821 63.2324 71.6908 63.0239 71.5619H63.0226C62.6865 71.3509 62.3495 71.1428 62.0117 70.9377C61.9523 70.9011 61.893 70.8657 61.8323 70.829C61.1942 70.4424 60.5451 70.0646 59.8851 69.6956C59.8042 69.6514 59.7233 69.6059 59.6425 69.5616C58.3655 68.8533 57.053 68.211 55.7101 67.6372C54.8281 67.2657 53.9348 66.9308 53.0326 66.6452H53.0313C52.6863 66.5366 52.3401 66.4342 51.9926 66.3407C50.9506 66.0548 49.8888 65.847 48.8159 65.719C47.3375 65.54 45.8422 65.5519 44.3668 65.7544C44.267 65.7683 44.1684 65.7822 44.0686 65.7986C40.0756 66.438 36.4314 68.5937 32.4207 69.1017C32.2905 69.1181 32.1616 69.1333 32.0315 69.1447C31.9759 69.1497 31.9203 69.156 31.8647 69.1598C30.6992 69.2596 29.5262 69.2307 28.367 69.0739C25.1284 68.6468 21.9745 67.3213 19.1352 65.6508C12.4975 61.745 7.1145 55.7416 3.84177 48.7893C3.27977 47.5978 2.7808 46.3775 2.34693 45.1337C1.13386 41.6843 0.465824 38.067 0.366863 34.412C0.0598071 21.7305 7.26613 9.00724 18.5804 3.27175C29.896 -2.46375 44.7812 -0.56708 53.907 8.24403C59.4428 13.5891 62.6461 20.832 66.8122 27.303C70.9783 33.7726 76.8995 39.9529 84.5367 40.8955C88.4274 41.3757 92.4987 40.447 96.2276 41.655C98.2923 42.3247 100.054 43.606 101.473 45.2385C102.427 46.3464 103.225 47.5793 103.846 48.903C104.301 49.86 104.67 50.8554 104.949 51.8775C105.001 52.0658 105.049 52.2541 105.096 52.4423C106.953 60.029 103.985 67.9821 97.7717 72.7156Z" fill="#CDE5CC"/>
<path id="Vector_2" d="M35.6333 58.9814H23.7554C21.9758 58.9814 20.5332 60.4241 20.5332 62.2036V62.2036C20.5332 63.9832 21.9758 65.4258 23.7554 65.4258H35.6333C37.4128 65.4258 38.8554 63.9832 38.8554 62.2036C38.8554 60.4241 37.4128 58.9814 35.6333 58.9814Z" fill="#3F3D56"/>
<path id="Vector_3" d="M32.0316 63.7832V69.1447C30.8115 69.2627 29.5818 69.239 28.3672 69.0739V63.7832H32.0316Z" fill="#3F3D56"/>
<path id="Vector_4" d="M44.367 65.7544C44.2672 65.7683 44.1686 65.7822 44.0688 65.7986C40.0758 66.438 36.4316 68.5937 32.4209 69.1016C32.2907 69.1181 32.1618 69.1332 32.0317 69.1446C31.9761 69.1497 31.9205 69.156 31.8649 69.1598C30.8856 68.2007 29.9063 67.1797 28.9864 66.1221C28.4873 65.5497 28.0046 64.9659 27.551 64.3745C26.3733 62.8481 25.375 61.2787 24.7154 59.7371C24.7824 58.9979 24.3224 57.2882 24.1026 55.9791L24.1013 55.9779C24.0078 55.4282 23.9573 54.9506 24.004 54.6435C24.2719 52.8719 25.7187 53.0754 26.1635 51.3392C26.5648 51.0062 26.9919 50.7057 27.441 50.4408C27.5156 50.3965 27.5914 50.3523 27.6697 50.3081L32.4967 46.9722L34.3416 48.7816L37.1493 51.5363L40.192 54.5197L37.6092 57.129C37.6092 57.129 39.7675 59.6171 42.2909 62.934C42.9682 63.8248 43.672 64.7763 44.367 65.7544Z" fill="#2F2E41"/>
<path id="Vector_5" d="M85.9877 63.7832V79.2586C84.7965 79.631 83.5674 79.8688 82.3232 79.9674V63.7832H85.9877Z" fill="#3F3D56"/>
<path id="Vector_6" d="M90.726 62.5195H78.8482C77.0686 62.5195 75.626 63.9621 75.626 65.7417V65.7417C75.626 67.5213 77.0686 68.9639 78.8482 68.9639H90.726C92.5056 68.9639 93.9482 67.5213 93.9482 65.7417C93.9482 63.9621 92.5056 62.5195 90.726 62.5195Z" fill="#3F3D56"/>
<path id="Vector_7" d="M61.8324 70.8291C61.1943 70.4424 60.5452 70.0646 59.8852 69.6956C59.8043 69.6514 59.7234 69.6059 59.6426 69.5617L60.0773 69.3759L61.2499 68.8718L61.2613 68.8667L61.2739 68.9097L61.8324 70.8291Z" fill="#FFB6B6"/>
<path id="Vector_8" d="M63.649 71.9535C63.4405 71.8209 63.2333 71.6907 63.0248 71.5618H63.0235C62.6874 71.3508 62.3504 71.1427 62.0126 70.9376C61.9532 70.901 61.8938 70.8656 61.8332 70.8289C61.1951 70.4423 60.546 70.0645 59.886 69.6955C59.8051 69.6513 59.7242 69.6058 59.6434 69.5615C58.3664 68.8532 57.0539 68.2109 55.711 67.6371C54.829 67.2656 53.9357 66.9307 53.0335 66.6451H53.0322L52.3233 65.4586L49.1327 60.1148L48.4314 58.941C48.4314 58.941 46.0394 59.6486 42.6542 60.3271C41.4222 60.5748 40.06 60.8174 38.6309 61.0221C37.1032 61.2394 35.501 61.4126 33.9088 61.496C33.1494 61.5364 32.3925 61.5566 31.647 61.5503C29.72 61.5377 27.8688 61.357 26.2476 60.9273C25.7068 60.4194 24.0767 59.7282 22.9092 59.0951H22.9079C22.4176 58.8298 22.0107 58.5758 21.7972 58.3496C20.5664 57.0481 21.6177 56.0334 20.5235 54.6131C20.5087 54.0921 20.5354 53.5707 20.6031 53.0538C20.6144 52.9679 20.6258 52.8807 20.6397 52.7923L20.9847 46.9342L23.5473 46.5955L27.4468 46.08L31.671 45.5215L32.136 49.1632C32.136 49.1632 35.4251 48.9964 39.5925 49.052C46.2858 49.143 55.2422 49.8102 56.4553 52.6735C56.569 52.9426 56.6827 53.2143 56.7965 53.486C57.0669 54.1355 57.3348 54.7883 57.6001 55.4446C58.5617 57.8201 59.4791 60.2185 60.3169 62.4854C60.8375 63.8955 61.3278 65.2552 61.7789 66.5276C62.1415 67.5511 62.4776 68.5191 62.7847 69.4099C63.0652 70.2237 63.3192 70.973 63.5454 71.6452C63.5807 71.7501 63.6149 71.8537 63.649 71.9535Z" fill="#2F2E41"/>
<path id="Vector_9" d="M40.0745 36.4605L31.9805 29.5863L37.2465 24.2568L40.9205 30.2745L54.5388 32.9744C54.9483 32.6663 55.4386 32.4839 55.95 32.4496C56.4613 32.4152 56.9716 32.5304 57.4186 32.7811C57.8656 33.0317 58.23 33.4071 58.4674 33.8612C58.7048 34.3154 58.8049 34.8289 58.7556 35.339C58.7062 35.8491 58.5094 36.3339 58.1893 36.7341C57.8692 37.1343 57.4396 37.4328 56.9528 37.5931C56.466 37.7533 55.9431 37.7685 55.4479 37.6367C54.9526 37.505 54.5064 37.2319 54.1636 36.8509L40.0745 36.4605Z" fill="#A0616A"/>
<path id="Vector_10" d="M24.8266 20.5521C23.8912 23.5951 32.7999 30.8529 32.7999 30.8529C32.8989 30.1224 37.9498 36.4221 38.2935 35.8516C39.2701 34.2301 40.3448 30.222 41.4723 29.7097C42.1171 29.4167 38.4181 25.3448 38.4181 25.3448C38.4181 25.3448 36.5312 22.8484 34.0399 19.6845C33.3521 18.777 32.446 18.0582 31.4057 17.5951C30.3654 17.132 29.2249 16.9396 28.0903 17.0359C28.0903 17.0359 25.7621 17.509 24.8266 20.5521Z" fill="#D6BC6A"/>
<path id="Vector_11" d="M28.7655 13.8156C31.7889 13.8156 34.2399 11.3646 34.2399 8.34114C34.2399 5.31769 31.7889 2.8667 28.7655 2.8667C25.742 2.8667 23.291 5.31769 23.291 8.34114C23.291 11.3646 25.742 13.8156 28.7655 13.8156Z" fill="#A0616A"/>
<path id="Vector_12" d="M31.5037 17.4337C32.6831 18.1348 33.3886 19.4231 33.7936 20.7341C34.5434 23.1611 34.9947 25.6704 35.1376 28.2066L35.5654 35.7995L40.8632 51.967C36.2718 55.8521 19.0131 52.85 19.0131 52.85C19.0131 52.85 18.4834 52.6734 19.0131 52.1436C19.5429 51.6138 20.0587 52.0832 19.5289 51.5534C18.9991 51.0236 19.3643 51.6138 19.5409 51.084C19.7175 50.5542 19.5409 50.9074 19.3643 50.7308C19.1877 50.5542 20.7314 48.9649 20.7314 48.9649L19.3187 39.6846L17.5527 20.9656C19.6719 18.3166 23.9337 16.7551 23.9337 16.7551L25.035 14.7729L30.541 15.2134L31.5037 17.4337Z" fill="#D6BC6A"/>
<path id="Vector_13" d="M33.2786 5.43239C33.7041 5.74974 34.0193 6.19254 34.1799 6.69846C34.2416 5.87168 34.2455 5.04161 34.1916 4.21429C34.1271 3.63292 33.7178 3.50216 33.2439 3.35063C32.8159 3.21373 32.3318 3.05909 32.2016 2.49472C30.4807 0.820644 27.4851 0.90506 25.435 1.489C24.3069 1.81034 23.6578 2.22319 23.5997 2.46504L23.5876 2.51482L23.5418 2.53773C22.6723 2.97251 22.503 4.34548 22.5142 5.42066C22.5354 7.4464 23.2348 9.74712 23.6288 9.93402C23.6497 9.94391 23.655 9.94004 23.664 9.93251C24.2573 9.45837 24.9811 9.96854 25.2992 10.2459C25.4869 8.98686 26.091 7.82702 27.0151 6.95161C27.9392 6.0762 29.1301 5.53572 30.3974 5.41648C30.8113 5.37648 31.2219 5.30763 31.6261 5.21044C31.8312 5.15739 32.042 5.12972 32.2539 5.12807C32.6185 5.12253 32.9761 5.22873 33.2786 5.43239Z" fill="#2F2E41"/>
<path id="Vector_14" d="M26.3809 44.7085L24.7063 43.8508C24.6166 43.7869 24.5528 43.6928 24.5267 43.5858C24.5006 43.4787 24.5139 43.3659 24.5641 43.2678C24.6144 43.1698 24.6982 43.093 24.8003 43.0517C24.9024 43.0103 25.016 43.007 25.1203 43.0425L26.7949 43.9001C26.8846 43.9641 26.9484 44.0581 26.9745 44.1652C27.0006 44.2722 26.9873 44.3851 26.9371 44.4831C26.8869 44.5812 26.803 44.6579 26.7009 44.6993C26.5988 44.7407 26.4852 44.7439 26.3809 44.7085Z" fill="#6AB166"/>
<path id="Vector_15" d="M20.745 42.4109L17.9902 32.1553L25.3518 30.7617L24.9559 37.8011L34.6284 47.7607C35.1405 47.7397 35.6476 47.8682 36.0879 48.1305C36.5282 48.3928 36.8827 48.7775 37.1081 49.2378C37.3335 49.698 37.4201 50.2139 37.3574 50.7226C37.2947 51.2312 37.0853 51.7106 36.7549 52.1024C36.4244 52.4941 35.9871 52.7812 35.4963 52.9286C35.0055 53.0761 34.4823 53.0776 33.9907 52.9329C33.499 52.7882 33.0601 52.5036 32.7274 52.1138C32.3948 51.7239 32.1827 51.2457 32.1171 50.7374L20.745 42.4109Z" fill="#A0616A"/>
<path id="Vector_16" d="M17.2378 20.6563C14.739 22.629 17.9462 33.6632 17.9462 33.6632C18.4427 33.1183 19.0197 41.1722 19.6267 40.898C21.3517 40.1186 24.5134 37.4309 25.7323 37.65C26.4293 37.7752 25.699 32.3227 25.699 32.3227C25.699 32.3227 25.5647 29.1963 25.3122 25.1773C25.2619 24.0397 24.9246 22.9333 24.3317 21.9612C23.7388 20.989 22.9096 20.1827 21.9213 19.6172C21.9213 19.6172 19.7365 18.6837 17.2378 20.6563Z" fill="#D6BC6A"/>
<path id="Vector_17" d="M103.847 48.9031L3.84249 48.7894C3.2805 47.5979 2.78153 46.3777 2.34766 45.1338L101.474 45.2387C102.428 46.3465 103.226 47.5794 103.847 48.9031Z" fill="#3F3D56"/>
<path id="Vector_18" d="M71.9943 75.416C71.4775 75.6662 70.9561 75.9076 70.43 76.1401C69.5556 75.6435 68.6913 75.1241 67.832 74.5934L71.0188 73.1934L71.9943 75.416Z" fill="#FFB6B6"/>
<path id="Vector_19" d="M95.2289 58.0033C94.7108 58.6983 94.1763 59.3794 93.6254 60.0465C93.1174 60.6619 92.596 61.2655 92.061 61.8573C91.8399 62.1024 91.6163 62.3463 91.3875 62.5877C90.9668 63.0388 90.5367 63.4823 90.0974 63.9182C89.3064 64.1672 87.7041 64.6056 85.9869 65.015C84.7372 65.312 83.4268 65.5938 82.3225 65.7732C81.7042 65.8842 81.0788 65.9509 80.4511 65.9729C79.7055 65.9792 78.9486 65.959 78.1892 65.9185C77.3325 65.873 76.4745 65.8023 75.6266 65.7113C73.4216 65.48 71.2861 65.1199 69.4438 64.7497C68.769 64.6157 68.1347 64.4793 67.5509 64.3466C66.4453 64.0977 65.5203 63.8652 64.8506 63.6883C64.0962 63.4911 63.6666 63.3635 63.6666 63.3635L61.7775 66.5276L60.797 68.169L60.0767 69.3757L59.8847 69.6954C59.8038 69.6512 59.7229 69.6057 59.642 69.5615C58.3651 68.8531 57.0526 68.2108 55.7097 67.637C54.8277 67.2655 53.9344 66.9307 53.0321 66.6451H53.0309C52.6859 66.5364 52.3397 66.4341 51.9922 66.3406C52.1009 66.0487 52.2108 65.7547 52.322 65.4586C52.5292 64.9064 52.7407 64.3491 52.9563 63.7868C53.4226 62.5687 53.9053 61.3329 54.4019 60.1034C54.8088 59.0938 55.2232 58.088 55.6427 57.096C55.8361 56.6386 56.2291 56.2368 56.7787 55.8842C57.0414 55.7186 57.3155 55.5716 57.5988 55.4445C59.172 54.728 61.4894 54.2618 64.0432 53.9623C64.2542 53.9383 64.4665 53.9143 64.68 53.8915C66.794 53.6691 69.0369 53.5542 71.1345 53.5011C72.1846 53.4745 73.198 53.4644 74.1406 53.4632C74.4452 53.4632 74.7413 53.464 75.029 53.4657H75.0302C75.8073 53.4695 76.5225 53.4809 77.1518 53.4935C77.2744 53.496 77.3932 53.4998 77.5094 53.5023H77.5107C77.589 53.5036 77.6661 53.5061 77.7419 53.5074C79.118 53.5428 79.9621 53.5857 79.9621 53.5857L80.2893 51.0181L80.3563 50.5L80.4195 50.0072V50.006L80.4271 49.944L80.4789 49.9428L81.3887 49.9251L89.036 49.776L93.2135 49.6938L92.5513 52.5319L91.4583 57.2148C91.5695 57.9553 95.2668 57.3753 95.2289 58.0033Z" fill="#2F2E41"/>
<path id="Vector_20" d="M72.9359 74.9483C72.6238 75.1075 72.3092 75.2642 71.9933 75.4158C71.4764 75.666 70.955 75.9073 70.4289 76.1398C69.5545 75.6432 68.6902 75.1239 67.8309 74.5932C66.4283 73.7264 65.0396 72.8292 63.6472 71.9535C63.4387 71.8208 63.2314 71.6907 63.0229 71.5618H63.0217C62.448 70.7101 61.8629 69.8231 61.2728 68.9095C61.264 68.8969 61.2564 68.8842 61.2488 68.8716C61.0972 68.6391 60.9464 68.4049 60.7965 68.169C59.8526 66.6906 58.9036 65.149 57.9824 63.5746L60.315 62.4853L64.6517 60.4611L65.3998 60.1123L67.5504 64.3466L69.4686 68.1235L69.8957 68.9638L72.9359 74.9483Z" fill="#2F2E41"/>
<path id="Vector_21" d="M73.5903 54.6194L84.6469 43.9567L87.7114 35.2795L83.1911 33.314C80.8693 35.5381 78.3595 42.4655 78.3595 42.4655L70.751 52.1453C70.6918 52.1656 70.6326 52.1871 70.5742 52.2129C70.2315 52.3641 69.9336 52.601 69.7093 52.9009C69.4849 53.2008 69.3417 53.5535 69.2935 53.9249C69.2453 54.2963 69.2937 54.6739 69.4341 55.0211C69.5744 55.3684 69.802 55.6735 70.0947 55.9071C70.3875 56.1407 70.7356 56.2948 71.1053 56.3546C71.475 56.4144 71.8539 56.3777 72.2054 56.2483C72.5568 56.1188 72.8689 55.9009 73.1115 55.6155C73.3541 55.3302 73.519 54.9871 73.5903 54.6194Z" fill="#9E616A"/>
<path id="Vector_22" d="M81.9189 34.2826L87.6526 36.1028L87.6742 36.0992C89.8083 35.7417 91.5791 32.2563 92.6887 29.3953C93.0539 28.4516 93.047 27.4045 92.6697 26.4657C92.2923 25.5268 91.5726 24.7663 90.6559 24.3378C89.9776 24.0263 89.2257 23.9107 88.4851 24.0041C87.7446 24.0976 87.0449 24.3963 86.4652 24.8665L83.5209 27.2723L81.9189 34.2826Z" fill="#6AB166"/>
<path id="Vector_23" d="M95.206 58.1314L95.2395 58.0869C97.0284 55.7143 94.5817 49.8389 94.2118 48.9868L95.8752 48.4941L95.5852 45.3271L95.4456 43.9148L96.7389 42.6867L96.7432 42.6553L97.6327 36.3256L98.7964 32.1363C99.2351 30.5525 99.2443 28.8806 98.8233 27.2921C98.4023 25.7036 97.5661 24.2557 96.4006 23.0971L94.0215 20.7351L91.1713 16.2738L86.3924 16.1504L84.674 19.2031C83.0759 19.5293 81.6428 20.4057 80.6245 21.6798C79.6062 22.9539 79.067 24.5448 79.1011 26.1755L79.2629 34.3025L77.5481 44.3717L77.5 46.2008L75.817 47.9768L76.1282 49.7723L74.8692 50.2738L74.2532 52.8252C74.0179 53.1196 72.4644 55.0833 72.4503 55.6307C72.4481 55.7129 72.5067 55.7939 72.6347 55.8854C73.6402 56.6048 79.2607 58.1638 81.7902 57.2266C84.4847 56.2291 95.0447 58.1025 95.1511 58.1215L95.206 58.1314Z" fill="#6AB166"/>
<path id="Vector_24" d="M88.3653 14.7828C91.8619 14.7828 94.6964 11.9483 94.6964 8.45171C94.6964 4.95514 91.8619 2.12061 88.3653 2.12061C84.8687 2.12061 82.0342 4.95514 82.0342 8.45171C82.0342 11.9483 84.8687 14.7828 88.3653 14.7828Z" fill="#9E616A"/>
<path id="Vector_25" d="M87.5921 14.8676C88.5725 14.8829 89.5524 14.8144 90.5212 14.6629C91.4814 14.4676 93.6296 12.8934 94.2284 11.9462C94.6733 11.2423 94.9578 10.1433 95.1182 9.34528C95.3342 8.28927 95.3259 7.19967 95.094 6.14704C94.8621 5.09441 94.4117 4.10223 93.772 3.23473C93.5261 2.87188 93.1867 2.58223 92.7898 2.39641C92.7546 2.38265 92.7184 2.37046 92.6818 2.36004C92.1033 2.20784 91.5836 1.88623 91.1892 1.43649C91.1128 1.34552 91.0299 1.26018 90.9411 1.18113C90.4954 0.805003 89.9671 0.539692 89.3992 0.406883C88.4826 0.161566 87.156 0.405076 85.4565 1.13135C84.6027 1.49624 83.6689 1.36419 82.9505 1.20836C82.9102 1.20058 82.8686 1.20348 82.8298 1.21678C82.7909 1.23008 82.7563 1.25332 82.7292 1.28418C82.4236 1.5711 82.0207 1.73171 81.6015 1.73372C81.3447 1.745 81.0753 2.10052 80.7497 2.56413C80.6758 2.66937 80.5896 2.79219 80.5274 2.8669L80.519 2.72337L80.3738 2.88349C80.1455 3.13513 79.9846 3.44046 79.9061 3.77104C79.8275 4.10162 79.834 4.44669 79.9247 4.77413C80.0154 5.10157 80.1875 5.40072 80.425 5.64373C80.6625 5.88673 80.9576 6.06569 81.2829 6.16394C81.5412 6.23266 81.8058 6.27483 82.0726 6.28979C82.2343 6.30434 82.4015 6.31938 82.5617 6.34718C83.0759 6.45248 83.5541 6.68933 83.9495 7.03461C84.3449 7.37988 84.644 7.82178 84.8176 8.31715C84.8586 8.43166 84.9255 8.5352 85.0129 8.61978C85.1003 8.70436 85.206 8.76772 85.3218 8.80497C85.4376 8.84222 85.5604 8.85236 85.6808 8.83461C85.8011 8.81686 85.9157 8.77169 86.0159 8.70259C86.1828 8.57262 86.3786 8.48495 86.5868 8.44705C86.7949 8.40915 87.0091 8.42215 87.2111 8.48495C87.3857 8.58202 87.5216 8.73616 87.596 8.92152C87.6864 9.12803 87.8363 9.30293 88.0266 9.42389C88.6773 9.75938 88.7222 11.2456 88.4884 12.4846C88.2632 13.6789 87.8179 14.5428 87.4055 14.5855C87.0881 14.6184 87.0518 14.6409 87.0288 14.697L87.0083 14.7473L87.044 14.7943C87.2193 14.8579 87.4062 14.8829 87.5921 14.8676Z" fill="#2F2E41"/>
<path id="Vector_26" d="M83.491 32.3683L81.0499 27.5015C77.5067 27.7435 70.4742 31.8403 70.4742 31.8403L57.1687 34.6614C56.7745 34.5099 56.3474 34.4649 55.9303 34.5309C55.5132 34.5969 55.1209 34.7717 54.7928 35.0375C54.4647 35.3034 54.2124 35.651 54.0614 36.0454C53.9103 36.4397 53.8658 36.8669 53.9324 37.2839C53.9989 37.7009 54.1741 38.093 54.4404 38.4208C54.7066 38.7485 55.0545 39.0004 55.449 39.151C55.8436 39.3015 56.2708 39.3455 56.6877 39.2785C57.1046 39.2115 57.4966 39.0358 57.824 38.7691L74.7495 37.5559L83.491 32.3683Z" fill="#9E616A"/>
<path id="Vector_27" d="M82.5066 33.1676L88.882 28.4298L90.005 24.3828C90.2225 23.5875 90.2133 22.7472 89.9784 21.9569C89.7435 21.1666 89.2922 20.4577 88.6755 19.9104C87.8346 19.1741 86.7454 18.7846 85.6283 18.8207C84.5112 18.8567 83.4494 19.3156 82.6577 20.1045C80.2586 22.4992 77.5222 25.84 78.11 28.1566L78.1159 28.1801L82.5066 33.1676Z" fill="#6AB166"/>
<path id="Vector_28" d="M74.6153 45.8398H57.5566V48.1143H74.6153V45.8398Z" fill="white"/>
<path id="Vector_29" d="M31.0215 45.8398H13.9629V48.1143H31.0215V45.8398Z" fill="white"/>
<path id="Vector_30" d="M33.0117 34.9022V45.7318C33.0118 45.8698 33.0667 46.0022 33.1643 46.0997C33.2619 46.1973 33.3942 46.2522 33.5322 46.2523H49.5805C49.7185 46.2522 49.8509 46.1973 49.9484 46.0997C50.046 46.0022 50.1009 45.8698 50.101 45.7318V34.9022C50.1007 34.7643 50.0457 34.6322 49.9482 34.5348C49.8506 34.4373 49.7184 34.3825 49.5805 34.3823H33.5322C33.3943 34.3825 33.2621 34.4373 33.1646 34.5348C33.067 34.6322 33.012 34.7643 33.0117 34.9022Z" fill="#3F3D56"/>
<path id="Vector_31" d="M33.3887 35.0366V45.5978C33.3888 45.6715 33.4181 45.7422 33.4703 45.7944C33.5224 45.8465 33.5931 45.8759 33.6668 45.876H49.4474C49.5211 45.8759 49.5918 45.8465 49.644 45.7944C49.6961 45.7422 49.7255 45.6715 49.7256 45.5978V35.0366C49.7256 34.9627 49.6963 34.8919 49.6441 34.8397C49.592 34.7874 49.5212 34.758 49.4474 34.7578H33.6668C33.593 34.758 33.5223 34.7874 33.4701 34.8397C33.418 34.8919 33.3887 34.9627 33.3887 35.0366Z" fill="#9CCB99"/>
<path id="Vector_32" d="M32.6766 47.8435C32.706 47.8804 32.7433 47.9101 32.7859 47.9304C32.8284 47.9508 32.875 47.9612 32.9221 47.961H50.1061C50.1531 47.9609 50.1995 47.9504 50.2419 47.9302C50.2843 47.9099 50.3217 47.8805 50.3513 47.844C50.3809 47.8075 50.402 47.7648 50.4131 47.7192C50.4241 47.6735 50.4249 47.6259 50.4152 47.5799L50.1485 46.3129C50.1374 46.2612 50.1136 46.2131 50.0792 46.173C50.0448 46.1329 50.001 46.102 49.9516 46.0832C49.9158 46.0692 49.8778 46.062 49.8394 46.062H33.1878C33.1494 46.062 33.1114 46.0692 33.0756 46.0832C33.0263 46.102 32.9824 46.1329 32.948 46.173C32.9136 46.2131 32.8898 46.2612 32.8787 46.3129L32.612 47.5799C32.6025 47.6259 32.6034 47.6734 32.6145 47.719C32.6257 47.7646 32.6469 47.8071 32.6766 47.8435Z" fill="#2F2E41"/>
<path id="Vector_33" d="M49.2492 46.6079H49.6551C49.6892 46.6079 49.7168 46.5803 49.7168 46.5462V46.352C49.7168 46.318 49.6892 46.2904 49.6551 46.2904H49.2492C49.2152 46.2904 49.1875 46.318 49.1875 46.352V46.5462C49.1875 46.5803 49.2152 46.6079 49.2492 46.6079Z" fill="#3F3D56"/>
<path id="Vector_34" d="M48.1906 46.6079H48.5965C48.6306 46.6079 48.6582 46.5803 48.6582 46.5462V46.352C48.6582 46.318 48.6306 46.2904 48.5965 46.2904H48.1906C48.1566 46.2904 48.1289 46.318 48.1289 46.352V46.5462C48.1289 46.5803 48.1566 46.6079 48.1906 46.6079Z" fill="#3F3D56"/>
<path id="Vector_35" d="M47.134 46.6079H47.5399C47.5739 46.6079 47.6016 46.5803 47.6016 46.5462V46.352C47.6016 46.318 47.5739 46.2904 47.5399 46.2904H47.134C47.0999 46.2904 47.0723 46.318 47.0723 46.352V46.5462C47.0723 46.5803 47.0999 46.6079 47.134 46.6079Z" fill="#3F3D56"/>
<path id="Vector_36" d="M46.0754 46.6079H46.4813C46.5153 46.6079 46.543 46.5803 46.543 46.5462V46.352C46.543 46.318 46.5153 46.2904 46.4813 46.2904H46.0754C46.0413 46.2904 46.0137 46.318 46.0137 46.352V46.5462C46.0137 46.5803 46.0413 46.6079 46.0754 46.6079Z" fill="#3F3D56"/>
<path id="Vector_37" d="M45.0168 46.6079H45.4227C45.4568 46.6079 45.4844 46.5803 45.4844 46.5462V46.352C45.4844 46.318 45.4568 46.2904 45.4227 46.2904H45.0168C44.9827 46.2904 44.9551 46.318 44.9551 46.352V46.5462C44.9551 46.5803 44.9827 46.6079 45.0168 46.6079Z" fill="#3F3D56"/>
<path id="Vector_38" d="M43.9582 46.6079H44.3641C44.3982 46.6079 44.4258 46.5803 44.4258 46.5462V46.352C44.4258 46.318 44.3982 46.2904 44.3641 46.2904H43.9582C43.9241 46.2904 43.8965 46.318 43.8965 46.352V46.5462C43.8965 46.5803 43.9241 46.6079 43.9582 46.6079Z" fill="#3F3D56"/>
<path id="Vector_39" d="M42.8996 46.6079H43.3055C43.3396 46.6079 43.3672 46.5803 43.3672 46.5462V46.352C43.3672 46.318 43.3396 46.2904 43.3055 46.2904H42.8996C42.8656 46.2904 42.8379 46.318 42.8379 46.352V46.5462C42.8379 46.5803 42.8656 46.6079 42.8996 46.6079Z" fill="#3F3D56"/>
<path id="Vector_40" d="M41.841 46.6079H42.2469C42.281 46.6079 42.3086 46.5803 42.3086 46.5462V46.352C42.3086 46.318 42.281 46.2904 42.2469 46.2904H41.841C41.807 46.2904 41.7793 46.318 41.7793 46.352V46.5462C41.7793 46.5803 41.807 46.6079 41.841 46.6079Z" fill="#3F3D56"/>
<path id="Vector_41" d="M40.7824 46.6079H41.1883C41.2224 46.6079 41.25 46.5803 41.25 46.5462V46.352C41.25 46.318 41.2224 46.2904 41.1883 46.2904H40.7824C40.7484 46.2904 40.7207 46.318 40.7207 46.352V46.5462C40.7207 46.5803 40.7484 46.6079 40.7824 46.6079Z" fill="#3F3D56"/>
<path id="Vector_42" d="M39.7238 46.6079H40.1297C40.1638 46.6079 40.1914 46.5803 40.1914 46.5462V46.352C40.1914 46.318 40.1638 46.2904 40.1297 46.2904H39.7238C39.6898 46.2904 39.6621 46.318 39.6621 46.352V46.5462C39.6621 46.5803 39.6898 46.6079 39.7238 46.6079Z" fill="#3F3D56"/>
<path id="Vector_43" d="M38.6652 46.6079H39.0711C39.1052 46.6079 39.1328 46.5803 39.1328 46.5462V46.352C39.1328 46.318 39.1052 46.2904 39.0711 46.2904H38.6652C38.6312 46.2904 38.6036 46.318 38.6036 46.352V46.5462C38.6036 46.5803 38.6312 46.6079 38.6652 46.6079Z" fill="#3F3D56"/>
<path id="Vector_44" d="M37.6066 46.6079H38.0125C38.0466 46.6079 38.0742 46.5803 38.0742 46.5462V46.352C38.0742 46.318 38.0466 46.2904 38.0125 46.2904H37.6066C37.5726 46.2904 37.545 46.318 37.545 46.352V46.5462C37.545 46.5803 37.5726 46.6079 37.6066 46.6079Z" fill="#3F3D56"/>
<path id="Vector_45" d="M36.5481 46.6079H36.9539C36.988 46.6079 37.0156 46.5803 37.0156 46.5462V46.352C37.0156 46.318 36.988 46.2904 36.9539 46.2904H36.5481C36.514 46.2904 36.4864 46.318 36.4864 46.352V46.5462C36.4864 46.5803 36.514 46.6079 36.5481 46.6079Z" fill="#3F3D56"/>
<path id="Vector_46" d="M35.4895 46.6079H35.8953C35.9294 46.6079 35.957 46.5803 35.957 46.5462V46.352C35.957 46.318 35.9294 46.2904 35.8953 46.2904H35.4895C35.4554 46.2904 35.4278 46.318 35.4278 46.352V46.5462C35.4278 46.5803 35.4554 46.6079 35.4895 46.6079Z" fill="#3F3D56"/>
<path id="Vector_47" d="M34.4309 46.6079H34.8367C34.8708 46.6079 34.8984 46.5803 34.8984 46.5462V46.352C34.8984 46.318 34.8708 46.2904 34.8367 46.2904H34.4309C34.3968 46.2904 34.3692 46.318 34.3692 46.352V46.5462C34.3692 46.5803 34.3968 46.6079 34.4309 46.6079Z" fill="#3F3D56"/>
<path id="Vector_48" d="M33.3723 46.6079H33.7782C33.8122 46.6079 33.8398 46.5803 33.8398 46.5462V46.352C33.8398 46.318 33.8122 46.2904 33.7782 46.2904H33.3723C33.3382 46.2904 33.3106 46.318 33.3106 46.352V46.5462C33.3106 46.5803 33.3382 46.6079 33.3723 46.6079Z" fill="#3F3D56"/>
<path id="Vector_49" d="M49.2629 47.1372H49.6688C49.7028 47.1372 49.7305 47.1096 49.7305 47.0755V46.8813C49.7305 46.8473 49.7028 46.8197 49.6688 46.8197H49.2629C49.2288 46.8197 49.2012 46.8473 49.2012 46.8813V47.0755C49.2012 47.1096 49.2288 47.1372 49.2629 47.1372Z" fill="#3F3D56"/>
<path id="Vector_50" d="M48.2043 47.1372H48.6102C48.6443 47.1372 48.6719 47.1096 48.6719 47.0755V46.8813C48.6719 46.8473 48.6443 46.8197 48.6102 46.8197H48.2043C48.1702 46.8197 48.1426 46.8473 48.1426 46.8813V47.0755C48.1426 47.1096 48.1702 47.1372 48.2043 47.1372Z" fill="#3F3D56"/>
<path id="Vector_51" d="M47.1457 47.1372H47.5516C47.5857 47.1372 47.6133 47.1096 47.6133 47.0755V46.8813C47.6133 46.8473 47.5857 46.8197 47.5516 46.8197H47.1457C47.1116 46.8197 47.084 46.8473 47.084 46.8813V47.0755C47.084 47.1096 47.1116 47.1372 47.1457 47.1372Z" fill="#3F3D56"/>
<path id="Vector_52" d="M46.0871 47.1372H46.493C46.5271 47.1372 46.5547 47.1096 46.5547 47.0755V46.8813C46.5547 46.8473 46.5271 46.8197 46.493 46.8197H46.0871C46.053 46.8197 46.0254 46.8473 46.0254 46.8813V47.0755C46.0254 47.1096 46.053 47.1372 46.0871 47.1372Z" fill="#3F3D56"/>
<path id="Vector_53" d="M45.0285 47.1372H45.4344C45.4685 47.1372 45.4961 47.1096 45.4961 47.0755V46.8813C45.4961 46.8473 45.4685 46.8197 45.4344 46.8197H45.0285C44.9945 46.8197 44.9668 46.8473 44.9668 46.8813V47.0755C44.9668 47.1096 44.9945 47.1372 45.0285 47.1372Z" fill="#3F3D56"/>
<path id="Vector_54" d="M43.9699 47.1372H44.3758C44.4099 47.1372 44.4375 47.1096 44.4375 47.0755V46.8813C44.4375 46.8473 44.4099 46.8197 44.3758 46.8197H43.9699C43.9359 46.8197 43.9082 46.8473 43.9082 46.8813V47.0755C43.9082 47.1096 43.9359 47.1372 43.9699 47.1372Z" fill="#3F3D56"/>
<path id="Vector_55" d="M42.9113 47.1372H43.3172C43.3513 47.1372 43.3789 47.1096 43.3789 47.0755V46.8813C43.3789 46.8473 43.3513 46.8197 43.3172 46.8197H42.9113C42.8773 46.8197 42.8496 46.8473 42.8496 46.8813V47.0755C42.8496 47.1096 42.8773 47.1372 42.9113 47.1372Z" fill="#3F3D56"/>
<path id="Vector_56" d="M41.8527 47.1372H42.2586C42.2927 47.1372 42.3203 47.1096 42.3203 47.0755V46.8813C42.3203 46.8473 42.2927 46.8197 42.2586 46.8197H41.8527C41.8187 46.8197 41.7911 46.8473 41.7911 46.8813V47.0755C41.7911 47.1096 41.8187 47.1372 41.8527 47.1372Z" fill="#3F3D56"/>
<path id="Vector_57" d="M40.7941 47.1372H41.2C41.2341 47.1372 41.2617 47.1096 41.2617 47.0755V46.8813C41.2617 46.8473 41.2341 46.8197 41.2 46.8197H40.7941C40.7601 46.8197 40.7325 46.8473 40.7325 46.8813V47.0755C40.7325 47.1096 40.7601 47.1372 40.7941 47.1372Z" fill="#3F3D56"/>
<path id="Vector_58" d="M39.7356 47.1372H40.1414C40.1755 47.1372 40.2031 47.1096 40.2031 47.0755V46.8813C40.2031 46.8473 40.1755 46.8197 40.1414 46.8197H39.7356C39.7015 46.8197 39.6739 46.8473 39.6739 46.8813V47.0755C39.6739 47.1096 39.7015 47.1372 39.7356 47.1372Z" fill="#3F3D56"/>
<path id="Vector_59" d="M38.677 47.1372H39.0828C39.1169 47.1372 39.1445 47.1096 39.1445 47.0755V46.8813C39.1445 46.8473 39.1169 46.8197 39.0828 46.8197H38.677C38.6429 46.8197 38.6153 46.8473 38.6153 46.8813V47.0755C38.6153 47.1096 38.6429 47.1372 38.677 47.1372Z" fill="#3F3D56"/>
<path id="Vector_60" d="M37.6184 47.1372H38.0242C38.0583 47.1372 38.0859 47.1096 38.0859 47.0755V46.8813C38.0859 46.8473 38.0583 46.8197 38.0242 46.8197H37.6184C37.5843 46.8197 37.5567 46.8473 37.5567 46.8813V47.0755C37.5567 47.1096 37.5843 47.1372 37.6184 47.1372Z" fill="#3F3D56"/>
<path id="Vector_61" d="M36.5598 47.1372H36.9657C36.9997 47.1372 37.0273 47.1096 37.0273 47.0755V46.8813C37.0273 46.8473 36.9997 46.8197 36.9657 46.8197H36.5598C36.5257 46.8197 36.4981 46.8473 36.4981 46.8813V47.0755C36.4981 47.1096 36.5257 47.1372 36.5598 47.1372Z" fill="#3F3D56"/>
<path id="Vector_62" d="M35.5012 47.1372H35.9071C35.9411 47.1372 35.9688 47.1096 35.9688 47.0755V46.8813C35.9688 46.8473 35.9411 46.8197 35.9071 46.8197H35.5012C35.4671 46.8197 35.4395 46.8473 35.4395 46.8813V47.0755C35.4395 47.1096 35.4671 47.1372 35.5012 47.1372Z" fill="#3F3D56"/>
<path id="Vector_63" d="M34.4426 47.1372H34.8485C34.8825 47.1372 34.9102 47.1096 34.9102 47.0755V46.8813C34.9102 46.8473 34.8825 46.8197 34.8485 46.8197H34.4426C34.4085 46.8197 34.3809 46.8473 34.3809 46.8813V47.0755C34.3809 47.1096 34.4085 47.1372 34.4426 47.1372Z" fill="#3F3D56"/>
<path id="Vector_64" d="M33.384 47.1372H33.7899C33.8239 47.1372 33.8516 47.1096 33.8516 47.0755V46.8813C33.8516 46.8473 33.8239 46.8197 33.7899 46.8197H33.384C33.3499 46.8197 33.3223 46.8473 33.3223 46.8813V47.0755C33.3223 47.1096 33.3499 47.1372 33.384 47.1372Z" fill="#3F3D56"/>
<path id="Vector_65" d="M40.4761 47.7725H44.5867C44.6208 47.7725 44.6484 47.7448 44.6484 47.7108V47.5166C44.6484 47.4825 44.6208 47.4549 44.5867 47.4549H40.4761C40.442 47.4549 40.4144 47.4825 40.4144 47.5166V47.7108C40.4144 47.7448 40.442 47.7725 40.4761 47.7725Z" fill="#3F3D56"/>
</g>
<defs>
<clipPath id="clip0_12_83165">
<rect width="105.286" height="80" fill="white" transform="translate(0.357422)"/>
</clipPath>
</defs>
</svg>
