<svg width="69" height="80" viewBox="0 0 69 80" fill="none" xmlns="http://www.w3.org/2000/svg">
<g clip-path="url(#clip0_2609_31009)">
<path d="M66.3714 29.4859H2.15808C1.58592 29.4852 1.03739 29.2576 0.632815 28.8531C0.22824 28.4485 0.000660655 27.9 0 27.3278V2.15808C0.000660655 1.58592 0.22824 1.03739 0.632815 0.632815C1.03739 0.22824 1.58592 0.000660655 2.15808 0H66.3714C66.9435 0.000660655 67.492 0.22824 67.8966 0.632815C68.3012 1.03739 68.5288 1.58592 68.5294 2.15808V27.3278C68.5288 27.9 68.3012 28.4485 67.8966 28.8531C67.492 29.2576 66.9435 29.4852 66.3714 29.4859Z" fill="#E6F2E6"/>
<path d="M51.3956 28.1094H12.3512C9.44164 28.1061 6.65221 26.9489 4.59485 24.8915C2.5375 22.8342 1.38024 20.0447 1.37695 17.1352V12.3517C1.38023 9.44219 2.53749 6.65276 4.59484 4.59539C6.6522 2.53802 9.44163 1.38074 12.3512 1.37744H56.1791C59.0886 1.38074 61.878 2.53802 63.9354 4.59539C65.9928 6.65276 67.15 9.44219 67.1533 12.3517C67.1486 16.5295 65.4869 20.5348 62.5327 23.4889C59.5786 26.443 55.5734 28.1047 51.3956 28.1094Z" fill="white"/>
<path d="M41.3234 8.58286H15.5146C15.367 8.58286 15.2254 8.52423 15.121 8.41985C15.0166 8.31547 14.958 8.17391 14.958 8.0263C14.958 7.87868 15.0166 7.73712 15.121 7.63274C15.2254 7.52837 15.367 7.46973 15.5146 7.46973H41.3234C41.471 7.46973 41.6126 7.52837 41.717 7.63274C41.8214 7.73712 41.88 7.87868 41.88 8.0263C41.88 8.17391 41.8214 8.31547 41.717 8.41985C41.6126 8.52423 41.471 8.58286 41.3234 8.58286Z" fill="#E6F2E6"/>
<path d="M54.3883 14.5209H15.5146C15.367 14.5209 15.2254 14.4622 15.121 14.3578C15.0166 14.2535 14.958 14.1119 14.958 13.9643C14.958 13.8167 15.0166 13.6751 15.121 13.5707C15.2254 13.4664 15.367 13.4077 15.5146 13.4077H54.3883C54.5359 13.4077 54.6775 13.4664 54.7819 13.5707C54.8862 13.6751 54.9449 13.8167 54.9449 13.9643C54.9449 14.1119 54.8862 14.2535 54.7819 14.3578C54.6775 14.4622 54.5359 14.5209 54.3883 14.5209Z" fill="#E6F2E6"/>
<path d="M54.3883 20.4593H15.5146C15.367 20.4593 15.2254 20.4007 15.121 20.2963C15.0166 20.1919 14.958 20.0504 14.958 19.9028C14.958 19.7551 15.0166 19.6136 15.121 19.5092C15.2254 19.4048 15.367 19.3462 15.5146 19.3462H54.3883C54.5359 19.3462 54.6775 19.4048 54.7819 19.5092C54.8862 19.6136 54.9449 19.7551 54.9449 19.9028C54.9449 20.0504 54.8862 20.1919 54.7819 20.2963C54.6775 20.4007 54.5359 20.4593 54.3883 20.4593Z" fill="#E6E6E6"/>
<path d="M54.3883 20.4593H15.5146C15.367 20.4593 15.2254 20.4007 15.121 20.2963C15.0166 20.1919 14.958 20.0504 14.958 19.9028C14.958 19.7551 15.0166 19.6136 15.121 19.5092C15.2254 19.4048 15.367 19.3462 15.5146 19.3462H54.3883C54.5359 19.3462 54.6775 19.4048 54.7819 19.5092C54.8862 19.6136 54.9449 19.7551 54.9449 19.9028C54.9449 20.0504 54.8862 20.1919 54.7819 20.2963C54.6775 20.4007 54.5359 20.4593 54.3883 20.4593Z" fill="#E6F2E6"/>
<path d="M38.5997 15.2023C38.6059 15.3699 38.6488 15.5342 38.7253 15.6835C38.8018 15.8328 38.9102 15.9635 39.0427 16.0664C39.1752 16.1692 39.3286 16.2418 39.4922 16.279C39.6558 16.3162 39.8256 16.317 39.9895 16.2815L42.1121 19.7635L43.0154 17.8466L40.8613 14.8339C40.7834 14.5624 40.6085 14.3289 40.37 14.1777C40.1314 14.0266 39.8456 13.9681 39.5669 14.0135C39.2881 14.059 39.0357 14.2051 38.8574 14.4242C38.6792 14.6432 38.5875 14.9201 38.5997 15.2023Z" fill="#9E616A"/>
<path d="M54.5279 25.182L47.2133 21.2143L44.9061 19.0497C44.9061 19.0497 43.903 18.7812 44.2722 18.455C44.6414 18.1289 43.5894 17.8144 43.5894 17.8144L42.3508 16.6523L40.5908 17.8976L41.1002 18.6872C41.1002 18.6872 41.0651 19.9943 41.7812 19.7428C42.4972 19.4914 42.3183 20.5754 42.3183 20.5754L46.5922 27.2006L54.5279 25.182Z" fill="#CCAB45"/>
<path d="M32.9357 21.4437C36.8816 21.4437 40.0804 18.2449 40.0804 14.299C40.0804 10.3531 36.8816 7.1543 32.9357 7.1543C28.9898 7.1543 25.791 10.3531 25.791 14.299C25.791 18.2449 28.9898 21.4437 32.9357 21.4437Z" fill="#077D00"/>
<path d="M54.5509 77.2222H53.0653L52.3584 71.4922H54.5509V77.2222Z" fill="#9E616A"/>
<path d="M55.3352 79.7961H54.2698L54.0797 78.7902L53.5926 79.7961H50.767C50.6316 79.7961 50.4997 79.7528 50.3906 79.6725C50.2815 79.5923 50.2009 79.4792 50.1606 79.3499C50.1203 79.2206 50.1224 79.0818 50.1666 78.9538C50.2107 78.8257 50.2947 78.7152 50.4061 78.6382L52.6626 77.0798V76.063L55.0359 76.2046L55.3352 79.7961Z" fill="#2F2E41"/>
<path d="M42.6691 77.2222H41.1835L40.4766 71.4922H42.6691V77.2222Z" fill="#9E616A"/>
<path d="M43.4533 79.7961H42.388L42.1978 78.7902L41.7108 79.7961H38.8852C38.7498 79.7961 38.6179 79.7528 38.5088 79.6725C38.3997 79.5923 38.3191 79.4792 38.2788 79.3499C38.2385 79.2206 38.2406 79.0818 38.2847 78.9538C38.3289 78.8257 38.4128 78.7152 38.5243 78.6382L40.7807 77.0798V76.063L43.1541 76.2046L43.4533 79.7961Z" fill="#2F2E41"/>
<path d="M52.9746 33.8862H45.4766V42.4225H52.9746V33.8862Z" fill="#9E616A"/>
<path d="M45.6493 38.0967L44.3804 39.5963L42.1886 44.2105L36.666 57.3505L35.498 60.1295L36.4413 65.042C36.4413 65.042 36.5939 68.503 36.5939 69.0695C36.5939 70.223 37.5587 70.8622 37.5587 70.8622L38.2666 74.5489L45.1302 74.2605C45.1302 74.2605 44.8907 70.1968 43.4531 69.1717C42.0156 68.1467 41.3548 62.8044 41.3548 62.8044L40.5737 60.4342L48.1871 51.4093L48.2362 54.564L48.26 56.0909C48.26 56.0909 47.1451 66.0222 48.4447 67.9496C49.7444 69.877 48.4712 69.6502 48.4712 69.6502L48.5332 73.626L56.6657 73.6837L54.8715 62.2373C54.8715 62.2373 53.9605 61.5179 54.4479 60.7949C54.9354 60.0718 53.9755 59.1862 53.9755 59.1862L54.406 50.2503C54.406 50.2503 53.9293 48.7068 54.49 48.5062C55.0507 48.3056 54.5636 46.9783 54.5636 46.9783L54.647 45.2487L52.9743 39.8847L45.6493 38.0967Z" fill="#2F2E41"/>
<path d="M53.0904 33.8867L53.8979 31.4642L54.4746 30.6567L54.7054 28.3496C54.7054 22.1205 53.3159 23.1578 53.3159 23.1578L52.5136 20.9669L48.8223 20.8516L46.4575 23.101L44.4964 23.7931L43.7285 27.7833L45.1309 32.041L45.477 34.3481C44.8168 35.5668 44.8726 34.9904 45.4193 35.9054L51.9368 37.6934C54.2439 38.5009 54.2439 36.4245 53.7813 35.9054C53.3187 35.3863 53.0904 33.8867 53.0904 33.8867Z" fill="#CCAB45"/>
<path d="M50.1906 20.0769C52.0805 20.0769 53.6126 18.5449 53.6126 16.6549C53.6126 14.765 52.0805 13.2329 50.1906 13.2329C48.3006 13.2329 46.7686 14.765 46.7686 16.6549C46.7686 18.5449 48.3006 20.0769 50.1906 20.0769Z" fill="#9E616A"/>
<path d="M54.7588 21.223C54.791 21.2774 54.8106 21.3383 54.816 21.4013C54.8214 21.4643 54.8125 21.5278 54.79 21.5869C54.7675 21.6459 54.7319 21.6992 54.686 21.7427C54.64 21.7861 54.5849 21.8186 54.5246 21.8378C54.0655 21.9901 53.7829 22.4342 53.453 22.7895C53.1242 23.1436 52.5947 23.4378 52.1748 23.1967C51.7561 22.9567 51.7273 22.3442 51.3766 22.012C51.0351 21.689 50.4676 21.7282 50.0662 21.9739L50.0542 21.9813C49.9849 22.0265 49.9038 22.0504 49.8211 22.05C49.7384 22.0496 49.6576 22.025 49.5887 21.9792C49.5199 21.9334 49.4659 21.8684 49.4336 21.7923C49.4012 21.7161 49.3919 21.6322 49.4068 21.5508C49.5474 20.8028 49.688 20.0548 49.8285 19.3069C49.4593 20.1963 48.9233 21.0069 48.2493 21.6948C48.0637 21.909 47.8284 22.0745 47.5641 22.1769C47.3242 22.2531 47.0911 22.0051 46.8581 22.05C47.4372 21.5436 49.3844 18.2975 49.036 16.1277C48.6265 16.1739 48.217 16.22 47.8075 16.2661C47.7632 16.0723 47.6685 15.8937 47.533 15.7482C47.5495 15.9368 47.5255 16.1268 47.4626 16.3054C47.2919 16.325 47.12 16.3434 46.9493 16.363C46.7116 16.3896 46.4532 16.4126 46.2491 16.2881C45.9088 16.0804 45.8984 15.589 45.9953 15.2014C46.2791 14.0744 47.1396 13.132 48.1928 12.6382C49.246 12.1457 49.5574 13.2427 50.6671 12.892C52.8589 12.1999 54.5385 13.3834 55.1302 15.5798C55.6274 17.422 55.2664 19.3773 54.7588 21.223Z" fill="#2F2E41"/>
<path d="M64.2331 79.8706H60.0429L60.0249 79.8379C59.9714 79.7408 59.9196 79.6378 59.8713 79.532C59.4397 78.608 59.2572 77.5511 59.0963 76.6187L58.9751 75.9159C58.9604 75.8308 58.9714 75.7432 59.0068 75.6644C59.0422 75.5856 59.1003 75.5192 59.1736 75.4736C59.247 75.428 59.3323 75.4053 59.4186 75.4085C59.5049 75.4117 59.5883 75.4405 59.6582 75.4914C60.295 75.9547 60.932 76.4177 61.5693 76.8801C61.8106 77.0557 62.0862 77.2589 62.3501 77.4785C62.3756 77.3548 62.4022 77.2308 62.4288 77.1085C62.4472 77.024 62.4904 76.947 62.5528 76.8872C62.6152 76.8274 62.694 76.7876 62.7792 76.7729C62.8643 76.7581 62.952 76.7692 63.0308 76.8045C63.1097 76.8399 63.1762 76.898 63.2219 76.9714L63.7121 77.759C64.0697 78.3342 64.3853 78.9011 64.321 79.5124C64.3213 79.5198 64.3207 79.5273 64.3193 79.5346C64.3065 79.635 64.2826 79.7337 64.2482 79.8289L64.2331 79.8706Z" fill="#E6F2E6"/>
<path d="M68.4391 79.9613L28.6213 80.0001C28.5815 79.9999 28.5435 79.984 28.5154 79.9558C28.4874 79.9277 28.4717 79.8895 28.4717 79.8498C28.4717 79.81 28.4874 79.7719 28.5154 79.7437C28.5435 79.7156 28.5815 79.6996 28.6213 79.6994L68.4391 79.6606C68.4788 79.6608 68.5169 79.6768 68.5449 79.7049C68.5729 79.7331 68.5886 79.7712 68.5886 79.811C68.5886 79.8507 68.5729 79.8889 68.5449 79.917C68.5169 79.9452 68.4788 79.9611 68.4391 79.9613Z" fill="#CACACA"/>
<path d="M32.2865 23.9154L27.9067 20.2167C27.757 20.09 27.6636 19.9091 27.6472 19.7136C27.6307 19.5182 27.6924 19.3242 27.8188 19.1742L28.6249 18.2197C28.7516 18.0699 28.9325 17.9766 29.128 17.9601C29.3234 17.9437 29.5174 18.0054 29.6674 18.1318L34.0472 21.8305C34.1969 21.9572 34.2902 22.1381 34.3067 22.3335C34.3232 22.529 34.2614 22.723 34.1351 22.873L33.3289 23.8275C33.2022 23.9772 33.0213 24.0706 32.8259 24.087C32.6304 24.1035 32.4364 24.0418 32.2865 23.9154Z" fill="#3F3D56"/>
<path d="M28.1369 19.2511C28.0688 19.3319 28.0355 19.4364 28.0444 19.5418C28.0533 19.6471 28.1036 19.7446 28.1842 19.8129L32.564 23.5116C32.6448 23.5797 32.7494 23.6129 32.8547 23.604C32.96 23.5952 33.0575 23.5449 33.1258 23.4642L33.9319 22.5097C34 22.4288 34.0333 22.3243 34.0244 22.219C34.0155 22.1136 33.9652 22.0162 33.8845 21.9479L29.5048 18.2492C29.4239 18.1811 29.3194 18.1478 29.2141 18.1567C29.1088 18.1656 29.0113 18.2159 28.943 18.2965L28.1369 19.2511Z" fill="white"/>
<path d="M30.7084 20.6887C30.6932 20.7099 30.6733 20.7274 30.6501 20.7396C30.627 20.7518 30.6014 20.7585 30.5753 20.7591L29.8871 20.7749C29.865 20.7754 29.843 20.7715 29.8224 20.7635C29.8018 20.7556 29.7829 20.7436 29.7669 20.7283C29.7509 20.713 29.7381 20.6948 29.7292 20.6745C29.7203 20.6543 29.7154 20.6325 29.7149 20.6104C29.7144 20.5883 29.7182 20.5663 29.7262 20.5457C29.7342 20.5251 29.7462 20.5062 29.7615 20.4902C29.7767 20.4742 29.795 20.4614 29.8152 20.4525C29.8355 20.4436 29.8573 20.4387 29.8794 20.4382L30.3296 20.4278L29.8862 19.258C29.8705 19.2162 29.872 19.17 29.8904 19.1293C29.9087 19.0887 29.9424 19.057 29.9841 19.0412C30.0258 19.0254 30.0721 19.0268 30.1128 19.045C30.1535 19.0633 30.1852 19.097 30.2011 19.1386L30.7289 20.5311C30.7384 20.5562 30.7418 20.5834 30.7387 20.6101C30.7356 20.6369 30.7261 20.6625 30.7111 20.6848L30.7084 20.6887Z" fill="#077D00"/>
<path d="M30.7966 20.9831C30.9626 21.0075 31.1212 21.0679 31.2613 21.1602C31.4013 21.2526 31.5195 21.3745 31.6073 21.5174C31.6952 21.6603 31.7507 21.8207 31.7698 21.9874C31.789 22.154 31.7714 22.3229 31.7182 22.482L34.9488 24.9706L32.945 25.6601L30.1844 23.1912C29.923 23.0842 29.71 22.885 29.5856 22.6314C29.4613 22.3778 29.4343 22.0874 29.5097 21.8153C29.5852 21.5431 29.7578 21.308 29.995 21.1547C30.2322 21.0013 30.5174 20.9402 30.7966 20.9831Z" fill="#9E616A"/>
<path d="M47.615 22.2134L39.3436 27.299C39.3436 27.299 36.0087 26.065 36.6604 25.4938C37.3122 24.9226 35.2374 24.5364 35.2374 24.5364L32.9453 22.9943L31.6152 24.5401C31.6152 24.5401 31.8576 27.0508 32.2699 26.6161C32.6823 26.1814 33.2986 27.369 33.2986 27.369C33.2986 27.369 33.4808 28.695 34.6546 28.3613C35.8284 28.0276 38.9781 31.5255 38.9781 31.5255L49.1577 27.7289L47.615 22.2134Z" fill="#CCAB45"/>
<path d="M32.6852 17.1653C32.5893 17.1653 32.4948 17.143 32.409 17.1001C32.3232 17.0572 32.2487 16.9949 32.1911 16.9182L30.6763 14.8983C30.6276 14.8334 30.5922 14.7596 30.5721 14.681C30.5519 14.6024 30.5475 14.5206 30.5589 14.4403C30.5704 14.36 30.5976 14.2828 30.6389 14.213C30.6803 14.1432 30.7349 14.0822 30.7998 14.0336C30.9309 13.9353 31.0956 13.8931 31.2578 13.9163C31.3381 13.9277 31.4153 13.9549 31.4851 13.9962C31.5549 14.0376 31.6159 14.0922 31.6645 14.1571L32.6556 15.4785L35.2011 11.6603C35.292 11.524 35.4333 11.4294 35.5939 11.3973C35.7546 11.3651 35.9214 11.3981 36.0577 11.489C36.194 11.5799 36.2886 11.7212 36.3207 11.8818C36.3529 12.0424 36.3199 12.2093 36.229 12.3456L33.1992 16.8902C33.1444 16.9724 33.0707 17.0403 32.9843 17.0881C32.8978 17.1359 32.8012 17.1623 32.7024 17.1651C32.6967 17.1652 32.691 17.1653 32.6852 17.1653Z" fill="white"/>
</g>
<defs>
<clipPath id="clip0_2609_31009">
<rect width="68.5882" height="80" fill="white"/>
</clipPath>
</defs>
</svg>
