<svg width="72" height="80" viewBox="0 0 72 80" fill="none" xmlns="http://www.w3.org/2000/svg">
<g clip-path="url(#clip0_2609_5030)">
<path d="M5.48368 10.315C8.33209 10.315 10.6412 8.00592 10.6412 5.15751C10.6412 2.30909 8.33209 0 5.48368 0C2.63527 0 0.326172 2.30909 0.326172 5.15751C0.326172 8.00592 2.63527 10.315 5.48368 10.315Z" fill="#F2F2F2"/>
<path d="M4.06702 3.22217C4.46917 3.22217 4.79517 2.89617 4.79517 2.49402C4.79517 2.09187 4.46917 1.76587 4.06702 1.76587C3.66487 1.76587 3.33887 2.09187 3.33887 2.49402C3.33887 2.89617 3.66487 3.22217 4.06702 3.22217Z" fill="#2F2E41"/>
<path d="M5.23235 5.98911C6.25112 5.98911 7.077 5.16323 7.077 4.14446C7.077 3.12568 6.25112 2.2998 5.23235 2.2998C4.21358 2.2998 3.3877 3.12568 3.3877 4.14446C3.3877 5.16323 4.21358 5.98911 5.23235 5.98911Z" fill="#2F2E41"/>
<path d="M5.38473 5.9887C6.2126 5.9887 6.88372 5.31758 6.88372 4.48971C6.88372 3.66184 6.2126 2.99072 5.38473 2.99072C4.55686 2.99072 3.88574 3.66184 3.88574 4.48971C3.88574 5.31758 4.55686 5.9887 5.38473 5.9887Z" fill="#9E616A"/>
<path d="M6.40282 2.96166C6.14015 2.80152 5.83928 2.7149 5.53167 2.71084C5.22407 2.70679 4.92102 2.78545 4.65422 2.9386C4.38742 3.09175 4.16666 3.31377 4.01504 3.58144C3.86341 3.84911 3.78649 4.15261 3.7923 4.46018C4.55611 4.65196 5.35855 4.79871 6.1731 4.50605L6.36546 4.03526L6.47887 4.5064C6.72692 4.60779 6.97563 4.69358 7.22433 4.50542C7.23448 4.19871 7.16395 3.89471 7.01979 3.6238C6.87563 3.35289 6.66288 3.12457 6.40282 2.96166Z" fill="#2F2E41"/>
<path d="M3.38987 0.51751C3.13422 0.408393 2.85313 0.372994 2.57841 0.415315C2.30368 0.457636 2.04629 0.575989 1.83533 0.756987C1.62902 0.943146 1.47196 1.17745 1.37815 1.43903C1.28435 1.7006 1.25671 1.98132 1.29769 2.25616C1.38026 2.81518 1.72011 3.29657 2.03337 3.76687C2.34662 4.23718 2.65267 4.75252 2.65232 5.3176C2.65207 5.7246 2.49043 6.11489 2.20283 6.40289C1.91523 6.69088 1.52516 6.85306 1.11816 6.85387C1.59585 7.05951 2.09442 7.26919 2.61392 7.24481C3.13341 7.22043 3.67792 6.88646 3.76265 6.37335C3.82372 6.00363 3.64232 5.6431 3.49104 5.30027C3.24462 4.74164 3.06651 4.15531 2.96056 3.55401C2.89178 3.26945 2.89526 2.97221 2.97069 2.68934C3.0452 2.48483 3.18345 2.30968 3.36506 2.18971C3.54667 2.06975 3.76202 2.01131 3.97936 2.02303L4.15101 1.8686C4.18041 1.59221 4.12289 1.31353 3.98647 1.07136C3.85004 0.829191 3.64149 0.635588 3.38987 0.51751Z" fill="#2F2E41"/>
<path d="M9.36412 8.60835C8.4706 9.62504 7.21311 10.2496 5.8631 10.3471C4.51309 10.4447 3.17886 10.0075 2.14844 9.12983L2.59081 7.89547C2.69077 7.67623 2.84854 7.48833 3.04717 7.35194C3.2458 7.21554 3.47781 7.13577 3.71833 7.12121L3.99975 7.10393L4.67081 6.52516C4.67081 6.52516 6.47894 6.4606 6.45212 6.42969L7.54736 7.08847L7.54645 7.08392L7.977 7.11029C8.21753 7.1248 8.44957 7.20454 8.64822 7.34094C8.84686 7.47735 9.00461 7.66528 9.10452 7.88456L9.36412 8.60835Z" fill="#077D00"/>
<path d="M10.6412 25.7072C10.6394 26.7272 10.3351 27.7238 9.76691 28.571C9.19869 29.4181 8.39203 30.0778 7.44893 30.4664C6.50582 30.8551 5.46864 30.9554 4.46854 30.7547C3.46843 30.5539 2.55033 30.061 1.83031 29.3385C1.1103 28.6159 0.620728 27.6961 0.423498 26.6952C0.226269 25.6944 0.330244 24.6576 0.722274 23.7159C1.1143 22.7742 1.77678 21.9699 2.62593 21.4047C3.47509 20.8394 4.47277 20.5387 5.49283 20.5405C6.17062 20.54 6.84184 20.6734 7.46791 20.933C8.09398 21.1927 8.66256 21.5736 9.14098 22.0537C9.6194 22.5338 9.99823 23.1037 10.2557 23.7307C10.5131 24.3577 10.6441 25.0294 10.6412 25.7072Z" fill="#F2F2F2"/>
<path d="M3.0937 24.0201C3.30696 23.3404 3.79192 22.7171 4.46261 22.4873C5.13334 22.2576 6.11546 22.6076 6.61971 23.1101C7.54206 24.0293 7.76714 27.1872 7.13345 28.1852C7.00741 28.1785 6.57248 28.1736 6.44491 28.1688L6.26444 27.5673V28.1629C6.0612 28.1566 5.85638 28.1522 5.64996 28.1498C4.95787 28.1413 4.29607 27.8647 3.80368 27.3783C3.31129 26.8919 3.02667 26.2335 3.00964 25.5415C2.99313 24.8796 3.00966 24.2879 3.0937 24.0201Z" fill="#2F2E41"/>
<path d="M5.40735 26.2727C6.21913 26.2727 6.87721 25.6146 6.87721 24.8029C6.87721 23.9911 6.21913 23.333 5.40735 23.333C4.59558 23.333 3.9375 23.9911 3.9375 24.8029C3.9375 25.6146 4.59558 26.2727 5.40735 26.2727Z" fill="#9E616A"/>
<path d="M4.13867 23.512L5.83107 22.6646C6.17707 22.8205 6.47505 23.0661 6.69413 23.376C6.9132 23.6859 7.04537 24.0487 7.07695 24.4269L7.11913 24.9322L6.41044 24.7518L6.3328 24.1057L6.21245 24.7014L5.8854 24.6182L5.88851 23.6151L5.56125 24.6175L4.39314 24.3491L4.13867 23.512Z" fill="#2F2E41"/>
<path d="M9.31042 29.111C8.41689 30.1277 7.1594 30.7523 5.80939 30.8498C4.45938 30.9474 3.12515 30.5102 2.09473 29.6325L2.53709 28.3982C2.63706 28.1789 2.79482 27.991 2.99345 27.8546C3.19209 27.7182 3.4241 27.6385 3.66462 27.6239L3.94604 27.6066L4.6171 27.0279C4.6171 27.0279 6.42523 26.9633 6.39841 26.9324L7.49365 27.5912L7.49274 27.5866L7.92329 27.613C8.16382 27.6275 8.39586 27.7072 8.59451 27.8436C8.79315 27.98 8.9509 28.168 9.05081 28.3872L9.31042 29.111Z" fill="#077D00"/>
<path d="M5.48368 51.3582C8.33209 51.3582 10.6412 49.0491 10.6412 46.2007C10.6412 43.3523 8.33209 41.0432 5.48368 41.0432C2.63527 41.0432 0.326172 43.3523 0.326172 46.2007C0.326172 49.0491 2.63527 51.3582 5.48368 51.3582Z" fill="#F2F2F2"/>
<path d="M5.34164 46.8395C6.25089 46.8395 6.98798 46.1025 6.98798 45.1932C6.98798 44.284 6.25089 43.5469 5.34164 43.5469C4.4324 43.5469 3.69531 44.284 3.69531 45.1932C3.69531 46.1025 4.4324 46.8395 5.34164 46.8395Z" fill="#9E616A"/>
<path d="M9.35339 49.6513C8.45987 50.668 7.20237 51.2926 5.85236 51.3901C4.50235 51.4877 3.16812 51.0504 2.1377 50.1728L2.58007 48.9384C2.68004 48.7192 2.83779 48.5313 3.03643 48.3949C3.23506 48.2585 3.46707 48.1787 3.70759 48.1642L3.98902 48.1469L4.66007 47.5681C4.66007 47.5681 6.4682 47.5036 6.44137 47.4727L7.53662 48.1314L7.53571 48.1269L7.96626 48.1533C8.20679 48.1678 8.43883 48.2475 8.63748 48.3839C8.83612 48.5203 8.99387 48.7082 9.09378 48.9275L9.35339 49.6513Z" fill="#077D00"/>
<path d="M7.0772 44.1723C6.93808 43.6743 6.622 43.2443 6.1883 42.9629C5.84265 42.7418 5.41135 42.6289 5.01978 42.7458C4.6282 42.8627 4.30401 43.247 4.32964 43.6622C4.2571 43.6432 4.18067 43.6448 4.10901 43.6669C4.03734 43.689 3.97331 43.7308 3.92415 43.7874C3.8259 43.9034 3.75759 44.0417 3.7252 44.1902C3.59955 44.6557 3.60787 45.1473 3.74922 45.6083L3.74144 45.6744C3.83597 45.6493 3.92349 45.6028 3.99733 45.5387C4.07117 45.4745 4.12937 45.3944 4.1675 45.3043C4.25761 45.1296 4.30946 44.9359 4.40712 44.7655C4.44926 44.6774 4.51284 44.6012 4.59203 44.544C4.67122 44.4867 4.76349 44.4502 4.86042 44.4379L4.84337 44.7336C5.00982 44.6478 5.17627 44.5621 5.34272 44.4763L5.22394 44.7605L5.66003 44.5782C5.64378 44.6693 5.62753 44.7603 5.61128 44.8514C5.6494 44.7723 5.70315 44.7018 5.7693 44.6442C5.83544 44.5865 5.91261 44.5428 5.99611 44.5158C6.07962 44.4888 6.16773 44.479 6.25512 44.4871C6.34252 44.4951 6.42737 44.5208 6.50455 44.5626C6.67839 44.6795 6.80369 44.8558 6.85703 45.0584C6.90982 45.2606 6.93815 45.4683 6.94144 45.6773C7.16606 45.2082 7.21425 44.6739 7.0772 44.1723Z" fill="#2F2E41"/>
<path d="M12.1093 13.9707H0.767787C0.709699 13.9708 0.652162 13.9595 0.598468 13.9373C0.544775 13.9151 0.49598 13.8826 0.454872 13.8416C0.413765 13.8005 0.381151 13.7518 0.3589 13.6981C0.336649 13.6445 0.325195 13.5869 0.325195 13.5288C0.325195 13.4708 0.336649 13.4132 0.3589 13.3596C0.381151 13.3059 0.413765 13.2572 0.454872 13.2161C0.49598 13.1751 0.544775 13.1426 0.598468 13.1204C0.652162 13.0982 0.709699 13.0869 0.767787 13.087H12.1093C12.6792 13.079 12.6849 13.9787 12.1093 13.9707Z" fill="#9CCB99"/>
<path d="M27.3879 16.282H0.768051C0.650857 16.282 0.538462 16.2354 0.455594 16.1526C0.372726 16.0697 0.326172 15.9573 0.326172 15.8401C0.326172 15.7229 0.372726 15.6105 0.455594 15.5277C0.538462 15.4448 0.650857 15.3982 0.768051 15.3982H27.3879C27.9578 15.3903 27.9635 16.29 27.3879 16.282Z" fill="#9CCB99"/>
<path d="M36.6618 17.525C38.2305 17.525 39.5023 16.2532 39.5023 14.6845C39.5023 13.1157 38.2305 11.844 36.6618 11.844C35.093 11.844 33.8213 13.1157 33.8213 14.6845C33.8213 16.2532 35.093 17.525 36.6618 17.525Z" fill="#077D00"/>
<path d="M36.2745 16.1627C36.2254 16.1627 36.177 16.1513 36.1332 16.1294C36.0893 16.1074 36.0511 16.0756 36.0217 16.0363L35.2468 15.0031C35.1965 14.936 35.1749 14.8517 35.1868 14.7688C35.1986 14.6858 35.2429 14.611 35.31 14.5607C35.377 14.5104 35.4613 14.4888 35.5442 14.5007C35.6272 14.5126 35.7021 14.5569 35.7523 14.6239L36.2593 15.2998L37.5614 13.3467C37.5844 13.3121 37.614 13.2824 37.6485 13.2593C37.683 13.2362 37.7217 13.2201 37.7624 13.212C37.8031 13.2038 37.845 13.2038 37.8857 13.2118C37.9264 13.2199 37.9652 13.2359 37.9997 13.2589C38.0343 13.2819 38.0639 13.3115 38.087 13.346C38.1101 13.3805 38.1262 13.4192 38.1343 13.4599C38.1424 13.5006 38.1425 13.5425 38.1344 13.5833C38.1263 13.624 38.1103 13.6627 38.0872 13.6972L36.5374 16.022C36.5093 16.0641 36.4716 16.0988 36.4274 16.1232C36.3832 16.1477 36.3338 16.1612 36.2832 16.1626C36.2803 16.1627 36.2774 16.1627 36.2745 16.1627Z" fill="white"/>
<path d="M12.1096 34.4922H0.768051C0.650857 34.4922 0.538462 34.4457 0.455594 34.3628C0.372726 34.2799 0.326172 34.1675 0.326172 34.0503C0.326172 33.9331 0.372726 33.8207 0.455594 33.7379C0.538462 33.655 0.650857 33.6085 0.768051 33.6085H12.1096C12.6794 33.6005 12.6851 34.5002 12.1096 34.4922Z" fill="#9CCB99"/>
<path d="M27.3877 36.8037H0.767787C0.709699 36.8038 0.652162 36.7925 0.598468 36.7703C0.544775 36.7481 0.49598 36.7156 0.454872 36.6746C0.413765 36.6335 0.381151 36.5848 0.3589 36.5311C0.336649 36.4775 0.325195 36.4199 0.325195 36.3619C0.325195 36.3038 0.336649 36.2462 0.3589 36.1926C0.381151 36.1389 0.413765 36.0902 0.454872 36.0491C0.49598 36.0081 0.544775 35.9756 0.598468 35.9534C0.652162 35.9312 0.709699 35.9199 0.767787 35.92H27.3877C27.9575 35.912 27.9632 36.8118 27.3877 36.8037Z" fill="#9CCB99"/>
<path d="M36.6618 38.0465C38.2305 38.0465 39.5023 36.7747 39.5023 35.206C39.5023 33.6372 38.2305 32.3655 36.6618 32.3655C35.093 32.3655 33.8213 33.6372 33.8213 35.206C33.8213 36.7747 35.093 38.0465 36.6618 38.0465Z" fill="#077D00"/>
<path d="M36.2745 36.6843C36.2254 36.6843 36.177 36.6729 36.1332 36.651C36.0893 36.629 36.0511 36.5972 36.0217 36.5579L35.2468 35.5247C35.2219 35.4915 35.2038 35.4537 35.1935 35.4135C35.1832 35.3733 35.1809 35.3315 35.1868 35.2904C35.1926 35.2493 35.2065 35.2098 35.2277 35.1741C35.2488 35.1384 35.2768 35.1072 35.31 35.0823C35.3432 35.0574 35.381 35.0393 35.4211 35.029C35.4613 35.0187 35.5032 35.0165 35.5442 35.0223C35.5853 35.0282 35.6248 35.0421 35.6605 35.0632C35.6962 35.0844 35.7274 35.1123 35.7523 35.1455L36.2593 35.8215L37.5614 33.8683C37.6079 33.7986 37.6802 33.7503 37.7624 33.7339C37.8445 33.7175 37.9298 33.7344 37.9995 33.7809C38.0692 33.8273 38.1176 33.8996 38.134 33.9817C38.1505 34.0638 38.1337 34.1491 38.0872 34.2189L36.5374 36.5436C36.5093 36.5857 36.4716 36.6204 36.4274 36.6449C36.3832 36.6693 36.3338 36.6828 36.2832 36.6842C36.2803 36.6843 36.2774 36.6843 36.2745 36.6843Z" fill="white"/>
<path d="M12.1096 55.0137H0.768051C0.650857 55.0137 0.538462 54.9671 0.455594 54.8843C0.372726 54.8014 0.326172 54.689 0.326172 54.5718C0.326172 54.4546 0.372726 54.3422 0.455594 54.2594C0.538462 54.1765 0.650857 54.1299 0.768051 54.1299H12.1096C12.6794 54.122 12.6851 55.0217 12.1096 55.0137Z" fill="#9CCB99"/>
<path d="M27.3879 57.3252H0.768051C0.650857 57.3252 0.538462 57.2787 0.455594 57.1958C0.372726 57.1129 0.326172 57.0005 0.326172 56.8833C0.326172 56.7661 0.372726 56.6537 0.455594 56.5709C0.538462 56.488 0.650857 56.4415 0.768051 56.4415H27.3879C27.9578 56.4335 27.9635 57.3332 27.3879 57.3252Z" fill="#9CCB99"/>
<path d="M36.6618 58.5682C38.2305 58.5682 39.5023 57.2965 39.5023 55.7277C39.5023 54.1589 38.2305 52.8872 36.6618 52.8872C35.093 52.8872 33.8213 54.1589 33.8213 55.7277C33.8213 57.2965 35.093 58.5682 36.6618 58.5682Z" fill="#FF0000"/>
<path d="M36.6254 55.4415L37.759 54.3079L38.0829 54.6317L36.9492 55.7653L38.0829 56.8989L37.759 57.2228L36.6254 56.0891L35.4918 57.2228L35.168 56.8989L36.3016 55.7653L35.168 54.6317L35.4918 54.3079L36.6254 55.4415Z" fill="white"/>
<path d="M48.2451 45.9722H55.6881L53.856 40.5903L48.8177 40.7048L48.2451 45.9722Z" fill="#9E616A"/>
<path d="M54.2518 76.987H52.7828L52.084 71.3208L54.2521 71.3209L54.2518 76.987Z" fill="#9E616A"/>
<path d="M55.0422 79.7763H53.9999L53.8138 78.7922L53.3373 79.7763H50.5727C50.4401 79.7763 50.3111 79.7339 50.2044 79.6554C50.0976 79.5769 50.0188 79.4663 49.9793 79.3398C49.9399 79.2133 49.9419 79.0775 49.9851 78.9522C50.0284 78.8269 50.1105 78.7187 50.2195 78.6434L52.4273 77.1187V76.1238L54.7494 76.2624L55.0422 79.7763Z" fill="#2F2E41"/>
<path d="M51.7323 76.987H50.2633L49.5645 71.3208L51.7325 71.3209L51.7323 76.987Z" fill="#9E616A"/>
<path d="M52.5227 79.7763H51.4803L51.2943 78.7922L50.8177 79.7763H48.0531C47.9206 79.7763 47.7916 79.7339 47.6848 79.6554C47.5781 79.5769 47.4992 79.4663 47.4598 79.3398C47.4204 79.2133 47.4224 79.0775 47.4656 78.9522C47.5088 78.8269 47.591 78.7187 47.7 78.6434L49.9077 77.1187V76.1238L52.2299 76.2624L52.5227 79.7763Z" fill="#2F2E41"/>
<path d="M48.2675 44.9417L55.6884 44.8271C55.6884 44.8271 58.1821 50.0827 57.1766 53.3295L54.2639 62.8638L51.8698 75.102L49.6676 74.4337L49.0507 73.5058L49.505 71.8509L49.3173 70.9245L48.589 62.4613V62.3468L48.2454 58.7971C46.6992 53.5132 47.1106 50.3242 48.2675 44.9417Z" fill="#2F2E41"/>
<path d="M53.4834 62.2954L54.8475 72.1784L54.5432 72.6526L54.8475 73.4322L54.4728 75.2796L52.3009 75.7013L50.2422 66.8668L53.4834 62.2954Z" fill="#2F2E41"/>
<path d="M48.467 43.407C48.4653 43.407 48.4636 43.4071 48.4618 43.4071C48.4004 43.4074 48.3406 43.3879 48.2911 43.3517C48.2416 43.3154 48.205 43.2642 48.1868 43.2056C47.8273 42.0698 47.4393 40.6753 47.6323 40.4823C47.7162 40.4102 47.8144 40.3566 47.9204 40.3249C48.1514 40.2373 48.3339 40.1681 48.191 39.7393C48.0887 39.4326 48.4086 39.0925 48.2475 38.8845C48.042 38.6192 48.0904 38.3651 48.2475 38.1975C48.3951 38.04 47.97 37.3096 48.2072 36.5608C48.2147 36.537 48.217 36.5118 48.2139 36.487C48.2108 36.4622 48.2023 36.4384 48.1891 36.4172C47.8914 35.9401 47.0238 34.8659 48.0814 33.8167C49.0529 32.8528 49.4684 30.9689 49.7454 30.831C49.785 30.8112 49.8154 30.7769 49.8305 30.7352L50.1971 29.7303C50.2175 29.6747 50.2545 29.6268 50.303 29.5928C50.3515 29.5589 50.4092 29.5406 50.4684 29.5405H53.3112C53.3545 29.5404 53.3973 29.5501 53.4364 29.5689C53.4754 29.5876 53.5097 29.615 53.5367 29.6489L54.8753 31.3221C54.892 31.3428 54.9056 31.3658 54.9159 31.3903C55.0931 31.8136 56.6247 35.5674 55.8532 37.0001L55.7116 37.2626C55.031 38.5231 54.7493 39.0448 55.0417 39.3372C55.3112 39.6066 55.1963 39.8062 55.1277 39.9255C55.1064 39.9625 55.0823 40.0043 55.0865 40.023C55.1655 40.3789 54.9652 40.4304 54.8691 40.4552C54.8625 40.4569 54.855 40.4588 54.848 40.4608C54.8719 40.4927 54.8984 40.5226 54.9272 40.55C54.9616 40.5783 54.9895 40.6134 55.0093 40.6533C55.0291 40.6931 55.0402 40.7366 55.0419 40.7811C55.0329 40.8306 55.0136 40.8777 54.9852 40.9192C54.9568 40.9607 54.9199 40.9958 54.877 41.0221C54.8328 41.0591 54.7827 41.1009 54.7817 41.1289C54.7811 41.1454 54.8004 41.1665 54.8119 41.1775C54.8615 41.2252 54.9294 41.2801 55.0012 41.3383C55.2093 41.5067 55.4451 41.6975 55.4547 41.8806C55.4564 41.9125 55.451 41.9443 55.439 41.9739C55.4269 42.0035 55.4086 42.0301 55.3853 42.0518L54.8502 42.5867C54.8116 42.6543 54.9884 43.0734 55.068 43.1676L55.1049 43.2112L55.0781 43.234C55.1015 43.2722 55.1153 43.3155 55.1184 43.3602C55.1214 43.405 55.1137 43.4497 55.0957 43.4908C55.0739 43.5374 55.039 43.5765 54.9953 43.6035C54.9515 43.6305 54.9009 43.6441 54.8495 43.6427L48.467 43.407Z" fill="#CCAB45"/>
<path d="M39.1451 35.6139C39.3639 35.839 39.6623 35.9691 39.9762 35.9762C40.29 35.9833 40.5941 35.8667 40.8228 35.6517C40.8732 35.604 40.9193 35.552 40.9605 35.4962L44.993 36.7184L44.3742 34.6402L40.6398 33.7981C40.3726 33.6304 40.0502 33.5745 39.7421 33.6426C39.4341 33.7107 39.1652 33.8972 38.9936 34.162C38.8504 34.3853 38.7874 34.6506 38.8149 34.9145C38.8424 35.1783 38.9589 35.425 39.1451 35.6139Z" fill="#9E616A"/>
<path d="M41.6768 36.0475L42.2715 34.0456L44.3219 34.0343L44.7443 34.5949L45.4256 34.3508L47.5905 34.9019L49.8777 31.2064C49.9926 31.0207 50.1471 30.8626 50.3301 30.7435C50.5131 30.6243 50.7201 30.547 50.9364 30.517C51.1527 30.487 51.373 30.5051 51.5815 30.57C51.79 30.6348 51.9817 30.7449 52.1428 30.8923C52.3928 31.1191 52.5577 31.4247 52.6098 31.7582C52.6619 32.0917 52.5982 32.433 52.4293 32.7253L49.2186 38.337L41.6768 36.0475Z" fill="#CCAB45"/>
<path d="M44.5943 45.1772C44.908 45.1879 45.2134 45.0748 45.4445 44.8624C45.6756 44.6499 45.814 44.3552 45.8298 44.0417C45.8331 43.9724 45.8303 43.9029 45.8214 43.8341L49.5753 41.9204L47.6889 40.8511L44.4133 42.8323C44.1044 42.8966 43.8332 43.0798 43.6584 43.3424C43.4835 43.6049 43.419 43.9258 43.4788 44.2356C43.5303 44.4958 43.6688 44.7307 43.8715 44.9019C44.0742 45.073 44.3291 45.1701 44.5943 45.1772Z" fill="#9E616A"/>
<path d="M46.7204 43.7352L45.7617 41.88L47.2319 40.4507L47.925 40.5621L48.2469 39.9139L50.1895 38.8107L49.2769 34.5616C49.2311 34.3481 49.2329 34.1271 49.2822 33.9144C49.3316 33.7016 49.4272 33.5024 49.5624 33.3309C49.6975 33.1593 49.8688 33.0197 50.0641 32.9219C50.2593 32.8242 50.4738 32.7707 50.6921 32.7653C51.0295 32.7554 51.3601 32.8615 51.6289 33.0658C51.8976 33.2701 52.0882 33.5603 52.169 33.8881L53.7439 40.1586L46.7204 43.7352Z" fill="#CCAB45"/>
<path d="M52.0314 29.008C53.5389 29.008 54.761 27.786 54.761 26.2784C54.761 24.7709 53.5389 23.5488 52.0314 23.5488C50.5238 23.5488 49.3018 24.7709 49.3018 26.2784C49.3018 27.786 50.5238 29.008 52.0314 29.008Z" fill="#9E616A"/>
<path d="M52.4436 22.9564L52.7748 23.0445L52.8873 23.0745L54.1476 23.4099C55.2646 23.7072 55.899 24.9671 55.5645 26.2238C56.1822 27.2945 55.647 28.2875 54.6743 29.251C53.4273 29.0799 52.1627 29.0814 50.9162 29.2555L50.9379 28.534L50.3861 29.3449C50.0711 29.4059 49.7551 29.48 49.4382 29.5675C50.1586 28.1487 50.6898 26.6832 50.7802 25.4591L50.2031 25.3054L50.3712 24.6739L50.0072 25.2533L48.9609 24.9748C49.0571 24.6136 49.2234 24.2749 49.4505 23.9779C49.6775 23.681 49.9609 23.4317 50.2843 23.2443C50.6077 23.0569 50.9648 22.935 51.3353 22.8856C51.7058 22.8362 52.0824 22.8602 52.4436 22.9564Z" fill="#2F2E41"/>
<path d="M54.7698 24.6436C55.4797 24.6436 56.0553 24.0681 56.0553 23.3582C56.0553 22.6483 55.4797 22.0728 54.7698 22.0728C54.0599 22.0728 53.4844 22.6483 53.4844 23.3582C53.4844 24.0681 54.0599 24.6436 54.7698 24.6436Z" fill="#2F2E41"/>
<path d="M68.0398 79.5201C68.9524 77.3823 69.596 75.0555 69.2914 72.7527C69.187 71.9719 68.9597 71.2125 68.6181 70.5027C68.3428 69.924 67.9874 69.387 67.5623 68.9076C67.4154 68.7385 67.2137 68.6263 66.9924 68.5907C66.7712 68.5552 66.5446 68.5984 66.352 68.7129C66.3222 68.7301 66.2924 68.7484 66.2649 68.7679C66.1159 68.8729 65.9983 69.0166 65.9249 69.1835C65.9107 69.2155 65.8988 69.2484 65.8894 69.282C65.8473 69.4226 65.836 69.5706 65.8562 69.716C66.0167 70.9011 65.9819 72.1045 65.7531 73.2783C65.6947 73.5772 65.6233 73.8734 65.539 74.1669C65.3495 73.9304 65.1481 73.7038 64.9355 73.4879C64.3843 72.9293 63.7487 72.461 63.0519 72.1H63.0507C63.0473 72.0978 63.045 72.0966 63.0416 72.0943C62.1965 71.6638 61.0697 71.8424 60.4113 72.1355C60.3678 72.1539 60.3266 72.1745 60.2865 72.1939C59.943 72.3703 59.7724 72.573 59.9189 72.7058C59.9522 72.7344 59.9854 72.7642 60.0163 72.794C61.0144 73.7167 61.8322 74.8172 62.4278 76.0391V76.0403C62.6645 76.5267 62.864 77.0305 63.0244 77.5472C63.2454 78.2606 63.4286 79.0518 63.8603 79.6335C63.9044 79.6947 63.9522 79.7532 64.0034 79.8087L67.86 79.7778C67.8692 79.7732 67.8772 79.7698 67.8864 79.7652L68.0398 79.7709C68.0341 79.7434 68.0272 79.716 68.0204 79.6885V79.6862C68.0169 79.6713 68.0123 79.6553 68.0089 79.6415C68.0055 79.6301 68.0032 79.6198 68.0009 79.6106C68.0078 79.5934 68.0146 79.5774 68.0226 79.5602C68.0284 79.5465 68.0341 79.5339 68.0398 79.5201Z" fill="#E6F2E6"/>
<path d="M68.0209 79.6864C68.0198 79.6949 68.0164 79.7031 68.0112 79.71C68.0059 79.7169 67.999 79.7223 67.9911 79.7257C67.9832 79.7292 67.9745 79.7305 67.9659 79.7297C67.9573 79.7288 67.949 79.7257 67.9419 79.7207C67.7835 79.6058 67.6096 79.5137 67.4255 79.447C67.4244 79.4459 67.4244 79.447 67.4244 79.447C67.192 79.3635 66.953 79.2999 66.7098 79.257C66.7075 79.257 66.7064 79.2558 66.7041 79.2558C66.6056 79.2364 66.5072 79.2192 66.4087 79.2009C65.93 79.1127 65.4434 79.0062 65.0289 78.7337C64.8602 78.6292 64.7155 78.4902 64.6044 78.3258C64.4933 78.1614 64.4182 77.9753 64.3842 77.7798C64.3235 77.3962 64.4002 77.0103 64.4323 76.6279C64.4346 76.6004 64.4369 76.5718 64.438 76.5443C64.4403 76.5088 64.4414 76.4744 64.4414 76.4401C64.4532 76.0929 64.3834 75.7477 64.2376 75.4324C64.0503 75.0549 63.8046 74.7094 63.5094 74.4087C63.3571 74.245 63.1983 74.0873 63.033 73.9358H63.0319C63.025 73.9289 63.0193 73.9232 63.0124 73.9175C63.0124 73.9163 63.0112 73.9152 63.0101 73.914C62.3035 73.2721 61.502 72.7429 60.6341 72.3453C60.6031 72.3315 60.5711 72.3167 60.539 72.3029C60.4554 72.2651 60.3718 72.2296 60.2871 72.1941C60.3272 72.1747 60.3684 72.1541 60.4119 72.1357C61.38 72.5452 62.2735 73.1125 63.0559 73.8144C63.0822 73.8373 63.1086 73.8614 63.1338 73.8854C63.3319 74.0686 63.5204 74.2606 63.6994 74.4614C63.9857 74.7697 64.2176 75.1244 64.3853 75.5103C64.5083 75.8226 64.5626 76.1576 64.5445 76.4928C64.5422 76.5569 64.5376 76.621 64.5319 76.6863C64.4964 77.0722 64.4174 77.4707 64.5056 77.8565C64.6063 78.2963 64.9476 78.6031 65.3438 78.7909C65.606 78.9079 65.8812 78.9932 66.1636 79.0451C66.7476 79.1677 67.3511 79.2272 67.8618 79.541H67.8629C67.8709 79.5467 67.879 79.5513 67.8858 79.5558C67.887 79.5558 67.887 79.5558 67.887 79.557C67.9239 79.5789 67.9594 79.603 67.9935 79.6291C67.9958 79.6303 67.998 79.6326 68.0003 79.6337C68.0036 79.6361 68.0067 79.6388 68.0095 79.6417C68.0148 79.6477 68.0186 79.6549 68.0206 79.6627C68.0226 79.6704 68.0227 79.6786 68.0209 79.6864Z" fill="white"/>
<path d="M63.104 73.9245C63.3121 73.6665 63.4217 73.3428 63.4132 73.0114C63.4047 72.68 63.2787 72.3625 63.0577 72.1154C63.0128 72.0656 62.9332 72.133 62.9782 72.1829C63.1844 72.4126 63.3018 72.7084 63.309 73.017C63.3163 73.3256 63.213 73.6267 63.0178 73.8658C62.9755 73.9178 63.0619 73.9762 63.104 73.9245Z" fill="white"/>
<path d="M64.4748 76.4364C63.8017 76.5146 63.1238 76.3363 62.5763 75.9369C62.5221 75.8973 62.4635 75.9835 62.5176 76.0231C63.0881 76.4376 63.794 76.6218 64.4942 76.5388C64.561 76.5308 64.5412 76.4285 64.4748 76.4364Z" fill="white"/>
<path d="M60.6403 72.3327C60.6381 72.3373 60.6358 72.3407 60.6335 72.3453C60.5704 72.4612 60.4823 72.5617 60.3755 72.6393C60.2687 72.717 60.146 72.7699 60.0163 72.7942C59.9854 72.7644 59.9522 72.7346 59.9189 72.706C59.9241 72.7027 59.93 72.7008 59.9361 72.7003C60.0608 72.6865 60.1805 72.6434 60.2852 72.5743C60.3899 72.5052 60.4767 72.4122 60.5384 72.3029C60.5442 72.2938 60.5499 72.2835 60.5545 72.2743C60.5583 72.2686 60.5632 72.2638 60.5689 72.26C60.5746 72.2562 60.581 72.2537 60.5877 72.2524C60.5944 72.2511 60.6013 72.2512 60.608 72.2526C60.6146 72.254 60.621 72.2567 60.6266 72.2606C60.6376 72.2686 60.6451 72.2805 60.6477 72.2939C60.6502 72.3073 60.6476 72.3212 60.6403 72.3327Z" fill="white"/>
<path d="M68.0398 79.5201C68.0403 79.5277 68.039 79.5352 68.036 79.5422C68.033 79.5491 68.0284 79.5553 68.0227 79.5602C68.0136 79.567 68.003 79.5713 67.9917 79.5728C67.9804 79.5752 67.9685 79.573 67.9587 79.5668C67.9489 79.5606 67.9418 79.5509 67.9391 79.5396C67.7811 79.0083 67.394 78.6006 67.0276 78.201C66.6978 77.8426 66.3738 77.4647 66.2077 76.9987C66.1358 76.8135 66.1039 76.6152 66.1142 76.4169C66.1244 76.2185 66.1766 76.0246 66.2673 75.8479C66.3243 75.7422 66.3906 75.6418 66.4654 75.5479C66.6291 75.3395 66.8238 75.154 66.999 74.957C67.0173 74.9364 67.0356 74.9146 67.0528 74.894C67.0768 74.8677 67.0986 74.8402 67.1192 74.8127C67.3376 74.5426 67.4894 74.2248 67.5623 73.8852C67.6405 73.471 67.6525 73.047 67.5978 72.6291C67.5749 72.4069 67.5433 72.1863 67.5028 71.9672C67.5005 71.9569 67.4994 71.9477 67.4971 71.9386C67.3203 70.9989 66.9989 70.0923 66.5444 69.2511C66.5272 69.2202 66.5112 69.1892 66.494 69.1595C66.4207 69.0266 66.3451 68.8961 66.265 68.7679C66.2925 68.7484 66.3222 68.7301 66.352 68.7129C66.6146 69.1381 66.8432 69.5834 67.0356 70.0446C67.2844 70.6364 67.4713 71.2522 67.5933 71.8825C67.6013 71.9168 67.607 71.9523 67.6127 71.9867C67.6608 72.2512 67.6963 72.5191 67.7181 72.7859C67.7611 73.2045 67.7324 73.6274 67.6333 74.0363C67.5435 74.3608 67.3845 74.662 67.1673 74.9192C67.1284 74.9684 67.0871 75.0165 67.0436 75.0635C66.8696 75.2536 66.6772 75.4379 66.5203 75.6452C66.4402 75.7493 66.3722 75.8623 66.3177 75.9818C66.1333 76.3941 66.2203 76.8452 66.4241 77.2323C66.7929 77.9365 67.4959 78.4163 67.8704 79.1067C67.9395 79.2339 67.9955 79.3678 68.0376 79.5064C68.0389 79.5109 68.0396 79.5155 68.0398 79.5201Z" fill="white"/>
<path d="M67.5657 71.9989C67.8872 71.9181 68.1695 71.7257 68.3623 71.456C68.555 71.1863 68.6456 70.8568 68.6179 70.5265C68.612 70.4597 68.5079 70.4656 68.5138 70.5325C68.5401 70.8401 68.4557 71.1469 68.2757 71.3977C68.0957 71.6485 67.832 71.8267 67.5322 71.9001C67.467 71.9162 67.5009 72.0148 67.5657 71.9989Z" fill="white"/>
<path d="M67.1484 74.8298C66.5639 74.487 66.13 73.9365 65.9333 73.288C65.9139 73.2237 65.8151 73.2573 65.8345 73.3215C66.0405 73.9959 66.4932 74.5679 67.1023 74.9233C67.1604 74.9571 67.2062 74.8634 67.1484 74.8298Z" fill="white"/>
<path d="M66.5572 69.2454C66.5526 69.2477 66.5492 69.2488 66.5446 69.2511C66.3384 69.3452 66.1038 69.3563 65.8896 69.282C65.8991 69.2484 65.9109 69.2155 65.9251 69.1835C66.1111 69.2473 66.3143 69.2387 66.4943 69.1595C66.5046 69.1561 66.5137 69.1515 66.524 69.1469C66.5371 69.1424 66.5514 69.1432 66.5638 69.1493C66.5763 69.1553 66.5858 69.1659 66.5904 69.1789C66.5942 69.1922 66.5929 69.2063 66.5867 69.2186C66.5806 69.2309 66.5701 69.2404 66.5572 69.2454Z" fill="white"/>
<path d="M71.5397 80H31.6924C31.6745 80 31.6567 79.9965 31.6401 79.9897C31.6235 79.9829 31.6084 79.9728 31.5957 79.9602C31.583 79.9475 31.573 79.9325 31.5661 79.9159C31.5592 79.8993 31.5557 79.8816 31.5557 79.8636C31.5557 79.8457 31.5592 79.8279 31.5661 79.8114C31.573 79.7948 31.583 79.7798 31.5957 79.7671C31.6084 79.7544 31.6235 79.7444 31.6401 79.7376C31.6567 79.7307 31.6745 79.7272 31.6924 79.7273H71.5397C71.5576 79.7272 71.5754 79.7307 71.592 79.7376C71.6086 79.7444 71.6236 79.7544 71.6363 79.7671C71.649 79.7798 71.6591 79.7948 71.666 79.8114C71.6729 79.8279 71.6764 79.8457 71.6764 79.8636C71.6764 79.8816 71.6729 79.8993 71.666 79.9159C71.6591 79.9325 71.649 79.9475 71.6363 79.9602C71.6236 79.9728 71.6086 79.9829 71.592 79.9897C71.5754 79.9965 71.5576 80 71.5397 80Z" fill="#CCCCCC"/>
</g>
<defs>
<clipPath id="clip0_2609_5030">
<rect width="71.3495" height="80" fill="white" transform="translate(0.326172)"/>
</clipPath>
</defs>
</svg>
