<svg width="106" height="80" viewBox="0 0 106 80" fill="none" xmlns="http://www.w3.org/2000/svg">
<g clip-path="url(#clip0_2609_15464)">
<path d="M86.4019 57.0164H2.31826C1.74428 57.0157 1.194 56.7874 0.788134 56.3816C0.382269 55.9757 0.153969 55.4254 0.15332 54.8515V3.00383C0.153788 2.58332 0.321037 2.18017 0.618373 1.88282C0.915709 1.58547 1.31885 1.41821 1.73936 1.41772H86.9533C87.3811 1.41821 87.7912 1.58836 88.0937 1.89085C88.3962 2.19334 88.5663 2.60346 88.5668 3.03124V54.8515C88.5662 55.4254 88.3379 55.9757 87.932 56.3816C87.5261 56.7874 86.9759 57.0157 86.4019 57.0164Z" fill="#F2F2F2"/>
<path d="M83.6833 54.2831H5.3196C4.17087 54.2831 3.23633 53.4079 3.23633 52.3322V7.18266C3.23633 6.3849 3.92885 5.73584 4.78008 5.73584H84.1973C85.0626 5.73584 85.7666 6.3956 85.7666 7.20649V52.3322C85.7666 53.4079 84.832 54.2831 83.6833 54.2831Z" fill="white"/>
<path d="M88.5368 3.27369H0.123047V2.17148C0.123879 1.59559 0.353111 1.04355 0.760453 0.636455C1.1678 0.229365 1.71998 0.000475781 2.29587 0H86.364C86.9399 0.000473356 87.492 0.229363 87.8994 0.636453C88.3067 1.04354 88.536 1.59559 88.5368 2.17148V3.27369Z" fill="#3F3D56"/>
<path d="M4.07179 2.20217C4.38218 2.20217 4.63381 1.95054 4.63381 1.64015C4.63381 1.32975 4.38218 1.07812 4.07179 1.07812C3.76139 1.07812 3.50977 1.32975 3.50977 1.64015C3.50977 1.95054 3.76139 2.20217 4.07179 2.20217Z" fill="white"/>
<path d="M6.20558 2.20217C6.51597 2.20217 6.7676 1.95054 6.7676 1.64015C6.7676 1.32975 6.51597 1.07812 6.20558 1.07812C5.89518 1.07812 5.64355 1.32975 5.64355 1.64015C5.64355 1.95054 5.89518 2.20217 6.20558 2.20217Z" fill="white"/>
<path d="M8.33839 2.20217C8.64879 2.20217 8.90041 1.95054 8.90041 1.64015C8.90041 1.32975 8.64879 1.07812 8.33839 1.07812C8.02799 1.07812 7.77637 1.32975 7.77637 1.64015C7.77637 1.95054 8.02799 2.20217 8.33839 2.20217Z" fill="white"/>
<path d="M25.3606 12.8276H11.5114C11.2357 12.8276 10.9627 12.8818 10.708 12.9873C10.4532 13.0928 10.2218 13.2474 10.0268 13.4424C9.83187 13.6373 9.67724 13.8688 9.57176 14.1235C9.46628 14.3782 9.41204 14.6513 9.41211 14.927V24.3517C9.41204 24.6274 9.46628 24.9004 9.57176 25.1552C9.67724 25.4099 9.83187 25.6414 10.0268 25.8363C10.2218 26.0313 10.4532 26.1859 10.708 26.2914C10.9627 26.3969 11.2357 26.4511 11.5114 26.451H25.3606C25.9173 26.451 26.4513 26.2298 26.8449 25.8361C27.2386 25.4424 27.4598 24.9085 27.4599 24.3517V14.927C27.4598 14.3702 27.2386 13.8363 26.845 13.4426C26.4513 13.0489 25.9173 12.8277 25.3606 12.8276Z" fill="#077D00"/>
<path d="M35.1289 14.9265V24.3523C35.1289 24.9091 35.3501 25.4431 35.7438 25.8368C36.1375 26.2305 36.6715 26.4517 37.2282 26.4517H51.077C51.6338 26.4517 52.1678 26.2305 52.5615 25.8368C52.9552 25.4431 53.1764 24.9091 53.1764 24.3523V14.9265C53.1764 14.3697 52.9552 13.8357 52.5615 13.442C52.1678 13.0483 51.6338 12.8271 51.077 12.8271H37.2282C36.6715 12.8271 36.1375 13.0483 35.7438 13.442C35.3501 13.8357 35.1289 14.3697 35.1289 14.9265Z" fill="#077D00"/>
<path d="M60.8457 14.9265V24.3523C60.8457 24.9091 61.0669 25.4431 61.4606 25.8368C61.8543 26.2305 62.3883 26.4517 62.945 26.4517H76.7938C77.3506 26.4517 77.8846 26.2305 78.2783 25.8368C78.672 25.4431 78.8932 24.9091 78.8932 24.3523V14.9265C78.8932 14.3697 78.672 13.8357 78.2783 13.442C77.8846 13.0483 77.3506 12.8271 76.7938 12.8271H62.945C62.3883 12.8271 61.8543 13.0483 61.4606 13.442C61.0669 13.8357 60.8457 14.3697 60.8457 14.9265Z" fill="#E6E6E6"/>
<path d="M9.41211 35.7888V45.2146C9.41211 45.7714 9.63329 46.3054 10.027 46.6991C10.4207 47.0928 10.9547 47.314 11.5114 47.314H25.3603C25.917 47.314 26.451 47.0928 26.8447 46.6991C27.2384 46.3054 27.4596 45.7714 27.4596 45.2146V35.7888C27.4596 35.232 27.2384 34.698 26.8447 34.3043C26.451 33.9106 25.917 33.6895 25.3603 33.6895H11.5114C10.9547 33.6895 10.4207 33.9106 10.027 34.3043C9.63329 34.698 9.41211 35.232 9.41211 35.7888Z" fill="#E6E6E6"/>
<path d="M35.1289 35.7888V45.2146C35.1289 45.7714 35.3501 46.3054 35.7438 46.6991C36.1375 47.0928 36.6715 47.314 37.2282 47.314H51.077C51.6338 47.314 52.1678 47.0928 52.5615 46.6991C52.9552 46.3054 53.1764 45.7714 53.1764 45.2146V35.7888C53.1764 35.232 52.9552 34.698 52.5615 34.3043C52.1678 33.9106 51.6338 33.6895 51.077 33.6895H37.2282C36.6715 33.6895 36.1375 33.9106 35.7438 34.3043C35.3501 34.698 35.1289 35.232 35.1289 35.7888Z" fill="#E6E6E6"/>
<path d="M60.8457 35.7888V45.2146C60.8457 45.7714 61.0669 46.3054 61.4606 46.6991C61.8543 47.0928 62.3883 47.314 62.945 47.314H76.7938C77.3506 47.314 77.8846 47.0928 78.2783 46.6991C78.672 46.3054 78.8932 45.7714 78.8932 45.2146V35.7888C78.8932 35.232 78.672 34.698 78.2783 34.3043C77.8846 33.9106 77.3506 33.6895 76.7938 33.6895H62.945C62.3883 33.6895 61.8543 33.9106 61.4606 34.3043C61.0669 34.698 60.8457 35.232 60.8457 35.7888Z" fill="#077D00"/>
<path d="M18.4364 22.5261C20.0306 22.5261 21.323 21.2337 21.323 19.6395C21.323 18.0453 20.0306 16.7529 18.4364 16.7529C16.8422 16.7529 15.5498 18.0453 15.5498 19.6395C15.5498 21.2337 16.8422 22.5261 18.4364 22.5261Z" fill="white"/>
<path d="M22.8469 26.7134H14.0244C14.2305 26.3157 14.4965 25.952 14.8129 25.6349C15.2145 25.2324 15.6917 24.9132 16.217 24.6957C16.7424 24.4782 17.3055 24.3666 17.8741 24.3674H18.9972C19.7925 24.3671 20.5725 24.5858 21.2516 24.9997C21.9307 25.4135 22.4826 26.0065 22.8469 26.7134Z" fill="white"/>
<path d="M44.1532 22.5261C45.7474 22.5261 47.0398 21.2337 47.0398 19.6395C47.0398 18.0453 45.7474 16.7529 44.1532 16.7529C42.559 16.7529 41.2666 18.0453 41.2666 19.6395C41.2666 21.2337 42.559 22.5261 44.1532 22.5261Z" fill="white"/>
<path d="M48.5636 26.7134H39.7412C39.9473 26.3157 40.2133 25.952 40.5297 25.6349C40.9313 25.2324 41.4085 24.9132 41.9338 24.6957C42.4592 24.4782 43.0223 24.3666 43.5909 24.3674H44.714C45.5093 24.3671 46.2893 24.5858 46.9684 24.9997C47.6475 25.4135 48.1994 26.0065 48.5636 26.7134Z" fill="white"/>
<path d="M69.87 22.5261C71.4642 22.5261 72.7566 21.2337 72.7566 19.6395C72.7566 18.0453 71.4642 16.7529 69.87 16.7529C68.2758 16.7529 66.9834 18.0453 66.9834 19.6395C66.9834 21.2337 68.2758 22.5261 69.87 22.5261Z" fill="white"/>
<path d="M74.2804 26.7134H65.458C65.6641 26.3157 65.9301 25.952 66.2465 25.6349C66.6481 25.2324 67.1253 24.9132 67.6506 24.6957C68.176 24.4782 68.7391 24.3666 69.3077 24.3674H70.4308C71.2261 24.3671 72.0061 24.5858 72.6852 24.9997C73.3643 25.4135 73.9162 26.0065 74.2804 26.7134Z" fill="white"/>
<path d="M18.4364 43.3882C20.0306 43.3882 21.323 42.0958 21.323 40.5016C21.323 38.9074 20.0306 37.615 18.4364 37.615C16.8422 37.615 15.5498 38.9074 15.5498 40.5016C15.5498 42.0958 16.8422 43.3882 18.4364 43.3882Z" fill="white"/>
<path d="M22.8469 47.5758H14.0244C14.2305 47.178 14.4965 46.8143 14.8129 46.4972C15.2145 46.0947 15.6917 45.7755 16.217 45.558C16.7424 45.3405 17.3055 45.2289 17.8741 45.2297H18.9972C19.7925 45.2294 20.5725 45.4481 21.2516 45.862C21.9307 46.2758 22.4826 46.8688 22.8469 47.5758Z" fill="white"/>
<path d="M44.1532 43.3882C45.7474 43.3882 47.0398 42.0958 47.0398 40.5016C47.0398 38.9074 45.7474 37.615 44.1532 37.615C42.559 37.615 41.2666 38.9074 41.2666 40.5016C41.2666 42.0958 42.559 43.3882 44.1532 43.3882Z" fill="white"/>
<path d="M48.5636 47.5758H39.7412C39.9473 47.178 40.2133 46.8143 40.5297 46.4972C40.9313 46.0947 41.4085 45.7755 41.9338 45.558C42.4592 45.3405 43.0223 45.2289 43.5909 45.2297H44.714C45.5093 45.2294 46.2893 45.4481 46.9684 45.862C47.6475 46.2758 48.1994 46.8688 48.5636 47.5758Z" fill="white"/>
<path d="M69.87 43.3882C71.4642 43.3882 72.7566 42.0958 72.7566 40.5016C72.7566 38.9074 71.4642 37.615 69.87 37.615C68.2758 37.615 66.9834 38.9074 66.9834 40.5016C66.9834 42.0958 68.2758 43.3882 69.87 43.3882Z" fill="white"/>
<path d="M74.2804 47.5758H65.458C65.6641 47.178 65.9301 46.8143 66.2465 46.4972C66.6481 46.0947 67.1253 45.7755 67.6506 45.558C68.176 45.3405 68.7391 45.2289 69.3077 45.2297H70.4308C71.2261 45.2294 72.0061 45.4481 72.6852 45.862C73.3643 46.2758 73.9162 46.8688 74.2804 47.5758Z" fill="white"/>
<path d="M105.747 80H71.5013C71.4665 80 71.4332 79.9861 71.4085 79.9615C71.3839 79.9369 71.3701 79.9036 71.3701 79.8688C71.3701 79.834 71.3839 79.8006 71.4085 79.776C71.4332 79.7514 71.4665 79.7375 71.5013 79.7375H105.747C105.782 79.7375 105.815 79.7514 105.84 79.776C105.864 79.8006 105.878 79.834 105.878 79.8688C105.878 79.9036 105.864 79.9369 105.84 79.9615C105.815 79.9861 105.782 80 105.747 80Z" fill="#3F3D56"/>
<path d="M88.1268 78.4L86.5183 78.3999L85.7529 72.1953L88.127 72.1954L88.1268 78.4Z" fill="#A0616A"/>
<path d="M85.3693 77.9404H88.4716V79.8937H83.416C83.416 79.6372 83.4665 79.3832 83.5647 79.1462C83.6629 78.9092 83.8067 78.6939 83.9881 78.5125C84.1695 78.3312 84.3848 78.1873 84.6218 78.0891C84.8588 77.991 85.1128 77.9404 85.3693 77.9404Z" fill="#2F2E41"/>
<path d="M94.1629 78.4L92.5544 78.3999L91.7891 72.1953L94.1632 72.1954L94.1629 78.4Z" fill="#A0616A"/>
<path d="M91.4045 77.9404H94.5067V79.8937H89.4512C89.4512 79.6372 89.5017 79.3832 89.5999 79.1462C89.698 78.9092 89.8419 78.6939 90.0233 78.5125C90.2047 78.3312 90.42 78.1873 90.657 78.0891C90.8939 77.991 91.1479 77.9404 91.4045 77.9404Z" fill="#2F2E41"/>
<path d="M93.9665 59.9209C93.7932 59.8095 93.6464 59.6613 93.5366 59.487C93.4267 59.3127 93.3564 59.1164 93.3306 58.9119C93.3048 58.7075 93.3241 58.4999 93.3872 58.3037C93.4504 58.1076 93.5557 57.9276 93.6959 57.7766L92.6367 42.7456L95.6877 43.0415L95.7715 57.7614C96.0096 58.0137 96.1469 58.3446 96.1574 58.6914C96.1678 59.0381 96.0507 59.3767 95.8282 59.6429C95.6057 59.9091 95.2933 60.0844 94.9502 60.1357C94.6071 60.1869 94.257 60.1105 93.9665 59.9209Z" fill="#A0616A"/>
<path d="M88.0512 75.2743L86.2804 75.1899C86.1295 75.1828 85.9871 75.1181 85.8825 75.0091C85.7779 74.9002 85.7191 74.7553 85.718 74.6043C85.2512 67.3985 84.6046 59.6718 85.5944 56.6869C85.5938 56.6019 85.6116 56.5177 85.6466 56.4401C85.6816 56.3626 85.7328 56.2935 85.797 56.2376C85.8611 56.1818 85.9365 56.1404 86.0181 56.1164C86.0997 56.0923 86.1855 56.0862 86.2697 56.0984L93.3541 57.1268C93.4941 57.1464 93.6223 57.2158 93.7152 57.3224C93.8081 57.4289 93.8594 57.5654 93.8597 57.7067C94.7642 61.241 94.8051 67.65 94.7709 74.3091C94.7715 74.387 94.7566 74.4643 94.7272 74.5364C94.6978 74.6086 94.6544 74.6742 94.5995 74.7295C94.5447 74.7848 94.4794 74.8287 94.4074 74.8586C94.3355 74.8886 94.2584 74.904 94.1805 74.904H92.2714C92.1305 74.9046 91.9942 74.8546 91.8871 74.763C91.7801 74.6715 91.7094 74.5446 91.6881 74.4053L90.5102 66.9176C90.493 66.808 90.4367 66.7084 90.3518 66.6371C90.2669 66.5658 90.159 66.5277 90.0481 66.5297C89.9372 66.5318 89.8308 66.5739 89.7486 66.6483C89.6663 66.7226 89.6137 66.8243 89.6006 66.9344L88.6656 74.7548C88.6479 74.898 88.5787 75.0299 88.4707 75.1257C88.3628 75.2215 88.2236 75.2746 88.0792 75.2751C88.0699 75.2751 88.0606 75.2749 88.0512 75.2743Z" fill="#2F2E41"/>
<path d="M89.2972 57.7075C87.7359 56.84 86.516 56.6121 85.9278 56.5534C85.8496 56.5459 85.7738 56.5225 85.7049 56.4848C85.6361 56.4471 85.5756 56.3957 85.5271 56.3339C85.4776 56.2717 85.4413 56.2 85.4203 56.1233C85.3993 56.0466 85.3941 55.9664 85.405 55.8876L87.1025 43.2849C87.2002 42.5476 87.485 41.8476 87.9297 41.2515C88.3744 40.6553 88.9643 40.1829 89.6431 39.8791C90.3003 39.5771 91.0238 39.4481 91.7448 39.5047C92.4659 39.5612 93.1605 39.8013 93.7625 40.202C93.8207 40.2407 93.8778 40.2802 93.9338 40.3206C94.6271 40.8286 95.1545 41.5304 95.4496 42.3377C95.7446 43.145 95.7941 44.0215 95.5918 44.8569C94.5508 49.1153 94.1933 56.0965 94.1321 57.4528C94.1273 57.5684 94.0884 57.68 94.0203 57.7735C93.9521 57.867 93.8578 57.9383 93.7493 57.9783C93.1088 58.211 92.4329 58.3313 91.7515 58.334C90.8932 58.3392 90.048 58.1234 89.2972 57.7075Z" fill="#CCAB45"/>
<path d="M93.3273 47.796C93.2559 47.7446 93.1969 47.6779 93.1547 47.6006C93.1125 47.5234 93.0881 47.4377 93.0834 47.3498L92.8599 43.2986C92.8378 42.8972 92.965 42.5019 93.2171 42.1888C93.4692 41.8757 93.8283 41.667 94.2252 41.603C94.622 41.539 95.0285 41.6242 95.3663 41.8422C95.704 42.0601 95.9491 42.3954 96.0543 42.7834L97.0364 46.4054C97.0772 46.5565 97.0564 46.7176 96.9785 46.8534C96.9006 46.9892 96.7721 47.0886 96.621 47.1297L93.8275 47.8871C93.7426 47.9103 93.6536 47.9142 93.5671 47.8984C93.4805 47.8826 93.3986 47.8477 93.3273 47.796Z" fill="#CCAB45"/>
<path d="M90.7177 38.1679C92.4975 38.1679 93.9404 36.7251 93.9404 34.9453C93.9404 33.1655 92.4975 31.7227 90.7177 31.7227C88.9379 31.7227 87.4951 33.1655 87.4951 34.9453C87.4951 36.7251 88.9379 38.1679 90.7177 38.1679Z" fill="#A0616A"/>
<path d="M79.0391 41.2766C79.0553 41.3474 79.0658 41.4194 79.0705 41.4918L84.7069 44.7434L86.0769 43.9548L87.5374 45.8668L84.6066 47.9557L78.1763 42.8828C77.9141 42.9798 77.6285 42.9948 77.3576 42.9255C77.0866 42.8563 76.8432 42.7063 76.6596 42.4953C76.476 42.2844 76.361 42.0225 76.3299 41.7446C76.2987 41.4667 76.3529 41.1859 76.4852 40.9396C76.6176 40.6932 76.8218 40.493 77.0707 40.3655C77.3196 40.238 77.6014 40.1894 77.8786 40.226C78.1559 40.2625 78.4154 40.3827 78.6227 40.5704C78.83 40.758 78.9753 41.0044 79.0391 41.2766Z" fill="#A0616A"/>
<path d="M84.9086 44.4671C84.8992 44.3796 84.9096 44.2911 84.939 44.2081C84.9683 44.1252 85.016 44.0498 85.0783 43.9877L87.947 41.1184C88.2312 40.8341 88.6106 40.6652 89.012 40.6441C89.4135 40.623 89.8085 40.7513 90.1209 41.0042C90.4334 41.2571 90.6411 41.6168 90.7041 42.0138C90.7671 42.4108 90.6808 42.8171 90.462 43.1543L88.4191 46.3022C88.3337 46.4335 88.1998 46.5255 88.0467 46.5581C87.8936 46.5906 87.7338 46.5612 87.6024 46.4761L85.1744 44.9005C85.1005 44.8527 85.0383 44.789 84.9923 44.714C84.9463 44.639 84.9177 44.5546 84.9086 44.4671Z" fill="#CCAB45"/>
<path d="M92.9983 37.495C92.3971 38.1354 91.2806 37.7916 91.2023 36.9167C91.1962 36.8488 91.1966 36.7804 91.2036 36.7126C91.2441 36.3251 91.468 35.9732 91.4143 35.564C91.4022 35.4622 91.3643 35.3652 91.3041 35.2821C90.825 34.6406 89.7004 35.569 89.2483 34.9883C88.9711 34.6322 89.297 34.0715 89.0842 33.6735C88.8034 33.1482 87.9717 33.4073 87.4501 33.1196C86.8698 32.7996 86.9046 31.9092 87.2866 31.3677C87.7524 30.7072 88.5692 30.3548 89.3758 30.304C90.1825 30.2532 90.9835 30.4713 91.7366 30.7647C92.5922 31.0982 93.4407 31.559 93.9672 32.3114C94.6075 33.2263 94.6692 34.4564 94.3489 35.5262C94.1541 36.177 93.4893 36.972 92.9983 37.495Z" fill="#2F2E41"/>
</g>
<defs>
<clipPath id="clip0_2609_15464">
<rect width="105.755" height="80" fill="white" transform="translate(0.123047)"/>
</clipPath>
</defs>
</svg>
